<svg id="Layer_1" data-name="Layer 1" xmlns="http://www.w3.org/2000/svg" viewBox="0 0 17 17"><defs><style>.cls-1{fill:#fff;}.cls-2{fill:#37bb91;}.cls-3{fill-opacity:0;stroke:#37bb91;stroke-width:0.5px;}</style></defs><title>arrow-new</title><path id="path-1" class="cls-1" d="M8.5,0A8.5,8.5,0,1,0,17,8.5,8.49,8.49,0,0,0,8.5,0Z"/><path id="path-1-2" data-name="path-1" class="cls-1" d="M8.5,0A8.5,8.5,0,1,0,17,8.5,8.49,8.49,0,0,0,8.5,0Z"/><path id="path-3" class="cls-2" d="M8.4,9.9c-.07.07-.13.15-.21.15S8,10,8,9.89L6.86,8.77a.49.49,0,0,0-.71,0,.49.49,0,0,0,0,.71s.75.76,1.12,1.08.46.43.92.43a1.36,1.36,0,0,0,.93-.53c.23-.2,2.73-2.61,2.73-2.61a.5.5,0,0,0-.71-.71Z"/><path id="path-3-2" data-name="path-3" class="cls-3" d="M8.4,9.9c-.07.07-.13.15-.21.15S8,10,8,9.89L6.86,8.77a.49.49,0,0,0-.71,0,.49.49,0,0,0,0,.71s.75.76,1.12,1.08.46.43.92.43a1.36,1.36,0,0,0,.93-.53c.23-.2,2.73-2.61,2.73-2.61a.5.5,0,0,0-.71-.71Z"/></svg>