<svg id="Layer_1" data-name="Layer 1" xmlns="http://www.w3.org/2000/svg" viewBox="0 0 21.79 12.61"><defs><style>.cls-1{fill:#37bb91;}.cls-2{fill-opacity:0;stroke:#37bb91;stroke-width:2px;}</style></defs><title>arrow-down</title><path id="path-1" class="cls-1" d="M1,1.64A.68.68,0,0,1,1,1.4a.64.64,0,0,1,.15-.22A.68.68,0,0,1,1.66,1a.68.68,0,0,1,.47.18L11,10l8.69-8.69a.66.66,0,0,1,1.13.47.64.64,0,0,1-.2.47l-9.16,9.16a.66.66,0,0,1-.94,0L1.2,2.13A.64.64,0,0,1,1,1.91.73.73,0,0,1,1,1.64Z"/><path id="path-1-2" data-name="path-1" class="cls-2" d="M1,1.64A.68.68,0,0,1,1,1.4a.64.64,0,0,1,.15-.22A.68.68,0,0,1,1.66,1a.68.68,0,0,1,.47.18L11,10l8.69-8.69a.66.66,0,0,1,1.13.47.64.64,0,0,1-.2.47l-9.16,9.16a.66.66,0,0,1-.94,0L1.2,2.13A.64.64,0,0,1,1,1.91.73.73,0,0,1,1,1.64Z"/></svg>