<svg xmlns="http://www.w3.org/2000/svg" width="375.61" height="118.506" viewBox="0 0 375.61 118.506">
  <g id="Group_7" data-name="Group 7" opacity="0.562">
    <g id="Group_6" data-name="Group 6">
      <g id="ILustIZQUIERDA" opacity="0.4">
        <path id="Shape" d="M1.586,2.841q.059,24.494,2.3,48.871c8.365,0,16.689-.156,25.054-.428A199.7,199.7,0,0,1,22.993,4.59c0-1.127-.119-2.449-1.07-3.11a3.693,3.693,0,0,0-1.308-.428A63.25,63.25,0,0,0,0,.664" transform="translate(147.049 64.088)" fill="#fff"/>
        <path id="Shape-2" data-name="Shape" d="M18.728,4.538c0-1.118-.116-2.43-1.043-3.085a3.553,3.553,0,0,0-1.274-.424A61.6,61.6,0,0,0,0,.219C.077,2.842.116,5.425.154,8.048A4.627,4.627,0,0,1,3.746,9.282c4.6-1.273,10.7-.656,15.1-.347C18.805,7.469,18.728,6,18.728,4.538Z" transform="translate(157.817 51.492)" fill="#fff"/>
        <path id="Shape-3" data-name="Shape" d="M0,1.155Q.35,28.176,1.592,55.2c.078,1.54,2.484,1.54,2.446,0Q2.815,28.176,2.446,1.155C2.407-.385-.038-.385,0,1.155Z" transform="translate(151.76 59.448)" fill="#2b386b"/>
        <path id="Shape-4" data-name="Shape" d="M1.174,2.543q15.671.322,31.3-.286a1.129,1.129,0,1,0,0-2.256Q16.805.591,1.174.287a1.129,1.129,0,1,0,0,2.256Z" transform="translate(151.76 59.448)" fill="#2b386b"/>
        <path id="Shape-5" data-name="Shape" d="M0,1.177C.55,10.05.477,19,.623,27.912c.146,9.106.292,18.172.439,27.278a1.152,1.152,0,1,0,2.3,0c-.146-9.106-.292-18.172-.439-27.278C2.78,19,2.853,10.089,2.3,1.177,2.2-.373-.071-.412,0,1.177Z" transform="translate(184.064 60.111)" fill="#2b386b"/>
        <path id="Shape-6" data-name="Shape" d="M0,1.217V7.431c0,1.583,2.692,1.583,2.692,0V1.217C2.692-.406,0-.406,0,1.217Z" transform="translate(158.49 67.403)" fill="#2b386b"/>
        <path id="Shape-7" data-name="Shape" d="M.17.924A12.778,12.778,0,0,0,.46,6.418a1.143,1.143,0,1,0,2.176-.687,10.732,10.732,0,0,1-.29-4.16C2.6,0,.387-.692.17.924Z" transform="translate(159.163 80.663)" fill="#2b386b"/>
        <path id="Shape-8" data-name="Shape" d="M0,1.129V5.515C0,7,2.692,7,2.692,5.515V1.129C2.692-.358,0-.395,0,1.129Z" transform="translate(159.836 92.596)" fill="#2b386b"/>
        <path id="Shape-9" data-name="Shape" d="M0,1.205V5.424c0,1.607,2.692,1.607,2.692,0V1.205C2.649-.4,0-.4,0,1.205Z" transform="translate(159.836 103.867)" fill="#2b386b"/>
        <path id="Shape-10" data-name="Shape" d="M.057,1.524a14.761,14.761,0,0,1,.6,5.262c-.085,1.559,2.553,1.559,2.68,0A16.569,16.569,0,0,0,2.61.861C2.142-.659-.411,0,.057,1.524Z" transform="translate(164.547 68.066)" fill="#2b386b"/>
        <path id="Shape-11" data-name="Shape" d="M0,1.178V4.789c0,1.57,2.692,1.57,2.692,0V1.178C2.649-.393,0-.393,0,1.178Z" transform="translate(165.22 81.989)" fill="#2b386b"/>
        <path id="Shape-12" data-name="Shape" d="M0,1.205V5.424c0,1.607,2.692,1.607,2.692,0V1.205C2.649-.4,0-.4,0,1.205Z" transform="translate(165.893 93.922)" fill="#2b386b"/>
        <path id="Shape-13" data-name="Shape" d="M.065,1.615A6.42,6.42,0,0,1,.631,5.091a1.254,1.254,0,0,0,.957,1.5c.652.158,1.566-.2,1.653-.869A8.359,8.359,0,0,0,2.675.9,1.433,1.433,0,0,0,1.022.035C.37.272-.2,1.022.065,1.615Z" transform="translate(166.566 105.856)" fill="#2b386b"/>
        <path id="Shape-14" data-name="Shape" d="M.057,1.524a14.761,14.761,0,0,1,.6,5.262c-.085,1.559,2.553,1.559,2.68,0A16.569,16.569,0,0,0,2.61.861C2.142-.659-.411,0,.057,1.524Z" transform="translate(170.604 68.066)" fill="#2b386b"/>
        <path id="Shape-15" data-name="Shape" d="M0,1.178V4.789c0,1.57,2.692,1.57,2.692,0V1.178C2.649-.393,0-.393,0,1.178Z" transform="translate(171.277 81.989)" fill="#2b386b"/>
        <path id="Shape-16" data-name="Shape" d="M0,1.205V5.424c0,1.607,2.692,1.607,2.692,0V1.205C2.649-.4,0-.4,0,1.205Z" transform="translate(171.95 93.922)" fill="#2b386b"/>
        <path id="Shape-17" data-name="Shape" d="M.065,1.615A6.42,6.42,0,0,1,.631,5.091a1.254,1.254,0,0,0,.957,1.5c.652.158,1.566-.2,1.653-.869A8.359,8.359,0,0,0,2.675.9,1.433,1.433,0,0,0,1.022.035C.37.272-.2,1.022.065,1.615Z" transform="translate(171.95 105.856)" fill="#2b386b"/>
        <path id="Shape-18" data-name="Shape" d="M.057,1.524a14.761,14.761,0,0,1,.6,5.262c-.085,1.559,2.553,1.559,2.68,0A16.569,16.569,0,0,0,2.61.861C2.142-.659-.411,0,.057,1.524Z" transform="translate(176.661 68.066)" fill="#2b386b"/>
        <path id="Shape-19" data-name="Shape" d="M0,1.178V4.789c0,1.57,2.692,1.57,2.692,0V1.178C2.649-.393,0-.393,0,1.178Z" transform="translate(177.334 81.989)" fill="#2b386b"/>
        <path id="Shape-20" data-name="Shape" d="M0,1.205V5.424c0,1.607,2.692,1.607,2.692,0V1.205C2.649-.4,0-.4,0,1.205Z" transform="translate(177.334 93.922)" fill="#2b386b"/>
        <path id="Shape-21" data-name="Shape" d="M.065,1.615A6.42,6.42,0,0,1,.631,5.091a1.254,1.254,0,0,0,.957,1.5c.652.158,1.566-.2,1.653-.869A8.359,8.359,0,0,0,2.675.9,1.433,1.433,0,0,0,1.022.035C.37.272-.2,1.022.065,1.615Z" transform="translate(178.007 105.856)" fill="#2b386b"/>
        <path id="Shape-22" data-name="Shape" d="M.045,1.152A54.17,54.17,0,0,1,.007,11.444c-.154,1.536,2.267,1.536,2.421,0A54.194,54.194,0,0,0,2.466,1.152C2.312-.384-.108-.384.045,1.152Z" transform="translate(167.912 48.177)" fill="#2b386b"/>
        <path id="Shape-23" data-name="Shape" d="M1.181,2.61c10.429.249,20.859.456,31.288.7,1.574.041,1.574-2.568,0-2.61C22.04.456,11.61.249,1.181,0c-1.574-.041-1.574,2.568,0,2.61Z" transform="translate(167.912 48.177)" fill="#2b386b"/>
        <path id="Shape-24" data-name="Shape" d="M1.469,1.16,0,64.475c-.041,1.546,2.529,1.546,2.569,0L4.038,1.16a1.291,1.291,0,0,0-2.569,0Z" transform="translate(197.524 48.84)" fill="#2b386b"/>
        <path id="Shape-25" data-name="Shape" d="M0,1.134C.077,3.706.193,6.239.27,8.81c.038,1.512,2.46,1.512,2.422,0-.077-2.571-.192-5.1-.269-7.676C2.346-.378-.038-.378,0,1.134Z" transform="translate(180.699 34.255)" fill="#2b386b"/>
        <path id="Shape-26" data-name="Shape" d="M1.252,2.652H6.181A1.33,1.33,0,0,0,6.181,0H1.252a1.328,1.328,0,0,0,0,2.652Z" transform="translate(180.699 38.895)" fill="#2b386b"/>
        <path id="Shape-27" data-name="Shape" d="M0,1.187V9.42C0,11,2.692,11,2.692,9.42V1.187C2.649-.4,0-.4,0,1.187Z" transform="translate(185.41 34.255)" fill="#2b386b"/>
        <path id="Shape-28" data-name="Shape" d="M.2.931A7.023,7.023,0,0,0,.079,3.675a1.248,1.248,0,0,0,1.529.915,1.355,1.355,0,0,0,.885-1.58c.04.166,0-.25,0-.25V2.3c0-.208,0,0,.04-.25.04-.166.08-.291.121-.416A1.279,1.279,0,0,0,1.769.057,1.233,1.233,0,0,0,.2.931Z" transform="translate(175.315 52.818)" fill="#2b386b"/>
        <path id="Shape-29" data-name="Shape" d="M0,1.164v1.65A1.271,1.271,0,0,0,1.346,3.976,1.3,1.3,0,0,0,2.692,2.814V1.164A1.271,1.271,0,0,0,1.346,0,1.3,1.3,0,0,0,0,1.164Z" transform="translate(182.045 52.818)" fill="#2b386b"/>
        <path id="Shape-30" data-name="Shape" d="M0,1.23V3.411a1.3,1.3,0,0,0,1.346,1.23,1.3,1.3,0,0,0,1.346-1.23V1.23A1.3,1.3,0,0,0,1.346,0,1.327,1.327,0,0,0,0,1.23Z" transform="translate(188.775 52.818)" fill="#2b386b"/>
        <path id="Shape-31" data-name="Shape" d="M0,1.1l.234,4.42C.315,7,2.768,7,2.69,5.525L2.457,1.1C2.34-.368-.113-.368,0,1.1Z" transform="translate(190.121 63.425)" fill="#2b386b"/>
        <path id="Shape-32" data-name="Shape" d="M.145,1.171a10.269,10.269,0,0,1-.12,2.708A1.145,1.145,0,0,0,.9,5.269a1.258,1.258,0,0,0,1.518-.805,11.617,11.617,0,0,0,.24-3.33A1.2,1.2,0,0,0,1.423,0,1.261,1.261,0,0,0,.145,1.171Z" transform="translate(190.121 74.033)" fill="#2b386b"/>
        <path id="Shape-33" data-name="Shape" d="M0,1.126V4.841c0,1.5,2.692,1.5,2.692,0V1.126c0-1.5-2.692-1.5-2.692,0Z" transform="translate(190.121 83.315)" fill="#2b386b"/>
        <path id="Shape-34" data-name="Shape" d="M0,1.193V4.8c0,1.552,2.692,1.552,2.692,0V1.193C2.649-.4,0-.4,0,1.193Z" transform="translate(190.121 92.596)" fill="#2b386b"/>
        <path id="Shape-35" data-name="Shape" d="M.058,1.107A11.541,11.541,0,0,0,.221,4.459a1.314,1.314,0,0,0,1.555.81,1.186,1.186,0,0,0,.9-1.4,8.717,8.717,0,0,1-.041-2.726C2.718.518,2.022,0,1.367,0A1.2,1.2,0,0,0,.058,1.107Z" transform="translate(190.794 102.541)" fill="#2b386b"/>
        <path id="Shape-36" data-name="Shape" d="M1.446,0h-.2A1.293,1.293,0,0,0,0,1.326,1.321,1.321,0,0,0,1.246,2.652h.2A1.293,1.293,0,0,0,2.69,1.326,1.352,1.352,0,0,0,1.446,0Z" transform="translate(190.794 111.16)" fill="#2b386b"/>
        <path id="Shape-37" data-name="Shape" d="M0,1.171C.22,4.139.435,7.107.65,10.114c.129,1.542,2.8,1.542,2.713,0-.215-2.968-.431-5.936-.646-8.943C2.588-.371-.125-.41,0,1.171Z" transform="translate(245.307 102.541)" fill="#2b386b"/>
        <path id="Shape-38" data-name="Shape" d="M2.139,8.9A96.923,96.923,0,0,1,9.69,1.985C10.9.991,9.125-.69,7.913.3A97.165,97.165,0,0,0,.362,7.221C-.769,8.33,1.008,10.05,2.139,8.9Z" transform="translate(244.634 95.248)" fill="#2b386b"/>
        <path id="Shape-39" data-name="Shape" d="M1.009,2.652C2.355,2.652,2.355,0,1.009,0s-1.346,2.652,0,2.652Z" transform="translate(252.71 94.585)" fill="#2b386b"/>
        <path id="Shape-40" data-name="Shape" d="M.412,1.972c2.414,1.994,4.712,4.1,6.932,6.287,1.09,1.112,2.843-.613,1.713-1.687C6.837,4.387,4.54,2.279,2.125.285.918-.673-.8,1.014.412,1.972Z" transform="translate(253.383 94.585)" fill="#2b386b"/>
        <path id="Shape-41" data-name="Shape" d="M.016,1.546a91.765,91.765,0,0,1,.867,9.867,1.242,1.242,0,0,0,2.482,0A93.63,93.63,0,0,0,2.419.914C2.183-.664-.22-.033.016,1.546Z" transform="translate(261.459 101.878)" fill="#2b386b"/>
        <path id="Shape-42" data-name="Shape" d="M0,1.2C.082,2.4.16,3.6.238,4.765c.117,1.6,2.53,1.6,2.453,0-.078-1.2-.156-2.4-.234-3.564C2.34-.4-.113-.4,0,1.2Z" transform="translate(246.653 96.574)" fill="#2b386b"/>
        <path id="Shape-43" data-name="Shape" d="M0,1.188C.147,3.066.29,4.944.433,6.782c.107,1.565,2.362,1.565,2.255,0C2.545,4.9,2.4,3.027,2.259,1.188,2.116-.376-.1-.416,0,1.188Z" transform="translate(253.383 105.856)" fill="#2b386b"/>
        <path id="Shape-44" data-name="Shape" d="M0,1.171C.22,4.139.435,7.107.65,10.114c.129,1.542,2.8,1.542,2.713,0-.215-2.968-.431-5.936-.646-8.943C2.588-.371-.125-.41,0,1.171Z" transform="translate(90.905 102.541)" fill="#2b386b"/>
        <path id="Shape-45" data-name="Shape" d="M2.139,8.9A96.923,96.923,0,0,1,9.69,1.985C10.9.991,9.125-.69,7.913.3A97.165,97.165,0,0,0,.362,7.221C-.769,8.33,1.008,10.05,2.139,8.9Z" transform="translate(90.232 95.248)" fill="#2b386b"/>
        <path id="Shape-46" data-name="Shape" d="M1.009,2.652C2.355,2.652,2.355,0,1.009,0s-1.346,2.652,0,2.652Z" transform="translate(98.308 94.585)" fill="#2b386b"/>
        <path id="Shape-47" data-name="Shape" d="M.412,1.972c2.414,1.994,4.712,4.1,6.932,6.287,1.09,1.112,2.843-.613,1.713-1.687C6.837,4.387,4.54,2.279,2.125.285.918-.673-.8,1.014.412,1.972Z" transform="translate(98.981 94.585)" fill="#2b386b"/>
        <path id="Shape-48" data-name="Shape" d="M.016,1.546a91.765,91.765,0,0,1,.867,9.867,1.242,1.242,0,0,0,2.482,0A93.63,93.63,0,0,0,2.419.914C2.183-.664-.22-.033.016,1.546Z" transform="translate(107.057 101.878)" fill="#2b386b"/>
        <path id="Shape-49" data-name="Shape" d="M0,1.2C.082,2.4.16,3.6.238,4.765c.117,1.6,2.53,1.6,2.453,0-.078-1.2-.156-2.4-.234-3.564C2.34-.4-.113-.4,0,1.2Z" transform="translate(92.251 96.574)" fill="#2b386b"/>
        <path id="Shape-50" data-name="Shape" d="M0,1.188C.147,3.066.29,4.944.433,6.782c.107,1.565,2.362,1.565,2.255,0C2.545,4.9,2.4,3.027,2.259,1.188,2.116-.376-.1-.416,0,1.188Z" transform="translate(98.981 105.856)" fill="#2b386b"/>
        <path id="Shape-51" data-name="Shape" d="M0,1.171C.22,4.139.435,7.107.65,10.114c.129,1.542,2.8,1.542,2.713,0-.215-2.968-.431-5.936-.646-8.943C2.588-.371-.125-.41,0,1.171Z" transform="translate(107.081 102.541)" fill="#2b386b"/>
        <path id="Shape-52" data-name="Shape" d="M0,1.922C.147,4.96.29,8,.433,10.972c.107,2.531,2.362,2.531,2.255,0C2.545,7.934,2.4,4.9,2.259,1.922,2.116-.609-.1-.672,0,1.922Z" transform="translate(67.365 100.941)" fill="#2b386b"/>
        <path id="Shape-53" data-name="Shape" d="M0,1.922C.147,4.96.29,8,.433,10.972c.107,2.531,2.362,2.531,2.255,0C2.545,7.934,2.4,4.9,2.259,1.922,2.116-.609-.1-.672,0,1.922Z" transform="translate(73.983 100.941)" fill="#2b386b"/>
        <path id="Shape-54" data-name="Shape" d="M0,1.087C.147,2.8.29,4.522.434,6.2c.107,1.431,2.367,1.431,2.26,0-.143-1.718-.287-3.435-.43-5.117C2.12-.344-.1-.38,0,1.087Z" transform="translate(67.643 102.898) rotate(-87)" fill="#2b386b"/>
        <path id="Shape-55" data-name="Shape" d="M1.164,3.307a74.478,74.478,0,0,1,13.3-.756c4.109.278,8.139.994,12.248.119,1.526-.358.9-2.744-.665-2.386C21.943,1.2,17.834.245,13.686.046a73.787,73.787,0,0,0-12.561.8C-.362,1-.4,3.467,1.164,3.307Z" transform="translate(198.87 95.248)" fill="#2b386b"/>
        <path id="Shape-56" data-name="Shape" d="M.423,2.29a5.243,5.243,0,0,0,6.638-.327C8.154.873,6.373-.725,5.28.364A2.456,2.456,0,0,1,2.2.691C.989-.217-.832,1.382.423,2.29Z" transform="translate(198.87 101.215)" fill="#2b386b"/>
        <path id="Shape-57" data-name="Shape" d="M.162,1.872a4.079,4.079,0,0,0,7.048.159C8.061.681,5.873-.59,5.023.76A1.5,1.5,0,0,1,2.349.6C1.579-.789-.608.482.162,1.872Z" transform="translate(203.581 101.878)" fill="#2b386b"/>
        <path id="Shape-58" data-name="Shape" d="M.513,2.453A6.229,6.229,0,0,0,4.591,3.968a4.71,4.71,0,0,0,3.2-1.984C8.745.865,7.068-.758,6.116.4,5.658.974,5.087,1.7,4.248,1.731A4.669,4.669,0,0,1,1.695.5C.475-.361-.706,1.587.513,2.453Z" transform="translate(208.965 101.215)" fill="#2b386b"/>
        <path id="Shape-59" data-name="Shape" d="M.311,2.209C2,4.217,6.668,5.1,7.374,1.647,7.688.081,5.334-.6,5.02.964,4.745,2.37,2.509.964,2.038.4,1.018-.8-.709.964.311,2.209Z" transform="translate(215.022 101.215)" fill="#2b386b"/>
        <path id="Shape-60" data-name="Shape" d="M.229,1.776C1.7,3.849,5.471,5.1,7.191,2.558,8.092,1.229,5.881.017,4.98,1.307c-.532.821-2.171-.274-2.539-.782C1.5-.726-.713.486.229,1.776Z" transform="translate(219.733 100.552)" fill="#2b386b"/>
        <path id="Shape-61" data-name="Shape" d="M.007,1.116c.145,1.695.29,3.39.4,5.047.109,1.507,2.392,1.507,2.283,0-.145-1.695-.29-3.39-.4-5.047C2.145-.353-.138-.391.007,1.116Z" transform="translate(224.444 96.574)" fill="#2b386b"/>
        <path id="Shape-62" data-name="Shape" d="M.007,1.141C.29,3.916.533,6.692.815,9.467c.162,1.521,2.667,1.521,2.545,0-.283-2.775-.525-5.551-.808-8.326C2.391-.38-.154-.38.007,1.141Z" transform="translate(221.752 103.204)" fill="#2b386b"/>
        <path id="Shape-63" data-name="Shape" d="M.006,1.258c.113,1.137.227,2.314.34,3.45a1.249,1.249,0,0,0,1.17,1.258,1.223,1.223,0,0,0,1.17-1.258c-.113-1.137-.227-2.314-.34-3.45A1.249,1.249,0,0,0,1.176,0,1.223,1.223,0,0,0,.006,1.258Z" transform="translate(210.311 108.508)" fill="#2b386b"/>
        <path id="Shape-64" data-name="Shape" d="M2.65,16.753c.252-7.611.463-7.994.715-15.605C3.407-.382.8-.382.715,1.147.463,8.759.252,9.141,0,16.753c0,1.53,2.607,1.53,2.65,0Z" transform="translate(208.965 78.674)" fill="#2b386b"/>
        <path id="Shape-65" data-name="Shape" d="M1.163,3.31a172.984,172.984,0,0,1,19.883-.551c1.55.042,1.55-2.587,0-2.672A163.9,163.9,0,0,0,1.163.639c-1.55.17-1.55,2.8,0,2.672Z" transform="translate(210.311 77.348)" fill="#2b386b"/>
        <path id="Shape-66" data-name="Shape" d="M.017,1.534c2.134,13.179,3.3,19.114,3.5,32.447a1.274,1.274,0,0,0,2.537,0c-.2-13.526-1.45-19.73-3.624-33.1C2.191-.662-.225-.007.017,1.534Z" transform="translate(230.501 77.348)" fill="#2b386b"/>
        <path id="Shape-67" data-name="Shape" d="M.006,1.16c.08.786.12,1.572.2,2.32a1.208,1.208,0,0,0,1.24,1.16c.64,0,1.32-.524,1.24-1.16-.08-.786-.12-1.572-.2-2.32A1.208,1.208,0,0,0,1.246,0C.606,0-.074.524.006,1.16Z" transform="translate(214.349 82.652)" fill="#2b386b"/>
        <path id="Shape-68" data-name="Shape" d="M.076.827a4.409,4.409,0,0,0,.16,2.282,1.279,1.279,0,0,0,1.524.823A1.174,1.174,0,0,0,2.643,2.51l-.12-.337c-.08-.337,0,.187-.04-.15V1.65c0-.037.04-.374,0-.187A1.188,1.188,0,0,0,1.6.041C1.039-.109.157.153.076.827Z" transform="translate(214.349 89.281)" fill="#2b386b"/>
        <path id="Shape-69" data-name="Shape" d="M.013,1.507c.115.736.231,1.51.346,2.245A1.2,1.2,0,0,0,1.82,4.6a1.223,1.223,0,0,0,.846-1.471C2.551,2.4,2.435,1.624,2.32.888A1.2,1.2,0,0,0,.859.036,1.25,1.25,0,0,0,.013,1.507Z" transform="translate(219.06 81.989)" fill="#2b386b"/>
        <path id="Shape-70" data-name="Shape" d="M0,1.112V2.866a1.252,1.252,0,0,0,1.346,1.11,1.278,1.278,0,0,0,1.346-1.11V1.112A1.252,1.252,0,0,0,1.346,0,1.278,1.278,0,0,0,0,1.112Z" transform="translate(219.733 88.618)" fill="#2b386b"/>
        <path id="Shape-71" data-name="Shape" d="M1.586,2.841q.059,24.494,2.3,48.871c8.365,0,16.689-.156,25.054-.428A199.7,199.7,0,0,1,22.993,4.59c0-1.127-.119-2.449-1.07-3.11a3.693,3.693,0,0,0-1.308-.428A63.25,63.25,0,0,0,0,.664" transform="translate(0 65.562)" fill="#fff"/>
        <path id="Shape-72" data-name="Shape" d="M18.728,4.538c0-1.118-.116-2.43-1.043-3.085a3.553,3.553,0,0,0-1.274-.424A61.6,61.6,0,0,0,0,.219C.077,2.842.116,5.425.154,8.048A4.627,4.627,0,0,1,3.746,9.282c4.6-1.273,10.7-.656,15.1-.347C18.805,7.469,18.728,6,18.728,4.538Z" transform="translate(10.768 52.966)" fill="#fff"/>
        <path id="Shape-73" data-name="Shape" d="M0,1.155Q.35,28.176,1.592,55.2c.078,1.54,2.484,1.54,2.446,0Q2.815,28.176,2.446,1.155C2.407-.385-.038-.385,0,1.155Z" transform="translate(4.711 60.921)" fill="#2b386b"/>
        <path id="Shape-74" data-name="Shape" d="M1.174,2.543q15.671.322,31.3-.286a1.129,1.129,0,1,0,0-2.256Q16.805.591,1.174.287a1.129,1.129,0,1,0,0,2.256Z" transform="translate(4.711 60.921)" fill="#2b386b"/>
        <path id="Shape-75" data-name="Shape" d="M0,1.177C.55,10.05.477,19,.623,27.912c.146,9.106.292,18.172.439,27.278a1.152,1.152,0,1,0,2.3,0c-.146-9.106-.292-18.172-.439-27.278C2.78,19,2.853,10.089,2.3,1.177,2.2-.373-.071-.412,0,1.177Z" transform="translate(37.015 61.584)" fill="#2b386b"/>
        <path id="Shape-76" data-name="Shape" d="M0,1.217V7.431c0,1.583,2.692,1.583,2.692,0V1.217C2.692-.406,0-.406,0,1.217Z" transform="translate(11.441 68.877)" fill="#2b386b"/>
        <path id="Shape-77" data-name="Shape" d="M.17.924A12.778,12.778,0,0,0,.46,6.418a1.143,1.143,0,1,0,2.176-.687,10.732,10.732,0,0,1-.29-4.16C2.6,0,.387-.692.17.924Z" transform="translate(12.114 82.136)" fill="#2b386b"/>
        <path id="Shape-78" data-name="Shape" d="M0,1.129V5.515C0,7,2.692,7,2.692,5.515V1.129C2.692-.358,0-.395,0,1.129Z" transform="translate(12.787 94.07)" fill="#2b386b"/>
        <path id="Shape-79" data-name="Shape" d="M0,1.205V5.424c0,1.607,2.692,1.607,2.692,0V1.205C2.649-.4,0-.4,0,1.205Z" transform="translate(12.787 105.34)" fill="#2b386b"/>
        <path id="Shape-80" data-name="Shape" d="M.057,1.524a14.761,14.761,0,0,1,.6,5.262c-.085,1.559,2.553,1.559,2.68,0A16.569,16.569,0,0,0,2.61.861C2.142-.659-.411,0,.057,1.524Z" transform="translate(17.498 69.54)" fill="#2b386b"/>
        <path id="Shape-81" data-name="Shape" d="M0,1.178V4.789c0,1.57,2.692,1.57,2.692,0V1.178C2.649-.393,0-.393,0,1.178Z" transform="translate(18.171 83.462)" fill="#2b386b"/>
        <path id="Shape-82" data-name="Shape" d="M0,1.205V5.424c0,1.607,2.692,1.607,2.692,0V1.205C2.649-.4,0-.4,0,1.205Z" transform="translate(18.844 95.396)" fill="#2b386b"/>
        <path id="Shape-83" data-name="Shape" d="M.065,1.615A6.42,6.42,0,0,1,.631,5.091a1.254,1.254,0,0,0,.957,1.5c.652.158,1.566-.2,1.653-.869A8.359,8.359,0,0,0,2.675.9,1.433,1.433,0,0,0,1.022.035C.37.272-.2,1.022.065,1.615Z" transform="translate(19.517 107.329)" fill="#2b386b"/>
        <path id="Shape-84" data-name="Shape" d="M.057,1.524a14.761,14.761,0,0,1,.6,5.262c-.085,1.559,2.553,1.559,2.68,0A16.569,16.569,0,0,0,2.61.861C2.142-.659-.411,0,.057,1.524Z" transform="translate(23.555 69.54)" fill="#2b386b"/>
        <path id="Shape-85" data-name="Shape" d="M0,1.178V4.789c0,1.57,2.692,1.57,2.692,0V1.178C2.649-.393,0-.393,0,1.178Z" transform="translate(24.228 83.462)" fill="#2b386b"/>
        <path id="Shape-86" data-name="Shape" d="M0,1.205V5.424c0,1.607,2.692,1.607,2.692,0V1.205C2.649-.4,0-.4,0,1.205Z" transform="translate(24.901 95.396)" fill="#2b386b"/>
        <path id="Shape-87" data-name="Shape" d="M.065,1.615A6.42,6.42,0,0,1,.631,5.091a1.254,1.254,0,0,0,.957,1.5c.652.158,1.566-.2,1.653-.869A8.359,8.359,0,0,0,2.675.9,1.433,1.433,0,0,0,1.022.035C.37.272-.2,1.022.065,1.615Z" transform="translate(24.901 107.329)" fill="#2b386b"/>
        <path id="Shape-88" data-name="Shape" d="M.057,1.524a14.761,14.761,0,0,1,.6,5.262c-.085,1.559,2.553,1.559,2.68,0A16.569,16.569,0,0,0,2.61.861C2.142-.659-.411,0,.057,1.524Z" transform="translate(29.612 69.54)" fill="#2b386b"/>
        <path id="Shape-89" data-name="Shape" d="M0,1.178V4.789c0,1.57,2.692,1.57,2.692,0V1.178C2.649-.393,0-.393,0,1.178Z" transform="translate(30.285 83.462)" fill="#2b386b"/>
        <path id="Shape-90" data-name="Shape" d="M0,1.205V5.424c0,1.607,2.692,1.607,2.692,0V1.205C2.649-.4,0-.4,0,1.205Z" transform="translate(30.285 95.396)" fill="#2b386b"/>
        <path id="Shape-91" data-name="Shape" d="M.065,1.615A6.42,6.42,0,0,1,.631,5.091a1.254,1.254,0,0,0,.957,1.5c.652.158,1.566-.2,1.653-.869A8.359,8.359,0,0,0,2.675.9,1.433,1.433,0,0,0,1.022.035C.37.272-.2,1.022.065,1.615Z" transform="translate(30.958 107.329)" fill="#2b386b"/>
        <path id="Shape-92" data-name="Shape" d="M.045,1.152A54.17,54.17,0,0,1,.007,11.444c-.154,1.536,2.267,1.536,2.421,0A54.194,54.194,0,0,0,2.466,1.152C2.312-.384-.108-.384.045,1.152Z" transform="translate(20.863 49.651)" fill="#2b386b"/>
        <path id="Shape-93" data-name="Shape" d="M1.181,2.61c10.429.249,20.859.456,31.288.7,1.574.041,1.574-2.568,0-2.61C22.04.456,11.61.249,1.181,0c-1.574-.041-1.574,2.568,0,2.61Z" transform="translate(20.863 49.651)" fill="#2b386b"/>
        <path id="Shape-94" data-name="Shape" d="M1.469,1.16,0,64.475c-.041,1.546,2.529,1.546,2.569,0L4.038,1.16a1.291,1.291,0,0,0-2.569,0Z" transform="translate(50.475 50.314)" fill="#2b386b"/>
        <path id="Shape-95" data-name="Shape" d="M0,1.134C.077,3.706.193,6.239.27,8.81c.038,1.512,2.46,1.512,2.422,0-.077-2.571-.192-5.1-.269-7.676C2.346-.378-.038-.378,0,1.134Z" transform="translate(33.65 35.728)" fill="#2b386b"/>
        <path id="Shape-96" data-name="Shape" d="M1.252,2.652H6.181A1.33,1.33,0,0,0,6.181,0H1.252a1.328,1.328,0,0,0,0,2.652Z" transform="translate(33.65 40.369)" fill="#2b386b"/>
        <path id="Shape-97" data-name="Shape" d="M0,1.187V9.42C0,11,2.692,11,2.692,9.42V1.187C2.649-.4,0-.4,0,1.187Z" transform="translate(38.361 35.728)" fill="#2b386b"/>
        <path id="Shape-98" data-name="Shape" d="M.2.931A7.023,7.023,0,0,0,.079,3.675a1.248,1.248,0,0,0,1.529.915,1.355,1.355,0,0,0,.885-1.58c.04.166,0-.25,0-.25V2.3c0-.208,0,0,.04-.25.04-.166.08-.291.121-.416A1.279,1.279,0,0,0,1.769.057,1.233,1.233,0,0,0,.2.931Z" transform="translate(28.266 54.291)" fill="#2b386b"/>
        <path id="Shape-99" data-name="Shape" d="M0,1.164v1.65A1.271,1.271,0,0,0,1.346,3.976,1.3,1.3,0,0,0,2.692,2.814V1.164A1.271,1.271,0,0,0,1.346,0,1.3,1.3,0,0,0,0,1.164Z" transform="translate(34.996 54.291)" fill="#2b386b"/>
        <path id="Shape-100" data-name="Shape" d="M0,1.23V3.411a1.3,1.3,0,0,0,1.346,1.23,1.3,1.3,0,0,0,1.346-1.23V1.23A1.3,1.3,0,0,0,1.346,0,1.327,1.327,0,0,0,0,1.23Z" transform="translate(41.726 54.291)" fill="#2b386b"/>
        <path id="Shape-101" data-name="Shape" d="M0,1.1l.234,4.42C.315,7,2.768,7,2.69,5.525L2.457,1.1C2.34-.368-.113-.368,0,1.1Z" transform="translate(43.072 64.899)" fill="#2b386b"/>
        <path id="Shape-102" data-name="Shape" d="M.145,1.171a10.269,10.269,0,0,1-.12,2.708A1.145,1.145,0,0,0,.9,5.269a1.258,1.258,0,0,0,1.518-.805,11.617,11.617,0,0,0,.24-3.33A1.2,1.2,0,0,0,1.423,0,1.261,1.261,0,0,0,.145,1.171Z" transform="translate(43.072 75.507)" fill="#2b386b"/>
        <path id="Shape-103" data-name="Shape" d="M0,1.126V4.841c0,1.5,2.692,1.5,2.692,0V1.126c0-1.5-2.692-1.5-2.692,0Z" transform="translate(43.072 84.788)" fill="#2b386b"/>
        <path id="Shape-104" data-name="Shape" d="M0,1.193V4.8c0,1.552,2.692,1.552,2.692,0V1.193C2.649-.4,0-.4,0,1.193Z" transform="translate(43.072 94.07)" fill="#2b386b"/>
        <path id="Shape-105" data-name="Shape" d="M.058,1.107A11.541,11.541,0,0,0,.221,4.459a1.314,1.314,0,0,0,1.555.81,1.186,1.186,0,0,0,.9-1.4,8.717,8.717,0,0,1-.041-2.726C2.718.518,2.022,0,1.367,0A1.2,1.2,0,0,0,.058,1.107Z" transform="translate(43.745 104.015)" fill="#2b386b"/>
        <path id="Shape-106" data-name="Shape" d="M1.446,0h-.2A1.293,1.293,0,0,0,0,1.326,1.321,1.321,0,0,0,1.246,2.652h.2A1.293,1.293,0,0,0,2.69,1.326,1.352,1.352,0,0,0,1.446,0Z" transform="translate(43.745 112.633)" fill="#2b386b"/>
        <path id="Shape-107" data-name="Shape" d="M.423,2.29a5.243,5.243,0,0,0,6.638-.327C8.154.873,6.373-.725,5.28.364A2.456,2.456,0,0,1,2.2.691C.989-.217-.832,1.382.423,2.29Z" transform="translate(51.821 102.689)" fill="#2b386b"/>
        <path id="Shape-108" data-name="Shape" d="M.162,1.872a4.079,4.079,0,0,0,7.048.159C8.061.681,5.873-.59,5.023.76A1.5,1.5,0,0,1,2.349.6C1.579-.789-.608.482.162,1.872Z" transform="translate(56.532 103.352)" fill="#2b386b"/>
        <path id="Shape-109" data-name="Shape" d="M2.65,16.753c.252-7.611.463-7.994.715-15.605C3.407-.382.8-.382.715,1.147.463,8.759.252,9.141,0,16.753c0,1.53,2.607,1.53,2.65,0Z" transform="translate(61.916 80.147)" fill="#2b386b"/>
        <path id="Shape-110" data-name="Shape" d="M1.163,3.31a172.984,172.984,0,0,1,19.883-.551c1.55.042,1.55-2.587,0-2.672A163.9,163.9,0,0,0,1.163.639c-1.55.17-1.55,2.8,0,2.672Z" transform="translate(62.526 78.822)" fill="#2b386b"/>
        <path id="Shape-111" data-name="Shape" d="M.017,1.534c2.134,13.179,3.3,19.114,3.5,32.447a1.274,1.274,0,0,0,2.537,0c-.2-13.526-1.45-19.73-3.624-33.1C2.191-.662-.225-.007.017,1.534Z" transform="translate(82.716 78.822)" fill="#2b386b"/>
        <path id="Shape-112" data-name="Shape" d="M.006,1.16c.08.786.12,1.572.2,2.32a1.208,1.208,0,0,0,1.24,1.16c.64,0,1.32-.524,1.24-1.16-.08-.786-.12-1.572-.2-2.32A1.208,1.208,0,0,0,1.246,0C.606,0-.074.524.006,1.16Z" transform="translate(66.564 84.125)" fill="#2b386b"/>
        <path id="Shape-113" data-name="Shape" d="M.076.827a4.409,4.409,0,0,0,.16,2.282,1.279,1.279,0,0,0,1.524.823A1.174,1.174,0,0,0,2.643,2.51l-.12-.337c-.08-.337,0,.187-.04-.15V1.65c0-.037.04-.374,0-.187A1.188,1.188,0,0,0,1.6.041C1.039-.109.157.153.076.827Z" transform="translate(66.564 90.755)" fill="#2b386b"/>
        <path id="Shape-114" data-name="Shape" d="M.013,1.507c.115.736.231,1.51.346,2.245A1.2,1.2,0,0,0,1.82,4.6a1.223,1.223,0,0,0,.846-1.471C2.551,2.4,2.435,1.624,2.32.888A1.2,1.2,0,0,0,.859.036,1.25,1.25,0,0,0,.013,1.507Z" transform="translate(71.275 83.462)" fill="#2b386b"/>
        <path id="Shape-115" data-name="Shape" d="M0,1.112V2.866a1.252,1.252,0,0,0,1.346,1.11,1.278,1.278,0,0,0,1.346-1.11V1.112A1.252,1.252,0,0,0,1.346,0,1.278,1.278,0,0,0,0,1.112Z" transform="translate(71.948 90.092)" fill="#2b386b"/>
        <path id="Shape-116" data-name="Shape" d="M1.536,5.951C10.5,4.673,19.433,3.47,28.441,2.379c1.541-.188,1.58-2.557,0-2.369C19.236,1.139,10.07,2.342.9,3.7c-1.58.226-.909,2.481.632,2.256Z" transform="translate(99.301 6.63)" fill="#2b386b"/>
        <path id="Shape-117" data-name="Shape" d="M2.925,11.4c-.079-.831-.866-6.649-.118-6.689.276,0,1.339,1.425,1.654,1.662a3.9,3.9,0,0,0,2.481.633c2.52-.079,5.159-.91,7.64-1.385,2.8-.554,5.592-1.069,8.388-1.623,2.442-.475,4.923-1.108,7.364-1.425a10.384,10.384,0,0,1,4.135.158c1.733.554,1.654,1.9.158,2.81A19.546,19.546,0,0,1,29.9,7.13,1.234,1.234,0,0,0,30.57,9.5c2.954-.792,9.254-2.3,7.482-6.768C36.595-.944,31-.034,28.01.52c-3.78.673-7.6,1.425-11.42,2.177-1.89.356-3.82.752-5.71,1.108-1.693.317-4.214,1.385-5.592,0-1.26-1.266-3.15-2.77-4.647-.792A4.367,4.367,0,0,0,.011,5.9C.09,7.723.286,9.584.444,11.444c.118,1.544,2.6,1.544,2.481-.04Z" transform="translate(97.955)" fill="#2b386b"/>
        <path id="Shape-118" data-name="Shape" d="M15.169.54c-1.979,2.8-4.113,5.632-7.1,7.419-1.048.621-3.182,1.826-4.5,1.593-2.173-.388-.543-4.778-.233-6.06.349-1.515-1.979-2.175-2.328-.66C.5,4.929-.545,7.92.348,10.057c.931,2.175,3.414,2.1,5.354,1.554,5.16-1.4,8.614-5.71,11.562-9.866C18.2.5,16.1-.742,15.169.54Z" transform="translate(106.704 7.956)" fill="#2b386b"/>
        <path id="Shape-119" data-name="Shape" d="M.673,1.326A.663.663,0,1,0,.673,0a.663.663,0,1,0,0,1.325Z" transform="translate(104.685 7.293)" fill="#fff"/>
        <path id="Shape-120" data-name="Shape" d="M1.346.737V.589A.652.652,0,0,0,.673,0,.654.654,0,0,0,0,.589V.737a.652.652,0,0,0,.673.589A.681.681,0,0,0,1.346.737Z" transform="translate(108.723 6.63)" fill="#fff"/>
        <path id="Shape-121" data-name="Shape" d="M.673,1.326A.663.663,0,1,0,.673,0a.663.663,0,1,0,0,1.326Z" transform="translate(112.76 6.63)" fill="#fff"/>
        <path id="Shape-122" data-name="Shape" d="M.673,1.326A.663.663,0,1,0,.673,0a.663.663,0,1,0,0,1.326Z" transform="translate(116.798 5.967)" fill="#fff"/>
        <path id="Shape-123" data-name="Shape" d="M1.346.737V.589A.652.652,0,0,0,.673,0,.654.654,0,0,0,0,.589V.737a.652.652,0,0,0,.673.589A.627.627,0,0,0,1.346.737Z" transform="translate(120.163 4.641)" fill="#fff"/>
        <path id="Shape-124" data-name="Shape" d="M.6,1.326h.15a.65.65,0,0,0,.6-.663A.652.652,0,0,0,.748,0H.6A.65.65,0,0,0,0,.663a.65.65,0,0,0,.6.663Z" transform="translate(124.201 4.641)" fill="#fff"/>
        <path id="Shape-125" data-name="Shape" d="M28.176.008C23.5.717,18.86,2.321,14.3,3.59,9.661,4.9,5.023,6.164.423,7.47A.581.581,0,0,0,.735,8.589c4.638-1.306,9.277-2.574,13.876-3.88,4.56-1.269,9.16-2.91,13.876-3.582.78-.112.468-1.231-.312-1.119Z" transform="translate(64.978 9.282)" fill="#fff"/>
        <path id="Shape-126" data-name="Shape" d="M1.178,2.58c9.033-.676,18.183-.107,27.255.071a1.122,1.122,0,1,0,0-2.242C19.4.231,10.211-.374,1.178.338c-1.571.142-1.571,2.349,0,2.242Z" transform="translate(86.665 47.514)" fill="#2b386b"/>
        <path id="Shape-127" data-name="Shape" d="M2.437,8.394A5.3,5.3,0,0,1,4.8,2.928,3.775,3.775,0,0,1,9.849,4.484c.776,1.4,2.872.16,2.1-1.277A6.189,6.189,0,0,0,4.028.535C.846,2.011-.4,5.681.109,9.032c.194,1.6,2.561.918,2.328-.638Z" transform="translate(85.319 39.558)" fill="#2b386b"/>
        <path id="Shape-128" data-name="Shape" d="M2.272,5.6A5.734,5.734,0,0,1,6.816,2.441c2.468-.19,3.6,2.052,4.231,4.029.47,1.444,2.821.836,2.351-.646C12.5,3.087,12.34.16,9.089.008,5.994-.144,1.567,1.795.156,4.379A1.222,1.222,0,0,0,2.272,5.6Z" transform="translate(94.068 36.244)" fill="#2b386b"/>
        <path id="Shape-129" data-name="Shape" d="M2.11,4.577C3.688,3.027,6.055,1.8,8.224,2.948c1.972,1.033,2.406,3.418,2.84,5.444.316,1.55,2.682.914,2.367-.676C12.8,4.736,11.814,1.636,8.776.444S2.584.6.375,2.789A1.247,1.247,0,0,0,2.11,4.577Z" transform="translate(102.817 40.884)" fill="#2b386b"/>
      </g>
      <g id="cocheMoto" transform="translate(270.858 93.114)" opacity="0.4">
        <path id="Shape-130" data-name="Shape" d="M46.568,1.822A157.9,157.9,0,0,0,4.042,1.1C2.219,1.315-.1,2.148,0,3.993.111,5.44,1.719,6.236,3.113,6.634c6.575,1.809,13.508,1.7,20.3,1.484C30.487,7.9,37.6,7.539,44.674,7.069a5.591,5.591,0,0,0,2.537-.615,2.761,2.761,0,0,0,.715-3.691,2.6,2.6,0,0,0-3.645-.579" transform="translate(8.729 17.157)" fill="#fff"/>
        <path id="Shape-131" data-name="Shape" d="M10.629,0C7.4.269,4.173.571.945.835a.948.948,0,0,0-.868.943V6.567C.077,7.736-.3,9.7.632,10.6c.937.867,3.02.679,4.131.792a53.382,53.382,0,0,0,6.491.264c1.111,0,1.111-1.886,0-1.886q-2.4,0-4.79-.113c-.694-.038-1.354-.113-2.048-.189-.59-.075-1.84.038-2.326-.377-.59-.49-.312-2.527-.278-3.507V1.74l-.868.943c3.228-.264,6.456-.566,9.684-.83C11.7,1.777,11.74-.108,10.629,0Z" transform="translate(14.101 8.922)" fill="#2b386b"/>
        <path id="Shape-132" data-name="Shape" d="M1.658,5.063c.309-1.185.72-2.98,2.126-3.232C5.327,1.544,5.6,4.238,5.67,5.315c.069,1.149,1.783,1.149,1.714,0C7.247,3.268,6.63.036,4.161,0,1.658-.036.6,2.478.047,4.6a.839.839,0,1,0,1.612.467Z" transform="translate(24.174 15.098)" fill="#2b386b"/>
        <path id="Shape-133" data-name="Shape" d="M.865,1.99c4.8.14,9.59.07,14.385-.244C16.4,1.676,16.4-.068,15.25,0,10.455.316,5.66.386.865.246a.872.872,0,0,0,0,1.744Z" transform="translate(31.56 19.216)" fill="#2b386b"/>
        <path id="Shape-134" data-name="Shape" d="M1.659,5.2C2.408,3.864,3.3,2.078,5.012,1.8c2.1-.35,2.5,2.067,2.6,3.538.071,1.121,1.855,1.121,1.783,0-.178-2.207-.82-4.9-3.46-5.29C3.086-.375,1.3,2.183.125,4.32A.884.884,0,0,0,1.659,5.2Z" transform="translate(44.99 15.098)" fill="#2b386b"/>
        <path id="Shape-135" data-name="Shape" d="M1.928,8.966C2.9,6.4,3.793,3.8,4.648,1.159,5.037-.01,3.133-.5,2.783.669c-.855,2.6-1.749,5.2-2.721,7.806-.428,1.131,1.477,1.622,1.866.49Z" transform="translate(24.174 2.059)" fill="#2b386b"/>
        <path id="Shape-136" data-name="Shape" d="M1.3,3.288C2.494,2.5,4.07,2.664,5.4,2.58l4.516-.25q4.358-.187,8.717-.25c1.12-.042,1.12-2.122,0-2.081C15.272.084,11.911.167,8.516.333,6.03.458,2.669-.041.429,1.5c-.98.624-.105,2.455.875,1.789Z" transform="translate(26.859)" fill="#2b386b"/>
        <path id="Shape-137" data-name="Shape" d="M.149,1.371c1.6,2.359,3.2,4.756,4.763,7.116C5.6,9.5,7.236,8.562,6.55,7.551,4.95,5.191,3.35,2.794,1.787.435,1.14-.576-.5.36.149,1.371Z" transform="translate(44.99)" fill="#2b386b"/>
        <path id="Shape-138" data-name="Shape" d="M1.081,1.972c3.815-.625,7.7.514,11.516.771,1.11.073,1.11-1.763,0-1.837C8.608.649,4.619-.453.63.208c-1.11.147-.624,1.947.451,1.763Z" transform="translate(49.019 6.863)" fill="#2b386b"/>
        <path id="Shape-139" data-name="Shape" d="M.507.879c.376,2.894-.586,5.642-.5,8.536.042,1.172,2.133,1.172,2.091,0-.084-2.894.878-5.642.5-8.536C2.431-.293.34-.293.507.879Z" transform="translate(60.434 8.235)" fill="#2b386b"/>
        <path id="Shape-140" data-name="Shape" d="M8.52,0A43.835,43.835,0,0,0,.667.829c-1.174.2-.661,2.133.477,1.9a42.115,42.115,0,0,1,7.376-.75C9.694,1.975,9.694,0,8.52,0Z" transform="translate(52.376 17.843)" fill="#2b386b"/>
        <path id="Shape-141" data-name="Shape" d="M.716.766a4.761,4.761,0,0,0-.04,4.958,1.026,1.026,0,0,0,1.7,0A4.456,4.456,0,0,0,2.613.466a1.008,1.008,0,0,0-1.7,0A6.787,6.787,0,0,0,.242,4.3C.4,5.461,2.376,5.5,2.217,4.3a4.906,4.906,0,0,1,.4-2.892H.914a2.825,2.825,0,0,1-.237,3.38h1.7a3.066,3.066,0,0,1,.04-3.08C3.087.654,1.348-.285.716.766Z" transform="translate(26.859 18.53)" fill="#2b386b"/>
        <path id="Shape-142" data-name="Shape" d="M1.99.284a3.357,3.357,0,0,0-1.5,2.894C.445,4.17.57,5.478,1.74,5.8,3.076,6.152,3.87,4.923,4,3.853A4.3,4.3,0,0,0,2.742.284a1.086,1.086,0,0,0-1.629.2A6.458,6.458,0,0,0,.027,3.734,1.613,1.613,0,0,0,1.865,5.478,2.485,2.485,0,0,0,3.494,3.3,3,3,0,0,0,2.408.681a1.082,1.082,0,0,0-1.629.2A4.341,4.341,0,0,0,.7,5.716c.71,1.07,2.506.079,1.8-.991A2.408,2.408,0,0,1,2.575,1.91c-.543.079-1.086.119-1.629.2a1.275,1.275,0,0,1,.5.714.919.919,0,0,1,0,.476c-.084.4-.376.317.292.436.71.159.334.159.459-.2.084-.2.084-.476.167-.714a4.21,4.21,0,0,1,.627-1.308c-.543.079-1.086.119-1.629.2A2.308,2.308,0,0,1,2.032,3.1a3.24,3.24,0,0,1-.042.634.544.544,0,0,1-.084.238c.585.278.835.317.752.04.125-.238-.042-.753,0-1.07a1.182,1.182,0,0,1,.459-.952A1.023,1.023,0,0,0,1.99.284Z" transform="translate(48.347 18.53)" fill="#2b386b"/>
        <path id="Shape-143" data-name="Shape" d="M1.164,2.032a4.8,4.8,0,0,1,1.947-.076c.478.076.918-.495.918-.951A.977.977,0,0,0,3.111.054,6.727,6.727,0,0,0,.649.206C-.489.472-.012,2.3,1.164,2.032Z" transform="translate(37.603 10.98)" fill="#2b386b"/>
        <path id="Shape-144" data-name="Shape" d="M25.975,0C17.525.266,9,.19.659,1.6c-1.161.19-.653,2.012.472,1.822,8.2-1.4,16.575-1.253,24.845-1.519,1.161-.038,1.2-1.936,0-1.9Z" transform="translate(24.174 7.549)" fill="#2b386b"/>
        <path id="Shape-145" data-name="Shape" d="M0,.843V6.706c0,1.124,2.014,1.124,2.014,0V.843C2.014-.281,0-.281,0,.843Z" transform="translate(34.917 0.686)" fill="#2b386b"/>
        <path id="Shape-146" data-name="Shape" d="M.014,1.234A6.216,6.216,0,0,1,.127,2.466a.969.969,0,0,0,.944.963.969.969,0,0,0,.944-.963A14.028,14.028,0,0,0,1.863.695.935.935,0,0,0,.694.04,1.013,1.013,0,0,0,.014,1.234Z" transform="translate(44.318 5.49)" fill="#2b386b"/>
        <path id="Shape-147" data-name="Shape" d="M1.466,5.083C3.457,2.36,7.649.205,9.011,4.8a.882.882,0,1,0,1.677-.528C10.024,2.034,8.627-.079,6.426,0A8.193,8.193,0,0,0,.208,3.66c-.7.975.524,2.439,1.258,1.423Z" transform="translate(80.578 14.177)" fill="#2b386b"/>
        <path id="Shape-148" data-name="Shape" d="M10.985.05c-1.6.552-3.346.331-5.018.4Q3.4.565.841.9c-1.1.147-1.139,1.987,0,1.84a50.67,50.67,0,0,1,5.8-.442,15.254,15.254,0,0,0,4.841-.442c1.068-.4.605-2.171-.5-1.8Z" transform="translate(79.235 18.294)" fill="#2b386b"/>
        <path id="Shape-149" data-name="Shape" d="M.9,10.98c2.76-.038,5.483-.038,8.243-.076a.934.934,0,0,0,.932-.954A70.193,70.193,0,0,0,8.765.677c-.261-1.183-2.051-.687-1.79.5A57.779,57.779,0,0,1,8.205,9.95L9.138,9c-2.76.038-5.483.038-8.243.076a.956.956,0,0,0,0,1.908Z" transform="translate(89.979 9.373)" fill="#2b386b"/>
        <path id="Shape-150" data-name="Shape" d="M1.334,3.332c1.972-.985,4.437-.944,6.55-1.272C9.011,1.9,9.011-.155,7.884.009,5.419.379,2.743.379.454,1.527c-1.021.574-.141,2.338.88,1.805Z" transform="translate(82.593 11.431)" fill="#2b386b"/>
        <path id="Shape-151" data-name="Shape" d="M1.177,2.023a3.624,3.624,0,0,1,1.24-.184A.944.944,0,0,0,3.355.92.945.945,0,0,0,2.416,0,5.626,5.626,0,0,0,.688.258.927.927,0,0,0,.05,1.4a.925.925,0,0,0,1.127.625Z" transform="translate(94.68 9.373)" fill="#2b386b"/>
        <path id="Shape-152" data-name="Shape" d="M.873,2.051c1.626.2,3.844.98,3.992,3.145a.926.926,0,1,0,1.848,0C6.491,1.766,3.608.377.873.009-.309-.154-.273,1.888.873,2.051Z" transform="translate(98.037 14.177)" fill="#2b386b"/>
        <path id="Shape-153" data-name="Shape" d="M.844,1.942l5.027.117C7,2.1,7,.155,5.871.117L.844,0C-.281,0-.281,1.942.844,1.942Z" transform="translate(97.366 18.294)" fill="#2b386b"/>
        <path id="Shape-154" data-name="Shape" d="M2.684,1.65a2.055,2.055,0,0,0-.3-1.07A1.185,1.185,0,0,0,1.413,0C.7.045.254.669.03,1.382a1.31,1.31,0,0,0,.112.847A.927.927,0,0,0,.7,2.72a.812.812,0,0,0,.71-.134,1.213,1.213,0,0,0,.411-.669l-.037.089c.037-.089.037-.089-.037.045l.075-.089c-.112.089-.15.134-.075.089a.591.591,0,0,1-.86-.268C.852,1.605.815,1.561.852,1.695c0-.178-.037-.223,0-.089.037.58.411,1.159.934,1.115a.954.954,0,0,0,.9-1.07Z" transform="translate(84.607 13.039)" fill="#2b386b"/>
        <path id="Shape-155" data-name="Shape" d="M2.34,2.917a3.14,3.14,0,0,0,.334-1.859A1.058,1.058,0,0,0,2.006.067a1.409,1.409,0,0,0-1.6.62A2.869,2.869,0,0,0,0,2.339,1,1,0,0,0,.929,3.372a1,1,0,0,0,.929-1.033v-.33c0-.165-.037-.041,0,.041,0-.041.074-.248.037-.124s.074-.083,0,.041c-.149.124.111-.041-.037.041a.373.373,0,0,1-.223.083c-.037,0-.26-.041-.111,0L.854,1.1v.537c0,.041-.037.124-.037.165-.037.124-.037.083,0-.041C.78,1.8.78,1.843.743,1.885a1.126,1.126,0,0,0,.334,1.4A.868.868,0,0,0,2.34,2.917Z" transform="translate(84.607 21.039)" fill="#2b386b"/>
        <path id="Shape-156" data-name="Shape" d="M.744.548A4.138,4.138,0,0,0,.068,3.342a1.064,1.064,0,0,0,1.309.731,1.089,1.089,0,0,0,.718-1.333c0,.043-.042.215.042-.043.042-.129.084-.258.127-.43.084-.215.211-.473.3-.688A1.111,1.111,0,0,0,2.179.118,1.072,1.072,0,0,0,.744.548Z" transform="translate(83.936 21.039)" fill="#2b386b"/>
        <path id="Shape-157" data-name="Shape" d="M2.684,1.65a2.055,2.055,0,0,0-.3-1.07A1.185,1.185,0,0,0,1.413,0C.7.045.254.669.03,1.382a1.31,1.31,0,0,0,.112.847A.927.927,0,0,0,.7,2.72a.812.812,0,0,0,.71-.134,1.213,1.213,0,0,0,.411-.669l-.037.089c.037-.089.037-.089-.037.045l.075-.089c-.112.089-.15.134-.075.089a.591.591,0,0,1-.86-.268C.852,1.605.815,1.561.852,1.695c0-.178-.037-.223,0-.089.037.58.411,1.159.934,1.115a.954.954,0,0,0,.9-1.07Z" transform="translate(98.709 13.039)" fill="#2b386b"/>
        <path id="Shape-158" data-name="Shape" d="M2.34,2.917a3.14,3.14,0,0,0,.334-1.859A1.058,1.058,0,0,0,2.006.067a1.409,1.409,0,0,0-1.6.62A2.869,2.869,0,0,0,0,2.339,1,1,0,0,0,.929,3.372a1,1,0,0,0,.929-1.033v-.33c0-.165-.037-.041,0,.041,0-.041.074-.248.037-.124s.074-.083,0,.041c-.149.124.111-.041-.037.041a.373.373,0,0,1-.223.083c-.037,0-.26-.041-.111,0L.854,1.1v.537c0,.041-.037.124-.037.165-.037.124-.037.083,0-.041C.78,1.8.78,1.843.743,1.885a1.126,1.126,0,0,0,.334,1.4A.868.868,0,0,0,2.34,2.917Z" transform="translate(98.709 21.039)" fill="#2b386b"/>
        <path id="Shape-159" data-name="Shape" d="M.744.532A4.172,4.172,0,0,0,.068,3.339a1.064,1.064,0,0,0,1.309.734,1.1,1.1,0,0,0,.718-1.339c0,.043-.042.216.042-.043.042-.13.084-.259.127-.432.084-.216.211-.475.3-.691A1.119,1.119,0,0,0,2.179.1,1.124,1.124,0,0,0,.744.532Z" transform="translate(98.709 21.039)" fill="#2b386b"/>
        <path id="Shape-160" data-name="Shape" d="M1.878,2.908a7.046,7.046,0,0,1,.391-.7c.156-.131.039.044,0-.044,0-.044-.2-.393-.156-.175,0,.087.039.087,0-.087a.309.309,0,0,1,.117-.349,1.236,1.236,0,0,0,0,1.528.879.879,0,0,0,1.369,0,1.984,1.984,0,0,0,.352-1.746A1.81,1.81,0,0,0,2.778.071C1.6-.279.587.725.117,1.816A1.192,1.192,0,0,0,.469,3.3a1.014,1.014,0,0,0,1.408-.393Z" transform="translate(96.694 8)" fill="#2b386b"/>
        <path id="Shape-161" data-name="Shape" d="M.424,2.054C3.958,1.7,7.457,1.344,10.991.988c.565-.039.565-1.027,0-.987C7.457.357,3.958.712.424,1.067c-.565.079-.565,1.066,0,.987Z" transform="translate(0 10.294)" fill="#fff"/>
        <path id="Shape-162" data-name="Shape" d="M.485,2.053c1.9-.286,3.8-.572,5.744-.857.647-.1.647-1.286,0-1.191-1.9.286-3.8.572-5.744.857-.647.1-.647,1.286,0,1.191Z" transform="translate(4.7 12.353)" fill="#fff"/>
        <path id="Shape-163" data-name="Shape" d="M.556,2.048a65.585,65.585,0,0,1,7.061-.981C8.2,1.025,8.2-.041,7.617,0A68.422,68.422,0,0,0,.335,1.025C-.253,1.152,0,2.176.556,2.048Z" transform="translate(70.506 5.49)" fill="#fff"/>
        <path id="Shape-164" data-name="Shape" d="M.495,1.317a10.807,10.807,0,0,0,3.833-.293A.523.523,0,0,0,4.039.019,10.151,10.151,0,0,1,.495.27c-.659-.042-.659,1.005,0,1.047Z" transform="translate(73.192 6.863)" fill="#fff"/>
      </g>
    </g>
    <g id="Group_4" data-name="Group 4" transform="translate(112 87)" opacity="0.4">
      <path id="Shape-165" data-name="Shape" d="M9.271,1.661A9.032,9.032,0,0,1,10.379,12.6,11.5,11.5,0,0,1,0,17.645a17.076,17.076,0,0,0,11.376,3.111,16.839,16.839,0,0,0,10.6-5.042,6.283,6.283,0,0,0,1.514-2.253,6.215,6.215,0,0,0-.776-4.684A17.384,17.384,0,0,0,11.339.124a2.8,2.8,0,0,0-1.625,0C9.2.338,8.864.982,9.2,1.411" transform="translate(4.308)" fill="#fff"/>
      <path id="Shape-166" data-name="Shape" d="M0,1.22c.23,4.946.591,9.858,1.117,14.8.164,1.592,2.628,1.626,2.464,0-.526-4.912-.887-9.858-1.117-14.8C2.4-.407-.064-.407,0,1.22Z" transform="translate(12.205 10.769)" fill="#2b386b"/>
      <path id="Shape-167" data-name="Shape" d="M6.016,3.538C4.773,2.486,3.53,1.434,2.323.347,1.045-.775-.873,1.084.441,2.206,1.684,3.257,2.927,4.309,4.134,5.4c1.314,1.122,3.2-.736,1.882-1.858Z" transform="translate(7.897 12.205)" fill="#2b386b"/>
      <path id="Shape-168" data-name="Shape" d="M13.1,20.419a10.412,10.412,0,0,0,8.975-8.1A10.554,10.554,0,0,0,16.483,1.2,11.471,11.471,0,0,0,4.059,2.687,11.636,11.636,0,0,0,.61,15.293c.739,2.251,2.147,4.745,4.681,5.264,3.132.623,6.722.035,9.749-.693a1.3,1.3,0,0,0-.7-2.494,24.9,24.9,0,0,1-7.848.762c-2.5-.208-3.519-3.29-3.8-5.4A8.891,8.891,0,0,1,9.338,2.895a8.246,8.246,0,0,1,10.03,5.853,7.6,7.6,0,0,1-6.3,9.143c-1.619.139-1.654,2.736.035,2.528Z" fill="#2b386b"/>
    </g>
  </g>
</svg>
