<?xml version="1.0" encoding="UTF-8"?>
<svg width="70px" height="76px" viewBox="0 0 70 76" version="1.1" xmlns="http://www.w3.org/2000/svg" xmlns:xlink="http://www.w3.org/1999/xlink">
    <!-- Generator: Sketch 57.1 (83088) - https://sketch.com -->
    <title>Icon/brain@2x</title>
    <desc>Created with Sketch.</desc>
    <g id="Icon/brain" stroke="none" stroke-width="1" fill="none" fill-rule="evenodd">
        <path d="M57.3171769,21.5344518 C60.5697279,23.1713566 62.1003401,25.6373429 61.9090136,28.932411 C61.7389456,32.0786695 60.1658163,34.5446559 57.1896259,36.3303702 C56.6794218,36.6279892 56.3818027,37.0637885 56.2967687,37.6377681 C56.2329932,38.1904892 56.3818027,38.690064 56.7431973,39.1364926 C58.9965986,41.517445 60.4528061,43.5370028 61.1118197,45.1951661 C62.2062075,47.9107273 61.6003401,50.1534994 59.2942177,51.9234824 C57.9298469,50.1305402 55.8571429,48.7381083 53.0761054,47.7461865 C51.9919218,47.2997579 51.2691327,47.682411 50.9077381,48.8941457 C50.5463435,50.0846219 50.9289966,50.8605572 52.0556973,51.2219518 C54.3516156,52.0510334 55.9247449,53.3159144 56.775085,55.0165946 C57.5829082,56.5684654 57.7210884,58.2372579 57.1896259,60.0229722 C56.6794218,61.744911 55.6696429,63.2117477 54.1602891,64.4234824 C52.5446429,65.6989926 50.7057823,66.4111525 48.6437075,66.559962 C42.6062925,66.9213566 39.1836735,62.8822409 38.3758503,54.4426151 C37.9081633,49.7444858 38.2695578,45.5565606 39.460034,41.8788395 C40.9906463,37.1169348 43.7011054,34.1088566 47.5914116,32.8546049 C48.7818878,32.4081763 49.2283163,31.5897239 48.9306973,30.3992477 C48.6330782,29.2087715 47.8890306,28.8154892 46.6985544,29.2194008 C43.1483844,30.36736 40.3422619,32.5888736 38.2801871,35.8839416 C37.4910714,37.1539246 36.8214286,38.5569858 36.2712585,40.0931253 C36.1998299,35.5778191 36.3167517,31.2198259 36.6220238,27.0191457 C36.6645408,26.019996 36.1437075,25.5204212 35.0595238,25.5204212 C33.9540816,25.5204212 33.4013605,26.019996 33.4013605,27.0191457 C33.1488095,32.500013 33.0744048,38.920081 33.1781463,46.2793498 C31.5323129,44.5267987 29.4277211,43.2831763 26.8643707,42.5484824 C25.8014456,42.2508634 25.142432,42.6760334 24.8873299,43.8239926 C24.5897109,44.9932103 24.9723639,45.7478872 26.0352891,46.0880232 C29.7767857,47.1722069 32.1258503,49.4468668 33.082483,52.9120028 C33.6989796,54.9740776 33.9009354,56.9192307 33.6883503,58.747462 C33.4332483,61.0221219 32.5297619,62.6483974 30.9778912,63.6262885 C27.6828231,65.7308804 24.3133503,65.5927001 20.8694728,63.2117477 C17.3618197,60.7457613 16.5008503,57.6526491 18.2865646,53.932411 C18.7755102,52.9332613 18.4991497,52.1254382 17.457483,51.5089416 C16.4370748,50.8711865 15.6717687,51.062513 15.1615646,52.0829212 C13.9285714,54.6126831 13.6096939,57.0786695 14.204932,59.4808804 C14.7151361,61.7130232 15.9056122,63.6262885 17.7763605,65.2206763 C19.6258503,66.7938055 21.7517007,67.7716967 24.1539116,68.1543498 C26.704932,68.5795198 29.1709184,68.2606423 31.5518707,67.1977171 C33.7108844,66.2313055 35.2414966,64.7538395 36.1437075,62.7653191 C37.4451531,66.0557103 39.4647109,68.1921899 42.202381,69.1747579 C45.9438776,70.4927851 49.5153061,70.4396389 52.9166667,69.0153191 C55.9778912,67.7398089 58.2738095,65.6564756 59.8044218,62.7653191 C61.2181122,60.1135334 61.5582483,57.519996 60.8248299,54.9847069 C61.1743197,54.9447409 61.525085,54.7959314 61.8771259,54.5382783 C65.0021259,52.1785844 66.0437925,49.1705062 65.0021259,45.5140436 C64.3431122,43.2393838 62.9294218,40.8052851 60.7610544,38.2117477 C62.5467687,36.787428 63.8647959,35.0654892 64.7151361,33.0459314 C65.9481293,30.1972919 65.9693878,27.3380232 64.7789116,24.4681253 C63.2057823,20.7691457 60.4421769,18.5582613 56.4880952,17.8354722 C56.1037415,17.7619178 55.3915816,17.7087715 54.3516156,17.6760334 C55.2886905,14.7070708 55.139881,12.1666797 53.9051871,10.05486 C52.6721939,8.01404363 50.7376701,6.72790417 48.1016156,6.19644159 C45.4443027,5.664979 42.8720238,5.9944858 40.3847789,7.184962 C38.9604592,7.8652341 37.7380952,8.7687205 36.7176871,9.89542118 C35.8035714,8.23725791 34.5280612,6.98300621 32.8911565,6.13266608 C30.5527211,4.87841438 28.0017007,4.66582934 25.2380952,5.49491097 C22.4957483,6.3027341 20.4761905,7.8439756 19.1794218,10.1186355 C18.0952381,12.0531593 17.7763605,14.2002681 18.2227891,16.559962 C13.6522109,16.7938055 10.1764456,18.8877681 7.7954932,22.8418498 C5.10459184,27.2585164 5.10459184,31.8290946 7.7954932,36.5535844 C6.40518707,38.0046899 5.54421769,39.9711015 5.21258503,42.4528191 C4.78741497,45.5778191 5,48.4477171 5.85034014,51.062513 C6.78571429,54.144996 8.50765306,56.2814756 11.0161565,57.4719518 C11.9940476,57.8758634 12.7593537,57.5569858 13.3120748,56.5153191 C13.8860544,55.494911 13.6628401,54.7721219 12.642432,54.3469518 C9.7087585,52.9864076 8.32695578,49.7763736 8.49702381,44.7168498 C8.49702381,43.2712715 8.63520408,42.1552001 8.91156463,41.3686355 C9.23044218,40.3269688 9.88945578,39.4553702 10.8886054,38.7538395 C11.8027211,38.0310504 12.855017,37.5633634 14.0454932,37.3507783 C14.7895408,37.2019688 15.980017,37.127564 17.6169218,37.127564 C18.7436224,37.2338566 19.3069728,36.6917647 19.3069728,35.5012885 C19.3069728,34.2682953 18.7436224,33.6305402 17.6169218,33.5880232 C15.0340136,33.4851321 12.8443878,33.7721219 11.0480442,34.4489926 C9.27508503,31.1041797 9.33886054,27.8835164 11.2393707,24.7870028 C13.3227041,21.4281593 16.5433673,19.9294348 20.9013605,20.2908293 C21.4753401,20.3546049 21.9642857,20.1207613 22.3681973,19.5892987 C22.7933673,19.0153191 22.8890306,18.4732273 22.6551871,17.9630232 C21.8048469,15.7308804 21.8261054,13.7857273 22.7189626,12.127564 C23.5267857,10.6394688 24.8129252,9.66157764 26.577381,9.19389057 C28.3205782,8.747462 29.9468537,8.93878853 31.4562075,9.76787016 C33.1356293,10.6819858 34.1985544,12.2338566 34.644983,14.4234824 C34.8363095,15.295081 35.3996599,15.7096219 36.335034,15.6671049 C37.2278912,15.6033293 37.8231293,15.1887885 38.1207483,14.4234824 C38.9498299,12.4464416 40.2359694,11.0327511 41.9791667,10.182411 C43.5522959,9.39584635 45.1785714,9.20451982 46.8579932,9.60843138 C48.5161565,9.99108444 49.7278912,10.8307953 50.4931973,12.127564 C51.3222789,13.5944008 51.3860544,15.3057103 50.6845238,17.2614926 C50.6381803,17.397547 50.6062925,17.525098 50.5888605,17.6441457 C49.0437925,17.6594518 47.2155612,17.6913395 45.1041667,17.7398089 C43.9136905,17.7398089 43.3184524,18.335047 43.3184524,19.5255232 C43.3184524,20.6947409 43.9136905,21.2793498 45.1041667,21.2793498 C46.3796769,21.2793498 48.4417517,21.1092817 51.2903912,20.7691457 C53.8626701,20.5990776 55.8715986,20.8541797 57.3171769,21.5344518 Z" id="Path" fill="#FFFFFF" fill-rule="nonzero"></path>
        <path d="M34.6130952,47.8418498 C34.6207483,47.9243327 34.6207483,48.0093668 34.6130952,48.0969518 C34.5514456,48.0038395 34.4876701,47.9081763 34.4217687,47.809962 C34.4893707,47.8261185 34.5531463,47.8367477 34.6130952,47.8418498 Z" id="Path" fill="#FFFFFF" fill-rule="nonzero"></path>
    </g>
</svg>