<svg xmlns="http://www.w3.org/2000/svg" width="70" height="76" viewBox="0 0 70 76">
    <path id="Shape"
          d="M46.889,76A15.781,15.781,0,0,1,35,70.817,15.782,15.782,0,0,1,23.111,76C14.738,76,7.925,69.865,7.925,62.324v-.008A16.714,16.714,0,0,1,0,48.425a15.888,15.888,0,0,1,3.471-9.86,14.1,14.1,0,0,1-.011-18.52,16.606,16.606,0,0,1,3.868-3.353,17.976,17.976,0,0,1,4.886-2.135,11,11,0,0,1-.325-2.618C11.889,5.356,17.812,0,25.093,0A13.854,13.854,0,0,1,35,4.06,13.851,13.851,0,0,1,44.907,0c7.281,0,13.2,5.356,13.2,11.938a11,11,0,0,1-.325,2.618,17.977,17.977,0,0,1,4.886,2.135,16.607,16.607,0,0,1,3.868,3.353A14.269,14.269,0,0,1,70,29.313a14.5,14.5,0,0,1-4.584,10.425A14.5,14.5,0,0,1,70,50.162,14.21,14.21,0,0,1,67.857,57.6a16.345,16.345,0,0,1-5.814,5.567C61.553,70.363,54.9,76,46.889,76Zm-.462-48.7a3.252,3.252,0,1,1,0,6.5c-4.754,0-8.621,3.218-8.621,7.174v20.85c0,3.956,3.867,7.175,8.621,7.175s8.621-3.219,8.621-7.175c0-2.983-2.265-5.688-5.636-6.73a3.267,3.267,0,0,1-1.95-1.616,3.184,3.184,0,0,1-.213-2.46A3.288,3.288,0,0,1,50.4,48.742a3.358,3.358,0,0,1,.991.15,14.728,14.728,0,0,1,8.693,6.884A8.207,8.207,0,0,0,63,49.663c0-3.074-1.9-5.9-5.088-7.55a3.226,3.226,0,0,1,0-5.751C61.1,34.708,63,31.885,63,28.812c0-4.876-4.722-8.872-10.526-8.909l-.038,0-.05,0-.057,0-.038,0a12.111,12.111,0,0,0-4.571.909,3.332,3.332,0,0,1-4.332-1.733,3.184,3.184,0,0,1-.023-2.472A3.254,3.254,0,0,1,45.15,14.82a18.671,18.671,0,0,1,5.426-1.337,4.521,4.521,0,0,0,.5-2.047C51.073,8.439,48.1,6,44.44,6s-6.633,2.439-6.633,5.436a3.307,3.307,0,0,1-6.613,0c0-3-2.976-5.436-6.633-5.436s-6.632,2.439-6.632,5.436a4.78,4.78,0,0,0,1.21,3.119l0,0c.056.066.109.134.161.209l.015.019c.01.013.02.025.029.038s.032.05.048.075l.027.044a3.211,3.211,0,0,1-.67,4.192,3.343,3.343,0,0,1-2.135.77l-.05,0-.038,0C10.725,19.94,6,23.937,6,28.812a7.766,7.766,0,0,0,1.805,4.914,20.3,20.3,0,0,1,6.065-2.43,3.381,3.381,0,0,1,.743-.083,3.278,3.278,0,0,1,3.22,2.525,3.188,3.188,0,0,1-.409,2.434,3.281,3.281,0,0,1-2.075,1.463C9.845,38.876,6,43.108,6,47.925a9.8,9.8,0,0,0,3.307,7.168,13.931,13.931,0,0,1,2.041-2.52,3.345,3.345,0,0,1,4.676.014,3.214,3.214,0,0,1-.014,4.6,6.5,6.5,0,0,0-2.058,4.64c0,3.956,3.867,7.174,8.621,7.174s8.621-3.218,8.621-7.174v-6.95c0-2.984-2.265-5.689-5.636-6.73a3.269,3.269,0,0,1-1.951-1.618,3.183,3.183,0,0,1-.212-2.459,3.287,3.287,0,0,1,3.153-2.277,3.361,3.361,0,0,1,.992.15,15.919,15.919,0,0,1,3.653,1.663V25.555a3.307,3.307,0,0,1,6.612,0v4.153A16.354,16.354,0,0,1,46.427,27.3Z"
          fill="#fff"/>
</svg>
