<?xml version="1.0" encoding="utf-8"?><svg id="brain4new" image-rendering="auto" baseProfile="basic" version="1.1" x="0px" y="0px" width="800" height="450" xmlns="http://www.w3.org/2000/svg" xmlns:xlink="http://www.w3.org/1999/xlink"><g id="Scene-1" overflow="visible"><g id="Symbol-197" transform="translate(407.45 284.1)"><path fill="#000" stroke="none" d="M-60.05 -168.05Q-59.35 -168.05 -59.35 -168.75 -59.35 -169.45 -60.05 -169.45 -60.75 -169.45 -60.75 -168.75 -60.75 -168.05 -60.05 -168.05Z"/><path fill="#FFF" stroke="none" d="M119.55 -111.8Q119.45 -111.55 119.35 -111.4 117.95 -111.5 116.45 -111.25 111.75 -110.5 109.2 -106.6 106.6 -102.5 108 -97.75 108.205 -97.038 108.45 -96.4 108.088 -96.193 107.7 -95.9 100.7 -90.5 95.55 -83.65 91.15 -78 90.15 -76.9 87 -73.3 83.65 -71.3 77.9 -67.75 68.55 -65.5 65.25 -64.65 61.1 -63.95 58.55 -63.35 57 -63.1 54.25 -62.7 53.1 -63.6 52.977 -63.694 52.85 -63.8 49.527 -70.924 44.8 -77.45 37.5 -87.5 27.4 -95.05 22.597 -98.597 17.45 -101.4 17.453 -101.458 17.45 -101.55L16.75 -143.55Q16.748 -143.626 16.75 -143.7 19.723 -144.778 21.95 -147.45 25.1 -151.3 24.8 -156.2 24.45 -161.55 20.3 -164.75 16.15 -167.95 10.95 -167.15 8.35 -166.8 8.55 -163.95 8.55 -163.65 8.6 -163.5 7.25 -162.85 6.1 -161.9 2.45 -158.85 2.2 -154.3 2 -149.4 5.55 -145.95 7.832 -143.731 10.55 -143.15L11.2 -104.4Q8.664 -105.482 6.05 -106.4 .95 -108.2 -4.75 -109.2 -4.841 -109.214 -4.95 -109.25 -5.189 -115.169 -6.25 -121.45 -6.65 -123.552 -8.9 -123.55 -9.5 -123.553 -10.2 -123.4 -13.3 -122.728 -13.25 -120.6 -13.3 -120.301 -13.2 -119.95 -12.128 -113.754 -12.1 -107 -15.842 -106.597 -19.5 -106.05 -24.230 -144.283 -22.25 -182.8 -22.1 -186.2 -25.65 -186.15 -29.3 -186.15 -29.45 -182.8 -31.462 -143.655 -26.55 -104.8 -34.963 -103.078 -42.75 -100.5L-43.75 -121.25Q-43.9 -124.7 -47.55 -124.7 -51.15 -124.7 -50.95 -121.25L-49.85 -98.7Q-49.831 -98.276 -49.75 -97.9 -54.058 -96.176 -58.15 -94.15 -60.945 -92.775 -63.6 -91.3 -63.483 -100.889 -64.3 -107.15 -65.85 -118.95 -70.95 -127 -73.4 -130.75 -77.05 -134.7 -79.35 -137.2 -83.8 -141.4L-98.85 -155.55Q-97.135 -157.854 -96.3 -160.9 -94.65 -167.05 -97.6 -172.55 -100.8 -178.6 -107.3 -180.1 -113.8 -181.65 -119.4 -178 -122.25 -176.2 -120.5 -173 -120.35 -172.7 -120.25 -172.5 -121.4 -171.1 -122.25 -169.35 -124.9 -163.9 -122.75 -158.45 -120.45 -152.7 -114.5 -150.6 -109.569 -148.833 -105.2 -150.6L-90.5 -136.85Q-85.75 -132.4 -84.15 -130.75 -80.6 -127.2 -78.2 -124.05 -72.85 -116.95 -71.35 -105.8 -70.492 -99.229 -70.85 -86.8 -84.016 -77.786 -93.3 -65.2 -128.530 -69.984 -163.45 -64.35 -163.772 -65.209 -164.25 -66.05 -166.75 -70.35 -171.45 -71.8 -176.6 -73.4 -181 -70.6 -185.5 -67.85 -186.6 -62.7 -187.15 -60.15 -184.4 -59.3 -184.15 -59.25 -184 -59.2 -183.85 -57.75 -183.35 -56.35 -181.8 -51.8 -177.6 -50 -173.1 -48.1 -168.6 -50.2 -164.1 -52.35 -162.95 -56.95 -162.876 -57.237 -162.85 -57.55 -162.425 -57.538 -162 -57.6 -130.044 -62.853 -97.6 -58.85 -101.45 -52.524 -104.3 -45.75 -104.525 -45.810 -104.8 -45.85 -117.15 -47.55 -129.5 -44.1 -132.9 -43.15 -131.9 -39.5 -131 -35.8 -127.55 -36.7 -117.645 -39.471 -106.95 -38.5 -107.131 -37.944 -107.3 -37.4 -109.141 -31.332 -110.1 -25.3 -178.539 -28.495 -246.9 -24.7 -264.297 -23.730 -285.3 -22 -285.709 -23.572 -286.65 -25.05 -289.4 -29.55 -294.55 -30.65 -297.1 -31.2 -297.95 -28.45 -298 -28.2 -298.05 -28.05 -299.5 -27.9 -300.9 -27.4 -305.45 -25.85 -307.25 -21.65 -309.15 -17.15 -307.05 -12.65 -304.9 -8.15 -300.3 -7 -295.6 -5.8 -291.2 -8.3 -287.139 -10.660 -285.65 -15 -216.106 -20.890 -146.15 -19.5 -129.560 -19.143 -110.9 -18.3 -111.088 -15.051 -111.05 -11.8 -111.020 -7.808 -110.6 -3.9 -121.412 -5.185 -132.25 -3.5 -135.65 -2.95 -134.7 .5 -133.8 4 -130.35 3.4 -119.802 1.899 -109.35 3.5 -108.167 8.784 -106.2 13.9 -105.904 14.664 -105.6 15.4 -118.174 16.520 -129.75 21.85 -142.040 27.576 -151.15 37.15 -151.884 37.580 -152.25 38.35 -152.900 39.091 -153.55 39.85 -154.166 40.534 -154.45 41.2 -159.423 38.752 -164.05 40.7 -169.25 42.95 -171.9 48.7 -174.85 54.85 -172.1 60 -169.5 64.9 -163.85 65.9 -158.35 66.85 -153.85 63.65 -148.75 60 -146.8 53.1 -145.475 48.348 -145.55 41.45 -137.475 33.286 -127 28.3 -115.299 22.752 -102.4 22.15 -98.736 28.867 -93.6 34.85 -85.55 44.3 -74.85 50.65 -72.627 51.977 -70.35 53.1 -70.378 53.287 -70.4 53.45 -73.176 75.414 -71.05 96.65 -74.873 96.125 -79.7 96.25 -83.1 96.3 -83.1 99.8 -83.1 103.3 -79.7 103.25 -78.55 103.25 -77.5 103.25 -78.1 104 -78.5 104.85 -81.15 110 -79.15 114.75 -76.9 119.95 -71.15 122.6 -65 125.55 -59.85 122.8 -54.95 120.2 -53.95 114.55 -53 109.05 -56.2 104.55 -59.165 100.406 -64.3 98.35 -64.173 97.756 -64.25 97 -66.225 76.490 -63.9 56 -58.721 58.052 -53.3 59.25 -54.863 69.838 -51.5 79.75 -50.45 83.05 -46.75 82.1 -43.15 81.2 -44.2 77.95 -47.124 69.131 -45.85 60.55 -38.990 61.445 -31.85 61.2 -32.933 69.260 -32.85 78.5 -32.7 86.95 -31.6 98.7 -28.8 126.9 -28.1 138.6 -25.8 179 -28.65 219.95 -28.95 223.4 -25.5 223.3 -22.1 223.3 -21.8 219.95 -19 179.15 -21.2 139.9 -22.1 123.7 -24.6 100.1 -25.85 87.7 -26 80.1 -26.289 69.442 -24.85 60.75 -18.217 59.976 -11.65 58.3 -12.397 69.020 -10.35 79.6 -9.65 83.05 -6.3 82.05 -2.9 81.15 -3.6 77.7 -5.4 68 -4.55 57.75 -4.475 56.889 -4.65 56.25 -1.313 55.140 2 53.8 4.217 52.905 6.35 51.95 6.012 62.923 14.1 73.75 16.55 77 23.75 84.65 29.519 90.737 32.45 95.05 31.247 96.709 30.7 98.9 29.5 103.75 32.3 107.55 35.2 111.5 40.15 112.35 45.1 113.2 49.15 110.45 53.65 107.45 54.35 102.3 55.05 97.1 51.75 93 50.15 90.9 47.8 92.5 47.55 92.65 47.4 92.75 46.2 91.95 44.8 91.4 41.582 90.255 38.55 90.95 35.955 87.001 31.6 82.25 25.9 76.3 23.1 73.2 12.15 60.85 13.6 50.6 13.771 49.380 13.45 48.45 31.027 39.092 42.7 24.75 43.331 23.968 43.95 23.15 44.339 23.219 44.8 23.2 134.068 20.029 224.8 21 225.245 23.029 226.55 24.8 229.45 28.75 234.4 29.6 239.35 30.45 243.4 27.7 247.9 24.7 248.6 19.55 249.3 14.35 246 10.25 244.4 8.15 242.05 9.75 241.8 9.9 241.65 10 240.45 9.2 239.05 8.65 234.55 7.05 230.45 9.1 227.157 10.822 225.65 14.05 136.563 13.037 48.85 16.05 52.457 10.223 55 3.9 59.476 3.871 71.5 1.75 82.1 -.05 88.45 1.2 91.9 1.9 92.8 -1.35 93.8 -4.5 90.45 -5.2 83.5 -6.55 72.45 -4.85 62.332 -3.225 57.35 -2.8 59.659 -10.405 60.4 -18.55 78.396 -21.071 98.05 -22.15 108.65 -22.65 117.2 -22.7 123.65 -22.7 126.15 -22.5 131.2 -22.1 134.9 -20.55 138.05 -19.3 138.95 -22.6 139.85 -25.95 136.75 -27.2 132.85 -28.75 127.75 -29.3 124.25 -29.65 118.55 -29.55 109 -29.55 98.05 -29 79.660 -28.027 60.8 -25.5 60.799 -25.554 60.8 -25.6 60.879 -31.317 60.3 -36.85L136.75 -41.95Q163.55 -43.7 174.25 -43.55 195.2 -43.4 211.15 -38.95 211.297 -38.910 211.45 -38.9 211.367 -34.187 214.8 -30.9 218.4 -27.45 223.1 -27.95 227.95 -28.45 231.15 -32.35 234.35 -36.2 234.05 -41.1 233.7 -46.45 229.55 -49.65 225.4 -52.9 220.2 -52.05 217.6 -51.75 217.8 -48.9 217.8 -48.65 217.85 -48.45 216.55 -47.8 215.35 -46.85 214.563 -46.192 213.9 -45.5 213.615 -45.593 213.25 -45.7 197.1 -50.2 176.05 -50.55 163.8 -50.7 138.4 -49L59.25 -43.7Q58.376 -48.484 56.95 -53.1 56.481 -54.634 55.95 -56.15 56.126 -56.144 56.3 -56.15 58.3 -56.2 65.05 -57.55 76.45 -59.75 83.5 -63.2 91.75 -67.1 97.75 -74.85 106 -85.85 112.75 -90.95 112.977 -91.121 113.15 -91.3 113.427 -91.167 113.7 -91.05 118.2 -89.1 122.9 -90.8 127.55 -92.55 129.75 -97 132.15 -101.8 130.15 -106.65 128.15 -111.5 123.25 -113.35 120.8 -114.4 119.55 -111.8M113.85 -103.4Q114.8 -105.3 117.15 -105.7 119.35 -106.2 121.05 -104.8 122.95 -103.4 124.6 -105.05 124.65 -105 124.7 -104.95 125.95 -102.55 124.95 -99.9 124 -97.5 121.7 -96.3 119.3 -95.15 116.85 -95.9 114.55 -96.6 113.65 -98.95 112.65 -101.25 113.85 -103.4M9.85 -149.85Q7.85 -151.4 7.8 -153.8 7.65 -155.95 9.5 -157.45 11.2 -158.95 13.3 -158.6 15.7 -158.3 16.3 -160.6L16.4 -160.55Q18.7 -159.05 19.2 -156.3 19.55 -153.8 18.1 -151.6 16.65 -149.4 14.15 -148.8 11.8 -148.25 9.85 -149.85M42.5 -67.1Q44.45 -63.75 45.35 -61.95 46.9 -58.8 48 -55.9L48.15 -55.65 48.15 -55.55Q48.3 -55.15 48.35 -55L49.95 -50.35Q51.8 -44.25 52.75 -37.55L52.9 -36.65 53.3 -31.65Q53.45 -27.35 53.4 -25.3 53.4 -23.05 52.95 -18.6L52.9 -17.9Q52.9 -17.85 52.85 -17.35L52.15 -12.7Q50.95 -6.65 48.65 -.3L48.65 -.35 46.25 4.95Q44.8 7.95 43.45 10.15L40.65 14.55Q40.45 14.9 40.4 15L40.6 14.75Q39.55 16.35 36.9 19.55 33.25 23.9 28.7 28.1L24.6 31.5Q22.7 33.05 20 34.95 14.8 38.6 9.75 41.25L-.55 46.05Q-7.2 48.65 -13.15 50.1 -16.3 50.95 -19.8 51.6L-25.75 52.4Q-32.25 53.2 -38.8 52.85 -41.75 52.75 -45.45 52.3L-46.05 52.2 -46.3 52.2 -51.05 51.3Q-56.95 49.95 -62.9 47.6L-72.05 42.85 -80.45 36.75 -80.55 36.7Q-85 32.85 -88.7 28.45 -90.3 26.55 -92.05 24.1 -91.65 24.8 -92.2 23.95L-94.85 19.8Q-96.6 16.75 -97.65 14.6L-99.55 10.2 -99.6 10.15Q-101.85 3.7 -102.75 -1.7L-103.4 -6.65Q-103.65 -9.35 -103.65 -12.8 -103.65 -16.2 -103.4 -18.95 -103.346 -19.246 -103.3 -19.55 -102.95 -20.265 -102.95 -21.4 -102.95 -21.861 -103 -22.3L-102.75 -24Q-101.85 -30 -99.9 -36L-95.7 -46.5Q-92.9 -52.2 -89.75 -56.9L-82.85 -66Q-79 -70.25 -74.15 -74.35L-74.4 -74.15Q-74.3 -74.25 -74.05 -74.45L-73.45 -75 -64.8 -81.3Q-59.4 -84.65 -53.9 -87.35L-43.3 -91.85Q-31.55 -95.95 -19.5 -97.85L-18.1 -98.15 -18.05 -98.15 -8.45 -99.25Q-7.671 -99.327 -7 -99.65 -5.699 -100.001 -5.25 -101 -.412 -99.986 4.3 -98.35 7.45 -97.25 9.4 -96.3L10.25 -95.95 14.05 -94Q18.5 -91.65 23.6 -87.85L26 -86.1 26.9 -85.25Q26.85 -85.4 27.05 -85.2L27.75 -84.65Q30.2 -82.5 32 -80.5 36 -76.55 39.55 -71.55L39.7 -71.35Q39.95 -71 40.05 -70.95L42.5 -67.1M225.55 -45.55Q225.6 -45.5 225.65 -45.5 227.95 -44.05 228.4 -41.25 228.8 -38.7 227.35 -36.5 225.9 -34.35 223.4 -33.75 221.05 -33.25 219.1 -34.75 217.1 -36.3 217.05 -38.75 216.95 -40.85 218.75 -42.4 220.45 -43.85 222.55 -43.6 224.95 -43.2 225.55 -45.55M243 18.1Q243 18.2 243 18.25 242.85 20.95 240.7 22.75 238.7 24.35 236.05 24.25 233.5 24.05 231.7 22.15 230.05 20.4 230.45 17.95 230.75 15.45 232.85 14.15 234.65 13 236.9 13.85 239 14.5 239.8 16.5 240.75 18.75 243 18.1M38.6 96.9Q40.4 95.75 42.65 96.6 44.75 97.25 45.55 99.25 46.5 101.5 48.75 100.85 48.75 100.95 48.75 101 48.6 103.7 46.45 105.5 44.45 107.1 41.8 107 39.25 106.8 37.45 104.9 35.8 103.15 36.2 100.7 36.5 98.2 38.6 96.9M-290.7 -17.6Q-291.2 -15.1 -293.3 -13.5 -295.45 -12 -298 -12.3 -300.4 -12.65 -301.65 -14.8 -303 -16.95 -302.2 -19.25 -301.55 -21.25 -299.25 -22.05 -297.25 -22.85 -295.35 -21.85 -293.2 -20.7 -291.8 -22.65L-291.75 -22.55Q-290.15 -20.35 -290.7 -17.6M-178.5 -65.5Q-176.3 -67.1 -173.55 -66.55 -171.05 -66.05 -169.45 -63.95 -167.95 -61.8 -168.25 -59.25 -168.6 -56.85 -170.75 -55.6 -172.9 -54.25 -175.2 -55.05 -177.2 -55.7 -178 -58 -178.8 -60 -177.8 -61.9 -176.65 -64.05 -178.6 -65.45L-178.5 -65.5M-109.6 -173.2Q-106.2 -172.7 -104.2 -169.75 -102.4 -167 -102.9 -163.7 -103.45 -160.4 -106.05 -158.4 -108.5 -156.55 -111.55 -157.35 -114.7 -158.05 -116.05 -160.85 -117.3 -163.25 -115.95 -166 -114.8 -168.6 -112.2 -169.35 -109.25 -170.25 -109.75 -173.2 -109.65 -173.2 -109.6 -173.2M-155.05 54.7Q-156.7 57.3 -159.1 58.4 -161.85 59.75 -164.25 58.25 -167.05 56.65 -166.5 53.65 -166 51 -163.5 48.9 -160.85 46.75 -158.25 47.1 -155.35 47.45 -154.05 51.15 -153.95 51.6 -153.7 51.95 -154.3 53.5 -155.05 54.7M-65.15 105.75Q-62.55 107.4 -61.45 109.8 -60.1 112.55 -61.6 114.95 -63.2 117.75 -66.2 117.2 -68.85 116.7 -70.95 114.2 -73.1 111.55 -72.75 108.95 -72.4 106.05 -68.7 104.75 -68.25 104.65 -67.9 104.4 -66.35 105 -65.15 105.75Z"/></g><g id="Symbol-197d280" transform="translate(380.75 263.15)"><g id="Symbol-198"><animateTransform attributeName="transform" additive="replace" type="scale" repeatCount="indefinite" dur="12.727s" keyTimes="0;.032;.068;.07099;.104;.139;.14299;.175;.211;.21399;.246;.282;.28599;.318;.354;.35699;.389;.425;.42899;.461;.496;.49999;.532;.568;.57099;.604;.639;.64299;.675;.711;.71399;.746;.782;.78599;.818;.854;.85699;.889;.925;.92899;.961;.996;1" values="1,1;1.1,1.1;1,1;1,1;1.1,1.1;1,1;1,1;1.1,1.1;1,1;1,1;1.1,1.1;1,1;1,1;1.1,1.1;1,1;1,1;1.1,1.1;1,1;1,1;1.1,1.1;1,1;1,1;1.1,1.1;1,1;1,1;1.1,1.1;1,1;1,1;1.1,1.1;1,1;1,1;1.1,1.1;1,1;1,1;1.1,1.1;1,1;1,1;1.1,1.1;1,1;1,1;1.1,1.1;1,1;1,1"/><path fill="#FFF" stroke="none" d="M25.55 -27.3Q31.6 -27.7 35 -26.1 42.65 -22.25 42.2 -14.5 41.8 -7.1 34.8 -2.9 33.6 -2.2 33.4 -.85 33.25 .45 34.1 1.5 39.4 7.1 40.95 11 43.524 17.387 38.1 21.55 34.891 17.333 28.35 15 25.8 13.95 24.95 16.8 24.1 19.6 26.75 20.45 32.15 22.4 34.15 26.4 36.05 30.05 34.8 34.25 33.6 38.3 30.05 41.15 26.25 44.15 21.4 44.5 7.2 45.35 5.3 25.5 4.2 14.45 7 5.8 10.6 -5.4 19.75 -8.35 22.55 -9.4 21.85 -12.2 21.15 -15 18.35 -14.05 10 -11.35 5.15 -3.6 3.294 -.613 2 3 1.832 -7.620 2.55 -17.5 2.65 -19.85 .1 -19.85 -2.5 -19.85 -2.5 -17.5 -3.094 -4.609 -2.85 12.7 -6.721 8.578 -12.75 6.85 -15.25 6.15 -15.85 8.85 -16.55 11.6 -14.05 12.4 -5.25 14.95 -3 23.1 -1.55 27.95 -2.05 32.25 -2.65 37.6 -6.3 39.9 -14.05 44.85 -22.15 39.25 -30.4 33.45 -26.2 24.7 -25.05 22.35 -27.5 20.9 -29.9 19.4 -31.1 21.8 -34 27.75 -32.6 33.4 -31.4 38.65 -27 42.4 -22.65 46.1 -17 47 -11 48 -5.4 45.5 -.322 43.227 1.8 38.55 4.861 46.289 11.3 48.6 20.1 51.7 28.1 48.35 35.3 45.35 38.9 38.55 42.225 32.313 40.5 26.35 41.322 26.256 42.15 25.65 49.5 20.1 47.05 11.5 45.5 6.15 40.4 .05 44.6 -3.3 46.6 -8.05 49.5 -14.75 46.7 -21.5 43 -30.2 33.7 -31.9 32.796 -32.073 30.35 -32.15 32.554 -39.133 29.65 -44.1 26.75 -48.9 20.55 -50.15 14.3 -51.4 8.45 -48.6 5.1 -47 2.7 -44.35 .55 -48.25 -3.3 -50.25 -8.8 -53.2 -15.3 -51.25 -21.75 -49.35 -24.8 -44 -27.35 -39.45 -26.3 -33.9 -37.05 -33.35 -42.65 -24.05 -48.979 -13.662 -42.65 -2.55 -45.920 .863 -46.7 6.7 -47.7 14.05 -45.7 20.2 -43.5 27.45 -37.6 30.25 -35.3 31.2 -34 28.75 -32.65 26.35 -35.05 25.35 -41.95 22.15 -41.55 10.25 -41.55 6.85 -40.9 5 -40.15 2.55 -37.8 .9 -35.65 -.8 -32.85 -1.3 -31.1 -1.65 -27.25 -1.65 -24.6 -1.4 -24.6 -4.2 -24.6 -7.1 -27.25 -7.2 -33.325 -7.442 -37.55 -5.85 -41.720 -13.717 -37.25 -21 -32.35 -28.9 -22.1 -28.05 -20.75 -27.9 -19.8 -29.15 -18.8 -30.5 -19.35 -31.7 -21.35 -36.95 -19.25 -40.85 -17.35 -44.35 -13.2 -45.45 -9.1 -46.5 -5.55 -44.55 -1.6 -42.4 -.55 -37.25 -.1 -35.2 2.1 -35.3 4.2 -35.45 4.9 -37.25 6.85 -41.9 10.95 -43.9 14.65 -45.75 18.6 -44.8 22.5 -43.9 24.3 -40.85 26.25 -37.4 24.6 -32.8 24.491 -32.480 24.45 -32.2 20.816 -32.164 15.85 -32.05 13.05 -32.05 13.05 -29.25 13.05 -26.5 15.85 -26.5 18.85 -26.5 25.55 -27.3M-.6 15.15Q-.582 15.344 -.6 15.55 -.745 15.331 -.9 15.1 -.741 15.138 -.6 15.15Z"/></g></g><g display="none"><g id="Symbol-196" transform="matrix(.3 0 0 .3 245.7 343.55)"><animateTransform attributeName="transform" additive="replace" type="translate" repeatCount="indefinite" dur="12.727s" keyTimes="0;.089;.118;.129;.81399;.839;1" values="245.695,343.545;245.695,343.545;245.788,343.579;245.72,343.56;245.72,343.56;245.706,343.556;245.706,343.556"/><animateTransform attributeName="transform" additive="sum" type="scale" repeatCount="indefinite" dur="12.727s" keyTimes="0;.089;.118;.129;.81399;.839;1" values=".3,.3;.3,.3;1.584,1.584;1.2,1.2;1.2,1.2;.12,.12;.12,.12"/><animateTransform attributeName="transform" additive="sum" type="translate" repeatCount="indefinite" dur="12.727s" keyTimes="0;.089;.118;.129;.81399;.839;1" values="-.15,-.15;-.15,-.15;-.15,-.05;-.1,-.05;-.1,-.05;-.05,-.05;-.05,-.05"/><animate attributeName="opacity" repeatCount="indefinite" dur="12.727s" keyTimes="0;.089;.118;.81399;.839;1" values="0;0;1;1;0;0"/><path fill="#FFF" stroke="none" d="M17.8 -17.8Q10.4 -25.15 0 -25.15 -10.45 -25.15 -17.8 -17.8 -25.15 -10.45 -25.15 0 -25.15 10.4 -17.8 17.75 -10.45 25.1 0 25.1 10.4 25.1 17.8 17.75 25.15 10.4 25.15 0 25.15 -10.45 17.8 -17.8M16.2 -11.8Q16.2 -11.432 15.95 -11.3 16.311 -4.313 16 2.55 16.170 2.788 16.2 3.1 16.2 3.7 15.4 5.45 14.95 6.5 13.9 9.45 12.8 12.05 11.3 12.55L11.25 12.55Q11.108 12.772 10.75 12.8 -3.4 13.65 -16.6 12.7 -16.983 12.667 -17.15 12.4 -17.337 12.211 -17.2 11.8 -15.150 6.270 -13.65 2.55 -13.647 -7.216 -13.6 -9.25 -13.6 -11.3 -12.75 -11.75 -12.2 -12.05 -9.95 -12.1L15.5 -12.5Q16.2 -12.5 16.2 -11.8M14.4 2Q14.769 2.010 15.05 2.05 15.303 -4.499 15 -11.15L-5.55 -10.85Q-7.25 -10.95 -8.2 -10.95 -9.85 -11 -10.9 -10.8L-11.85 -10.7Q-12.1 -10.55 -12.25 -9.8 -12.4 -9.3 -12.35 -8.55 -12.35 -8.15 -12.25 -7.35L-12.35 2Q-7.802 1.992 .65 1.9 8.9 1.85 14.4 2M14.8 3.25Q14.7 3.05 12.65 3.1 10.65 3.25 10.35 3.25L-12.35 3.25 -12.35 3.6Q-12.35 4.2 -13 4.3 -13.059 4.3 -13.15 4.3 -14.782 8.462 -15.9 11.5 -2.122 12.229 10.7 11.5 10.814 11.436 10.95 11.4 11.75 11.15 12.5 9.4 13.2 7.5 13.45 6.9 15.1 3.75 14.8 3.25M10.2 6Q10.2 5.4 10.8 5.4 11.4 5.4 11.4 6 11.4 6.6 10.8 6.6 10.2 6.6 10.2 6M8.45 5.4Q9 5.4 9 6 9 6.6 8.45 6.6 7.85 6.6 7.85 6 7.85 5.4 8.45 5.4M6.1 5.4Q6.6 5.4 6.6 6 6.6 6.6 6.1 6.6L5.9 6.6Q5.45 6.6 5.45 6 5.45 5.4 5.9 5.4L6.1 5.4M1.85 6Q1.85 5.4 2.45 5.4 3.05 5.4 3.05 6 3.05 6.6 2.45 6.6 1.85 6.6 1.85 6M.1 5.4Q.65 5.4 .65 6 .65 6.6 .1 6.6 -.5 6.6 -.5 6 -.5 5.4 .1 5.4M.65 8.4Q.65 9 .1 9 -.5 9 -.5 8.4 -.5 7.8 .1 7.8 .65 7.8 .65 8.4M4.25 8.4Q4.25 9 3.65 9 3.05 9 3.05 8.4 3.05 7.8 3.65 7.8 4.25 7.8 4.25 8.4M6.65 8.4Q6.65 9 6.05 9 5.45 9 5.45 8.4 5.45 7.8 6.05 7.8 6.65 7.8 6.65 8.4M9 8.4Q9 7.8 9.6 7.8 10.2 7.8 10.2 8.4 10.2 9 9.6 9 9 9 9 8.4M-3.5 5.4Q-2.9 5.4 -2.9 6 -2.9 6.6 -3.5 6.6 -4.1 6.6 -4.1 6 -4.1 5.4 -3.5 5.4M-6.5 6Q-6.5 5.4 -5.9 5.4 -5.3 5.4 -5.3 6 -5.3 6.6 -5.9 6.6 -6.5 6.6 -6.5 6M-9.45 5.4Q-8.85 5.4 -8.85 6 -8.85 6.6 -9.45 6.6 -10.05 6.6 -10.05 6 -10.05 5.4 -9.45 5.4M-6.5 8.4Q-6.5 7.8 -5.9 7.8 -5.3 7.8 -5.3 8.4 -5.3 9 -5.9 9 -6.5 9 -6.5 8.4M-8.25 9Q-8.85 9 -8.85 8.5L-8.85 8.35Q-8.85 7.85 -8.25 7.85 -7.7 7.85 -7.7 8.35L-7.7 8.5Q-7.7 9 -8.25 9M-2.25 9L-2.45 9Q-2.9 9 -2.9 8.4 -2.9 7.8 -2.45 7.8L-2.25 7.8Q-1.75 7.8 -1.75 8.4 -1.75 9 -2.25 9M-12.45 6Q-12.45 5.4 -11.85 5.4 -11.25 5.4 -11.25 6 -11.25 6.6 -11.85 6.6 -12.45 6.6 -12.45 6M-11.25 8.35L-11.25 8.5Q-11.25 9 -11.85 9 -12.45 9 -12.45 8.5L-12.45 8.35Q-12.45 7.85 -11.85 7.85 -11.25 7.85 -11.25 8.35Z"/><path fill="#2B386B" stroke="none" d="M-13.65 2.65Q-13.65 2.602 -13.65 2.55 -15.150 6.270 -17.2 11.8 -17.337 12.211 -17.15 12.4 -17.2 12.266 -17.2 12.05 -17.2 11.4 -16.6 11.45 -16.232 11.470 -15.9 11.5 -14.782 8.462 -13.15 4.3 -13.604 4.240 -13.65 3.7 -13.65 3.253 -13.65 2.8 -13.657 2.742 -13.65 2.65M10.55 12.15Q10.436 11.698 10.7 11.5 -2.122 12.229 -15.9 11.5 -16.232 11.470 -16.6 11.45 -17.2 11.4 -17.2 12.05 -17.2 12.266 -17.15 12.4 -16.983 12.667 -16.6 12.7 -3.4 13.65 10.75 12.8 11.108 12.772 11.25 12.55 10.696 12.783 10.55 12.15M-11.25 8.5L-11.25 8.35Q-11.25 7.85 -11.85 7.85 -12.45 7.85 -12.45 8.35L-12.45 8.5Q-12.45 9 -11.85 9 -11.25 9 -11.25 8.5M-11.85 5.4Q-12.45 5.4 -12.45 6 -12.45 6.6 -11.85 6.6 -11.25 6.6 -11.25 6 -11.25 5.4 -11.85 5.4M-2.45 9L-2.25 9Q-1.75 9 -1.75 8.4 -1.75 7.8 -2.25 7.8L-2.45 7.8Q-2.9 7.8 -2.9 8.4 -2.9 9 -2.45 9M-8.85 8.5Q-8.85 9 -8.25 9 -7.7 9 -7.7 8.5L-7.7 8.35Q-7.7 7.85 -8.25 7.85 -8.85 7.85 -8.85 8.35L-8.85 8.5M-5.9 7.8Q-6.5 7.8 -6.5 8.4 -6.5 9 -5.9 9 -5.3 9 -5.3 8.4 -5.3 7.8 -5.9 7.8M-8.85 6Q-8.85 5.4 -9.45 5.4 -10.05 5.4 -10.05 6 -10.05 6.6 -9.45 6.6 -8.85 6.6 -8.85 6M-5.9 5.4Q-6.5 5.4 -6.5 6 -6.5 6.6 -5.9 6.6 -5.3 6.6 -5.3 6 -5.3 5.4 -5.9 5.4M-2.9 6Q-2.9 5.4 -3.5 5.4 -4.1 5.4 -4.1 6 -4.1 6.6 -3.5 6.6 -2.9 6.6 -2.9 6M9.6 7.8Q9 7.8 9 8.4 9 9 9.6 9 10.2 9 10.2 8.4 10.2 7.8 9.6 7.8M6.05 9Q6.65 9 6.65 8.4 6.65 7.8 6.05 7.8 5.45 7.8 5.45 8.4 5.45 9 6.05 9M3.65 9Q4.25 9 4.25 8.4 4.25 7.8 3.65 7.8 3.05 7.8 3.05 8.4 3.05 9 3.65 9M.1 9Q.65 9 .65 8.4 .65 7.8 .1 7.8 -.5 7.8 -.5 8.4 -.5 9 .1 9M.65 6Q.65 5.4 .1 5.4 -.5 5.4 -.5 6 -.5 6.6 .1 6.6 .65 6.6 .65 6M2.45 5.4Q1.85 5.4 1.85 6 1.85 6.6 2.45 6.6 3.05 6.6 3.05 6 3.05 5.4 2.45 5.4M6.6 6Q6.6 5.4 6.1 5.4L5.9 5.4Q5.45 5.4 5.45 6 5.45 6.6 5.9 6.6L6.1 6.6Q6.6 6.6 6.6 6M9 6Q9 5.4 8.45 5.4 7.85 5.4 7.85 6 7.85 6.6 8.45 6.6 9 6.6 9 6M10.8 5.4Q10.2 5.4 10.2 6 10.2 6.6 10.8 6.6 11.4 6.6 11.4 6 11.4 5.4 10.8 5.4M16.2 3.1Q16.170 2.788 16 2.55 15.976 3.082 15.95 3.6 15.9 4.3 15.4 4.3 14.95 4.3 15 3.6 15.034 2.835 15.05 2.05 14.769 2.010 14.4 2 8.9 1.85 .65 1.9 -7.802 1.992 -12.35 2L-12.35 3.25 10.35 3.25Q10.65 3.25 12.65 3.1 14.7 3.05 14.8 3.25 15.1 3.75 13.45 6.9 13.2 7.5 12.5 9.4 11.75 11.15 10.95 11.4 10.814 11.436 10.7 11.5 10.436 11.698 10.55 12.15 10.696 12.783 11.25 12.55L11.3 12.55Q12.8 12.05 13.9 9.45 14.95 6.5 15.4 5.45 16.2 3.7 16.2 3.1M15.95 -11.8Q15.963 -11.536 15.95 -11.3 16.2 -11.432 16.2 -11.8 16.2 -12.5 15.5 -12.5L-9.95 -12.1Q-12.2 -12.05 -12.75 -11.75 -13.6 -11.3 -13.6 -9.25 -13.647 -7.216 -13.65 2.55 -13.65 2.602 -13.65 2.65 -13.657 2.742 -13.65 2.8 -13.65 3.253 -13.65 3.7 -13.604 4.240 -13.15 4.3 -13.059 4.3 -13 4.3 -12.35 4.2 -12.35 3.6L-12.35 3.25 -12.35 2 -12.25 -7.35Q-12.35 -8.15 -12.35 -8.55 -12.4 -9.3 -12.25 -9.8 -12.1 -10.55 -11.85 -10.7L-10.9 -10.8Q-9.85 -11 -8.2 -10.95 -7.25 -10.95 -5.55 -10.85L15 -11.15Q15.014 -11.471 15 -11.8 14.95 -12.4 15.4 -12.4 15.9 -12.4 15.95 -11.8M15.95 -11.3Q15.963 -11.536 15.95 -11.8 15.9 -12.4 15.4 -12.4 14.95 -12.4 15 -11.8 15.014 -11.471 15 -11.15 15.303 -4.499 15.05 2.05 15.034 2.835 15 3.6 14.95 4.3 15.4 4.3 15.9 4.3 15.95 3.6 15.976 3.082 16 2.55 16.311 -4.313 15.95 -11.3Z"/><path id="Layer8_0_1_STROKES" stroke="#2A376D" stroke-width=".2" stroke-linejoin="miter" stroke-linecap="butt" stroke-miterlimit="4" fill="none" d="M15.975 -11.275Q15.963 -11.536 15.95 -11.8 15.9 -12.4 15.4 -12.4 14.95 -12.4 15 -11.8 15.014 -11.471 15.025 -11.15 15.303 -4.499 15.075 2.075 15.034 2.835 15 3.6 14.95 4.3 15.4 4.3 15.9 4.3 15.95 3.6 15.976 3.082 16 2.575 16.311 -4.313 15.975 -11.275 16.2 -11.432 16.2 -11.8 16.2 -12.5 15.5 -12.5L-9.95 -12.1Q-12.2 -12.05 -12.75 -11.75 -13.6 -11.3 -13.6 -9.25 -13.647 -7.216 -13.65 2.55 -13.65 2.602 -13.65 2.65 -13.657 2.742 -13.65 2.825 -13.65 3.253 -13.65 3.7 -13.604 4.240 -13.125 4.3 -13.059 4.3 -13 4.3 -12.35 4.2 -12.35 3.6L-12.35 3.25 -12.35 2 -12.25 -7.35Q-12.35 -8.15 -12.35 -8.55 -12.4 -9.3 -12.25 -9.8 -12.1 -10.55 -11.85 -10.7L-10.9 -10.8Q-9.85 -11 -8.2 -10.95 -7.25 -10.95 -5.55 -10.85L15.025 -11.15M11.275 12.575L11.3 12.55Q12.8 12.05 13.9 9.45 14.95 6.5 15.4 5.45 16.2 3.7 16.2 3.1 16.170 2.788 16 2.575M-12.35 3.25L10.35 3.25Q10.65 3.25 12.65 3.1 14.7 3.05 14.8 3.25 15.1 3.75 13.45 6.9 13.2 7.5 12.5 9.4 11.75 11.15 10.95 11.4 10.814 11.436 10.725 11.5 10.436 11.698 10.55 12.15 10.696 12.783 11.275 12.575 11.108 12.772 10.75 12.8 -3.4 13.65 -16.6 12.7 -16.983 12.667 -17.125 12.4 -17.337 12.211 -17.2 11.8 -15.150 6.270 -13.65 2.55M15.075 2.075Q14.769 2.010 14.4 2 8.9 1.85 .65 1.9 -7.802 1.992 -12.35 2M-15.875 11.5Q-16.232 11.470 -16.6 11.45 -17.2 11.4 -17.2 12.05 -17.2 12.266 -17.125 12.4M-13.125 4.3Q-14.782 8.462 -15.875 11.5 -2.122 12.229 10.725 11.5"/></g><animate attributeName="display" repeatCount="indefinite" dur="12.727s" keyTimes="0;.089;1" values="none;inline;inline"/></g><g display="none"><g id="Symbol-195" transform="matrix(.3 0 0 .3 604.6 243.95)"><animateTransform attributeName="transform" additive="replace" type="translate" repeatCount="indefinite" dur="12.727s" keyTimes="0;.104;.132;.143;.81399;.839;1" values="604.595,244.005;604.595,244.005;604.629,244.038;604.61,244.02;604.61,244.02;604.606,243.998;604.606,243.998"/><animateTransform attributeName="transform" additive="sum" type="scale" repeatCount="indefinite" dur="12.727s" keyTimes="0;.104;.132;.143;.81399;.839;1" values=".3,.3;.3,.3;1.584,1.584;1.2,1.2;1.2,1.2;.12,.12;.12,.12"/><animateTransform attributeName="transform" additive="sum" type="translate" repeatCount="indefinite" dur="12.727s" keyTimes="0;.104;.132;.143;.81399;.839;1" values="-.15,-.35;-.15,-.35;-.05,-.15;-.05,-.1;-.05,-.1;-.05,-.4;-.05,-.4"/><animate attributeName="opacity" repeatCount="indefinite" dur="12.727s" keyTimes="0;.104;.132;.81399;.839;1" values="0;0;1;1;0;0"/><path fill="#FFF" stroke="none" d="M36.65 -23.55Q29.25 -30.95 18.85 -30.95 8.4 -30.95 1.05 -23.55 -6.3 -16.2 -6.3 -5.8 -6.3 4.65 1.05 12 8.4 19.35 18.85 19.35 29.25 19.35 36.65 12 44 4.65 44 -5.8 44 -16.2 36.65 -23.55M3.5 -3.65Q3.5 -2.9 2.8 -2.9 2.15 -2.9 2.15 -3.65 2.15 -4.45 2.8 -4.45 3.5 -4.45 3.5 -3.65M8.35 -2.7Q7.55 -2.7 7.55 -3.45 7.55 -4.25 8.35 -4.25 9.1 -4.25 9.1 -3.45 9.1 -2.7 8.35 -2.7M6.85 -4.65Q6.7 -4.15 6.55 -3.45 6.55 -3.35 6.55 -3.25 6.55 -2.9 6.35 -2.7 6.1 -1.45 5.8 .25 7.35 1.45 6.75 3.25 6.35 4.25 5.5 4.6 4.6 4.95 3.7 4.45 3 4.05 2.75 3.2 2.4 2.4 2.65 1.55 3 .7 3.8 .3 4 .2 4.25 .15 4.45 -.85 5 -3.75 5.35 -6.3 6.55 -7.65 8 -9.3 10.35 -9.3 12.65 -9.3 14.1 -7.7 14.35 -7.45 16.7 -2.8 18.15 .1 20.85 .25 26.7 .45 28.45 -11.9 28.4 -11.9 28.35 -11.95 26.6 -13.05 27.4 -15.1 28 -16.9 29.65 -16.85 29.9 -16.85 30.2 -16.75 30.45 -16.7 30.6 -16.55 30.65 -16.5 30.7 -16.45 31.3 -15.85 31.5 -15 31.75 -13.9 31.35 -12.95 31.05 -12 30.1 -11.65 30.05 -11.65 30 -11.6 29.2 -5.95 26.65 -1.9 23.05 3.85 17.95 .9 15.95 -.15 15.15 -1.9 14.3 -4.25 13.7 -5.4 12.8 -7.3 10.85 -7.55 7.9 -8.05 6.85 -4.65M13 -3.45Q13 -2.7 12.25 -2.7 11.45 -2.7 11.45 -3.45 11.45 -4.25 12.25 -4.25 13 -4.25 13 -3.45M18.95 -3.45Q18.95 -2.7 18.2 -2.7 17.5 -2.7 17.5 -3.45 17.5 -4.25 18.2 -4.25 18.95 -4.25 18.95 -3.45M24.35 -4.25Q25.15 -4.25 25.15 -3.45 25.15 -2.7 24.35 -2.7L24.15 -2.7Q23.35 -2.7 23.35 -3.45 23.35 -4.25 24.15 -4.25L24.35 -4.25M20.3 -3.45Q20.3 -4.25 21.05 -4.25 21.85 -4.25 21.85 -3.45 21.85 -2.7 21.05 -2.7 20.3 -2.7 20.3 -3.45M30.05 -3.65Q30.05 -2.9 29.3 -2.9 28.45 -2.9 28.45 -3.65 28.45 -4.45 29.3 -4.45 30.05 -4.45 30.05 -3.65M36.05 -3.65Q36.05 -2.9 35.25 -2.9 34.55 -2.9 34.55 -3.65 34.55 -4.45 35.25 -4.45 36.05 -4.45 36.05 -3.65M33 -3.2Q33 -2.4 32.3 -2.4 31.5 -2.4 31.5 -3.2 31.5 -4 32.3 -4 33 -4 33 -3.2M5 1.7Q4.45 1.6 4.2 2.1 3.9 2.7 4.45 3.1 4.7 3.25 5 3.15 5.25 2.95 5.3 2.6 5.45 2.15 5 1.7M30 -14Q30.05 -14.65 29.6 -15.2 29 -15.3 28.8 -14.5 28.5 -13.65 29.1 -13.25 29.45 -13 29.7 -13.35 29.9 -13.55 30 -14Z"/><path fill="#2B386B" stroke="none" d="M32.3 -2.4Q33 -2.4 33 -3.2 33 -4 32.3 -4 31.5 -4 31.5 -3.2 31.5 -2.4 32.3 -2.4M35.25 -2.9Q36.05 -2.9 36.05 -3.65 36.05 -4.45 35.25 -4.45 34.55 -4.45 34.55 -3.65 34.55 -2.9 35.25 -2.9M29.3 -2.9Q30.05 -2.9 30.05 -3.65 30.05 -4.45 29.3 -4.45 28.45 -4.45 28.45 -3.65 28.45 -2.9 29.3 -2.9M21.05 -4.25Q20.3 -4.25 20.3 -3.45 20.3 -2.7 21.05 -2.7 21.85 -2.7 21.85 -3.45 21.85 -4.25 21.05 -4.25M25.15 -3.45Q25.15 -4.25 24.35 -4.25L24.15 -4.25Q23.35 -4.25 23.35 -3.45 23.35 -2.7 24.15 -2.7L24.35 -2.7Q25.15 -2.7 25.15 -3.45M18.2 -2.7Q18.95 -2.7 18.95 -3.45 18.95 -4.25 18.2 -4.25 17.5 -4.25 17.5 -3.45 17.5 -2.7 18.2 -2.7M12.25 -2.7Q13 -2.7 13 -3.45 13 -4.25 12.25 -4.25 11.45 -4.25 11.45 -3.45 11.45 -2.7 12.25 -2.7M6.55 -3.45Q6.7 -4.15 6.85 -4.65 7.9 -8.05 10.85 -7.55 12.8 -7.3 13.7 -5.4 14.3 -4.25 15.15 -1.9 15.95 -.15 17.95 .9 23.05 3.85 26.65 -1.9 29.2 -5.95 30 -11.6 30.05 -11.65 30.1 -11.65 31.05 -12 31.35 -12.95 31.75 -13.9 31.5 -15 31.3 -15.85 30.7 -16.45 30.65 -16.5 30.6 -16.55 30.45 -16.7 30.2 -16.75 29.9 -16.85 29.65 -16.85 28 -16.9 27.4 -15.1 26.6 -13.05 28.35 -11.95 28.4 -11.9 28.45 -11.9 26.7 .45 20.85 .25 18.15 .1 16.7 -2.8 14.35 -7.45 14.1 -7.7 12.65 -9.3 10.35 -9.3 8 -9.3 6.55 -7.65 5.35 -6.3 5 -3.75 4.45 -.85 4.25 .15 4 .2 3.8 .3 3 .7 2.65 1.55 2.4 2.4 2.75 3.2 3 4.05 3.7 4.45 4.6 4.95 5.5 4.6 6.35 4.25 6.75 3.25 7.35 1.45 5.8 .25 6.1 -1.45 6.35 -2.7 6.55 -2.9 6.55 -3.25 6.55 -3.35 6.55 -3.45M29.6 -15.2Q30.05 -14.65 30 -14 29.9 -13.55 29.7 -13.35 29.45 -13 29.1 -13.25 28.5 -13.65 28.8 -14.5 29 -15.3 29.6 -15.2M4.2 2.1Q4.45 1.6 5 1.7 5.45 2.15 5.3 2.6 5.25 2.95 5 3.15 4.7 3.25 4.45 3.1 3.9 2.7 4.2 2.1M7.55 -3.45Q7.55 -2.7 8.35 -2.7 9.1 -2.7 9.1 -3.45 9.1 -4.25 8.35 -4.25 7.55 -4.25 7.55 -3.45M2.8 -2.9Q3.5 -2.9 3.5 -3.65 3.5 -4.45 2.8 -4.45 2.15 -4.45 2.15 -3.65 2.15 -2.9 2.8 -2.9Z"/></g><animate attributeName="display" repeatCount="indefinite" dur="12.727s" keyTimes="0;.104;1" values="none;inline;inline"/></g><g display="none"><g id="Symbol-194" transform="matrix(.3 0 0 .3 459.75 398.1)"><animateTransform attributeName="transform" additive="replace" type="translate" repeatCount="indefinite" dur="12.727s" keyTimes="0;.271;.3;.311;.84999;.871;1" values="459.805,398.155;459.805,398.155;462.338,394.658;462.31,394.67;462.31,394.67;462.304,394.65;462.304,394.65"/><animateTransform attributeName="transform" additive="sum" type="scale" repeatCount="indefinite" dur="12.727s" keyTimes="0;.271;.3;.311;.84999;.871;1" values=".3,.3;.3,.3;1.584,1.584;1.2,1.2;1.2,1.2;.12,.12;.12,.12"/><animateTransform attributeName="transform" additive="sum" type="translate" repeatCount="indefinite" dur="12.727s" keyTimes="0;.271;.3;.311;.84999;.871;1" values="-.35,-.35;-.35,-.35;-.15,-.1;-.05,-.1;-.05,-.1;-.45,0;-.45,0"/><animate attributeName="opacity" repeatCount="indefinite" dur="12.727s" keyTimes="0;.271;.3;.84999;.871;1" values="0;0;1;1;0;0"/><path fill="#FFF" stroke="none" d="M17.8 -17.8Q10.4 -25.15 0 -25.15 -10.45 -25.15 -17.8 -17.8 -25.15 -10.45 -25.15 -.05 -25.15 10.4 -17.8 17.75 -10.45 25.1 0 25.1 10.4 25.1 17.8 17.75 25.15 10.4 25.15 -.05 25.15 -10.45 17.8 -17.8M6.7 -7.25Q7.510 -7.275 8.4 -7.3 11.65 -7.2 13.9 -7 15.3 -6.8 16 -6.5 16.419 -6.323 16.75 -6.05L16.8 -6.05Q17.65 -6.05 17.65 -5.25 17.65 -5.116 17.65 -5 17.65 -4.747 17.65 -4.5 17.65 -2.308 17.65 1.3 17.6 4.9 16.95 7.8 16.35 10.75 13.5 11.8 11.55 12.55 8.45 12.55 4.95 12.45 3.3 12.45L-10.65 12.45Q-10.829 12.45 -11 12.4 -13.459 13.141 -15.25 11.4 -16.85 9.8 -17.1 7.2 -17.55 2.7 -16.9 -2.15 -16.6 -3.85 -16.5 -4.25 -16.15 -5.45 -15.3 -6.05 -14.25 -6.85 -11.95 -7 -10.6 -7.05 -8.25 -7 -6.737 -7.041 -5.4 -7.1 -6.186 -9.336 -3.9 -10.8 -1.55 -12.25 1.65 -11.9 4.65 -11.6 6.15 -10 7.455 -8.733 6.7 -7.25M15.9 -4.45Q14.950 -5.652 10.4 -5.7 5.3 -5.45 4.2 -5.45 4.1 -5.45 -6.9 -5.3 -10.8 -5.55 -12.4 -5.1 -14.5 -4.55 -15 -3.1 -15.2 -2.55 -15.35 .3 -15.7 4.85 -15.45 7 -14.75 11.8 -11.3 10.65 -10.929 10.519 -10.7 10.6 -10.642 10.602 -10.6 10.6L8.9 10.6Q11.8 10.6 12.95 10 14.55 9.2 15.15 7.25 15.5 6.1 15.6 3.55 15.918 -.319 15.9 -4.45M4.35 -9.55Q3.2 -10.15 1.2 -10.2 -.95 -10.25 -2.35 -9.75 -4.3 -9.05 -3.6 -7.55L-3.6 -7.15Q.395 -7.2 2.85 -7.2 3.548 -7.2 4.5 -7.25 4.565 -7.432 4.75 -7.65 5.85 -8.85 4.35 -9.55Z"/><path fill="#2B386B" stroke="none" d="M8.4 -7.3Q7.510 -7.275 6.7 -7.25 7.455 -8.733 6.15 -10 4.65 -11.6 1.65 -11.9 -1.55 -12.25 -3.9 -10.8 -6.186 -9.336 -5.4 -7.1 -6.737 -7.041 -8.25 -7 -10.6 -7.05 -11.95 -7 -14.25 -6.85 -15.3 -6.05 -16.15 -5.45 -16.5 -4.25 -16.6 -3.85 -16.9 -2.15 -17.55 2.7 -17.1 7.2 -16.85 9.8 -15.25 11.4 -13.459 13.141 -11 12.4 -10.829 12.45 -10.65 12.45L3.3 12.45Q4.95 12.45 8.45 12.55 11.55 12.55 13.5 11.8 16.35 10.75 16.95 7.8 17.6 4.9 17.65 1.3 17.65 -2.308 17.65 -4.5 17.65 -4.747 17.65 -5 17.65 -5.116 17.65 -5.25 17.65 -6.05 16.8 -6.05L16.75 -6.05Q16.419 -6.323 16 -6.5 15.3 -6.8 13.9 -7 11.65 -7.2 8.4 -7.3M1.2 -10.2Q3.2 -10.15 4.35 -9.55 5.85 -8.85 4.75 -7.65 4.565 -7.432 4.5 -7.25 3.548 -7.2 2.85 -7.2 .395 -7.2 -3.6 -7.15L-3.6 -7.55Q-4.3 -9.05 -2.35 -9.75 -.95 -10.25 1.2 -10.2M10.4 -5.7Q14.950 -5.652 15.9 -4.45 15.918 -.319 15.6 3.55 15.5 6.1 15.15 7.25 14.55 9.2 12.95 10 11.8 10.6 8.9 10.6L-10.6 10.6Q-10.642 10.602 -10.7 10.6 -10.929 10.519 -11.3 10.65 -14.75 11.8 -15.45 7 -15.7 4.85 -15.35 .3 -15.2 -2.55 -15 -3.1 -14.5 -4.55 -12.4 -5.1 -10.8 -5.55 -6.9 -5.3 4.1 -5.45 4.2 -5.45 5.3 -5.45 10.4 -5.7Z"/></g><animate attributeName="display" repeatCount="indefinite" dur="12.727s" keyTimes="0;.271;1" values="none;inline;inline"/></g><g display="none"><g id="Symbol-193" transform="matrix(.3 0 0 .3 418.4 136.05)"><animateTransform attributeName="transform" additive="replace" type="translate" repeatCount="indefinite" dur="12.727s" keyTimes="0;.286;.314;.325;.84999;.85;.871;1" values="418.455,136.105;418.455,136.105;418.488,135.629;418.41,135.61;418.41,135.61;418.47,135.61;418.448,135.606;418.448,135.606"/><animateTransform attributeName="transform" additive="sum" type="scale" repeatCount="indefinite" dur="12.727s" keyTimes="0;.286;.314;.325;.84999;.871;1" values=".3,.3;.3,.3;1.584,1.584;1.2,1.2;1.2,1.2;.12,.12;.12,.12"/><animateTransform attributeName="transform" additive="sum" type="translate" repeatCount="indefinite" dur="12.727s" keyTimes="0;.286;.314;.325;.84999;.85;.871;1" values="-.35,-.35;-.35,-.35;-.15,-.05;-.05,-.05;-.05,-.05;-.1,-.05;-.4,-.05;-.4,-.05"/><animate attributeName="opacity" repeatCount="indefinite" dur="12.727s" keyTimes="0;.286;.314;.84999;.871;1" values="0;0;1;1;0;0"/><path fill="#FFF" stroke="none" d="M29.45 -1.4Q29.45 -11.8 22.1 -19.15 14.75 -26.55 4.35 -26.55 -6.1 -26.55 -13.45 -19.15 -20.8 -11.8 -20.8 -1.4 -20.8 9 -13.45 16.35 -6.1 23.7 4.35 23.7 14.75 23.7 22.1 16.35 29.45 9 29.45 -1.4M14.3 -15.1Q14.959 -14.937 15 -14.25 15.740 -4.034 16.2 11.1 16.2 11.147 16.2 11.2 16.2 11.266 16.2 11.3 16.197 11.414 16.2 11.5 16.2 12.35 15.25 12.35 14.752 12.35 14.5 12.1L-5.65 11.8Q-6.55 11.8 -6.55 10.95 -6.55 10.585 -6.4 10.35 -6.435 8.645 -7 -14.6 -7 -15.5 -6.05 -15.5 -5.579 -15.5 -5.35 -15.25 4.521 -16.131 13.55 -15.5 14.122 -15.436 14.3 -15.1M14.3 10.3Q13.699 -5.364 13.15 -13.75 4.379 -14.354 -5.15 -13.55 -4.619 7.240 -4.55 10.05L14.3 10.3M4.65 -9.4Q4.600 -7.831 4.55 -6.25 5.927 -5.822 6.6 -5.15 6.85 -4.9 6.85 -4.7 6.85 -4.4 6.6 -4.15 6.4 -3.9 6.05 -3.9 5.65 -3.9 5.45 -4.15 5.088 -4.481 4.55 -4.7 4.521 -2.635 4.5 -.55L6.4 .3Q7.85 1.55 7.2 3.45 6.7 5.15 5.15 6 4.901 6.133 4.65 6.25 4.644 6.419 4.65 6.6 4.65 7.45 3.75 7.45 2.8 7.5 2.8 6.65L2.8 6.6Q2.481 6.619 2.15 6.6 .55 6.4 -.65 5.3 -1.85 4.25 -1.85 2.4 -1.85 2.1 -1.65 1.9 -1.45 1.7 -1.05 1.7 -.65 1.7 -.35 1.9 -.15 2.1 -.15 2.4 -.15 3.6 .6 4.35 1.35 4.95 2.35 5.15 2.555 5.159 2.75 5.15 2.711 3.148 2.7 .3L2.55 .3 -.15 -.75Q-1.7 -1.75 -1.75 -3.1 -1.85 -4.6 -.85 -5.7 0 -6.4 1.6 -6.6 2.171 -6.663 2.7 -6.65 2.758 -8.182 2.8 -9.3 2.8 -10.2 3.75 -10.2 4.65 -10.25 4.65 -9.4M5.7 3.05Q6.05 2.15 5.4 1.5L4.55 1.05Q4.556 2.857 4.6 4.65 5.436 4.189 5.7 3.05M1.75 -5.15Q.8 -5 .35 -4.7 -.1 -4.2 -.1 -3.3 0 -2.55 .8 -2.1 1.319 -1.753 2.7 -1.3L2.7 -1.35Q2.7 -3.473 2.7 -5.2 2.230 -5.222 1.75 -5.15Z"/><path fill="#2B386B" stroke="none" d="M15 -14.25Q14.959 -14.937 14.3 -15.1 14.122 -15.436 13.55 -15.5 4.521 -16.131 -5.35 -15.25 -5.579 -15.5 -6.05 -15.5 -7 -15.5 -7 -14.6 -6.435 8.645 -6.4 10.35 -6.55 10.585 -6.55 10.95 -6.55 11.8 -5.65 11.8L14.5 12.1Q14.752 12.35 15.25 12.35 16.2 12.35 16.2 11.5 16.197 11.414 16.2 11.3 16.2 11.266 16.2 11.2 16.2 11.147 16.2 11.1 15.740 -4.034 15 -14.25M13.15 -13.75Q13.699 -5.364 14.3 10.3L-4.55 10.05Q-4.619 7.240 -5.15 -13.55 4.379 -14.354 13.15 -13.75M4.55 -6.25Q4.600 -7.831 4.65 -9.4 4.65 -10.25 3.75 -10.2 2.8 -10.2 2.8 -9.3 2.758 -8.182 2.7 -6.65 2.171 -6.663 1.6 -6.6 0 -6.4 -.85 -5.7 -1.85 -4.6 -1.75 -3.1 -1.7 -1.75 -.15 -.75L2.55 .3 2.7 .3Q2.711 3.148 2.75 5.15 2.555 5.159 2.35 5.15 1.35 4.95 .6 4.35 -.15 3.6 -.15 2.4 -.15 2.1 -.35 1.9 -.65 1.7 -1.05 1.7 -1.45 1.7 -1.65 1.9 -1.85 2.1 -1.85 2.4 -1.85 4.25 -.65 5.3 .55 6.4 2.15 6.6 2.481 6.619 2.8 6.6L2.8 6.65Q2.8 7.5 3.75 7.45 4.65 7.45 4.65 6.6 4.644 6.419 4.65 6.25 4.901 6.133 5.15 6 6.7 5.15 7.2 3.45 7.85 1.55 6.4 .3L4.5 -.55Q4.521 -2.635 4.55 -4.7 5.088 -4.481 5.45 -4.15 5.65 -3.9 6.05 -3.9 6.4 -3.9 6.6 -4.15 6.85 -4.4 6.85 -4.7 6.85 -4.9 6.6 -5.15 5.927 -5.822 4.55 -6.25M.35 -4.7Q.8 -5 1.75 -5.15 2.230 -5.222 2.7 -5.2 2.7 -3.473 2.7 -1.35L2.7 -1.3Q1.319 -1.753 .8 -2.1 0 -2.55 -.1 -3.3 -.1 -4.2 .35 -4.7M5.4 1.5Q6.05 2.15 5.7 3.05 5.436 4.189 4.6 4.65 4.556 2.857 4.55 1.05L5.4 1.5Z"/><path id="Layer5_0_1_STROKES" stroke="#2B386B" stroke-width=".15" stroke-linejoin="miter" stroke-linecap="butt" stroke-miterlimit="4" fill="none" d="M2.725 -6.625Q2.171 -6.663 1.6 -6.6 0 -6.4 -.85 -5.7 -1.85 -4.6 -1.75 -3.1 -1.7 -1.75 -.15 -.75L2.55 .3 2.7 .3M2.75 5.15Q2.555 5.159 2.35 5.15 1.35 4.95 .6 4.35 -.15 3.6 -.15 2.4 -.15 2.1 -.35 1.9 -.65 1.7 -1.05 1.7 -1.45 1.7 -1.65 1.9 -1.85 2.1 -1.85 2.4 -1.85 4.25 -.65 5.3 .55 6.4 2.15 6.6 2.481 6.619 2.8 6.6M4.65 6.25Q4.901 6.133 5.15 6 6.7 5.15 7.2 3.45 7.85 1.55 6.4 .3L4.525 -.55M4.55 -4.7Q5.088 -4.481 5.45 -4.15 5.65 -3.9 6.05 -3.9 6.4 -3.9 6.6 -4.15 6.85 -4.4 6.85 -4.7 6.85 -4.9 6.6 -5.15 5.927 -5.822 4.575 -6.25M2.7 -5.175Q2.230 -5.222 1.75 -5.15 .8 -5 .35 -4.7 -.1 -4.2 -.1 -3.3 0 -2.55 .8 -2.1 1.319 -1.753 2.7 -1.3M4.6 4.675Q5.436 4.189 5.7 3.05 6.05 2.15 5.4 1.5L4.55 1.05"/></g><animate attributeName="display" repeatCount="indefinite" dur="12.727s" keyTimes="0;.286;1" values="none;inline;inline"/></g><g display="none"><g id="Symbol-192" transform="matrix(.3 0 0 .3 684.75 300.55)"><animateTransform attributeName="transform" additive="replace" type="translate" repeatCount="indefinite" dur="12.727s" keyTimes="0;.468;.496;.507;.89299;.914;1" values="684.805,300.605;684.805,300.605;684.829,300.629;684.81,300.61;684.81,300.61;684.8,300.6;684.8,300.6"/><animateTransform attributeName="transform" additive="sum" type="scale" repeatCount="indefinite" dur="12.727s" keyTimes="0;.468;.496;.507;.89299;.914;1" values=".3,.3;.3,.3;1.584,1.584;1.2,1.2;1.2,1.2;.12,.12;.12,.12"/><animateTransform attributeName="transform" additive="sum" type="translate" repeatCount="indefinite" dur="12.727s" keyTimes="0;.468;.496;.89299;.914;1" values="-.35,-.35;-.35,-.35;-.05,-.05;-.05,-.05;0,0;0,0"/><animate attributeName="opacity" repeatCount="indefinite" dur="12.727s" keyTimes="0;.468;.496;.89299;.914;1" values="0;0;1;1;0;0"/><path fill="#FFF" stroke="none" d="M-3.55 -17.8Q-10.9 -25.15 -21.35 -25.15 -31.75 -25.15 -39.1 -17.8 -46.45 -10.45 -46.45 -.05 -46.45 10.4 -39.1 17.75 -31.75 25.1 -21.35 25.1 -10.9 25.1 -3.55 17.75 3.8 10.4 3.8 -.05 3.8 -10.45 -3.55 -17.8M-28.55 -15.7L-28.5 -15.75Q-28.2 -16.15 -27.8 -15.9 -27.3 -15.65 -27.6 -15.25L-27.65 -15.2 -12.65 -6.85Q-12.15 -6.65 -12.4 -6.25 -12.7 -5.9 -13.1 -6.15L-28.1 -14.45 -35.1 -2.6Q-27.428 1.692 -19.6 5.75 -19.1 6 -19.3 6.3 -19.5 6.6 -19.95 6.35 -29.85 1.15 -36.15 -2.4 -36.6 -2.65 -36.4 -2.95 -36.259 -3.160 -36.05 -3.1L-29 -14.95 -29.2 -15.05Q-29.65 -15.3 -29.35 -15.65 -29.1 -16.05 -28.7 -15.8L-28.55 -15.7M-9.45 -1.85Q-8.95 -1.7 -9.05 -1.25 -9.35 .05 -10.4 1.75 -11 2.7 -12.15 4.55L-16.4 11.45Q-16.460 11.547 -16.55 11.6 -16.776 11.983 -17.15 11.75L-33.8 3Q-34.2 2.75 -33.95 2.35 -33.75 1.9 -33.3 2.1L-17.1 10.65Q-14.463 6.531 -13.5 4.7 -12.15 2.75 -11.45 1.75 -10.3 -.15 -10.1 -1.5 -9.95 -1.95 -9.45 -1.85M-11.05 -7.6Q-10.7 -7.35 -10.95 -6.85 -14.2 0 -18.15 5.9 -18.45 6.4 -18.8 6.15 -19.2 5.9 -18.85 5.5 -14.95 -.55 -11.7 -7.3 -11.4 -7.8 -11.05 -7.6M-7.95 3.55Q-8.2 4.85 -9.25 6.55 -9.85 7.5 -11.05 9.3L-15.25 16.25Q-15.310 16.347 -15.4 16.4 -15.626 16.783 -16 16.55 -28.9 9.85 -32.65 7.8 -33.1 7.6 -32.8 7.2 -32.6 6.7 -32.15 6.95L-16 15.45 -12.3 9.55Q-11 7.6 -10.3 6.55 -9.15 4.65 -8.95 3.3 -8.8 2.85 -8.3 2.95 -7.85 3.05 -7.95 3.55Z"/><path fill="#2B386B" stroke="none" d="M-15.4 16.4L-15.35 16.35Q-15.1 15.95 -15.55 15.7L-16 15.45 -32.15 6.95Q-32.6 6.7 -32.8 7.2 -33.1 7.6 -32.65 7.8 -28.9 9.85 -16 16.55 -15.626 16.783 -15.4 16.4M-9.25 6.55Q-8.2 4.85 -7.95 3.55 -7.85 3.05 -8.3 2.95 -8.8 2.85 -8.95 3.3 -9.15 4.65 -10.3 6.55 -11 7.6 -12.3 9.55L-16 15.45 -15.55 15.7Q-15.1 15.95 -15.35 16.35L-15.4 16.4Q-15.310 16.347 -15.25 16.25L-11.05 9.3Q-9.85 7.5 -9.25 6.55M-10.95 -6.85Q-10.7 -7.35 -11.05 -7.6 -11.4 -7.8 -11.7 -7.3 -14.95 -.55 -18.85 5.5 -19.2 5.9 -18.8 6.15 -18.45 6.4 -18.15 5.9 -14.2 0 -10.95 -6.85M-16.7 10.85L-17.1 10.65 -33.3 2.1Q-33.75 1.9 -33.95 2.35 -34.2 2.75 -33.8 3L-17.15 11.75Q-16.776 11.983 -16.55 11.6L-16.5 11.55Q-16.25 11.1 -16.7 10.85M-9.05 -1.25Q-8.95 -1.7 -9.45 -1.85 -9.95 -1.95 -10.1 -1.5 -10.3 -.15 -11.45 1.75 -12.15 2.75 -13.5 4.7 -14.463 6.531 -17.1 10.65L-16.7 10.85Q-16.25 11.1 -16.5 11.55L-16.55 11.6Q-16.460 11.547 -16.4 11.45L-12.15 4.55Q-11 2.7 -10.4 1.75 -9.35 .05 -9.05 -1.25M-35.1 -2.6Q-35.437 -2.796 -35.8 -3 -35.919 -3.074 -36.05 -3.1 -36.259 -3.160 -36.4 -2.95 -36.6 -2.65 -36.15 -2.4 -29.85 1.15 -19.95 6.35 -19.5 6.6 -19.3 6.3 -19.1 6 -19.6 5.75 -27.428 1.692 -35.1 -2.6M-27.65 -15.2L-28.1 -14.45 -13.1 -6.15Q-12.7 -5.9 -12.4 -6.25 -12.15 -6.65 -12.65 -6.85L-27.65 -15.2M-28.55 -15.7L-28.7 -15.8Q-29.1 -16.05 -29.35 -15.65 -29.65 -15.3 -29.2 -15.05L-29 -14.95 -28.55 -15.7M-28.5 -15.75L-28.55 -15.7 -29 -14.95 -36.05 -3.1Q-35.919 -3.074 -35.8 -3 -35.437 -2.796 -35.1 -2.6L-28.1 -14.45 -27.65 -15.2 -27.6 -15.25Q-27.3 -15.65 -27.8 -15.9 -28.2 -16.15 -28.5 -15.75Z"/><path id="Layer4_0_1_STROKES" stroke="#2A376D" stroke-width=".2" stroke-linejoin="miter" stroke-linecap="butt" stroke-miterlimit="4" fill="none" d="M-27.625 -15.2L-27.6 -15.25Q-27.3 -15.65 -27.8 -15.9 -28.2 -16.15 -28.5 -15.75L-28.525 -15.7 -28.975 -14.925 -36.025 -3.1M-35.075 -2.6L-28.075 -14.425 -27.625 -15.2 -12.65 -6.85Q-12.15 -6.65 -12.4 -6.25 -12.7 -5.9 -13.1 -6.15L-28.075 -14.425M-28.525 -15.7L-28.7 -15.8Q-29.1 -16.05 -29.35 -15.65 -29.65 -15.3 -29.2 -15.05L-28.975 -14.925M-16.525 11.6Q-16.460 11.547 -16.4 11.45L-12.15 4.55Q-11 2.7 -10.4 1.75 -9.35 .05 -9.05 -1.25 -8.95 -1.7 -9.45 -1.85 -9.95 -1.95 -10.1 -1.5 -10.3 -.15 -11.45 1.75 -12.15 2.75 -13.5 4.7 -14.463 6.531 -17.1 10.65L-16.7 10.85Q-16.25 11.1 -16.5 11.55L-16.525 11.6Q-16.776 11.983 -17.15 11.75L-33.8 3Q-34.2 2.75 -33.95 2.35 -33.75 1.9 -33.3 2.1L-17.1 10.65M-11.7 -7.3Q-14.95 -.55 -18.85 5.5 -19.2 5.9 -18.8 6.15 -18.45 6.4 -18.15 5.9 -14.2 0 -10.95 -6.85 -10.7 -7.35 -11.05 -7.6 -11.4 -7.8 -11.7 -7.3ZM-15.375 16.4Q-15.310 16.347 -15.25 16.25L-11.05 9.3Q-9.85 7.5 -9.25 6.55 -8.2 4.85 -7.95 3.55 -7.85 3.05 -8.3 2.95 -8.8 2.85 -8.95 3.3 -9.15 4.65 -10.3 6.55 -11 7.6 -12.3 9.55L-15.975 15.475 -15.55 15.7Q-15.1 15.95 -15.35 16.35L-15.375 16.4Q-15.626 16.783 -16 16.55 -28.9 9.85 -32.65 7.8 -33.1 7.6 -32.8 7.2 -32.6 6.7 -32.15 6.95L-15.975 15.475"/><path id="Layer4_0_2_STROKES" stroke="#2A376D" stroke-width=".4" stroke-linejoin="miter" stroke-linecap="butt" stroke-miterlimit="4" fill="none" d="M-36.025 -3.1Q-35.919 -3.074 -35.8 -3 -35.437 -2.796 -35.075 -2.6M-36.025 -3.1Q-36.259 -3.160 -36.4 -2.95 -36.6 -2.65 -36.15 -2.4 -29.85 1.15 -19.95 6.35 -19.5 6.6 -19.3 6.3 -19.1 6 -19.6 5.75 -27.428 1.692 -35.075 -2.6"/></g><animate attributeName="display" repeatCount="indefinite" dur="12.727s" keyTimes="0;.468;1" values="none;inline;inline"/></g><g display="none"><g id="Symbol-191" transform="matrix(.3 0 0 .3 233.95 225.9)"><animateTransform attributeName="transform" additive="replace" type="translate" repeatCount="indefinite" dur="12.727s" keyTimes="0;.482;.511;.521;.89299;.914;1" values="234.005,225.955;234.005,225.955;234.038,225.988;234.02,225.97;234.02,225.97;234.004,225.954;234.004,225.954"/><animateTransform attributeName="transform" additive="sum" type="scale" repeatCount="indefinite" dur="12.727s" keyTimes="0;.482;.511;.521;.89299;.914;1" values=".3,.3;.3,.3;1.584,1.584;1.2,1.2;1.2,1.2;.12,.12;.12,.12"/><animateTransform attributeName="transform" additive="sum" type="translate" repeatCount="indefinite" dur="12.727s" keyTimes="0;.482;.511;.521;.89299;.914;1" values="-.35,-.35;-.35,-.35;-.15,-.15;-.1,-.1;-.1,-.1;-.45,-.45;-.45,-.45"/><animate attributeName="opacity" repeatCount="indefinite" dur="12.727s" keyTimes="0;.482;.511;.89299;.914;1" values="0;0;1;1;0;0"/><path fill="#FFF" stroke="none" d="M17.8 -26.25Q10.4 -33.65 0 -33.65 -10.4 -33.65 -17.75 -26.25 -25.1 -18.9 -25.1 -8.5 -25.1 1.95 -17.75 9.3 -10.4 16.65 0 16.65 10.4 16.65 17.8 9.3 25.15 1.95 25.15 -8.5 25.15 -18.9 17.8 -26.25M15.05 -18.6Q15.55 -18.3 15.55 -17.65L15.65 -11.95Q15.9 -3.3 15.5 1.9 15.5 2.8 14.7 2.95 14.35 3.15 13.95 3.05 13.6 3.05 13.6 2.85L13.4 2.65 6.65 2.7Q-4.85 2.85 -10.6 2.45L-11.15 2.3 -11.7 2.05 -12 2.6Q-12.5 3.4 -13.6 3.15 -14.5 3 -14.25 2.1 -14 -4.25 -14.15 -13L-14.2 -18.95Q-14.2 -19.75 -13.45 -19.95 -13.3 -20.1 -12.95 -20.1 -12.55 -20.1 -12 -19.7L-11.75 -19.25 -11.4 -19.4 -10.85 -19.5Q-5 -19.15 6.5 -19.25L13.8 -19.35Q14.55 -19.35 14.75 -18.8L14.9 -18.65 15.05 -18.6M12.75 -16L11.8 -15.1Q11.15 -14.5 7.4 -11.75 3.1 -8.9 1.45 -7.05 1.05 -6.65 .6 -6.7L.5 -6.7Q-.05 -6.55 -.4 -7.05 -2.1 -9.05 -6.55 -12.05 -9.5 -13.95 -10.5 -14.9L-11.55 -15.8 -11.45 -13.05Q-11.35 -4.7 -11.55 -.55L-11.55 .2 -10.5 .15Q-6.2 .4 -.8 .4L12.9 .25 12.9 -.3Q13.2 -5.15 12.75 -12.45L12.75 -16M10.25 -16.05L11.7 -17.2 6.75 -17.15Q-3.3 -17 -8.4 -17.2L-10.15 -17.35 -8.8 -16.05 -4.5 -13.05Q-1.15 -10.85 .3 -9.55L.75 -9.15 1.15 -9.55Q2.75 -11 6.3 -13.35 10.05 -15.85 10.25 -16.05Z"/><path fill="#2A396B" stroke="none" d="M15.55 -17.65Q15.55 -18.3 15.05 -18.6L14.9 -18.65 14.75 -18.8Q14.55 -19.35 13.8 -19.35L6.5 -19.25Q-5 -19.15 -10.85 -19.5L-11.4 -19.4 -11.75 -19.25 -12 -19.7Q-12.55 -20.1 -12.95 -20.1 -13.3 -20.1 -13.45 -19.95 -14.2 -19.75 -14.2 -18.95L-14.15 -13Q-14 -4.25 -14.25 2.1 -14.5 3 -13.6 3.15 -12.5 3.4 -12 2.6L-11.7 2.05 -11.15 2.3 -10.6 2.45Q-4.85 2.85 6.65 2.7L13.4 2.65 13.6 2.85Q13.6 3.05 13.95 3.05 14.35 3.15 14.7 2.95 15.5 2.8 15.5 1.9 15.9 -3.3 15.65 -11.95L15.55 -17.65M11.7 -17.2L10.25 -16.05Q10.05 -15.85 6.3 -13.35 2.75 -11 1.15 -9.55L.75 -9.15 .3 -9.55Q-1.15 -10.85 -4.5 -13.05L-8.8 -16.05 -10.15 -17.35 -8.4 -17.2Q-3.3 -17 6.75 -17.15L11.7 -17.2M11.8 -15.1L12.75 -16 12.75 -12.45Q13.2 -5.15 12.9 -.3L12.9 .25 -.8 .4Q-6.2 .4 -10.5 .15L-11.55 .2 -11.55 -.55Q-11.35 -4.7 -11.45 -13.05L-11.55 -15.8 -10.5 -14.9Q-9.5 -13.95 -6.55 -12.05 -2.1 -9.05 -.4 -7.05 -.05 -6.55 .5 -6.7L.6 -6.7Q1.05 -6.65 1.45 -7.05 3.1 -8.9 7.4 -11.75 11.15 -14.5 11.8 -15.1Z"/><path id="Layer3_0_1_STROKES" stroke="#FFF" stroke-width=".6" stroke-linejoin="miter" stroke-linecap="butt" stroke-miterlimit="4" fill="none" d="M-8.4 -17.2Q-3.3 -17 6.75 -17.15L11.7 -17.2 10.25 -16.05Q10.05 -15.85 6.3 -13.35 2.75 -11 1.15 -9.55L.75 -9.15 .3 -9.55Q-1.15 -10.85 -4.5 -13.05L-8.8 -16.05 -10.15 -17.35 -8.4 -17.2ZM12.9 -.3L12.9 .25 -.8 .4Q-6.2 .4 -10.5 .15L-11.55 .2 -11.55 -.55Q-11.35 -4.7 -11.45 -13.05L-11.55 -15.8 -10.5 -14.9Q-9.5 -13.95 -6.55 -12.05 -2.1 -9.05 -.4 -7.05 -.05 -6.55 .5 -6.7L.6 -6.7Q1.05 -6.65 1.45 -7.05 3.1 -8.9 7.4 -11.75 11.15 -14.5 11.8 -15.1L12.75 -16 12.75 -12.45Q13.2 -5.15 12.9 -.3ZM14.7 2.95Q15.5 2.8 15.5 1.9 15.9 -3.3 15.65 -11.95L15.55 -17.65Q15.55 -18.3 15.05 -18.6L14.9 -18.65 14.75 -18.8Q14.55 -19.35 13.8 -19.35L6.5 -19.25Q-5 -19.15 -10.85 -19.5L-11.4 -19.4 -11.75 -19.25 -12 -19.7Q-12.55 -20.1 -12.95 -20.1 -13.3 -20.1 -13.45 -19.95 -14.2 -19.75 -14.2 -18.95L-14.15 -13Q-14 -4.25 -14.25 2.1 -14.5 3 -13.6 3.15 -12.5 3.4 -12 2.6L-11.7 2.05 -11.15 2.3 -10.6 2.45Q-4.85 2.85 6.65 2.7L13.4 2.65 13.6 2.85Q13.6 3.05 13.95 3.05 14.35 3.15 14.7 2.95Z"/></g><animate attributeName="display" repeatCount="indefinite" dur="12.727s" keyTimes="0;.482;1" values="none;inline;inline"/></g><g display="none"><g id="Symbol-190" transform="matrix(.3 0 0 .3 516.1 184.25)"><animateTransform attributeName="transform" additive="replace" type="translate" repeatCount="indefinite" dur="12.727s" keyTimes="0;.657;.686;.696;.93199;.954;1" values="516.11,184.305;516.11,184.305;516.629,183.338;516.61,183.31;516.61,183.31;516.6,183.304;516.6,183.304"/><animateTransform attributeName="transform" additive="sum" type="scale" repeatCount="indefinite" dur="12.727s" keyTimes="0;.657;.686;.696;.93199;.954;1" values=".3,.3;.3,.3;1.584,1.584;1.2,1.2;1.2,1.2;.12,.12;.12,.12"/><animateTransform attributeName="transform" additive="sum" type="translate" repeatCount="indefinite" dur="12.727s" keyTimes="0;.657;.686;.696;.93199;.954;1" values="-.2,-.35;-.2,-.35;-.05,-.15;-.05,-.05;-.05,-.05;0,-.45;0,-.45"/><animate attributeName="opacity" repeatCount="indefinite" dur="12.727s" keyTimes="0;.657;.686;.93199;.954;1" values="0;0;1;1;0;0"/><path fill="#FFF" stroke="none" d="M32.25 -.75Q32.25 -11.15 24.9 -18.5 17.5 -25.85 7.1 -25.85 -3.35 -25.85 -10.7 -18.5 -18.05 -11.15 -18.05 -.75 -18.05 9.7 -10.7 17.05 -3.35 24.4 7.1 24.4 17.5 24.4 24.9 17.05 32.25 9.7 32.25 -.75M1.25 -17.4Q4.95 -18.1 8.8 -17.95 14.15 -17.75 15.75 -15.8 16.65 -14.6 16.8 -11.95 16.9 -10.6 16.85 -8L17.2 3.25Q17.2 4.9 17.4 8.6 17.5 11.85 17.1 13.85 16.5 15.9 15.2 16.7 14.611 17.046 14.15 16.7 8.943 16.9 7.95 16.9 3.95 16.8 1.2 16.3 -1.7 15.7 -2.75 13.1 -3.6 11.2 -3.7 8 -3.55 4.35 -3.6 2.7L-3.9 -10.9Q-3.9 -11.245 -3.75 -11.45 -4.334 -13.591 -2.9 -15.25 -1.45 -16.95 1.25 -17.4M9.7 -15.45Q5.95 -15.85 2.65 -15.4 -2.75 -14.6 -1.65 -11.55 -1.428 -10.753 -2.15 -10.5L-2.05 7.55Q-1.9 9.9 -1.65 10.7 -1.25 11.85 .35 13.1 1.8 14.3 2.75 14.65 3.5 14.85 5.4 14.9 8.962 15.128 13.8 15.05 13.932 14.948 14.1 14.85 15.25 14.1 15.2 9.75 14.95 5.05 14.95 4.05L14.7 -5.65Q14.4 -11.65 14.3 -12 13.5 -15.2 9.7 -15.45M7.05 -13.65L7.05 -13.55Q7.05 -12.7 6.2 -12.7 5.35 -12.7 5.35 -13.55L5.35 -13.65Q5.35 -14.55 6.2 -14.55 7.05 -14.55 7.05 -13.65M.7 -10.5Q.7 -11.3 1.6 -11.25 6.3 -10.7 11 -11.3 11.8 -11.45 12 -10.65 12.159 -10.443 12.2 -10.1 12.7 -.65 12.95 8.3 12.95 9.15 12.1 9.15L12.05 9.15Q4.3 9.05 2.7 8.9 1.85 8.9 1.85 8.05L1.85 8Q1.3 7.883 1.3 7.2L.85 -9.95Q.7 -10.150 .7 -10.5M5.95 11.75L5.95 11.35Q5.95 10.55 6.8 10.55 7.65 10.55 7.65 11.35L7.65 11.75Q7.65 12.55 6.8 12.55 5.95 12.55 5.95 11.75M10.45 -9.6Q6.784 -9.104 2.55 -9.45L3.05 7.2Q6.731 7.431 11.2 7.45 10.936 -1.232 10.45 -9.6Z"/><path fill="#2B386B" stroke="none" d="M8.8 -17.95Q4.95 -18.1 1.25 -17.4 -1.45 -16.95 -2.9 -15.25 -4.334 -13.591 -3.75 -11.45 -3.9 -11.245 -3.9 -10.9L-3.6 2.7Q-3.55 4.35 -3.7 8 -3.6 11.2 -2.75 13.1 -1.7 15.7 1.2 16.3 3.95 16.8 7.95 16.9 8.943 16.9 14.15 16.7 14.611 17.046 15.2 16.7 16.5 15.9 17.1 13.85 17.5 11.85 17.4 8.6 17.2 4.9 17.2 3.25L16.85 -8Q16.9 -10.6 16.8 -11.95 16.65 -14.6 15.75 -15.8 14.15 -17.75 8.8 -17.95M2.65 -15.4Q5.95 -15.85 9.7 -15.45 13.5 -15.2 14.3 -12 14.4 -11.65 14.7 -5.65L14.95 4.05Q14.95 5.05 15.2 9.75 15.25 14.1 14.1 14.85 13.932 14.948 13.8 15.05 8.962 15.128 5.4 14.9 3.5 14.85 2.75 14.65 1.8 14.3 .35 13.1 -1.25 11.85 -1.65 10.7 -1.9 9.9 -2.05 7.55L-2.15 -10.5Q-1.428 -10.753 -1.65 -11.55 -2.75 -14.6 2.65 -15.4M5.95 11.35L5.95 11.75Q5.95 12.55 6.8 12.55 7.65 12.55 7.65 11.75L7.65 11.35Q7.65 10.55 6.8 10.55 5.95 10.55 5.95 11.35M1.6 -11.25Q.7 -11.3 .7 -10.5 .7 -10.150 .85 -9.95L1.3 7.2Q1.3 7.883 1.85 8L1.85 8.05Q1.85 8.9 2.7 8.9 4.3 9.05 12.05 9.15L12.1 9.15Q12.95 9.15 12.95 8.3 12.7 -.65 12.2 -10.1 12.159 -10.443 12 -10.65 11.8 -11.45 11 -11.3 6.3 -10.7 1.6 -11.25M2.55 -9.45Q6.784 -9.104 10.45 -9.6 10.936 -1.232 11.2 7.45 6.731 7.431 3.05 7.2L2.55 -9.45M7.05 -13.55L7.05 -13.65Q7.05 -14.55 6.2 -14.55 5.35 -14.55 5.35 -13.65L5.35 -13.55Q5.35 -12.7 6.2 -12.7 7.05 -12.7 7.05 -13.55Z"/></g><animate attributeName="display" repeatCount="indefinite" dur="12.727s" keyTimes="0;.657;1" values="none;inline;inline"/></g><g display="none"><g id="Symbol-189" transform="matrix(.3 0 0 .3 114.9 263.05)"><animateTransform attributeName="transform" additive="replace" type="translate" repeatCount="indefinite" dur="12.727s" keyTimes="0;.671;.7;.711;.93199;.954;1" values="114.91,263.12;114.91,263.12;114.938,263.129;114.92,263.11;114.92,263.11;114.904,263.1;114.904,263.1"/><animateTransform attributeName="transform" additive="sum" type="scale" repeatCount="indefinite" dur="12.727s" keyTimes="0;.671;.7;.711;.93199;.954;1" values=".3,.3;.3,.3;1.584,1.584;1.2,1.2;1.2,1.2;.12,.12;.12,.12"/><animateTransform attributeName="transform" additive="sum" type="translate" repeatCount="indefinite" dur="12.727s" keyTimes="0;.671;.7;.711;.93199;.954;1" values="-.2,-.4;-.2,-.4;-.15,-.05;-.1,-.05;-.1,-.05;-.45,0;-.45,0"/><animate attributeName="opacity" repeatCount="indefinite" dur="12.727s" keyTimes="0;.671;.7;.93199;.954;1" values="0;0;1;1;0;0"/><path fill="#FFF" stroke="none" d="M17.8 -17.75Q10.45 -25.15 .05 -25.15 -10.4 -25.15 -17.75 -17.75 -25.1 -10.4 -25.1 0 -25.1 10.45 -17.75 17.8 -10.4 25.15 .05 25.15 10.45 25.15 17.8 17.8 25.15 10.45 25.15 0 25.15 -10.4 17.8 -17.75M13 -2.45Q14.2 -1.55 14.7 -.1 15.25 1.65 14.15 2.8 13.113 3.557 12.05 3.2 11.821 8.426 9.2 11.95 5.8 16.5 -.25 16.25 -6.5 15.9 -10 10.8 -12.228 7.562 -12.9 3.4 -13.895 3.940 -14.8 3.2 -15.8 2.6 -15.8 .8 -15.8 -.7 -14.9 -1.7 -14.096 -2.583 -13.05 -2.3 -12.540 -7.518 -9.75 -11.45 -7.104 -15.161 -3.1 -16.3L-2.95 -16.75Q-2.75 -17.35 -2.2 -17.05 -1.918 -16.853 -1.85 -16.55 -.983 -16.711 -.05 -16.75 .4 -16.85 .6 -16.55 6 -16.5 9.15 -10.65 10.927 -7.296 11.65 -3 12.298 -2.975 13 -2.45M-13.3 -1Q-13.85 -1.2 -14.1 -.6 -14.4 -.1 -14.4 .45 -14.4 1.25 -14.25 1.6 -13.75 2.35 -13.4 2.1 -13.229 1.960 -13.1 1.9 -13.158 .815 -13.15 -.35 -13.145 -.635 -13.15 -.95 -13.214 -.951 -13.3 -1M13.3 1.3Q13.5 .7 13.1 0 12.400 -1.366 11.85 -1.55 12.034 -.068 12.1 1.5 12.101 1.579 12.1 1.65 12.197 1.690 12.3 1.75 13 2.3 13.3 1.3M.9 -15.05Q.908 -14.905 .8 -14.75 -1 -11.25 -2.75 -10.45 -3.95 -9.9 -6.95 -10.3 -7.65 -10.4 -7.45 -11 -7.3 -11.6 -6.6 -11.5 -4.3 -11.1 -3.25 -11.7 -2.211 -12.266 -.6 -15.05 -.671 -15.008 -.75 -15 -1.1 -14.95 -1.3 -15.15 -1.831 -15.079 -2.35 -14.95 -2.481 -14.641 -2.55 -14.55 -3.25 -13.6 -3.75 -13.25 -4.45 -12.75 -5.65 -13 -5.959 -13.028 -6.05 -13.25 -7.519 -12.148 -8.7 -10.45 -11.65 -6.35 -11.8 -.35 -11.85 5.5 -9 9.8 -5.8 14.4 -.25 14.75 5.1 15.05 8.1 10.85 10.75 7.05 10.6 1.5 10.553 -.035 10.4 -1.45 10.374 -1.475 10.35 -1.5 9.907 -1.986 10.3 -2.35 9.712 -6.509 8.15 -9.6 7.888 -10.127 7.6 -10.6 6.667 -7.004 4.3 -7.3 3.75 -7.4 3.75 -8 3.75 -8.65 4.3 -8.55 5.5 -8.45 6.15 -9.75 6.486 -10.464 6.75 -11.85 4.438 -14.830 .9 -15.05M3.25 -14.25Q3.9 -14.1 3.7 -13.5 2.2 -9.4 -1.1 -7.95 -4.25 -6.55 -8.45 -7.95 -9.05 -8.15 -8.85 -8.8 -8.65 -9.4 -8.1 -9.2 -4.45 -8 -1.7 -9.15 1.15 -10.3 2.35 -13.85 2.65 -14.4 3.25 -14.25M4.45 -2.2Q3.75 -2.2 3.75 -2.9 3.75 -3.65 4.45 -3.65 5.15 -3.65 5.15 -2.9 5.15 -2.2 4.45 -2.2M5.5 6.15Q6.15 6.5 5.8 7.05 3.95 9.3 -.25 9.7 -4.8 10.3 -5.85 7.35 -6.15 6.65 -5.45 6.5 -4.75 6.3 -4.45 7 -3.8 8.8 -.1 8.25 3.4 7.75 4.45 6.3 4.9 5.75 5.5 6.15M2.4 2Q2.55 2.65 2.3 2.85 1.1 3.85 -.4 4.25 -1.1 4.55 -1.2 3.75 -1.45 3 -.8 2.85 .2 2.65 .95 2.15 -.5 -1.05 -.85 -3.95 -.95 -4.55 -.25 -4.8 .55 -5.05 .6 -4.45 1 -1 2.4 2M-4.65 -3.95Q-3.9 -3.95 -3.9 -3.15 -3.9 -2.45 -4.65 -2.45 -5.35 -2.45 -5.35 -3.15 -5.35 -3.95 -4.65 -3.95Z"/><path fill="#2A396B" stroke="none" d="M14.7 -.1Q14.2 -1.55 13 -2.45 12.298 -2.975 11.65 -3 10.927 -7.296 9.15 -10.65 6 -16.5 .6 -16.55 .4 -16.85 -.05 -16.75 -.983 -16.711 -1.85 -16.55 -1.918 -16.853 -2.2 -17.05 -2.75 -17.35 -2.95 -16.75L-3.1 -16.3Q-7.104 -15.161 -9.75 -11.45 -12.540 -7.518 -13.05 -2.3 -14.096 -2.583 -14.9 -1.7 -15.8 -.7 -15.8 .8 -15.8 2.6 -14.8 3.2 -13.895 3.940 -12.9 3.4 -12.228 7.562 -10 10.8 -6.5 15.9 -.25 16.25 5.8 16.5 9.2 11.95 11.821 8.426 12.05 3.2 13.113 3.557 14.15 2.8 15.25 1.65 14.7 -.1M.8 -14.75Q.908 -14.905 .9 -15.05 4.438 -14.830 6.75 -11.85 6.486 -10.464 6.15 -9.75 5.5 -8.45 4.3 -8.55 3.75 -8.65 3.75 -8 3.75 -7.4 4.3 -7.3 6.667 -7.004 7.6 -10.6 7.888 -10.127 8.15 -9.6 9.712 -6.509 10.3 -2.35 9.907 -1.986 10.35 -1.5 10.374 -1.475 10.4 -1.45 10.553 -.035 10.6 1.5 10.75 7.05 8.1 10.85 5.1 15.05 -.25 14.75 -5.8 14.4 -9 9.8 -11.85 5.5 -11.8 -.35 -11.65 -6.35 -8.7 -10.45 -7.519 -12.148 -6.05 -13.25 -5.959 -13.028 -5.65 -13 -4.45 -12.75 -3.75 -13.25 -3.25 -13.6 -2.55 -14.55 -2.481 -14.641 -2.35 -14.95 -1.831 -15.079 -1.3 -15.15 -1.1 -14.95 -.75 -15 -.671 -15.008 -.6 -15.05 -2.211 -12.266 -3.25 -11.7 -4.3 -11.1 -6.6 -11.5 -7.3 -11.6 -7.45 -11 -7.65 -10.4 -6.95 -10.3 -3.95 -9.9 -2.75 -10.45 -1 -11.25 .8 -14.75M13.1 0Q13.5 .7 13.3 1.3 13 2.3 12.3 1.75 12.197 1.690 12.1 1.65 12.101 1.579 12.1 1.5 12.034 -.068 11.85 -1.55 12.400 -1.366 13.1 0M-14.1 -.6Q-13.85 -1.2 -13.3 -1 -13.214 -.951 -13.15 -.95 -13.145 -.635 -13.15 -.35 -13.158 .815 -13.1 1.9 -13.229 1.960 -13.4 2.1 -13.75 2.35 -14.25 1.6 -14.4 1.25 -14.4 .45 -14.4 -.1 -14.1 -.6M-3.9 -3.15Q-3.9 -3.95 -4.65 -3.95 -5.35 -3.95 -5.35 -3.15 -5.35 -2.45 -4.65 -2.45 -3.9 -2.45 -3.9 -3.15M2.3 2.85Q2.55 2.65 2.4 2 1 -1 .6 -4.45 .55 -5.05 -.25 -4.8 -.95 -4.55 -.85 -3.95 -.5 -1.05 .95 2.15 .2 2.65 -.8 2.85 -1.45 3 -1.2 3.75 -1.1 4.55 -.4 4.25 1.1 3.85 2.3 2.85M5.8 7.05Q6.15 6.5 5.5 6.15 4.9 5.75 4.45 6.3 3.4 7.75 -.1 8.25 -3.8 8.8 -4.45 7 -4.75 6.3 -5.45 6.5 -6.15 6.65 -5.85 7.35 -4.8 10.3 -.25 9.7 3.95 9.3 5.8 7.05M3.75 -2.9Q3.75 -2.2 4.45 -2.2 5.15 -2.2 5.15 -2.9 5.15 -3.65 4.45 -3.65 3.75 -3.65 3.75 -2.9M3.7 -13.5Q3.9 -14.1 3.25 -14.25 2.65 -14.4 2.35 -13.85 1.15 -10.3 -1.7 -9.15 -4.45 -8 -8.1 -9.2 -8.65 -9.4 -8.85 -8.8 -9.05 -8.15 -8.45 -7.95 -4.25 -6.55 -1.1 -7.95 2.2 -9.4 3.7 -13.5Z"/></g><animate attributeName="display" repeatCount="indefinite" dur="12.727s" keyTimes="0;.671;1" values="none;inline;inline"/></g></g></svg>