<svg id="Layer_1" data-name="Layer 1" xmlns="http://www.w3.org/2000/svg" xmlns:xlink="http://www.w3.org/1999/xlink" viewBox="0 0 611 446"><defs><style>.cls-1{fill:#fff;}.cls-2{fill:#ededec;}.cls-3{fill:#2b386b;}.cls-4{fill:#47b490;}.cls-5{filter:url(#filter-43);}</style><filter id="filter-43" x="-50" y="-50" width="200" height="200" name="filter-43"><feOffset result="shadow-1-feOffset-shadow" dx="-10" dy="14" in="SourceAlpha"/><feGaussianBlur result="shadow-1-feGaussianBlur-shadow" stdDeviation="10" in="shadow-1-feOffset-shadow"/><feColorMatrix result="shadow-1-feColorMatrix-shadow" values="0 0 0 0 0.22 0 0 0 0 0.73 0 0 0 0 0.57 0 0 0 0.2 0" in="shadow-1-feGaussianBlur-shadow"/></filter></defs><title>digital-img-1</title><circle id="ellipse-1" class="cls-1" cx="199.5" cy="246.5" r="199.5"/><path id="path-2" class="cls-2" d="M82.45,321.28c3.91,0,3.92-7.87,0-7.87H31.94c-3.91,0-3.92,7.87,0,7.87Z"/><path id="path-3" class="cls-2" d="M358.06,321.28c3.91,0,3.92-7.87,0-7.87H319c-3.91,0-3.92,7.87,0,7.87Z"/><path id="path-4" class="cls-3" d="M207.73,226.35c11.13,3.1,19.42,12.9,28.47,19.74a2.83,2.83,0,0,0,3.87-1.05,44.91,44.91,0,0,0,3.71-39.93c-1.31-3.45-6.79-1.94-5.45,1.54a39.25,39.25,0,0,1-3.12,35.45l3.87-1.05c-9.48-7.21-18.1-17.06-29.71-20.33a2.82,2.82,0,0,0-3.39,2.07,2.93,2.93,0,0,0,1.89,3.56Z"/><path id="path-5" class="cls-3" d="M205.27,100c-67.92,2.13-66.23,128.33,4.27,124.32,32-1.81,43.87-31.38,41.77-59.71-2-27-13.63-67.7-48.39-63.54-3.61.43-3.65,6.16,0,5.72,30.72-3.68,40.42,32.27,42.55,56.1,2.28,25.18-6.35,53.9-35.95,55.71-63.19,3.89-64.63-111-4.25-112.88C208.92,105.61,208.94,99.89,205.27,100Z"/><path id="path-6" class="cls-3" d="M202.08,150.09a86.37,86.37,0,0,0,7.31,25l.44-3.43a19.9,19.9,0,0,1-7.53,3.89,2.86,2.86,0,0,0-1.84,3.47,2.75,2.75,0,0,0,3.3,2,26.73,26.73,0,0,0,10-5.36,3,3,0,0,0,.44-3.43,81.49,81.49,0,0,1-6.76-23.71c-.48-3.61-5.79-2.07-5.31,1.5Z"/><path id="path-7" class="cls-3" d="M189.72,152a3.54,3.54,0,1,0-3.54-3.54A3.54,3.54,0,0,0,189.72,152Z"/><path id="path-8" class="cls-3" d="M224.37,152c1.09,0,2-1.59,2-3.54s-.88-3.54-2-3.54-2,1.59-2,3.54S223.29,152,224.37,152Z"/><path id="path-9" class="cls-3" d="M177.79,187.72c3.67,7.78,9.21,16.67,19,18.25,7.35,1.53,14.8-2.18,17.53-8.74,1.31-3.3-4.35-4.72-5.63-1.44-2.34,5.81-10.57,5.9-15.38,3.06-5.24-3.08-8.09-8.74-10.47-13.94-1.52-3.21-6.55-.44-5,2.75Z"/><path id="path-10" class="cls-3" d="M184.76,110.49c6.07,16.59,23.74,26.58,41.84,23.65,3.67-.58,2.12-5.95-1.53-5.37-15,2.2-29.54-6.09-34.68-19.78-1.23-3.36-6.86-1.92-5.6,1.47Z"/><path id="path-11" class="cls-3" d="M199.88,104.41c4.87,11.17,12.32,24.34,26.14,23.07,3.57-.35,3.59-6.11,0-5.77-11.71,1.11-17.28-10.94-21.32-20.19C203.13,98.11,198.31,101,199.88,104.41Z"/><path id="path-12" class="cls-3" d="M158,155.31c-7.8-3.82-12.8,4.36-12.78,11.15a11.08,11.08,0,0,0,3.81,9.22,7.4,7.4,0,0,0,9.18-.23c2.91-2.27-1.17-6.22-4.06-4-1.1.84-2.46-1-2.78-1.79a9.61,9.61,0,0,1-.44-4.09c0-1.84,1.15-6.82,4.13-5.34s6.22-3.29,2.89-4.91Z"/><path id="path-13" class="cls-3" d="M248.76,158.33c2.2-2,5.93,4.11,6.68,5.57,1.15,2.39,1.34,9.72-3,6.76-3.21-2.15-6.2,3-3,5.16a8.17,8.17,0,0,0,10.1-.86,10.85,10.85,0,0,0,2.39-11.39c-2.2-6.47-10.29-15.74-17.25-9.55-2.87,2.58,1.39,6.78,4.24,4.23Z"/><path id="path-14" class="cls-4" d="M146.08,272.15v42.31a58.77,58.77,0,0,1-1.29,14,62.42,62.42,0,0,1-6,13.82Q128.65,361.82,120,382.2c10.74,5.48,23.6,1.68,35.66.94,15.4-.92,30.59,3.41,45.94,5,17,1.8,34.11.25,51.13-1.29a8.49,8.49,0,0,0,4.17-1.11,8.29,8.29,0,0,0,2.44-3.36,189.94,189.94,0,0,0,17.17-108.56,8.06,8.06,0,0,0-1.66-4.61c-1.82-1.91-4.91-1.66-7.51-1.24a461.93,461.93,0,0,1-122.17,2.19"/><path id="path-15" class="cls-3" d="M132.39,321.19q-9.29,20.65-17.65,41.56c-1.37,3.4,4,4.89,5.32,1.51q8.18-20.29,17-40.18c1.5-3.33-3.27-6.24-4.77-2.89Z"/><path id="path-16" class="cls-3" d="M116.51,366.59a1168,1168,0,0,0,126,.45c3.69-.19,3.71-5.33,0-5.15a1168,1168,0,0,1-126-.45C112.8,361.24,112.82,366.39,116.51,366.59Z"/><path id="path-17" class="cls-3" d="M135.39,329.15a3.54,3.54,0,1,0-3.54-3.54A3.54,3.54,0,0,0,135.39,329.15Z"/><path id="path-18" class="cls-3" d="M134.67,326.84H241.06c2.59,0,19.29-1.79,20.36,0,1.42,2.3-5.49,14.69-6.5,17.1-2.3,5.65-5.07,19-11.2,21.21-3.44,1.24-2,6.89,1.52,5.53,11.14-4,14.58-23.66,18.57-33.33,3.56-8.61,7.23-15.86-4.59-16.25-41.33-1.38-83.09,0-124.51,0a2.87,2.87,0,1,0,0,5.74Z"/><path id="path-19" class="cls-3" d="M135.24,323.93l.18-47.72c0-3.43-.73-7.57,0-10.84,1.17-5,2-3.89,6.49-4.58,7.75-1.24,16.6-.21,24.44-.3l95.71-1.21a2.86,2.86,0,0,0,0-5.72L146.51,255c-12,.14-16.39-.27-16.66,12.56-.37,18.81-.25,37.64-.37,56.42a2.86,2.86,0,1,0,5.71,0Z"/><path id="path-20" class="cls-3" d="M260.21,257.83a487.37,487.37,0,0,1,0,70.11c-.28,3.73,5.56,3.71,5.82,0a487.36,487.36,0,0,0,0-70c-.26-3.71-6.07-3.73-5.82,0Z"/><path id="path-21" class="cls-3" d="M140.11,341a3.54,3.54,0,1,0-3.54-3.54A3.54,3.54,0,0,0,140.11,341Z"/><path id="path-22" class="cls-3" d="M151.14,341a3.54,3.54,0,1,0-3.54-3.54A3.54,3.54,0,0,0,151.14,341Z"/><path id="path-23" class="cls-3" d="M162.16,341c1.09,0,2-1.59,2-3.54s-.88-3.54-2-3.54-2,1.59-2,3.54S161.08,341,162.16,341Z"/><path id="path-24" class="cls-3" d="M177.13,341a3.54,3.54,0,1,0-3.54-3.54A3.54,3.54,0,0,0,177.13,341Z"/><path id="path-25" class="cls-3" d="M188.15,341a3.54,3.54,0,1,0-3.54-3.54A3.54,3.54,0,0,0,188.15,341Z"/><path id="path-26" class="cls-3" d="M204.69,341a3.54,3.54,0,1,0-3.54-3.54A3.54,3.54,0,0,0,204.69,341Z"/><path id="path-27" class="cls-3" d="M215.27,341h.89a3.58,3.58,0,0,0,0-7.09h-.89a3.58,3.58,0,0,0,0,7.09Z"/><path id="path-28" class="cls-3" d="M230.67,341c1.09,0,2-1.59,2-3.54s-.88-3.54-2-3.54-2,1.59-2,3.54S229.59,341,230.67,341Z"/><path id="path-29" class="cls-3" d="M243.27,341a3.54,3.54,0,1,0-3.54-3.54A3.54,3.54,0,0,0,243.27,341Z"/><path id="path-30" class="cls-3" d="M141.3,346.53v-.89a3.58,3.58,0,0,0-7.09,0v.89a3.58,3.58,0,0,0,7.09,0Z"/><path id="path-31" class="cls-3" d="M154.68,348.79V348a3.58,3.58,0,0,0-7.09,0v.89a3.58,3.58,0,0,0,7.09,0Z"/><path id="path-32" class="cls-3" d="M165.31,352a3.54,3.54,0,1,0-3.54-3.54A3.54,3.54,0,0,0,165.31,352Z"/><path id="path-33" class="cls-3" d="M181.4,352h.89a3.58,3.58,0,0,0,0-7.09h-.89a3.58,3.58,0,0,0,0,7.09Z"/><path id="path-34" class="cls-3" d="M195.24,352a3.54,3.54,0,1,0-3.54-3.54A3.54,3.54,0,0,0,195.24,352Z"/><path id="path-35" class="cls-3" d="M208.62,352a3.54,3.54,0,1,0-3.54-3.54A3.54,3.54,0,0,0,208.62,352Z"/><path id="path-36" class="cls-3" d="M222.8,352a3.54,3.54,0,1,0-3.54-3.54A3.54,3.54,0,0,0,222.8,352Z"/><path id="path-37" class="cls-3" d="M235.4,353.56c1.09,0,2-1.59,2-3.54s-.88-3.54-2-3.54-2,1.59-2,3.54S234.31,353.56,235.4,353.56Z"/><path id="path-38" class="cls-1" d="M212,297.12a65.2,65.2,0,0,0-9.52-19.72c-.86-1.12-3-1.56-3.74,0A166.6,166.6,0,0,0,187,309.84a2,2,0,0,0,.23,1.62,2.18,2.18,0,0,0,1.36,1,45.07,45.07,0,0,0,19.22-.14c2.71-.6,1.57-4.58-1.14-4a39.47,39.47,0,0,1-16.94.14l1.5,2.57a161.27,161.27,0,0,1,11.4-31.48h-3.81a62.06,62.06,0,0,1,9,18.71C208.74,300.77,212.93,299.66,212,297.12Z"/><path id="path-39" class="cls-3" d="M155.77,207.95c-55.29,10.65-46,87.3-46.41,127.78a2.89,2.89,0,0,0,5.78,0c.39-38.16-9.5-112.28,42.18-122.24,3.65-.71,2.1-6.26-1.53-5.54Z"/><path id="path-40" class="cls-3" d="M251.28,213.49c51.65,9.94,41.78,84.08,42.17,122.24a2.89,2.89,0,0,0,5.78,0c-.42-40.51,8.9-117.13-46.42-127.78C249.17,207.25,247.6,212.77,251.28,213.49Z"/><path id="path-41" class="cls-3" d="M200,221.15c-10.69,3.52-20.7,13.89-29.78,20.58l3.88,1.06a39.61,39.61,0,0,1-2.27-37.5c1.57-3.43-3.34-6.43-4.9-3a45.93,45.93,0,0,0,2.27,43.47,2.8,2.8,0,0,0,3.88,1.06l13.73-10.18c4.54-3.36,9.33-8,14.68-9.78,3.47-1.13,2-6.85-1.5-5.69Z"/><g class="cls-5"><circle id="ellipse-42" cx="460.5" cy="146.5" r="140.5"/></g><circle id="ellipse-42-2" data-name="ellipse-42" class="cls-1" cx="460.5" cy="146.5" r="140.5"/><path id="path-44" class="cls-4" d="M483.77,204.25a223.4,223.4,0,0,0,2.86,51.17,257.33,257.33,0,0,0,41.71.88c-4.39-18.47,1.84-37.52-1.6-56l-33.56.68a16.6,16.6,0,0,1-9.13-1.54"/><path id="path-45" class="cls-3" d="M473.39,204l.58,36.77c0,6.79-.78,14.68,2.43,21,6.24,12.84,30.79,8.42,42.33,8.13a2.07,2.07,0,1,0,0-4.14c-7.29.19-14.35.19-21.54-.17-4.57-.21-8.55,0-12.55-2.55-5.42-3.43-5.59-6.83-6.14-13.15-1.31-15.13-.49-30.74-.73-46a2.13,2.13,0,0,0-4.25,0Z"/><path id="path-46" class="cls-3" d="M478,202.74c-3.62-12.47,23.8-11.34,29.82-9.55,11.64,3.2,9.52,13.92,9.85,24.09q.43,11.1.55,22.21c0,5.73,2.71,23.66-2.38,27.39-2.14,1.58,0,5.21,2.09,3.61,8.54-6.28,4.5-24,4.38-33.22q-.19-14.33-.9-28.85c-.24-4.61.88-11.94-2.5-15.76-5.78-6.66-24.44-4.94-31.7-3.92-8.35,1.19-16,5.76-13.23,15.24a2.07,2.07,0,1,0,4-1.1Z"/><path id="path-47" class="cls-3" d="M495,258.87v.75a2.53,2.53,0,0,0,5,0v-.75a2.53,2.53,0,0,0-5,0Z"/><path id="path-48" class="cls-3" d="M483.38,206.44l1.06,40.78a2,2,0,1,0,3.94,0l-1.06-40.78a2,2,0,1,0-3.94,0Z"/><path id="path-49" class="cls-3" d="M487.09,251.21q11.22.51,22.47.56a2.22,2.22,0,0,0,0-4.43q-11.25,0-22.47-.56C484.37,246.78,484.37,251.09,487.09,251.21Z"/><path id="path-50" class="cls-3" d="M485.35,208.74a84.36,84.36,0,0,0,23.17-.35c2.64-.4,1.52-4.37-1.09-4a80.62,80.62,0,0,1-22.08.21c-2.64-.33-2.61,3.81,0,4.14Z"/><path id="path-51" class="cls-3" d="M506.7,206.35q1,21.68,1.47,43.38a1.78,1.78,0,1,0,3.52,0q-.44-21.7-1.47-43.38C510.1,203.74,506.58,203.72,506.7,206.35Z"/><path id="path-52" class="cls-3" d="M470.6,29c27.69.63,45.82,26.54,44.2,53.16-1.46,23.78-22.14,42.33-45.76,42.41-25.14,0-39.88-18.66-38.69-42.83s13-54.84,42.54-51.8c3.24.32,3.22-4.74,0-5.06-31.94-3.28-45.78,28.64-47.56,55.4-1.84,27.61,14.95,49.43,43.69,49.35,26.33,0,49.34-20.87,50.82-47.47,1.68-29.55-18.7-57.51-49.24-58.14a2.53,2.53,0,1,0,0,5.06Z"/><path id="path-53" class="cls-3" d="M478.3,70.21a2.53,2.53,0,1,0-2.53-2.53A2.53,2.53,0,0,0,478.3,70.21Z"/><path id="path-54" class="cls-3" d="M447.65,71.21a2.53,2.53,0,1,0-2.53-2.53A2.53,2.53,0,0,0,447.65,71.21Z"/><path id="path-55" class="cls-3" d="M459.62,74a15.19,15.19,0,0,1-8.53,8.54,2.57,2.57,0,0,0-.61,4.62L461.87,95c2.69,1.84,5.23-2.53,2.55-4.37L453,82.78l-.61,4.62a20.82,20.82,0,0,0,12.15-12.15c1.2-3-3.69-4.33-4.88-1.34Z"/><path id="path-56" class="cls-3" d="M484.56,30.07C474.43,52.64,448.83,55.76,427,57.36c-3.24.24-3.26,5.3,0,5.06,23.58-1.72,51.15-5.55,62-29.8C490.25,29.67,485.89,27.1,484.56,30.07Z"/><path id="path-57" class="cls-3" d="M484.13,32.68c-5.15,33.32,20.62,58.8,53.48,57,3.24-.18,3.26-5.24,0-5.06C508.4,86.23,484.33,64.34,489,34c.49-3.18-4.4-4.55-4.88-1.34Z"/><path id="path-58" class="cls-3" d="M518.34,86.53a25.12,25.12,0,0,0,18.82-14c1.4-2.91-3-5.49-4.38-2.55A20.52,20.52,0,0,1,517,81.65C513.79,82.14,515.16,87,518.34,86.53Z"/><path id="path-59" class="cls-3" d="M406.45,72.89a41.78,41.78,0,0,0,18.82,8c3.18.51,4.56-4.37,1.34-4.88A38.7,38.7,0,0,1,409,68.53c-2.59-2-5.12,2.43-2.55,4.37Z"/><path id="path-60" class="cls-3" d="M424.62,83.23a85.56,85.56,0,0,1-19.28,1.15c-3.26-.16-3.24,4.9,0,5.06A91.52,91.52,0,0,0,426,88.11C429.16,87.54,427.8,82.66,424.62,83.23Z"/><path id="path-61" class="cls-3" d="M447.29,103.82a25.31,25.31,0,0,0,19.83,7.61c7.58-.57,13.19-6.25,17.72-11.78,2-2.49-1.52-6.07-3.59-3.58-3.18,3.89-6.68,8.1-11.63,9.64-6.08,2-14.56-.75-18.78-5.47-2.19-2.43-5.75,1.15-3.59,3.58Z"/><path id="path-62" class="cls-3" d="M426.89,120.66a71.27,71.27,0,0,0-26.62,42.87c-3.93,20.24-.26,41.25-1.58,61.78-.2,3.26,4.86,3.24,5.06,0,1.15-18-1.56-36.11.47-54a67.88,67.88,0,0,1,26.33-47c2.57-2-1-5.57-3.59-3.58Z"/><path id="path-63" class="cls-3" d="M512.65,124.24a67.78,67.78,0,0,1,26.33,47c2,17.93-.69,36.05.47,54,.2,3.24,5.27,3.26,5.06,0-1.32-20.53,2.33-41.44-1.58-61.78a71.29,71.29,0,0,0-26.62-42.87c-2.53-2-6.08,1.58-3.59,3.58Z"/><path id="path-64" class="cls-4" d="M387.37,187.34a53,53,0,0,1-20,2.35c-2.17-.16-4.72-.3-6.08,1.4a6.37,6.37,0,0,0-.81,4.43L362,219.59a8.94,8.94,0,0,0,.53,3,7.39,7.39,0,0,0,2.82,3,21,21,0,0,0,16,3.16,11.12,11.12,0,0,0,6.56-3.6c2.37-3,2-7.25,2-11.09a92.42,92.42,0,0,1,.38-12.91c.49-4.78,1-10.42-2.57-13.6"/><path id="path-65" class="cls-3" d="M381.94,133.13c-8.1,11.38-11.47,24.72-14.56,38.12-.73,3.18,4.05,4.51,4.88,1.34,3-13,6.22-25.85,14-36.92,1.88-2.67-2.51-5.2-4.38-2.55Z"/><path id="path-66" class="cls-3" d="M364,166.31c-4.52-.1-11.85-.28-12.34,5.83s5.89,8.56,10.59,9.45c5.39,1,13.41.59,18.11-2.57,4.38-2.91,3.22-7.67-1.17-9.8-2.92-1.4-5.49,3-2.55,4.37,2.21,1.05-2.9,2.47-3.38,2.59a26.76,26.76,0,0,1-7,.75,12.34,12.34,0,0,1-6.26-1.26q-3.12-.61,0-4.27a32.13,32.13,0,0,1,4.05,0,2.53,2.53,0,1,0,0-5.06Z"/><path id="path-67" class="cls-3" d="M350.81,172.72q0,22.27,1.26,44.53c.18,3.24,5.25,3.26,5.06,0q-1.3-22.27-1.26-44.53a2.53,2.53,0,0,0-5.06,0Z"/><path id="path-68" class="cls-3" d="M378.8,173.84l1.54,43.22c.12,3.24,5.19,3.26,5.06,0l-1.54-43.22C383.74,170.6,378.68,170.58,378.8,173.84Z"/><path id="path-69" class="cls-3" d="M351.94,220.46a22.29,22.29,0,0,0,31.86.22c2.35-2.27-1.24-5.83-3.59-3.58a17.17,17.17,0,0,1-24.69-.22,2.53,2.53,0,1,0-3.59,3.58Z"/><path id="path-70" class="cls-3" d="M434.61,136.83c11.28,10.32,23.4,19.57,39.56,18.22a39.64,39.64,0,0,0,31.66-21.62c1.54-2.87-2.84-5.42-4.38-2.55-6.24,11.62-17.24,19.17-30.69,19.25s-23.34-8.42-32.57-16.82c-2.39-2.21-6.08,1.38-3.59,3.58Z"/><path id="path-71" class="cls-3" d="M470.26,168.79a2.53,2.53,0,1,0-2.53-2.53A2.53,2.53,0,0,0,470.26,168.79Z"/><path id="path-72" class="cls-3" d="M469.55,185.49A2.53,2.53,0,1,0,467,183,2.53,2.53,0,0,0,469.55,185.49Z"/><path id="path-73" class="cls-1" d="M498.68,219.93c-.47-.63-1.63-.89-2,0a60.91,60.91,0,0,0-4.06,11.59,1.2,1.2,0,0,0,.83,1.45,15.39,15.39,0,0,0,6.8,0c1.49-.34.86-2.62-.63-2.28a12.48,12.48,0,0,1-5.54,0,8.12,8.12,0,0,0,1.23.21,45.61,45.61,0,0,1,3.42-9.78l-.71,1.53c1.47,2,.94,2.67,1.7,5,.47,1.44,2.76.82,2.28-.63A23.83,23.83,0,0,0,498.68,219.93Z"/></svg>