<?xml version="1.0" encoding="utf-8"?>
<svg width="175px" height="43px" viewBox="0 0 175 43" version="1.1" xmlns:xlink="http://www.w3.org/1999/xlink" xmlns="http://www.w3.org/2000/svg">
  <desc>Created with Lunacy</desc>
  <defs>
    <path d="M51.6753 42.4341L1.39682e-14 42.4341L0 0L51.6753 0L51.6753 42.4341Z" transform="translate(0.0004105263 0.5658531)" id="path_1" />
    <path d="M23.3531 0L23.3531 23.3533L0 23.3533L0 9.4739e-15L23.3531 9.4739e-15L23.3531 0Z" transform="translate(0.3508667 0.1286)" id="path_2" />
    <clipPath id="mask_1">
      <use xlink:href="#path_1" />
    </clipPath>
    <clipPath id="mask_2">
      <use xlink:href="#path_2" />
    </clipPath>
  </defs>
  <g id="Page-1">
    <g id="Group-3">
      <path d="M51.6753 42.4341L1.39682e-14 42.4341L0 0L51.6753 0L51.6753 42.4341Z" transform="translate(0.0004105263 0.5658531)" id="Clip-2" fill="none" stroke="none" />
      <g clip-path="url(#mask_1)">
        <path d="M41.2469 25.6945C46.1281 26.31 50.8553 27.5952 51.612 32.0746C52.2655 35.9413 47.8393 42.4343 38.9288 42.4343C28.5781 42.4343 24.2826 36.9545 21.1462 28.6313L18.0276 20.0582L12.5505 4.87983L11.9627 3.2512L11.3784 4.88117L6.35632 18.7399L17.9304 21.5356L18.1145 21.9179L0 21.9179L7.58858 2.57328C8.20163 1.02259 9.72263 0 11.4167 0L12.5648 0C14.3623 0 15.9715 1.09516 16.6024 2.74797L26.195 27.8674C29.9506 36.3968 34.1907 37.7715 39.0192 37.9798C46.5975 38.3083 49.0935 30.0832 41.0232 29.3011C35.7329 28.7885 29.9835 28.1583 29.9835 24.1559C29.9835 22.2203 31.0803 21.1661 33.4107 20.5943C30.8134 19.3191 29.9616 16.9884 29.9616 14.9217C29.9616 10.3475 31.9766 6.74227 41.2018 6.74227L51.2768 6.74227L51.2768 10.025L48.0528 9.90881C49.4862 10.6129 50.6063 12.3712 50.6063 14.966C50.6063 19.6275 48.7247 22.8807 40.2165 22.8807C38.6928 22.8807 36.5977 22.7913 36.5977 22.7913C34.8058 23.0117 34.3043 23.3208 34.3043 23.8039C34.3043 24.8594 36.1852 25.0361 41.2469 25.6945ZM45.6348 14.7893C45.6348 12.3712 44.7378 10.6129 40.2165 10.6129C35.8718 10.6129 34.8421 12.3276 34.8421 14.7893C34.8421 17.4284 35.7835 19.3634 40.2596 19.3634C44.6044 19.3634 45.6348 17.5165 45.6348 14.7893Z" transform="translate(0.0004105263 0.5658531)" id="Fill-1" fill="#3FBA91" fill-rule="evenodd" stroke="none" />
      </g>
    </g>
    <path d="M12.0173 0C6.83393 0 4.42183 1.94987 3.66371 3.50132L3.61848 0.310024L0 0.310024L0 23L4.78098 23L4.78098 10.3694C4.78098 6.29221 5.80644 3.94326 10.6772 3.94326C15.5473 3.94326 16.2622 6.33707 16.2622 10.3694L16.2622 23L21 23L21 10.7685C21 4.34234 19.5229 0 12.0173 0" transform="translate(78 7)" id="Fill-4" fill="#3FBA91" stroke="none" />
    <path d="M8.00656 0L3.26669 0L3.26669 5.75134L0 5.75134L0 9.61476L3.26669 9.61476L3.26669 22.1507C3.26669 27.587 6.44147 29.3833 14 28.9339L14 25.0711C9.03509 25.2958 8.13969 24.3074 8.13969 22.1507L8.13969 9.61476L14 9.61476L14 5.75134L8.00656 5.75134L8.00656 0Z" transform="translate(100 2)" id="Fill-6" fill="#3FBA91" stroke="none" />
    <path d="M3.7267 3.45646L3.71983 0.310024L0 0.310024L0 23L4.86318 23L4.86318 10.4142C4.86318 6.73548 5.81768 4.1207 10.6809 4.1207C11.0901 4.1207 11.544 4.21043 12 4.21043L12 0L11.2254 0C6.68086 0 4.45459 1.94987 3.7267 3.45646" transform="translate(139 7)" id="Fill-8" fill="#3FBA91" stroke="none" />
    <g id="Group-12" transform="translate(151 7)">
      <path d="M23.3531 0L23.3531 23.3533L0 23.3533L0 9.4739e-15L23.3531 9.4739e-15L23.3531 0Z" transform="translate(0.3508667 0.1286)" id="Clip-11" fill="none" stroke="none" />
      <g clip-path="url(#mask_2)">
        <path d="M0 11.6767C0 5.228 5.22733 0 11.6767 0C18.1253 0 23.3533 5.228 23.3533 11.6767C23.3533 18.1253 18.1253 23.3533 11.6767 23.3533C5.22733 23.3533 0 18.1253 0 11.6767ZM19.048 11.6767C19.048 7.61267 15.7413 4.306 11.6767 4.306C7.612 4.306 4.30533 7.61267 4.30533 11.6767C4.30533 15.7407 7.612 19.0473 11.6767 19.0473C15.7413 19.0473 19.048 15.7407 19.048 11.6767Z" transform="translate(0.3508667 0.1286)" id="Fill-10" fill="#3FBA91" fill-rule="evenodd" stroke="none" />
      </g>
    </g>
    <path d="M5.0135 13.9163C5.28584 17.9323 7.27349 20.2598 11.4283 20.2598C15.2692 20.2598 16.4875 18.388 16.9408 16.5175L22 16.5175C21.5932 20.4873 18.8827 24 11.6099 24C2.30368 24 0 18.2053 0 11.9542C0 5.70234 2.34873 0 11.5641 0C20.1031 0 22.4983 6.57034 21.9092 13.9163L5.0135 13.9163ZM16.9408 9.94651C16.9851 6.75235 15.4951 3.78639 11.1123 3.78639C6.59502 3.78639 5.28584 6.61584 5.06059 10.0375L16.9408 10.0375C16.9408 10.0375 16.9851 10.0375 16.9408 9.99201C16.9408 9.99201 16.9851 9.94651 16.9408 9.94651Z" transform="translate(53 7)" id="Fill-13" fill="#3FBA91" fill-rule="evenodd" stroke="none" />
    <path d="M5.01449 13.9163C5.28481 17.9323 7.27258 20.2598 11.4304 20.2598C15.2687 20.2598 16.4899 18.388 16.9405 16.5175L22 16.5175C21.5938 20.4873 18.8825 24 11.6092 24C2.30383 24 0 18.2053 0 11.9542C0 5.70234 2.3482 0 11.5649 0C20.103 0 22.4983 6.57034 21.9092 13.9163L5.01449 13.9163ZM16.9405 9.94651C16.9855 6.75235 15.4947 3.78639 11.1137 3.78639C6.59611 3.78639 5.28481 6.61584 5.05954 10.0375L16.9405 10.0375C16.9405 10.0375 16.9855 10.0375 16.9405 9.99201C16.9405 9.99201 16.9855 9.94651 16.9405 9.94651Z" transform="translate(115 7)" id="Fill-15" fill="#3FBA91" fill-rule="evenodd" stroke="none" />
  </g>
</svg>