<?xml version="1.0" encoding="UTF-8"?>
<svg width="1312px" height="359px" viewBox="0 0 1312 359" version="1.1" xmlns="http://www.w3.org/2000/svg" xmlns:xlink="http://www.w3.org/1999/xlink">
    <!-- Generator: Sketch 56.2 (81672) - https://sketch.com -->
    <title>Group 25</title>
    <desc>Created with Sketch.</desc>
    <g id="Page-1" stroke="none" stroke-width="1" fill="none" fill-rule="evenodd">
        <g id="v5" transform="translate(-33.000000, -235.000000)" fill="#FFFFFF" fill-rule="nonzero">
            <g id="Group-25" transform="translate(33.000000, 235.000000)">
                <path d="M1241.79476,123.745903 C1233.27288,120.448981 1223.41624,123.745903 1219.51466,132.038162 C1215.81842,139.930794 1219.10397,147.423799 1227.00981,150.720721 C1234.81298,153.917736 1243.02684,154.816897 1247.23645,146.224918 C1251.13803,138.132473 1248.26318,128.341613 1241.58942,122.646929 C1239.12526,120.548888 1235.42902,124.045623 1237.99585,126.143665 C1242.00011,129.540494 1244.36159,134.435924 1243.84823,139.73098 C1243.54021,143.027902 1242.10278,146.424731 1238.81724,147.623612 C1235.94238,148.622679 1233.17021,147.623612 1230.39803,146.624545 C1224.64832,144.62641 1221.56813,140.130607 1224.23763,134.23611 C1227.11248,127.842079 1234.19694,126.043758 1240.56268,128.44152 C1243.54021,129.740307 1244.87496,124.944784 1241.79476,123.745903 L1241.79476,123.745903 Z" id="Path" opacity="0.818219866"></path>
                <path d="M882.119032,80.1827086 C876.346144,77.9493097 869.669069,80.1827086 867.02606,85.8000452 C864.522157,91.1466668 866.747848,96.2225733 872.103419,98.4559722 C877.389437,100.621692 882.953667,101.230801 885.805334,95.4104282 C888.448343,89.9284492 886.500863,83.2959313 881.979926,79.4382423 C880.310658,78.0169885 877.806754,80.3857449 879.545576,81.8069987 C882.258138,84.1080763 883.857854,87.4243353 883.510089,91.0113092 C883.301431,93.2447081 882.327691,95.5457858 880.101999,96.3579308 C878.154519,97.0347183 876.276591,96.3579308 874.398664,95.6811433 C870.503703,94.3275682 868.417117,91.2820243 870.225492,87.2889778 C872.172972,82.9575375 876.97212,81.73932 881.284398,83.3636101 C883.301431,84.2434339 884.205618,80.9948537 882.119032,80.1827086 L882.119032,80.1827086 Z" id="Path" opacity="0.698916481"></path>
                <path d="M555.119032,261.182709 C549.346144,258.94931 542.669069,261.182709 540.02606,266.800045 C537.522157,272.146667 539.747848,277.222573 545.103419,279.455972 C550.389437,281.621692 555.953667,282.230801 558.805334,276.410428 C561.448343,270.928449 559.500863,264.295931 554.979926,260.438242 C553.310658,259.016989 550.806754,261.385745 552.545576,262.806999 C555.258138,265.108076 556.857854,268.424335 556.510089,272.011309 C556.301431,274.244708 555.327691,276.545786 553.101999,277.357931 C551.154519,278.034718 549.276591,277.357931 547.398664,276.681143 C543.503703,275.327568 541.417117,272.282024 543.225492,268.288978 C545.172972,263.957538 549.97212,262.73932 554.284398,264.36361 C556.301431,265.243434 557.205618,261.994854 555.119032,261.182709 L555.119032,261.182709 Z" id="Path" opacity="0.391694568"></path>
                <path d="M834.210875,28.6758335 C830.912082,27.3996056 827.096611,28.6758335 825.58632,31.8857401 C824.155518,34.9409524 825.427342,37.8414705 828.487668,39.1176984 C831.50825,40.3552527 834.687809,40.7033149 836.317334,37.3773876 C837.827625,34.2448281 836.714779,30.4548179 834.131386,28.2504242 C833.177519,27.4382791 831.746717,28.7918542 832.740329,29.6039993 C834.290364,30.9189008 835.204488,32.8139059 835.005765,34.8636053 C834.886532,36.1398332 834.330109,37.4547347 833.058285,37.9188176 C831.945439,38.3055533 830.872338,37.9188176 829.799236,37.5320819 C827.573545,36.7586104 826.38121,35.0182996 827.414567,32.7365587 C828.527413,30.26145 831.269783,29.5653257 833.733942,30.4934915 C834.886532,30.9962479 835.40321,29.1399164 834.210875,28.6758335 L834.210875,28.6758335 Z" id="Path" opacity="0.659551711"></path>
                <path d="M16.1190321,1.18270863 C10.3461441,-1.05069025 3.66906881,1.18270863 1.02605984,6.8000452 C-1.47784339,12.1466668 0.747848373,17.2225733 6.10341917,19.4559722 C11.3894371,21.6216923 16.9536665,22.2308011 19.8053341,16.4104282 C22.448343,10.9284492 20.5008627,4.2959313 15.9799264,0.438242334 C14.3106575,-0.983011497 11.8067543,1.38574489 13.545576,2.80699872 C16.2581378,5.10807635 17.8578538,8.42433529 17.5100894,12.0113092 C17.3014308,14.2447081 16.3276907,16.5457858 14.1019989,17.3579308 C12.1545186,18.0347183 10.2765912,17.3579308 8.3986638,16.6811433 C4.50370322,15.3275682 2.41711719,12.2820243 4.22549175,8.28897778 C6.17297204,3.95753753 10.9721199,2.73931997 15.2843977,4.36361006 C17.3014308,5.24343386 18.2056181,1.99485367 16.1190321,1.18270863 L16.1190321,1.18270863 Z" id="Path" opacity="0.391694568"></path>
                <path d="M1293.11903,339.182709 C1287.34614,336.94931 1280.66907,339.182709 1278.02606,344.800045 C1275.52216,350.146667 1277.74785,355.222573 1283.10342,357.455972 C1288.38944,359.621692 1293.95367,360.230801 1296.80533,354.410428 C1299.44834,348.928449 1297.50086,342.295931 1292.97993,338.438242 C1291.31066,337.016989 1288.80675,339.385745 1290.54558,340.806999 C1293.25814,343.108076 1294.85785,346.424335 1294.51009,350.011309 C1294.30143,352.244708 1293.32769,354.545786 1291.102,355.357931 C1289.15452,356.034718 1287.27659,355.357931 1285.39866,354.681143 C1281.5037,353.327568 1279.41712,350.282024 1281.22549,346.288978 C1283.17297,341.957538 1287.97212,340.73932 1292.2844,342.36361 C1294.30143,343.243434 1295.20562,339.994854 1293.11903,339.182709 L1293.11903,339.182709 Z" id="Path-Copy" opacity="0.391694568"></path>
                <path d="M1308.97845,318.732153 C1305.40476,317.349573 1301.27133,318.732153 1299.63518,322.209552 C1298.08514,325.519365 1299.46295,328.661593 1302.77831,330.044173 C1306.0506,331.384857 1309.49513,331.761924 1311.26044,328.158837 C1312.89659,324.76523 1311.69101,320.659386 1308.89234,318.271293 C1307.85898,317.391469 1306.30894,318.857842 1307.38536,319.737666 C1309.06456,321.162143 1310.05486,323.215065 1309.83958,325.435572 C1309.71041,326.818153 1309.10762,328.242629 1307.72981,328.745386 C1306.52423,329.164349 1305.3617,328.745386 1304.19917,328.326422 C1301.78801,327.488495 1300.49631,325.603158 1301.61578,323.131272 C1302.82136,320.449904 1305.79226,319.69577 1308.46177,320.701282 C1309.71041,321.245935 1310.27014,319.234909 1308.97845,318.732153 L1308.97845,318.732153 Z" id="Path-Copy-2" opacity="0.201636905" transform="translate(1305.500000, 324.500000) rotate(-147.000000) translate(-1305.500000, -324.500000) "></path>
            </g>
        </g>
    </g>
</svg>