<svg xmlns="http://www.w3.org/2000/svg" width="292" height="70"><rect id="backgroundrect" width="100%" height="100%" fill="none"/><style>.st0{fill:#47B490;} .st1{fill:#2B386B;}</style><g class="currentLayer"><title>Layer 1</title><g id="svg_1"><path class="st0" d="M154.6 51.8c-39.3-6-79.5-6.6-119-2-5.1.6-11.6 2.9-11.3 8 .3 4 4.8 6.2 8.7 7.3 18.4 5 37.8 4.7 56.8 4.1 19.8-.6 39.7-1.6 59.5-2.9 2.4-.2 5-.4 7.1-1.7 3.2-2.1 4.2-7 2-10.2-2.2-3.2-7.2-4-10.2-1.6" id="svg_2"/></g><g id="svg_3"><path class="st0" d="M287.4 42.2c-25.2-3.8-51-4.2-76.3-1.3-3.3.4-7.5 1.9-7.3 5.2.2 2.6 3.1 4 5.6 4.7 11.8 3.2 24.2 3 36.5 2.6 12.7-.4 25.4-1 38.1-1.8 1.6-.1 3.2-.2 4.5-1.1 2.1-1.3 2.7-4.5 1.3-6.5s-4.6-2.5-6.6-1.1" id="svg_4"/></g><g id="svg_5"><g id="svg_6"><path class="st1" d="M69.2 25.5c-9.3.7-18.6 1.5-27.9 2.2-1.3.1-2.5 1.1-2.5 2.5v12.7c0 3.1-1.1 8.3 1.6 10.7 2.7 2.3 8.7 1.8 11.9 2.1 6.2.6 12.5.8 18.7.7 3.2 0 3.2-5 0-5-4.6 0-9.2-.1-13.8-.3-2-.1-3.9-.3-5.9-.5-1.7-.2-5.3.1-6.7-1-1.7-1.3-.9-6.7-.8-9.3V30.1l-2.5 2.5c9.3-.7 18.6-1.5 27.9-2.2 3.1-.2 3.2-5.2 0-4.9z" id="svg_7"/></g></g><g id="svg_8"><g id="svg_9"><path class="st1" d="M72.4 55.6c.9-3.3 2.1-8.3 6.2-9 4.5-.8 5.3 6.7 5.5 9.7.2 3.2 5.2 3.2 5 0-.4-5.7-2.2-14.7-9.4-14.8-7.3-.1-10.4 6.9-12 12.8-1 3 3.8 4.4 4.7 1.3z" id="svg_10"/></g></g><g id="svg_11"><g id="svg_12"><path class="st1" d="M88.2 59.3c13.3.4 26.6.2 39.9-.7 3.2-.2 3.2-5.2 0-5-13.3.9-26.6 1.1-39.9.7-3.2-.1-3.2 4.9 0 5z" id="svg_13"/></g></g><g id="svg_14"><g id="svg_15"><path class="st1" d="M129.3 56.6c2.1-3.8 4.6-8.9 9.4-9.7 5.9-1 7 5.9 7.3 10.1.2 3.2 5.2 3.2 5 0-.5-6.3-2.3-14-9.7-15.1-8-1.2-13 6.1-16.3 12.2-1.6 2.8 2.7 5.3 4.3 2.5z" id="svg_16"/></g></g><g id="svg_17"><g id="svg_18"><path class="st1" d="M71.4 30.1c2.5-6.8 4.8-13.7 7-20.7 1-3.1-3.9-4.4-4.8-1.3-2.2 6.9-4.5 13.8-7 20.7-1.1 3 3.8 4.3 4.8 1.3z" id="svg_19"/></g></g><g id="svg_20"><g id="svg_21"><path class="st1" d="M77.4 9.5c3.4-1.9 7.9-1.5 11.7-1.7l12.9-.6c8.3-.3 16.6-.5 24.9-.6 3.2-.1 3.2-5.1 0-5-9.6.2-19.2.4-28.9.8-7.1.3-16.7-.9-23.1 2.8-2.8 1.5-.3 5.9 2.5 4.3z" id="svg_22"/></g></g><g id="svg_23"><g id="svg_24"><path class="st1" d="M125.3 5.2c4.2 6.3 8.4 12.7 12.5 19 1.8 2.7 6.1.2 4.3-2.5-4.2-6.3-8.4-12.7-12.5-19-1.7-2.7-6-.2-4.3 2.5z" id="svg_25"/></g></g><g id="svg_26"><g id="svg_27"><path class="st1" d="M139.4 25.7c11-1.7 22.2 1.4 33.2 2.1 3.2.2 3.2-4.8 0-5-11.5-.7-23-3.7-34.5-1.9-3.2.4-1.8 5.3 1.3 4.8z" id="svg_28"/></g></g><g id="svg_29"><g id="svg_30"><path class="st1" d="M170.5 25.8c.9 7.9-1.4 15.4-1.2 23.3.1 3.2 5.1 3.2 5 0-.2-7.9 2.1-15.4 1.2-23.3-.4-3.2-5.4-3.2-5 0z" id="svg_31"/></g></g><g id="svg_32"><g id="svg_33"><path class="st1" d="M170.4 49.1c-7.2.1-14.3.8-21.4 2.1-3.2.5-1.8 5.4 1.3 4.8 6.7-1.2 13.3-1.8 20.1-1.9 3.2 0 3.2-5 0-5z" id="svg_34"/></g></g><g id="svg_35"><g id="svg_36"><path class="st1" d="M75 52.2c-2.4 4.2-2.4 9-.1 13.2 1 1.8 3.3 1.4 4.3 0 3.1-4 3.3-9.7.6-14-.9-1.5-3.5-1.8-4.3 0-1.5 3.3-2.1 6.6-1.7 10.2.4 3.1 5.4 3.2 5 0-.4-2.6-.1-5.2 1-7.7h-4.3c1.8 3 1.4 6.3-.6 9h4.3c-1.4-2.6-1.3-5.6.1-8.2 1.7-2.8-2.7-5.3-4.3-2.5z" id="svg_37"/></g></g><g id="svg_38"><g id="svg_39"><path class="st1" d="M138.7 50.9c-2.6 1.7-3.4 4.3-3.6 7.3-.1 2.5.2 5.8 3 6.6 3.2.9 5.1-2.2 5.4-4.9.4-3.3-.7-6.5-3-9-1.1-1.2-3.1-.8-3.9.5-1.4 2.4-2.6 5.3-2.6 8.2 0 2.4 1.7 5 4.4 4.4 2.4-.6 3.6-3.3 3.9-5.5.2-2.5-.7-5-2.6-6.6-1.3-1.1-3-.9-3.9.5-2.4 3.7-2.5 8.4-.2 12.2 1.7 2.7 6 .2 4.3-2.5-1.4-2.3-1.3-4.9.2-7.1-1.3.2-2.6.3-3.9.5.6.5 1 1 1.2 1.8.1.4.1.8 0 1.2-.2 1-.9.8.7 1.1 1.7.4.8.4 1.1-.5.2-.5.2-1.2.4-1.8.3-1.2.8-2.2 1.5-3.3-1.3.2-2.6.3-3.9.5.9 1 1.5 2.2 1.6 3.5.1.5-.1 1.1-.1 1.6 0 .2-.1.4-.2.6 1.4.7 2 .8 1.8.1.3-.6-.1-1.9 0-2.7.1-.9.3-1.9 1.1-2.4 2.5-1.8 0-6.1-2.7-4.3z" id="svg_40"/></g></g><g id="svg_41"><g id="svg_42"><path class="st1" d="M108.5 36.1c1.8-.4 3.5-.5 5.3-.2 1.3.2 2.5-1.3 2.5-2.5 0-1.5-1.2-2.3-2.5-2.5-2.2-.3-4.5-.1-6.7.4-3.1.7-1.8 5.5 1.4 4.8z" id="svg_43"/></g></g><g id="svg_44"><g id="svg_45"><path class="st1" d="M139.4 21.2c-23.3.7-46.8.5-69.8 4.2-3.2.5-1.8 5.3 1.3 4.8 22.6-3.7 45.7-3.3 68.5-4 3.2-.1 3.3-5.1 0-5z" id="svg_46"/></g></g><g id="svg_47"><g id="svg_48"><path class="st1" d="M98.5 5.3V22c0 3.2 5 3.2 5 0V5.3c0-3.2-5-3.2-5 0z" id="svg_49"/></g></g><g id="svg_50"><g id="svg_51"><path class="st1" d="M123 18c.2 1 .3 2 .3 3.2 0 1.3 1.2 2.6 2.5 2.5 1.4-.1 2.5-1.1 2.5-2.5 0-1.5-.2-3.1-.4-4.6-.2-1.3-1.9-2.1-3.1-1.7-1.4.4-2 1.7-1.8 3.1z" id="svg_52"/></g></g><g id="svg_53"><g id="svg_54"><path class="st1" d="M227.7 30.3c5.7-6.7 17.7-12 21.6-.7 1 3 5.9 1.7 4.8-1.3-1.9-5.5-5.9-10.7-12.2-10.5-6.9.1-13.4 3.8-17.8 9-2 2.4 1.5 6 3.6 3.5z" id="svg_55"/></g></g><g id="svg_56"><g id="svg_57"><path class="st1" d="M251.9 27.9c-4.5 1.5-9.4.9-14.1 1.1-4.8.2-9.6.6-14.4 1.2-3.1.4-3.2 5.4 0 5 5.4-.7 10.8-1.1 16.3-1.2 4.6-.1 9.2.3 13.6-1.2 3-1.1 1.7-5.9-1.4-4.9z" id="svg_58"/></g></g><g id="svg_59"><g id="svg_60"><path class="st1" d="M251.8 33.7c7.4-.1 14.7-.1 22.1-.2 1.3 0 2.6-1.1 2.5-2.5-.6-8.2-1.8-16.3-3.5-24.3-.7-3.1-5.5-1.8-4.8 1.3 1.7 7.6 2.8 15.2 3.3 23l2.5-2.5c-7.4.1-14.7.1-22.1.2-3.2 0-3.2 5 0 5z" id="svg_61"/></g></g><g id="svg_62"><g id="svg_63"><path class="st1" d="M232.6 17.3c5.6-2.4 12.6-2.3 18.6-3.1 3.2-.4 3.2-5.4 0-5-7 .9-14.6.9-21.1 3.7-2.9 1.4-.4 5.7 2.5 4.4z" id="svg_64"/></g></g><g id="svg_65"><g id="svg_66"><path class="st1" d="M266 9.3c1.3-.4 2-.5 3.3-.5 1.3 0 2.6-1.2 2.5-2.5-.1-1.4-1.1-2.5-2.5-2.5-1.5 0-3.1.2-4.6.7-1.2.4-2.2 1.8-1.7 3.1.3 1.2 1.7 2.1 3 1.7z" id="svg_67"/></g></g><g id="svg_68"><g id="svg_69"><path class="st1" d="M275.2 23.4c4.4.5 10.4 2.4 10.8 7.7.2 3.2 5.2 3.2 5 0-.6-8.4-8.4-11.8-15.8-12.7-3.2-.4-3.1 4.6 0 5z" id="svg_70"/></g></g><g id="svg_71"><g id="svg_72"><path class="st1" d="M274.2 33.9c4.8.1 9.5.2 14.3.3 3.2.1 3.2-4.9 0-5-4.8-.1-9.5-.2-14.3-.3-3.2 0-3.2 5 0 5z" id="svg_73"/></g></g><g id="svg_74"><g id="svg_75"><path class="st1" d="M241.6 39.8c-.1-.9-.2-1.7-.8-2.4-.6-.8-1.6-1.3-2.6-1.3-1.9.1-3.1 1.5-3.7 3.1-.2.6 0 1.4.3 1.9s.9 1 1.5 1.1c.6.1 1.4.1 1.9-.3.6-.4.9-.9 1.1-1.5l-.1.2c.1-.2.1-.2-.1.1l.2-.2c-.3.2-.4.3-.2.2-.8.4-1.9.2-2.3-.6-.1-.4-.2-.5-.1-.2 0-.4-.1-.5 0-.2.1 1.3 1.1 2.6 2.5 2.5 1.2.1 2.5-1 2.4-2.4z" id="svg_76"/></g></g><g id="svg_77"><g id="svg_78"><path class="st1" d="M240.6 43.2c.9-1.3 1-2.9.9-4.5-.1-1.1-.7-2.1-1.8-2.4-1.6-.5-3.3.2-4.3 1.5-.9 1.2-1.1 2.6-1.1 4 0 1.3 1.2 2.6 2.5 2.5 1.4-.1 2.5-1.1 2.5-2.5V41c0-.4-.1-.1 0 .1 0-.1.2-.6.1-.3s.2-.2 0 .1c-.4.3.3-.1-.1.1-.2.1-.3.2-.6.2-.1 0-.7-.1-.3 0l-1.8-2.4v1.3c0 .1-.1.3-.1.4-.1.3-.1.2 0-.1-.1.1-.1.2-.2.3-.7 1.1-.2 2.8.9 3.4 1.3.7 2.6.3 3.4-.9z" id="svg_79"/></g></g><g id="svg_80"><g id="svg_81"><path class="st1" d="M235 36.1c-1 1.9-2.2 4.3-1.6 6.5.4 1.3 1.8 2.1 3.1 1.7 1.3-.4 2.1-1.8 1.7-3.1 0 .1-.1.5.1-.1.1-.3.2-.6.3-1 .2-.5.5-1.1.7-1.6.6-1.2.3-2.7-.9-3.4-1.2-.6-2.8-.2-3.4 1z" id="svg_82"/></g></g><g id="svg_83"><g id="svg_84"><path class="st1" d="M283.9 40.3c-.1-.9-.2-1.7-.8-2.4-.6-.8-1.6-1.3-2.6-1.3-1.9.1-3.1 1.5-3.7 3.1-.2.6 0 1.4.3 1.9s.9 1 1.5 1.1c.6.1 1.4.1 1.9-.3.6-.4.9-.9 1.1-1.5l-.1.2c.1-.2.1-.2-.1.1l.2-.2c-.3.2-.4.3-.2.2-.8.4-1.9.2-2.3-.6-.1-.4-.2-.5-.1-.2 0-.4-.1-.5 0-.2.1 1.3 1.1 2.6 2.5 2.5 1.2.1 2.5-1 2.4-2.4z" id="svg_85"/></g></g><g id="svg_86"><g id="svg_87"><path class="st1" d="M282.9 43.7c.9-1.3 1-2.9.9-4.5-.1-1.1-.7-2.1-1.8-2.4-1.6-.5-3.3.2-4.3 1.5-.9 1.2-1.1 2.6-1.1 4 0 1.3 1.2 2.6 2.5 2.5 1.4-.1 2.5-1.1 2.5-2.5v-.8c0-.4-.1-.1 0 .1 0-.1.2-.6.1-.3s.2-.2 0 .1c-.4.3.3-.1-.1.1-.2.1-.3.2-.6.2-.1 0-.7-.1-.3 0l-1.8-2.4v1.3c0 .1-.1.3-.1.4-.1.3-.1.2 0-.1-.1.1-.1.2-.2.3-.7 1.1-.2 2.8.9 3.4 1.3.7 2.6.3 3.4-.9z" id="svg_88"/></g></g><g id="svg_89"><g id="svg_90"><path class="st1" d="M277.2 36.6c-1 1.9-2.2 4.3-1.6 6.5.4 1.3 1.8 2.1 3.1 1.7 1.3-.4 2.1-1.8 1.7-3.1 0 .1-.1.5.1-.1.1-.3.2-.6.3-1 .2-.5.5-1.1.7-1.6.6-1.2.3-2.7-.9-3.4-1.1-.5-2.8-.2-3.4 1z" id="svg_91"/></g></g><g id="svg_92"><g id="svg_93"><path class="st1" d="M274.1 7.6c.3-.5.8-1.4 1-1.6.4-.3.1.1 0-.1 0-.1-.5-.9-.4-.4 0 .2.1.2 0-.2-.1-.3 0-.6.3-.8-.8 1.1-1 2.5 0 3.5.9.9 2.7 1.1 3.5 0 .9-1.2 1.4-2.5.9-4-.4-1.4-1.6-2.5-3-2.9-3-.8-5.6 1.5-6.8 4-.6 1.2-.3 2.7.9 3.4 1.3.6 3 .3 3.6-.9z" id="svg_94"/></g></g><g id="svg_95"><g id="svg_96"><path class="st0" d="M1.6 33.7c10-.9 19.9-1.8 29.9-2.7 1.6-.1 1.6-2.6 0-2.5-10 .9-19.9 1.8-29.9 2.7-1.6.2-1.6 2.7 0 2.5z" id="svg_97"/></g></g><g id="svg_98"><g id="svg_99"><path class="st0" d="M12.9 38.8c4.7-.6 9.4-1.2 14.2-1.8 1.6-.2 1.6-2.7 0-2.5-4.7.6-9.4 1.2-14.2 1.8-1.6.2-1.6 2.7 0 2.5z" id="svg_100"/></g></g><g id="svg_101"><g id="svg_102"><path class="st0" d="M195.7 18.7c6.4-1.1 12.7-1.8 19.2-2.3 1.6-.1 1.6-2.6 0-2.5-6.7.5-13.3 1.3-19.8 2.4-1.6.3-.9 2.7.6 2.4z" id="svg_103"/></g></g><g id="svg_104"><g id="svg_105"><path class="st0" d="M205.9 22.7c3.1.3 6.2.1 9.3-.7 1.6-.4.9-2.8-.7-2.4-2.9.7-5.7.9-8.6.6-1.6-.1-1.6 2.4 0 2.5z" id="svg_106"/></g></g></g></svg>