<svg xmlns="http://www.w3.org/2000/svg" width="343.975" height="136" viewBox="0 0 343.975 136">
  <g id="Group_3" data-name="Group 3" opacity="0.523">
    <g id="ILustDERECHA" opacity="0.4">
      <path id="Shape" d="M8.637,1.586A8.783,8.783,0,0,1,9.669,12.029,10.633,10.633,0,0,1,0,16.841a15.63,15.63,0,0,0,10.6,2.969A15.54,15.54,0,0,0,20.474,15a6.007,6.007,0,0,0,1.411-2.15,6.056,6.056,0,0,0-.723-4.471A16.251,16.251,0,0,0,10.564.118a2.545,2.545,0,0,0-1.514,0,.866.866,0,0,0-.482,1.229" transform="translate(187.94 96.877)" fill="#fff"/>
      <path id="Shape-2" data-name="Shape" d="M1.234,3.1q24.331-.149,48.628-.627a1.239,1.239,0,0,0,0-2.477Q25.532.5,1.234.628a1.238,1.238,0,0,0,0,2.477Z" transform="translate(131.179 113.023)" fill="#2b386b"/>
      <path id="Shape-3" data-name="Shape" d="M0,1.186V5.67a1.266,1.266,0,0,0,2.523,0V1.186A1.264,1.264,0,0,0,0,1.186Z" transform="translate(129.918 114.265)" fill="#2b386b"/>
      <path id="Shape-4" data-name="Shape" d="M0,1.212A45.965,45.965,0,0,0,.358,6.555a1.106,1.106,0,0,0,1.371.858A1.27,1.27,0,0,0,2.5,5.9a40.7,40.7,0,0,1-.3-4.683A1.107,1.107,0,1,0,0,1.212Z" transform="translate(179.741 113.023)" fill="#2b386b"/>
      <path id="Shape-5" data-name="Shape" d="M0,1.15c.2,2.97.406,5.908.609,8.879.1,1.533,2.64,1.533,2.538,0-.2-2.97-.406-5.908-.609-8.879C2.44-.383-.1-.383,0,1.15Z" transform="translate(135.594 103.087)" fill="#2b386b"/>
      <path id="Shape-6" data-name="Shape" d="M2.13,9.546A97.736,97.736,0,0,1,9.687,2.138C10.9,1.05,9.116-.751,7.907.337A97.736,97.736,0,0,0,.35,7.745c-1.108,1.189.672,2.991,1.78,1.8Z" transform="translate(135.594 95.635)" fill="#2b386b"/>
      <path id="Shape-7" data-name="Shape" d="M.946,2.484C2.207,2.484,2.207,0,.946,0s-1.261,2.484,0,2.484Z" transform="translate(143.793 95.635)" fill="#2b386b"/>
      <path id="Shape-8" data-name="Shape" d="M.432,2.007C3,4,5.471,6.123,7.869,8.342c1.182,1.093,3.023-.611,1.842-1.7A96.727,96.727,0,0,0,2.274.3c-1.251-1-3.128.708-1.842,1.7Z" transform="translate(144.424 94.393)" fill="#2b386b"/>
      <path id="Shape-9" data-name="Shape" d="M.015,1.616a92.642,92.642,0,0,1,.808,10.2,1.167,1.167,0,1,0,2.33,0A98.108,98.108,0,0,0,2.252.936C2.034-.7-.2-.016.015,1.616Z" transform="translate(151.992 102.466)" fill="#2b386b"/>
      <path id="Shape-10" data-name="Shape" d="M0,1.374C.1,2.748.156,4.122.247,5.457c.091,1.832,2.364,1.832,2.273,0-.091-1.374-.152-2.748-.242-4.083C2.156-.458-.117-.458,0,1.374Z" transform="translate(136.856 98.119)" fill="#2b386b"/>
      <path id="Shape-11" data-name="Shape" d="M1.276,2.484l13.216-.1a1.2,1.2,0,1,0,0-2.388L1.276.1a1.2,1.2,0,1,0,0,2.388Z" transform="translate(153.253 105.571)" fill="#2b386b"/>
      <path id="Shape-12" data-name="Shape" d="M0,1.227.437,7.467C.546,9.1,3.259,9.1,3.15,7.467L2.716,1.227C2.608-.409-.105-.409,0,1.227Z" transform="translate(166.497 106.813)" fill="#2b386b"/>
      <path id="Shape-13" data-name="Shape" d="M.005,1.1C.18,2.84.355,4.612.529,6.353c.14,1.466,2.758,1.466,2.619,0C2.973,4.612,2.8,2.84,2.624,1.1,2.485-.366-.134-.366.005,1.1Z" transform="translate(143.793 106.813)" fill="#2b386b"/>
      <path id="Shape-14" data-name="Shape" d="M2.3,14.9A21.98,21.98,0,0,1,13.73,4.4c5.146-2.042,11.128-2.141,16.608-1.844,10.426.56,20.986,4.018,28.1,11.857,1.069,1.186,2.84-.56,1.771-1.746C54.3,6.108,45.944,2.353,37.256.871A59.64,59.64,0,0,0,23.989.081c-4.745.231-9.457.955-13.7,3.228A24.246,24.246,0,0,0,.162,13.683c-.769,1.383,1.4,2.635,2.139,1.219Z" transform="translate(110.367 120.475)" fill="#2b386b"/>
      <path id="Shape-15" data-name="Shape" d="M2.19,9.73c7.146-6.191,16.989-7.96,26.157-6.871C38.932,4.118,48.741,9.084,58.011,14.118c1.449.782,2.7-1.429,1.281-2.211C49.449,6.567,39.1,1.43,27.842.24,18.134-.781,7.954,1.4.438,7.893-.843,8.982.977,10.785,2.19,9.73Z" transform="translate(160.821 119.854)" fill="#2b386b"/>
      <path id="Shape-16" data-name="Shape" d="M0,1.143C.2,5.778.521,10.38.982,15.015c.144,1.492,2.308,1.524,2.164,0-.462-4.6-.779-9.238-.981-13.872A1.084,1.084,0,1,0,0,1.143Z" transform="translate(195.508 106.813)" fill="#2b386b"/>
      <path id="Shape-17" data-name="Shape" d="M5.872,3.443C4.659,2.419,3.446,1.4,2.267.338,1.02-.754-.852,1.055.431,2.146c1.213,1.024,2.426,2.047,3.6,3.1,1.282,1.092,3.119-.716,1.837-1.808Z" transform="translate(191.093 108.676)" fill="#2b386b"/>
      <path id="Shape-18" data-name="Shape" d="M12.253,19.489a9.813,9.813,0,0,0,8.392-7.735A10.133,10.133,0,0,0,15.413,1.143,10.553,10.553,0,0,0,3.8,2.565,11.254,11.254,0,0,0,.57,14.6c.691,2.149,2.008,4.529,4.377,5.024,2.929.595,6.286.033,9.116-.661a1.235,1.235,0,0,0-.658-2.38,22.835,22.835,0,0,1-7.339.727c-2.337-.2-3.291-3.14-3.554-5.157a8.481,8.481,0,0,1,6.22-9.388,7.7,7.7,0,0,1,9.38,5.586,7.241,7.241,0,0,1-5.891,8.727c-1.514.132-1.547,2.611.033,2.413Z" transform="translate(184.156 96.877)" fill="#2b386b"/>
      <path id="Shape-19" data-name="Shape" d="M8.637,1.586A8.783,8.783,0,0,1,9.669,12.029,10.633,10.633,0,0,1,0,16.841a15.63,15.63,0,0,0,10.6,2.969A15.54,15.54,0,0,0,20.474,15a6.007,6.007,0,0,0,1.411-2.15,6.056,6.056,0,0,0-.723-4.471A16.251,16.251,0,0,0,10.564.118a2.545,2.545,0,0,0-1.514,0,.866.866,0,0,0-.482,1.229" transform="translate(321.902 108.877)" fill="#fff"/>
      <path id="Shape-20" data-name="Shape" d="M2.3,14.9A21.98,21.98,0,0,1,13.73,4.4c5.146-2.042,11.128-2.141,16.608-1.844,10.426.56,20.986,4.018,28.1,11.857,1.069,1.186,2.84-.56,1.771-1.746C54.3,6.108,45.944,2.353,37.256.871A59.64,59.64,0,0,0,23.989.081c-4.745.231-9.457.955-13.7,3.228A24.246,24.246,0,0,0,.162,13.683c-.769,1.383,1.4,2.635,2.139,1.219Z" transform="translate(214.337 120.475)" fill="#2b386b"/>
      <path id="Shape-21" data-name="Shape" d="M2.19,9.73c7.146-6.191,16.989-7.96,26.157-6.871C38.932,4.118,48.741,9.084,58.011,14.118c1.449.782,2.7-1.429,1.281-2.211C49.449,6.567,39.1,1.43,27.842.24,18.134-.781,7.954,1.4.438,7.893-.843,8.982.977,10.785,2.19,9.73Z" transform="translate(264.79 119.854)" fill="#2b386b"/>
      <path id="Shape-22" data-name="Shape" d="M0,1.143C.2,5.778.521,10.38.982,15.015c.144,1.492,2.308,1.524,2.164,0-.462-4.6-.779-9.238-.981-13.872A1.084,1.084,0,1,0,0,1.143Z" transform="translate(329.47 118.813)" fill="#2b386b"/>
      <path id="Shape-23" data-name="Shape" d="M5.872,3.443C4.659,2.419,3.446,1.4,2.267.338,1.02-.754-.852,1.055.431,2.146c1.213,1.024,2.426,2.047,3.6,3.1,1.282,1.092,3.119-.716,1.837-1.808Z" transform="translate(325.055 120.676)" fill="#2b386b"/>
      <path id="Shape-24" data-name="Shape" d="M12.253,19.489a9.813,9.813,0,0,0,8.392-7.735A10.133,10.133,0,0,0,15.413,1.143,10.553,10.553,0,0,0,3.8,2.565,11.254,11.254,0,0,0,.57,14.6c.691,2.149,2.008,4.529,4.377,5.024,2.929.595,6.286.033,9.116-.661a1.235,1.235,0,0,0-.658-2.38,22.835,22.835,0,0,1-7.339.727c-2.337-.2-3.291-3.14-3.554-5.157a8.481,8.481,0,0,1,6.22-9.388,7.7,7.7,0,0,1,9.38,5.586,7.241,7.241,0,0,1-5.891,8.727c-1.514.132-1.547,2.611.033,2.413Z" transform="translate(318.118 108.877)" fill="#2b386b"/>
      <path id="Shape-25" data-name="Shape" d="M13.164.653A10.993,10.993,0,0,0,2.538,3.786a9.643,9.643,0,0,0-1.6,10.7,10.021,10.021,0,0,0,10.091,5.939c4.277-.522,7.217-4.34,7.785-8.288A12.237,12.237,0,0,0,12.963.2a1.236,1.236,0,0,0-1.27,2.121A9.72,9.72,0,0,1,16.2,12.564c-1.069,4.5-5.881,7.081-10.057,4.34C3.04,14.881,1.5,10.573,3.173,7.212a8.358,8.358,0,0,1,9.356-4.177A1.234,1.234,0,0,0,13.164.653Z" transform="translate(239.166 11.178)" fill="#2b386b"/>
      <path id="Shape-26" data-name="Shape" d="M.152,1.862C.8,3.316,1.419,4.771,2.07,6.226a1.27,1.27,0,0,0,1.747.43,1.242,1.242,0,0,0,.445-1.686C3.612,3.515,3,2.06,2.344.605A1.27,1.27,0,0,0,.6.176,1.234,1.234,0,0,0,.152,1.862Z" transform="translate(238.535)" fill="#2b386b"/>
      <path id="Shape-27" data-name="Shape" d="M1.8.842C1.238,2.336.677,3.831.081,5.325c-.561,1.494,1.964,2.158,2.525.664S3.728,3,4.324,1.506,2.4-.652,1.8.842Z" transform="translate(251.779)" fill="#2b386b"/>
      <path id="Shape-28" data-name="Shape" d="M1.345,3.1c1.416-.172,2.832-.31,4.247-.482A1.373,1.373,0,0,0,6.937,1.312,1.349,1.349,0,0,0,5.592,0C4.177.176,2.761.314,1.345.486A1.373,1.373,0,0,0,0,1.793,1.373,1.373,0,0,0,1.345,3.1Z" transform="translate(263.762 16.146)" fill="#2b386b"/>
      <path id="Shape-29" data-name="Shape" d="M1.2,2.484H5.129A1.244,1.244,0,0,0,5.129,0H1.2a1.243,1.243,0,0,0,0,2.484Z" transform="translate(226.552 20.493)" fill="#2b386b"/>
      <path id="Shape-30" data-name="Shape" d="M2.751,5.92a8.249,8.249,0,0,1,2.5-3.7c1.3-1.153-.671-3-1.976-1.852A10.784,10.784,0,0,0,.067,5.221c-.522,1.607,2.162,2.306,2.684.7Z" transform="translate(237.274 36.018)" fill="#2b386b"/>
      <path id="Shape-31" data-name="Shape" d="M.176,2.094C.863,3.45,1.52,4.8,2.207,6.16,2.989,7.7,5.02,6.311,4.239,4.73,3.551,3.374,2.895,2.019,2.207.664,1.426-.88-.606.551.176,2.094Z" transform="translate(253.671 34.776)" fill="#2b386b"/>
      <path id="Shape-32" data-name="Shape" d="M1.527,11.116c4.683-1.566,8.9-4.35,11.113-9.153H10.5C13.6,7.67,20.917,13.8,27.183,9.48c1.319-.9.1-3.167-1.253-2.262C20.851,10.733,15.047,5.095,12.607.64a1.218,1.218,0,0,0-2.143,0C8.551,4.851,4.957,7.183.834,8.575-.649,9.1.01,11.6,1.527,11.116Z" transform="translate(0 122.959)" fill="#2b386b"/>
      <path id="Shape-33" data-name="Shape" d="M1.513,11.116C6.2,9.549,10.422,6.765,12.632,1.963H10.488C13.589,7.67,20.914,13.8,27.183,9.48c1.32-.9.1-3.167-1.254-2.262C20.848,10.733,15.041,5.095,12.6.64a1.219,1.219,0,0,0-2.145,0C8.541,4.851,4.945,7.183.821,8.575-.631,9.1,0,11.6,1.513,11.116Z" transform="translate(15.767 122.959)" fill="#2b386b"/>
      <path id="Shape-34" data-name="Shape" d="M1.527,11.116c4.683-1.566,8.9-4.35,11.113-9.153H10.5C13.6,7.67,20.917,13.8,27.183,9.48c1.319-.9.1-3.167-1.253-2.262C20.851,10.733,15.047,5.095,12.607.64a1.218,1.218,0,0,0-2.143,0C8.551,4.851,4.957,7.183.834,8.575-.649,9.1.01,11.6,1.527,11.116Z" transform="translate(29.642 122.959)" fill="#2b386b"/>
      <path id="Shape-35" data-name="Shape" d="M1.527,11.116c4.683-1.566,8.9-4.35,11.113-9.153H10.5C13.6,7.67,20.917,13.8,27.183,9.48c1.319-.9.1-3.167-1.253-2.262C20.851,10.733,15.047,5.095,12.607.64a1.218,1.218,0,0,0-2.143,0C8.551,4.851,4.957,7.183.834,8.575-.649,9.1.01,11.6,1.527,11.116Z" transform="translate(45.408 122.959)" fill="#2b386b"/>
      <path id="Shape-36" data-name="Shape" d="M1.513,11.116C6.2,9.549,10.422,6.765,12.632,1.963H10.488C13.589,7.67,20.914,13.8,27.183,9.48c1.32-.9.1-3.167-1.254-2.262C20.848,10.733,15.041,5.095,12.6.64a1.219,1.219,0,0,0-2.145,0C8.541,4.851,4.945,7.183.821,8.575-.631,9.1,0,11.6,1.513,11.116Z" transform="translate(59.914 122.959)" fill="#2b386b"/>
      <path id="Shape-37" data-name="Shape" d="M1.527,11.116c4.683-1.566,8.9-4.35,11.113-9.153H10.5C13.6,7.67,20.917,13.8,27.183,9.48c1.319-.9.1-3.167-1.253-2.262C20.851,10.733,15.047,5.095,12.607.64a1.218,1.218,0,0,0-2.143,0C8.551,4.851,4.957,7.183.834,8.575-.649,9.1.01,11.6,1.527,11.116Z" transform="translate(75.05 122.959)" fill="#2b386b"/>
      <path id="Shape-38" data-name="Shape" d="M1.582,3.907c3.846-.827,7.959-.728,11.872-.926,3.913-.165,7.859-.364,11.772-.529-.4-.529-.8-1.058-1.2-1.555-1.4,3.837-3.645,7.806-8.093,8.5-1.605.232-.9,2.646.669,2.382,5.351-.827,8.16-5.623,9.832-10.221A1.232,1.232,0,0,0,25.226,0c-4.147.2-8.294.364-12.441.562C8.839.731,4.759.7.88,1.525c-1.538.331-.9,2.745.7,2.382Z" transform="translate(44.147 117.37)" fill="#2b386b"/>
      <path id="Shape-39" data-name="Shape" d="M9.741.026a33.9,33.9,0,0,1-8.5.442c-1.652-.1-1.652,2.451,0,2.553a37.816,37.816,0,0,0,9.19-.511C12.047,2.2,11.359-.28,9.741.026Z" transform="translate(44.147 126.064)" fill="#2b386b"/>
      <path id="Shape-40" data-name="Shape" d="M.468,1.232C.325,3.32.146,5.374,0,7.462-.1,9.1,2.578,9.1,2.685,7.462c.143-2.088.322-4.142.465-6.23C3.258-.411.575-.411.468,1.232Z" transform="translate(42.886 119.854)" fill="#2b386b"/>
      <path id="Shape-41" data-name="Shape" d="M5.506,4.775C4.9,3.619,4.3,2.462,3.69,1.342A2.2,2.2,0,0,0,.739.222C-.925.981.512,3.293,2.177,2.571c.038-.036.113-.036.151-.072-.227.072-.492.108-.719.181H1.8c-.227-.072-.492-.108-.719-.181.378.181.719,1.229.908,1.59.378.687.719,1.373,1.1,2.06C3.88,7.7,6.339,6.329,5.506,4.775Z" transform="translate(56.13 111.781)" fill="#2b386b"/>
      <path id="Shape-42" data-name="Shape" d="M.618,2.481,9.473,1.6c.824-.084.824-1.68,0-1.6L.618.885c-.824.126-.824,1.68,0,1.6Z" transform="translate(29.011 118.612)" fill="#fff"/>
      <path id="Shape-43" data-name="Shape" d="M.7,2.48c1.836-.238,3.71-.429,5.546-.667.918-.1.918-1.905,0-1.81C4.413.242,2.539.432.7.67-.215.813-.253,2.576.7,2.48Z" transform="translate(33.426 120.475)" fill="#fff"/>
      <path id="Shape-44" data-name="Shape" d="M1.229,3c9.425-.837,18.986-.139,28.444.1,1.639.035,1.639-2.58,0-2.615C20.249.245,10.654-.417,1.229.385-.41.524-.41,3.14,1.229,3Z" transform="translate(267.5 63.767)" fill="#2b386b"/>
      <path id="Shape-45" data-name="Shape" d="M2.418,8.356C2.1,6.328,2.9,3.867,4.754,2.9A3.706,3.706,0,0,1,9.747,4.466c.736,1.4,2.817.166,2.08-1.263A6.051,6.051,0,0,0,3.922.576C.817,2.039-.4,5.729.113,9.021c.224,1.6,2.528.931,2.3-.665Z" transform="translate(266.239 55.694)" fill="#2b386b"/>
      <path id="Shape-46" data-name="Shape" d="M2.462,5.7A6.224,6.224,0,0,1,7.026,2.495C9.87,2.074,11.2,4.47,11.907,6.607c.492,1.49,3.055.842,2.528-.648C13.416,3.013,11.415-.064,7.658,0A8.946,8.946,0,0,0,.145,4.47C-.593,5.863,1.69,7.093,2.462,5.7Z" transform="translate(275.068 52.589)" fill="#2b386b"/>
      <path id="Shape-47" data-name="Shape" d="M2.3,4.274C4.042,2.747,6.738,1.625,9.115,2.84c1.951,1,2.412,3.242,2.8,5.018.355,1.465,2.909.842,2.554-.623-.639-2.774-1.7-5.673-4.967-6.8A9.33,9.33,0,0,0,.388,2.622C-.818,3.682,1.062,5.334,2.3,4.274Z" transform="translate(283.898 56.936)" fill="#2b386b"/>
      <path id="Shape-48" data-name="Shape" d="M1.061,2.739c8.131-.764,16.38-.127,24.54.1,1.414.032,1.414-2.356,0-2.388C17.47.224,9.192-.381,1.061.351c-1.414.127-1.414,2.515,0,2.388Z" transform="translate(87.38 77.035)" fill="#2b386b"/>
      <path id="Shape-49" data-name="Shape" d="M2.086,7.629C1.81,5.778,2.5,3.531,4.1,2.651A3.112,3.112,0,0,1,8.409,4.077c.635,1.275,2.43.152,1.795-1.154a5.085,5.085,0,0,0-6.82-2.4C.705,1.861-.344,5.231.1,8.237c.193,1.457,2.181.85,1.988-.607Z" transform="translate(86.292 69.664)" fill="#2b386b"/>
      <path id="Shape-50" data-name="Shape" d="M2.124,5.2A5.391,5.391,0,0,1,6.062,2.278c2.454-.384,3.6,1.8,4.21,3.755.424,1.36,2.635.769,2.181-.591C11.575,2.751,9.848-.058,6.607,0A7.666,7.666,0,0,0,.125,4.081c-.636,1.271,1.333,2.4,2,1.124Z" transform="translate(93.91 66.829)" fill="#2b386b"/>
      <path id="Shape-51" data-name="Shape" d="M1.987,3.9c1.5-1.395,3.826-2.419,5.876-1.309,1.683.911,2.081,2.96,2.418,4.582.306,1.338,2.51.768,2.2-.569C11.934,4.073,11.016,1.427,8.2.4A7.736,7.736,0,0,0,.335,2.394C-.706,3.362.916,4.87,1.987,3.9Z" transform="translate(101.527 70.798)" fill="#2b386b"/>
    </g>
  </g>
</svg>
