<?xml version="1.0" encoding="utf-8"?><svg id="brain2" image-rendering="auto" baseProfile="basic" version="1.1" x="0px" y="0px" width="800" height="450" xmlns="http://www.w3.org/2000/svg" xmlns:xlink="http://www.w3.org/1999/xlink"><g id="Scene-1" overflow="visible"><g id="Symbol-197" transform="translate(407.45 284.1)"><path fill="#FFF" stroke="none" d="M98.85 -109.95Q96.9 -108.05 95.9 -105.55 94.85 -103.05 94.85 -100.3 94.85 -97.1 96.25 -94.2L67.65 -65.5Q64.85 -62.7 60.85 -62.7L47.75 -62.7 47.75 -72.35Q47.75 -81.85 41 -88.6 34.3 -95.35 24.75 -95.35L15.2 -95.35 15.2 -133.95Q19.3 -135.3 21.85 -138.85 24.5 -142.45 24.5 -146.9 24.5 -152.6 20.5 -156.6 16.5 -160.6 10.85 -160.6 5.15 -160.6 1.2 -156.6 -2.8 -152.6 -2.8 -146.9 -2.8 -142.45 -.15 -138.85 2.35 -135.3 6.5 -133.95L6.5 -95.35 -3.4 -95.35 -3.4 -114.25Q-3.4 -116.1 -4.7 -117.35 -5.95 -118.65 -7.8 -118.65 -9.55 -118.65 -10.85 -117.35 -12.1 -116.1 -12.1 -114.25L-12.1 -95.35 -22 -95.35 -22 -165.55Q-22 -167.35 -23.25 -168.6 -24.6 -169.9 -26.35 -169.9 -28.15 -169.9 -29.45 -168.6 -30.7 -167.35 -30.7 -165.55L-30.7 -95.35 -40.6 -95.35 -40.6 -114.25Q-40.6 -116.1 -41.9 -117.35 -43.15 -118.65 -44.95 -118.65 -46.75 -118.65 -48.05 -117.35 -49.35 -116.1 -49.35 -114.25L-49.35 -95.35 -59.25 -95.35 -59.25 -108.5Q-59.25 -112.15 -60.6 -115.5 -61.95 -118.85 -64.55 -121.45L-93.2 -150.15Q-91.25 -154 -91.95 -158.35 -92.6 -162.75 -95.75 -165.9 -99.75 -169.9 -105.45 -169.9 -111.1 -169.9 -115.05 -165.9 -119.05 -161.9 -119.05 -156.2 -119.05 -150.55 -115.05 -146.55 -113.1 -144.6 -110.55 -143.55 -108.1 -142.55 -105.45 -142.55 -102.2 -142.55 -99.35 -144L-70.7 -115.3Q-67.9 -112.5 -67.9 -108.5L-67.9 -95.35 -77.5 -95.35Q-80.4 -95.35 -83.25 -94.6 -85 -94.15 -85.9 -92.6 -86.8 -91.05 -86.35 -89.3 -85.9 -87.55 -84.4 -86.6 -82.85 -85.75 -81.1 -86.15 -79.3 -86.6 -77.5 -86.6L24.75 -86.6Q30.65 -86.6 34.85 -82.4 39.05 -78.25 39.05 -72.35L39.05 30.2Q39.05 32.1 38.6 33.8 38.15 35.55 39.05 37.1 40 38.65 41.75 39.05 42.3 39.2 42.8 39.2 44.3 39.2 45.45 38.35 46.65 37.4 47 35.95 47.75 33.1 47.75 30.2L47.75 20.55 263.75 20.55Q265.1 24.7 268.65 27.25 272.25 29.9 276.7 29.9 282.35 29.9 286.35 25.9 290.35 21.9 290.35 16.2 290.35 10.55 286.35 6.55 282.35 2.55 276.7 2.55 272.25 2.55 268.65 5.15 265.1 7.75 263.75 11.85L47.75 11.85 47.75 1.95 77.1 1.95Q78.85 1.95 80.15 .65 81.45 -.6 81.45 -2.45 81.45 -4.25 80.15 -5.5 78.85 -6.8 77.1 -6.8L47.75 -6.8 47.75 -16.7 117.75 -16.7Q119.6 -16.7 120.85 -18 122.15 -19.25 122.15 -21.1 122.15 -22.9 120.85 -24.15 119.6 -25.45 117.75 -25.45L47.75 -25.45 47.75 -35.35 191.95 -35.35Q193.7 -35.35 195.05 -36.65 196.3 -37.9 196.3 -39.7 196.3 -41.5 195.05 -42.8 193.7 -44.1 191.95 -44.1L47.75 -44.1 47.75 -54 60.85 -54Q64.5 -54 67.85 -55.35 71.2 -56.75 73.8 -59.35L102.4 -88.05Q105.25 -86.6 108.5 -86.6 114.1 -86.6 118.15 -90.65 120.1 -92.55 121.1 -95.05 122.15 -97.55 122.15 -100.3 122.15 -103.05 121.1 -105.55 120.1 -108.05 118.15 -109.95 114.1 -114 108.5 -114 105.8 -114 103.25 -112.95 100.8 -111.9 98.85 -109.95M103.55 -100.3Q103.55 -102.35 105 -103.8 106.45 -105.25 108.5 -105.25 110.6 -105.25 112 -103.8 113.45 -102.35 113.45 -100.3 113.45 -98.25 112 -96.8 110.6 -95.35 108.5 -95.35 106.45 -95.35 105 -96.8 103.55 -98.25 103.55 -100.3M7.35 -150.4Q8.75 -151.85 10.85 -151.85 12.9 -151.85 14.35 -150.4 15.8 -148.95 15.8 -146.9 15.8 -144.85 14.35 -143.4 12.9 -141.95 10.85 -141.95 8.8 -141.95 7.35 -143.4 5.85 -144.85 5.85 -146.9 5.85 -148.95 7.35 -150.4M271.75 16.2Q271.75 14.2 273.2 12.7 274.65 11.25 276.7 11.25 278.75 11.25 280.15 12.7 281.65 14.2 281.65 16.2 281.65 18.25 280.15 19.7 278.75 21.2 276.7 21.2 274.65 21.2 273.2 19.7 271.75 18.3 271.75 16.2M-105.45 -161.15Q-103.35 -161.15 -101.95 -159.75 -100.45 -158.25 -100.45 -156.2 -100.45 -154.15 -101.95 -152.7 -103.35 -151.25 -105.45 -151.25 -107.45 -151.25 -108.95 -152.7 -110.35 -154.15 -110.35 -156.2 -110.35 -158.25 -108.95 -159.75 -107.45 -161.15 -105.45 -161.15Z"/><path fill="#FFF" stroke="none" d="M-281.4 -25.1L-281.4 -16.4 -101.05 -16.4 -101.05 -6.45 -119.95 -6.45Q-121.75 -6.45 -123 -5.2 -124.3 -3.9 -124.3 -2.1 -124.3 -.3 -123 1 -121.75 2.25 -119.95 2.25L-101.05 2.25 -101.05 12.2 -114.15 12.2Q-117.85 12.2 -121.15 13.6 -124.5 14.95 -127.1 17.55L-155.75 46.2Q-158.6 44.8 -161.8 44.8 -164.5 44.8 -167 45.85 -169.5 46.85 -171.45 48.8 -173.4 50.75 -174.4 53.25 -175.45 55.75 -175.45 58.45 -175.45 61.2 -174.4 63.7 -173.4 66.2 -171.45 68.15 -169.5 70.1 -167 71.15 -164.55 72.15 -161.8 72.15 -159.05 72.15 -156.55 71.15 -154.05 70.1 -152.15 68.15 -150.2 66.2 -149.15 63.7 -148.15 61.2 -148.15 58.45 -148.15 55.25 -149.55 52.4L-120.95 23.75Q-118.1 20.9 -114.15 20.9L-101.05 20.9 -101.05 30.55Q-101.05 40.05 -94.3 46.75 -87.55 53.5 -78.1 53.5L-68.5 53.5 -68.5 92.15Q-72.6 93.5 -75.15 97.05 -77.75 100.65 -77.75 105.1 -77.75 110.75 -73.75 114.75 -69.8 118.75 -64.1 118.75 -58.5 118.75 -54.5 114.75 -50.45 110.75 -50.45 105.1 -50.45 100.65 -53.1 97.05 -55.7 93.5 -59.8 92.15L-59.8 53.5 -49.9 53.5 -49.9 72.45Q-49.9 74.25 -48.65 75.55 -47.3 76.85 -45.55 76.85 -43.75 76.85 -42.45 75.55 -41.2 74.25 -41.2 72.45L-41.2 53.5 -31.3 53.5 -31.3 165.55Q-31.3 167.35 -30 168.65 -28.75 169.9 -26.95 169.9 -25.15 169.9 -23.85 168.65 -22.6 167.35 -22.6 165.55L-22.6 53.55 -12.65 53.55 -12.65 72.45Q-12.65 74.3 -11.4 75.55 -10.15 76.85 -8.35 76.85 -6.55 76.85 -5.25 75.55 -4 74.3 -4 72.45L-4 53.55 5.9 53.55 5.9 66.7Q5.9 70.35 7.3 73.7 8.7 77.05 11.3 79.65L39.9 108.35Q38 112.25 38.65 116.55 39.3 120.95 42.45 124.1 44.4 126.05 46.95 127.1 49.45 128.1 52.1 128.1 54.8 128.1 57.25 127.1 59.8 126.05 61.8 124.1 65.75 120.05 65.75 114.4 65.75 108.75 61.8 104.75 58.65 101.6 54.25 100.9 49.95 100.25 46.05 102.15L17.45 73.5Q14.65 70.7 14.65 66.7L14.65 53.55 24.2 53.55Q27.1 53.55 29.95 52.8 31.7 52.35 32.65 50.8 33.55 49.25 33.1 47.5 32.65 45.75 31.1 44.8 29.5 43.9 27.75 44.35 26.2 44.8 24.2 44.8L-78.1 44.8Q-84 44.8 -88.2 40.6 -92.35 36.4 -92.35 30.55L-92.35 -72Q-92.35 -73.8 -91.9 -75.6 -91.45 -77.35 -92.35 -78.9 -93.25 -80.45 -95 -80.9 -96.75 -81.35 -98.35 -80.4 -99.9 -79.5 -100.35 -77.75 -101.05 -75.05 -101.05 -72L-101.05 -62.35 -160.45 -62.35Q-161.8 -66.5 -165.35 -69.05 -168.95 -71.7 -173.4 -71.7 -179 -71.7 -183.05 -67.7 -187.05 -63.7 -187.05 -58 -187.05 -52.35 -183.05 -48.35 -179 -44.35 -173.4 -44.35 -168.95 -44.35 -165.35 -46.95 -161.8 -49.55 -160.45 -53.65L-101.05 -53.65 -101.05 -43.75 -119.95 -43.75Q-121.75 -43.75 -123 -42.45 -124.3 -41.2 -124.3 -39.35 -124.3 -37.6 -123 -36.3 -121.75 -35 -119.95 -35L-101.05 -35 -101.05 -25.1 -281.4 -25.1M-173.3 -52.75Q-175.4 -52.75 -176.9 -54.25 -178.35 -55.7 -178.35 -57.8 -178.35 -59.9 -176.9 -61.4 -175.4 -62.85 -173.3 -62.85 -171.2 -62.85 -169.75 -61.4 -168.25 -59.9 -168.25 -57.8 -168.25 -55.7 -169.75 -54.25 -171.2 -52.75 -173.3 -52.75M-161.8 53.55Q-159.75 53.55 -158.3 54.95 -156.85 56.45 -156.85 58.45 -156.85 60.55 -158.3 62 -159.75 63.45 -161.8 63.45 -163.8 63.45 -165.3 62 -166.75 60.5 -166.75 58.45 -166.75 56.45 -165.3 54.95 -163.8 53.55 -161.8 53.55M-60.65 101.6Q-59.2 103.05 -59.2 105.1 -59.2 107.1 -60.65 108.6 -62.1 110.05 -64.1 110.05 -66.15 110.05 -67.6 108.6 -69.1 107.15 -69.1 105.1 -69.1 103.05 -67.6 101.6 -66.15 100.1 -64.1 100.1 -62.1 100.1 -60.65 101.6M52.1 109.45Q54.2 109.45 55.6 110.9 57.1 112.35 57.1 114.4 57.1 116.5 55.6 117.9 54.2 119.35 52.1 119.35 50.1 119.35 48.6 117.9 47.2 116.5 47.2 114.4 47.2 112.35 48.6 110.9 50.1 109.45 52.1 109.45Z"/><path fill="#FFF" stroke="none" d="M-290.7 -34.6Q-296.3 -34.6 -300.25 -30.6 -304.2 -26.65 -304.2 -21.05 -304.2 -15.5 -300.25 -11.5 -296.3 -7.55 -290.7 -7.55 -285.1 -7.55 -281.15 -11.5 -277.2 -15.5 -277.2 -21.05 -277.2 -26.65 -281.15 -30.6 -285.1 -34.6 -290.7 -34.6M-287.35 -24.4Q-285.85 -22.9 -285.85 -20.8 -285.85 -18.7 -287.35 -17.25 -288.8 -15.75 -290.9 -15.75 -293 -15.75 -294.5 -17.25 -295.95 -18.7 -295.95 -20.8 -295.95 -22.9 -294.5 -24.4 -293 -25.85 -290.9 -25.85 -288.8 -25.85 -287.35 -24.4Z"/><g mask="url(#mask_3)"><g id="Symbol-200" transform="translate(-117.35 -2.1)"><path fill="#FFF" stroke="none" d="M-2.6 -4.35Q-4.4 -4.35 -5.65 -3.1 -6.95 -1.8 -6.95 0 -6.95 1.8 -5.65 3.1 -4.4 4.35 -2.6 4.35L103.9 4.35 103.9 -4.35 -2.6 -4.35Z"/></g></g><mask id="mask_3"><g><g id="Symbol 198_6.0"><g><g id="Layer20_0_FILL"><path fill="#FFF" stroke="none" d="M-111.9 -10.45L-237.9 -10.45 -237.9 5.95 -111.9 5.95 -111.9 -10.45Z" fill-opacity="1"/></g></g></g></g></mask><g mask="url(#mask_2)"/><mask id="mask_2"><g><g id="Symbol 198_4.0"><g><g id="Layer19_0_FILL"><path fill="#FFF" stroke="none" d="M-.85 56.95L-15.85 56.95 -15.85 142.95 -.85 142.95 -.85 56.95Z" fill-opacity="1"/></g></g></g></g></mask><g mask="url(#mask_1)"/><mask id="mask_1"><g><g id="Symbol 198_2.0"><g><g id="Layer18_0_FILL"><path fill="#FFF" stroke="none" d="M164.2 -12.05L64.15 -12.05 64.15 6.45 164.2 6.45 164.2 -12.05Z" fill-opacity="1"/></g></g></g></g></mask><g mask="url(#mask_)"><g id="Symbol-199" transform="translate(-44.95 -111.6)"><path fill="#FFF" stroke="none" d="M4.35 62.1L4.35 3.1 -4.4 3.1 -4.4 62.1 4.35 62.1M4.35 -2.65Q4.35 -4.5 3.05 -5.75 1.8 -7.05 0 -7.05 -1.8 -7.05 -3.1 -5.75 -4.4 -4.5 -4.4 -2.65L-4.4 3.05 4.35 3.05 4.35 -2.65Z"/></g></g><mask id="mask_"><g><g id="Symbol 198_0.0"><g><g id="Layer17_0_FILL"><path fill="#FFF" stroke="none" d="M-35.9 -165.6L-52.9 -165.6 -52.9 -100.55 -35.9 -100.55 -35.9 -165.6Z" fill-opacity="1"/></g></g></g></g></mask></g><g id="Symbol-197d280" transform="translate(380.75 263.15)"><g id="Symbol-198"><animateTransform attributeName="transform" additive="replace" type="scale" repeatCount="indefinite" dur="12.727s" keyTimes="0;.032;.068;.07099;.104;.139;.14299;.175;.211;.21399;.246;.282;.28599;.318;.354;.35699;.389;.425;.42899;.461;.496;.49999;.532;.568;.57099;.604;.639;.64299;.675;.711;.71399;.746;.782;.78599;.818;.854;.85699;.889;.925;.92899;.961;.996;1" values="1,1;1.1,1.1;1,1;1,1;1.1,1.1;1,1;1,1;1.1,1.1;1,1;1,1;1.1,1.1;1,1;1,1;1.1,1.1;1,1;1,1;1.1,1.1;1,1;1,1;1.1,1.1;1,1;1,1;1.1,1.1;1,1;1,1;1.1,1.1;1,1;1,1;1.1,1.1;1,1;1,1;1.1,1.1;1,1;1,1;1.1,1.1;1,1;1,1;1.1,1.1;1,1;1,1;1.1,1.1;1,1;1,1"/><path fill="#FFF" stroke="none" d="M30.75 -34.75Q30.75 -41.35 25.6 -46 20.45 -50.7 13.2 -50.7 9.35 -50.7 5.9 -49.2 2.5 -47.8 .05 -45.25 -2.4 -47.8 -5.75 -49.2 -9.25 -50.7 -13.1 -50.7 -20.35 -50.7 -25.5 -46 -30.65 -41.35 -30.65 -34.75 -30.65 -33 -30.2 -31.25 -37.3 -29.3 -41.8 -23.9 -46.45 -18.4 -46.45 -11.55 -46.45 -4.65 -41.8 .8 -46.45 6.7 -46.45 13.95 -46.45 19.5 -43.65 24.4 -40.85 29.3 -35.9 32.5 -35.9 40.05 -30 45.4 -24.05 50.75 -15.7 50.75 -11.05 50.75 -6.8 48.9 -2.75 47.05 .05 43.85 2.9 47.05 6.95 48.9 11.15 50.75 15.85 50.75 23.85 50.75 29.7 45.8 35.45 40.85 35.95 33.65 40.85 30.8 43.7 26.2 46.5 21.55 46.5 16.25 46.5 12.4 44.9 8.8 43.35 5.2 40.45 2.35 43.35 -.45 44.9 -4.05 46.5 -7.65 46.5 -11.55 46.5 -18.4 41.95 -23.9 37.4 -29.3 30.3 -31.25 30.75 -33.1 30.75 -34.75M22 -34.75Q22 -33.35 21.3 -32 17.6 -31.65 14.15 -30.2 12.5 -29.5 11.8 -27.85 11.1 -26.2 11.8 -24.55 12.55 -22.85 14.2 -22.2 15.9 -21.55 17.55 -22.25 20.4 -23.4 23.6 -23.45L23.85 -23.45Q29.6 -23.4 33.7 -19.9 37.75 -16.45 37.75 -11.55 37.75 -8.45 36 -5.8 34.2 -3.1 31 -1.45 29.95 -.9 29.35 .15 28.7 1.15 28.7 2.35 28.7 3.55 29.35 4.6 29.95 5.65 31 6.2 34.2 7.85 36 10.55 37.75 13.2 37.75 16.25 37.75 18.5 36.75 20.7 35.75 22.8 33.9 24.45 32.15 21.25 29.25 18.85 26.2 16.4 22.4 15.25 20.7 14.7 19.1 15.55 17.45 16.35 16.9 18.1 16.4 19.8 17.2 21.4 18.05 23 19.8 23.5 23.15 24.55 25.2 27.05 27.25 29.5 27.25 32.5 27.25 36.45 23.9 39.25 20.55 42.05 15.85 42.05 11.15 42.05 7.75 39.25 4.4 36.45 4.4 32.5L4.4 4.7Q4.4 .75 7.75 -2.1 11.15 -4.9 15.85 -4.9 17.65 -4.9 18.95 -6.15 20.2 -7.45 20.2 -9.2 20.2 -11.05 18.95 -12.3 17.65 -13.6 15.85 -13.6 9.65 -13.6 4.4 -10.35L4.4 -15.9Q4.4 -17.7 3.15 -18.95 1.85 -20.25 .05 -20.25 -1.75 -20.25 -3.05 -18.95 -4.35 -17.7 -4.35 -15.9L-4.35 8.2Q-6.65 6.75 -9.15 6 -10.9 5.45 -12.5 6.25 -14.1 7.1 -14.65 8.8 -15.2 10.55 -14.35 12.15 -13.55 13.7 -11.8 14.25 -8.45 15.3 -6.35 17.75 -4.35 20.25 -4.35 23.25L-4.35 32.5Q-4.35 36.45 -7.65 39.25 -11 42.05 -15.7 42.05 -20.45 42.05 -23.8 39.25 -27.15 36.45 -27.15 32.5 -27.15 28.95 -24.4 26.3 -23.1 25.05 -23.1 23.25 -23.1 21.45 -24.4 20.2 -25.7 18.9 -27.5 18.9 -29.3 18.85 -30.6 20.15 -32.25 21.85 -33.3 23.5 -35.4 21.6 -36.55 19.1 -37.7 16.6 -37.7 13.95 -37.7 9.15 -34.2 5.3 -30.75 1.45 -25.3 .25 -23.55 -.2 -22.55 -1.7 -21.6 -3.2 -22 -5 -22.4 -6.75 -23.95 -7.7 -25.5 -8.65 -27.25 -8.25 -31.55 -7.25 -35.3 -5 -37.7 -8 -37.7 -11.55 -37.7 -16.45 -33.55 -19.9 -29.5 -23.4 -23.75 -23.45L-23.6 -23.45Q-22 -23.45 -20.8 -24.45 -19.55 -25.5 -19.3 -27.1 -19.05 -28.7 -19.9 -30.05L-20 -30.2 -20.05 -30.3 -20.25 -30.55Q-21.9 -32.5 -21.9 -34.75 -21.9 -37.75 -19.3 -39.85 -16.75 -42 -13.1 -42 -9.5 -42 -6.9 -39.85 -4.35 -37.75 -4.35 -34.75 -4.35 -32.95 -3.05 -31.65 -1.75 -30.4 .05 -30.4 1.85 -30.4 3.15 -31.65 4.4 -32.95 4.4 -34.75 4.4 -37.75 7 -39.85 9.55 -42 13.2 -42 16.85 -42 19.4 -39.85 22 -37.75 22 -34.75Z"/></g></g><g display="none"><g id="Symbol-196" transform="matrix(.3 0 0 .3 245.7 343.55)"><animateTransform attributeName="transform" additive="replace" type="translate" repeatCount="indefinite" dur="12.727s" keyTimes="0;.089;.118;.129;.81399;.839;1" values="245.695,343.545;245.695,343.545;245.788,343.579;245.72,343.56;245.72,343.56;245.706,343.556;245.706,343.556"/><animateTransform attributeName="transform" additive="sum" type="scale" repeatCount="indefinite" dur="12.727s" keyTimes="0;.089;.118;.129;.81399;.839;1" values=".3,.3;.3,.3;1.584,1.584;1.2,1.2;1.2,1.2;.12,.12;.12,.12"/><animateTransform attributeName="transform" additive="sum" type="translate" repeatCount="indefinite" dur="12.727s" keyTimes="0;.089;.118;.129;.81399;.839;1" values="-.15,-.15;-.15,-.15;-.15,-.05;-.1,-.05;-.1,-.05;-.05,-.05;-.05,-.05"/><animate attributeName="opacity" repeatCount="indefinite" dur="12.727s" keyTimes="0;.089;.118;.81399;.839;1" values="0;0;1;1;0;0"/><path fill="#FFF" stroke="none" d="M17.8 -17.8Q10.4 -25.15 0 -25.15 -10.45 -25.15 -17.8 -17.8 -25.15 -10.45 -25.15 0 -25.15 10.4 -17.8 17.75 -10.45 25.1 0 25.1 10.4 25.1 17.8 17.75 25.15 10.4 25.15 0 25.15 -10.45 17.8 -17.8Z"/><g transform="matrix(.636 0 0 .636 0 0)" id="Layer15_0_FILL"><path fill="#060844" stroke="none" d="M13.95 -10.85Q13.1 -11.75 11.9 -11.75L-11.95 -11.75Q-13.1 -11.75 -14 -10.85 -14.8 -9.9 -14.8 -8.75L-14.8 5.9Q-14.8 7.05 -14 8 -13.15 8.8 -12 8.85L-17.8 8.85 -17.8 11.8 17.8 11.8 17.8 8.85 12 8.85Q13.15 8.8 13.95 8 14.8 7.05 14.8 5.9L14.8 -8.75Q14.8 -9.9 13.95 -10.85M11.9 -8.75L11.9 5.9 -11.95 5.9 -11.95 -8.75 11.9 -8.75Z"/></g></g><animate attributeName="display" repeatCount="indefinite" dur="12.727s" keyTimes="0;.089;1" values="none;inline;inline"/></g><g display="none"><g id="Symbol-195" transform="matrix(.3 0 0 .3 604.6 243.95)"><animateTransform attributeName="transform" additive="replace" type="translate" repeatCount="indefinite" dur="12.727s" keyTimes="0;.104;.132;.143;.81399;.839;1" values="604.595,244.005;604.595,244.005;604.629,244.038;604.61,244.02;604.61,244.02;604.606,243.998;604.606,243.998"/><animateTransform attributeName="transform" additive="sum" type="scale" repeatCount="indefinite" dur="12.727s" keyTimes="0;.104;.132;.143;.81399;.839;1" values=".3,.3;.3,.3;1.584,1.584;1.2,1.2;1.2,1.2;.12,.12;.12,.12"/><animateTransform attributeName="transform" additive="sum" type="translate" repeatCount="indefinite" dur="12.727s" keyTimes="0;.104;.132;.143;.81399;.839;1" values="-.15,-.35;-.15,-.35;-.05,-.15;-.05,-.1;-.05,-.1;-.05,-.4;-.05,-.4"/><animate attributeName="opacity" repeatCount="indefinite" dur="12.727s" keyTimes="0;.104;.132;.81399;.839;1" values="0;0;1;1;0;0"/><path fill="#FFF" stroke="none" d="M17.8 -17.75Q10.4 -25.15 0 -25.15 -10.45 -25.15 -17.8 -17.75 -25.15 -10.4 -25.15 0 -25.15 10.45 -17.8 17.8 -10.45 25.15 0 25.15 10.4 25.15 17.8 17.8 25.15 10.45 25.15 0 25.15 -10.4 17.8 -17.75Z"/><path fill="#060844" stroke="none" d="M12.45 -12.45Q11.55 -13.35 10.35 -13.35L-10.35 -13.35Q-11.55 -13.35 -12.45 -12.45 -13.35 -11.6 -13.35 -10.35L-13.35 10.35Q-13.35 11.6 -12.45 12.5 -11.6 13.35 -10.35 13.35L10.35 13.35Q11.6 13.35 12.45 12.5 13.4 11.6 13.4 10.35L13.4 -10.35Q13.4 -11.55 12.45 -12.45M7.45 1.45L7.45 7.5 4.5 7.5 4.5 1.45 7.45 1.45M1.45 -7.45L1.45 7.5 -1.45 7.5 -1.45 -7.45 1.45 -7.45M-7.45 -3L-4.45 -3 -4.45 7.5 -7.45 7.5 -7.45 -3Z"/></g><animate attributeName="display" repeatCount="indefinite" dur="12.727s" keyTimes="0;.104;1" values="none;inline;inline"/></g><g display="none"><g id="Symbol-194" transform="matrix(.3 0 0 .3 459.75 398.1)"><animateTransform attributeName="transform" additive="replace" type="translate" repeatCount="indefinite" dur="12.727s" keyTimes="0;.271;.3;.311;.84999;.871;1" values="459.805,398.155;459.805,398.155;462.338,394.658;462.31,394.67;462.31,394.67;462.304,394.65;462.304,394.65"/><animateTransform attributeName="transform" additive="sum" type="scale" repeatCount="indefinite" dur="12.727s" keyTimes="0;.271;.3;.311;.84999;.871;1" values=".3,.3;.3,.3;1.584,1.584;1.2,1.2;1.2,1.2;.12,.12;.12,.12"/><animateTransform attributeName="transform" additive="sum" type="translate" repeatCount="indefinite" dur="12.727s" keyTimes="0;.271;.3;.311;.84999;.871;1" values="-.35,-.35;-.35,-.35;-.15,-.1;-.05,-.1;-.05,-.1;-.45,0;-.45,0"/><animate attributeName="opacity" repeatCount="indefinite" dur="12.727s" keyTimes="0;.271;.3;.84999;.871;1" values="0;0;1;1;0;0"/><path fill="#FFF" stroke="none" d="M17.8 -17.8Q10.4 -25.15 0 -25.15 -10.45 -25.15 -17.8 -17.8 -25.15 -10.45 -25.15 -.05 -25.15 10.4 -17.8 17.75 -10.45 25.1 0 25.1 10.4 25.1 17.8 17.75 25.15 10.4 25.15 -.05 25.15 -10.45 17.8 -17.8Z"/><path fill="#060844" stroke="none" d="M12 -8.15L5.95 -8.15 5.95 -11.1Q5.95 -12.35 5.1 -13.15 4.3 -14 3 -14L-3 -14Q-4.3 -14 -5.1 -13.15 -6 -12.35 -6 -11.1L-6 -8.15 -12 -8.15Q-13.25 -8.15 -14.1 -7.25 -14.95 -6.4 -14.95 -5.15L-14.95 11.05Q-14.95 12.3 -14.1 13.15 -13.25 14 -12 14L12 14Q13.25 14 14.1 13.15 14.95 12.25 14.95 11.05L14.95 -5.15Q14.95 -6.35 14.1 -7.25 13.25 -8.15 12 -8.15M3 -11.1L3 -8.15 -3 -8.15 -3 -11.1 3 -11.1Z"/></g><animate attributeName="display" repeatCount="indefinite" dur="12.727s" keyTimes="0;.271;1" values="none;inline;inline"/></g><g display="none"><g id="Symbol-193" transform="matrix(.3 0 0 .3 418.4 136.05)"><animateTransform attributeName="transform" additive="replace" type="translate" repeatCount="indefinite" dur="12.727s" keyTimes="0;.286;.314;.325;.84999;.871;1" values="418.455,136.105;418.455,136.105;418.488,135.629;418.47,135.61;418.47,135.61;418.448,135.606;418.448,135.606"/><animateTransform attributeName="transform" additive="sum" type="scale" repeatCount="indefinite" dur="12.727s" keyTimes="0;.286;.314;.325;.84999;.871;1" values=".3,.3;.3,.3;1.584,1.584;1.2,1.2;1.2,1.2;.12,.12;.12,.12"/><animateTransform attributeName="transform" additive="sum" type="translate" repeatCount="indefinite" dur="12.727s" keyTimes="0;.286;.314;.325;.84999;.871;1" values="-.35,-.35;-.35,-.35;-.15,-.05;-.1,-.05;-.1,-.05;-.4,-.05;-.4,-.05"/><animate attributeName="opacity" repeatCount="indefinite" dur="12.727s" keyTimes="0;.286;.314;.84999;.871;1" values="0;0;1;1;0;0"/><g transform="matrix(.636 0 0 .636 0 0)" id="Layer10_0_FILL"><path fill="#FFF" stroke="none" d="M17.8 -17.75Q10.45 -25.15 .05 -25.15 -10.4 -25.15 -17.75 -17.75 -25.1 -10.4 -25.1 0 -25.1 10.4 -17.75 17.75 -10.4 25.1 .05 25.1 10.45 25.1 17.8 17.75 25.15 10.4 25.15 0 25.15 -10.4 17.8 -17.75Z"/></g><g transform="matrix(.636 0 0 .636 0 0)" id="Layer9_0_FILL"><path fill="#060844" stroke="none" d="M14.1 -10.85Q13.25 -11.75 12 -11.75L-12 -11.75Q-13.2 -11.75 -14.1 -10.85 -14.95 -10 -14.95 -8.75L-14.95 8.85Q-14.95 10.1 -14.1 10.95 -13.25 11.8 -12 11.8L12 11.8Q13.25 11.8 14.1 10.95 15 10.1 15 8.85L15 -8.75Q15 -10 14.1 -10.85M12 -8.75L12 8.85 -12 8.85 -12 -8.75 12 -8.75M4.05 -1Q3.6 -1.4 3 -1.4L-1.45 -1.4 -1.45 -2.9 4.5 -2.9 4.5 -5.8 1.5 -5.8 1.5 -7.3 -1.45 -7.3 -1.45 -5.8 -3 -5.8Q-3.65 -5.8 -4.05 -5.35 -4.5 -4.95 -4.5 -4.35L-4.5 .05Q-4.5 .65 -4.05 1.1 -3.55 1.5 -3 1.5L1.5 1.5 1.5 3.05 -4.5 3.05 -4.5 5.9 -1.45 5.9 -1.45 7.4 1.5 7.4 1.5 5.9 3 5.9Q3.65 5.9 4.05 5.5 4.5 5.05 4.5 4.45L4.5 .05Q4.5 -.55 4.05 -1Z"/></g></g><animate attributeName="display" repeatCount="indefinite" dur="12.727s" keyTimes="0;.286;1" values="none;inline;inline"/></g><g display="none"><g id="Symbol-192" transform="matrix(.3 0 0 .3 684.75 300.55)"><animateTransform attributeName="transform" additive="replace" type="translate" repeatCount="indefinite" dur="12.727s" keyTimes="0;.468;.496;.507;.89299;.914;1" values="684.805,300.605;684.805,300.605;684.829,300.629;684.81,300.61;684.81,300.61;684.8,300.6;684.8,300.6"/><animateTransform attributeName="transform" additive="sum" type="scale" repeatCount="indefinite" dur="12.727s" keyTimes="0;.468;.496;.507;.89299;.914;1" values=".3,.3;.3,.3;1.584,1.584;1.2,1.2;1.2,1.2;.12,.12;.12,.12"/><animateTransform attributeName="transform" additive="sum" type="translate" repeatCount="indefinite" dur="12.727s" keyTimes="0;.468;.496;.89299;.914;1" values="-.35,-.35;-.35,-.35;-.05,-.05;-.05,-.05;0,0;0,0"/><animate attributeName="opacity" repeatCount="indefinite" dur="12.727s" keyTimes="0;.468;.496;.89299;.914;1" values="0;0;1;1;0;0"/><path fill="#FFF" stroke="none" d="M25.1 -.05Q25.1 -10.45 17.75 -17.8 10.4 -25.15 -.05 -25.15 -10.45 -25.15 -17.8 -17.8 -25.15 -10.45 -25.15 -.05 -25.15 10.4 -17.8 17.75 -10.45 25.1 -.05 25.1 10.4 25.1 17.75 17.75 25.1 10.4 25.1 -.05Z"/><g transform="matrix(.636 0 0 .636 0 0)" id="Layer7_0_FILL"><path fill="#060844" stroke="none" d="M12.85 6.45L10.45 5.3Q10.15 5.1 9.8 5.3L1.1 9.45Q.7 9.65 0 9.65 -.75 9.65 -1.1 9.45L-9.7 5.35Q-10.25 5.05 -10.6 5.3L-12.9 6.45Q-13.35 6.65 -13.35 6.95 -13.35 7.3 -12.9 7.5L-1.1 13.2Q-.75 13.4 0 13.4 .7 13.4 1.1 13.2L12.85 7.5Q13.35 7.25 13.35 6.95 13.35 6.65 12.85 6.45M12.85 -.5L10.45 -1.7Q10.15 -1.85 9.8 -1.7L1.1 2.55Q.7 2.75 0 2.75 -.75 2.75 -1.1 2.55L-9.7 -1.6Q-10.2 -1.9 -10.6 -1.6L-12.9 -.5Q-13.35 -.3 -13.35 .05 -13.35 .4 -12.9 .6L-1.1 6.25Q-.6 6.5 0 6.5 .55 6.5 1.1 6.25L12.85 .6Q13.35 .4 13.35 .05 13.35 -.3 12.85 -.5M12.85 -7.4L1.1 -13.1Q.6 -13.35 0 -13.35 -.7 -13.35 -1.1 -13.1L-12.9 -7.4Q-13.35 -7.15 -13.35 -6.85 -13.35 -6.55 -12.9 -6.35L-1.1 -.65Q-.75 -.45 0 -.45 .7 -.45 1.1 -.65L12.85 -6.35Q13.35 -6.55 13.35 -6.85 13.35 -7.15 12.85 -7.4Z"/></g></g><animate attributeName="display" repeatCount="indefinite" dur="12.727s" keyTimes="0;.468;1" values="none;inline;inline"/></g><g display="none"><g id="Symbol-191" transform="matrix(.3 0 0 .3 233.95 225.9)"><animateTransform attributeName="transform" additive="replace" type="translate" repeatCount="indefinite" dur="12.727s" keyTimes="0;.482;.511;.521;.89299;.914;1" values="234.005,225.955;234.005,225.955;234.038,225.988;234.02,225.97;234.02,225.97;234.004,225.954;234.004,225.954"/><animateTransform attributeName="transform" additive="sum" type="scale" repeatCount="indefinite" dur="12.727s" keyTimes="0;.482;.511;.521;.89299;.914;1" values=".3,.3;.3,.3;1.584,1.584;1.2,1.2;1.2,1.2;.12,.12;.12,.12"/><animateTransform attributeName="transform" additive="sum" type="translate" repeatCount="indefinite" dur="12.727s" keyTimes="0;.482;.511;.521;.89299;.914;1" values="-.35,-.35;-.35,-.35;-.15,-.15;-.1,-.1;-.1,-.1;-.45,-.45;-.45,-.45"/><animate attributeName="opacity" repeatCount="indefinite" dur="12.727s" keyTimes="0;.482;.511;.89299;.914;1" values="0;0;1;1;0;0"/><path fill="#FFF" stroke="none" d="M17.8 -17.75Q10.4 -25.15 0 -25.15 -10.4 -25.15 -17.75 -17.75 -25.1 -10.4 -25.1 0 -25.1 10.45 -17.75 17.8 -10.4 25.15 0 25.15 10.4 25.15 17.8 17.8 25.15 10.45 25.15 0 25.15 -10.4 17.8 -17.75Z"/><path fill="#060844" stroke="none" d="M14.1 -10.9Q13.2 -11.75 12 -11.75L-12 -11.75Q-13.2 -11.75 -14.05 -10.9 -14.95 -9.95 -14.95 -8.8L-14.95 8.8Q-14.95 10.05 -14.05 10.9 -13.2 11.8 -12 11.8L12 11.8Q13.25 11.8 14.1 10.9 15 9.95 15 8.8L15 -8.8Q15 -9.9 14.1 -10.9M12 -8.8L12 -5.8 .05 1.45 -12 -5.8 -12 -8.8 .05 -1.45 12 -8.8Z"/></g><animate attributeName="display" repeatCount="indefinite" dur="12.727s" keyTimes="0;.482;1" values="none;inline;inline"/></g><g display="none"><g id="Symbol-190" transform="matrix(.3 0 0 .3 516.1 184.25)"><animateTransform attributeName="transform" additive="replace" type="translate" repeatCount="indefinite" dur="12.727s" keyTimes="0;.657;.686;.696;.93199;.954;1" values="516.11,184.305;516.11,184.305;516.629,183.338;516.61,183.31;516.61,183.31;516.6,183.304;516.6,183.304"/><animateTransform attributeName="transform" additive="sum" type="scale" repeatCount="indefinite" dur="12.727s" keyTimes="0;.657;.686;.696;.93199;.954;1" values=".3,.3;.3,.3;1.584,1.584;1.2,1.2;1.2,1.2;.12,.12;.12,.12"/><animateTransform attributeName="transform" additive="sum" type="translate" repeatCount="indefinite" dur="12.727s" keyTimes="0;.657;.686;.696;.93199;.954;1" values="-.2,-.35;-.2,-.35;-.05,-.15;-.05,-.05;-.05,-.05;0,-.45;0,-.45"/><animate attributeName="opacity" repeatCount="indefinite" dur="12.727s" keyTimes="0;.657;.686;.93199;.954;1" values="0;0;1;1;0;0"/><g transform="matrix(.636 0 0 .636 0 0)" id="Layer4_0_FILL"><path fill="#FFF" stroke="none" d="M25.15 -.05Q25.15 -10.45 17.8 -17.8 10.4 -25.15 0 -25.15 -10.45 -25.15 -17.8 -17.8 -25.15 -10.45 -25.15 -.05 -25.15 10.4 -17.8 17.75 -10.45 25.1 0 25.1 10.4 25.1 17.8 17.75 25.15 10.4 25.15 -.05Z"/></g><g transform="matrix(.636 0 0 .636 0 0)" id="Layer3_0_FILL"><path fill="#060844" stroke="none" d="M9.55 -12.5Q9.55 -13.4 9.05 -14.35 8.55 -15.2 7.7 -15.65 6.8 -16.2 5.9 -16.2L-5.9 -16.2Q-6.85 -16.2 -7.7 -15.65 -8.55 -15.2 -9.05 -14.35 -9.55 -13.45 -9.55 -12.5L-9.55 12.55Q-9.55 13.55 -9.05 14.4 -8.55 15.3 -7.7 15.75 -6.9 16.25 -5.9 16.25L5.9 16.25Q6.9 16.25 7.7 15.75 8.55 15.3 9.05 14.4 9.55 13.5 9.55 12.55L9.55 -12.5M0 10.35Q.85 10.35 1.55 10.95 2.15 11.65 2.15 12.55 2.15 13.4 1.55 14.1 .85 14.75 0 14.75 -1 14.75 -1.6 14.1 -2.25 13.5 -2.25 12.55 -2.25 11.6 -1.6 10.95 -1 10.35 0 10.35M6.55 -11.8L6.55 8.85 -6.65 8.85 -6.65 -11.8 6.55 -11.8Z"/></g></g><animate attributeName="display" repeatCount="indefinite" dur="12.727s" keyTimes="0;.657;1" values="none;inline;inline"/></g><g display="none"><g id="Symbol-189" transform="matrix(.3 0 0 .3 114.9 263.05)"><animateTransform attributeName="transform" additive="replace" type="translate" repeatCount="indefinite" dur="12.727s" keyTimes="0;.671;.7;.711;.93199;.954;1" values="114.91,263.12;114.91,263.12;114.938,263.129;114.92,263.11;114.92,263.11;114.904,263.1;114.904,263.1"/><animateTransform attributeName="transform" additive="sum" type="scale" repeatCount="indefinite" dur="12.727s" keyTimes="0;.671;.7;.711;.93199;.954;1" values=".3,.3;.3,.3;1.584,1.584;1.2,1.2;1.2,1.2;.12,.12;.12,.12"/><animateTransform attributeName="transform" additive="sum" type="translate" repeatCount="indefinite" dur="12.727s" keyTimes="0;.671;.7;.711;.93199;.954;1" values="-.2,-.4;-.2,-.4;-.15,-.05;-.1,-.05;-.1,-.05;-.45,0;-.45,0"/><animate attributeName="opacity" repeatCount="indefinite" dur="12.727s" keyTimes="0;.671;.7;.93199;.954;1" values="0;0;1;1;0;0"/><path fill="#FFF" stroke="none" d="M17.8 -17.75Q10.45 -25.15 .05 -25.15 -10.4 -25.15 -17.75 -17.75 -25.1 -10.4 -25.1 0 -25.1 10.45 -17.75 17.8 -10.4 25.15 .05 25.15 10.45 25.15 17.8 17.8 25.15 10.45 25.15 0 25.15 -10.4 17.8 -17.75Z"/><path fill="#060844" stroke="none" d="M5.25 7.8Q3.4 6.55 .45 5.8 -2.25 5.15 -4.4 5.15 -6.5 5.15 -9.2 5.8 -12.2 6.55 -14 7.8 -16.2 9.2 -16.2 11.05L-16.2 14 7.45 14 7.45 11.05Q7.45 9.2 5.25 7.8M12.25 -6.65Q12.9 -3.8 12.25 -.95 11.5 2 9.55 4.3L11.95 6.6Q14.8 3.8 15.75 0 16.75 -3.6 15.75 -7.25 14.8 -11.05 11.95 -14L9.55 -11.65Q11.5 -9.5 12.25 -6.65M9.05 -5.55Q8.55 -7.4 7.1 -9.1L4.6 -6.6Q5.55 -5.3 5.55 -3.75 5.55 -2.15 4.6 -.85L7.1 1.6Q8.55 .15 9.05 -1.75 9.55 -3.65 9.05 -5.55M1.5 -3.7Q1.5 -5.3 .7 -6.65 -.15 -8.05 -1.45 -8.75 -2.8 -9.55 -4.4 -9.55 -6 -9.55 -7.3 -8.75 -8.7 -8 -9.45 -6.65 -10.25 -5.25 -10.25 -3.7 -10.25 -2.15 -9.45 -.75 -8.7 .55 -7.3 1.4 -6 2.2 -4.4 2.2 -2.8 2.2 -1.45 1.4 -.1 .6 .7 -.75 1.5 -2.1 1.5 -3.7Z"/></g><animate attributeName="display" repeatCount="indefinite" dur="12.727s" keyTimes="0;.671;1" values="none;inline;inline"/></g></g></svg>