<svg id="Layer_1" xmlns="http://www.w3.org/2000/svg" viewBox="0 0 135 141"><style>.st0{fill:#2A396B;}</style><title>modulo3_3_centro</title><g id="Group_1_"><path id="Shape_29_" class="st0" d="M68.7 25.9c-47.3 1.8-49.1 86.7-.6 89.2 23.4 1.2 34.6-18.8 34-39.7-.6-20.2-9-51.6-35.2-48.8-2.6.2-2.6 4.2 0 4 24-2.6 30.6 26.6 31.2 44.8.6 18.4-9 36.9-30 35.7-43.3-2.4-41.7-79.7.6-81.3 2.6-.2 2.6-4.1 0-3.9z"/><path id="Shape_30_" class="st0" d="M66.5 60.6c.8 6.3 2.8 12.3 5.6 18 .2-.8.2-1.6.4-2.4-1.8 1.4-3.6 2.2-5.8 2.8-2.4.6-1.4 4.6 1 3.8 2.8-.8 5.2-2 7.4-3.8.8-.6.6-1.6.4-2.4-2.6-5.6-4.2-11.1-5-17.3-.4-2.3-4.4-1.1-4 1.3z"/><path id="Shape_31_" class="st0" d="M81.1 88.3c-3.4 4.4-22 8.9-24.6 1.8-.8-2.4-4.8-1.4-3.8 1 4 11.3 26.2 6.3 32-.8 1.4-2-2-4-3.6-2z"/><path id="Shape_32_" class="st0" d="M34.4 65.5c-5.6-2.8-9.2 3.2-9.2 7.9 0 2.4.6 5.2 2.8 6.5 2.2 1.6 4.6 1.4 6.6-.2 2-1.6-.8-4.4-2.8-2.8-.8.6-1.8-.8-2.2-1.4-.4-1-.4-2-.4-3 0-1.4.8-5 3-4 2.6 1.6 4.6-1.8 2.2-3z"/><path id="Shape_33_" class="st0" d="M100.1 67.3c1.6-1.4 4.2 2.8 4.8 3.8s1 2.4.6 3.6c-.4 1.4-1.6 2.2-2.8 1.2-2.2-1.4-4.2 2-2 3.4s5 1.2 7-.6c2.2-2 2.4-5.2 1.6-7.7-1.6-4.4-7-10.7-11.8-6.5-2 1.6.8 4.4 2.6 2.8z"/><path id="Shape_34_" class="st0" d="M56.1 64.5c2.6 0 2.6-4 0-4s-2.6 4 0 4z"/><path id="Shape_35_" class="st0" d="M81.1 65.3c2.6 0 2.6-4 0-4s-2.6 4 0 4z"/></g><path id="Shape_36_" class="st0" d="M78.7 33.9c-5.2 14.4-17.3 18.4-31.5 13.8-2.4-.8-3.6 3-1 3.8 16.3 5.4 30.5 0 36.4-16.6.9-2.4-2.9-3.4-3.9-1z"/><path id="Shape_37_" class="st0" d="M71 29.5c-1.8 3.7-4.9 9.6-8.5 11.8-3.2 2-6.7 1.2-10.1.6-2.6-.4-3.6 3.5-1 3.9 4.3.6 8.5 1.4 12.5-.6 4.9-2.5 8.3-9 10.7-13.7 1.1-2.2-2.4-4.3-3.6-2z"/><path id="Shape_38_" class="st0" d="M63.4 27.5c-.4.9-.6 2.3-1.1 3.2-.6 1.1-1.9 2.5-2.8 3.2-1.1.9-2 .9-3.3.8-2.4-.4-3.3 3.4-.9 3.6 2.2.4 4.1.4 5.9-.9 1.3-.9 2.4-2.3 3.5-3.6 1.1-1.5 1.3-2.8 2-4.3.8-2.4-2.4-4.2-3.3-2z"/><path id="Shape_39_" class="st0" d="M86.9 37c-1 5.3-2.3 13.1-9 12.3-2.7-.2-2.7 4 0 4.2 8.8.8 11.5-8.2 12.9-15.4.6-2.6-3.3-3.7-3.9-1.1z"/></svg>