<svg id="Layer_1" xmlns="http://www.w3.org/2000/svg" viewBox="0 0 135 141"><style>.st0{fill:#2A396C;} .st1{fill:#2A396B;}</style><title>modulo3_3_centro</title><g id="Group_3_"><path id="Shape_50_" class="st0" d="M65.4 31.1c22.6.6 37.4 21.8 36.2 43.6-1.2 19.4-18.2 34.6-37.4 34.8-20.6 0-32.6-15.2-31.6-35s10.6-44.8 34.8-42.4c2.6.2 2.6-3.8 0-4.2-26.2-2.6-37.4 23.4-39 45.4-1.6 22.6 12.2 40.4 35.8 40.4 21.6 0 40.4-17 41.6-38.8 1.4-24.2-15.4-47-40.4-47.6-1.2 0-2 1-2 2-.2.8.8 1.8 2 1.8z"/><path id="Shape_51_" class="st0" d="M71.6 68.9c1.2 0 2-1 2-2 0-1.2-1-2-2-2s-2 1-2 2 .8 2 2 2z"/><path id="Shape_52_" class="st0" d="M48.6 63.7c1.2 0 2-1 2-2 0-1.2-1-2-2-2s-2 1-2 2c-.2 1 .8 2 2 2z"/><path id="Shape_53_" class="st0" d="M74.8 92.9c1.8-2-1-5-2.8-3-3.6 3.8-10.6 5.6-15.6 3.8-4-1.4-6.8-5-9.2-8.2-1.6-2.2-4.6.8-3 2.8 3.6 4.6 8 9.6 14 10.2 6.2.6 12.2-1.4 16.6-5.6z"/><path id="Shape_54_" class="st0" d="M58.4 28.9c-8.2 18.4-17.2 25-35.2 26.4-2.6.2-2.6 4.4 0 4.2 19.2-1.4 29.8-8.6 38.6-28.4 1.2-2.6-2.4-4.8-3.4-2.2z"/><path id="Shape_55_" class="st0" d="M91 45.9c-15.6 1.8-23.8-4.2-30.8-14.2-1.6-2.2-5-.2-3.6 2C64.4 44.9 73.8 51.9 91 49.9c2.6 0 2.6-4.2 0-4z"/><path id="Shape_56_" class="st0" d="M90 42.9c-4.2 27.2-5.2 58.2 21.8 56.6 2.6-.2 2.6-4.2 0-4.2C88 96.7 90.2 68.7 94 43.9c.4-2.6-3.6-3.6-4-1z"/><path id="Shape_57_" class="st1" d="M58 63.7c-.6 5-2.8 8.8-5 13.4-.4.8-.4 1.8.4 2.4 2.2 1.8 4.6 3.2 7.4 3.8 2.4.6 3.6-3.2 1-3.8-2.2-.6-4-1.4-5.8-2.8.2.8.2 1.6.4 2.4 2.4-4.8 4.8-9 5.6-14.2.2-2.6-3.6-3.6-4-1.2z"/></g></svg>