<svg xmlns="http://www.w3.org/2000/svg" width="347" height="281" viewBox="0 0 347 281"><title>modulo3_3_centro</title><path fill="#FFF" d="M212.582 213.046c-32.618 12.196-76.842 10.396-102.656-5.599-25.813-15.994-37.82-41.586-36.819-66.979 1.4-33.989 31.017-71.777 77.642-80.974 27.815-5.599 64.436 5.398 82.646 19.993-1.801-8.997-8.005-21.593 11.606-39.987-27.615-21.793-73.641-30.79-115.663-22.393C58.899 31.104 14.874 88.086 13.073 139.669c-1.4 38.388 17.209 77.176 56.431 101.168s100.055 31.19 149.081 12.796c-5.402-8.398-17.609-18.794-6.003-40.587z"/><path fill="#2A396B" d="M207.197 264.758c-74.631 29.693-173.272-.599-197.082-82.504-20.208-69.75 23.61-143.685 90.638-167.998C143.57-1.288 196.992 2.897 232.607 32.79c2.401 1.993 6.003-1.395 3.602-3.587-64.227-54.205-165.67-27.9-210.688 37.465C5.113 96.362-4.092 132.233 1.711 167.904c6.603 39.658 31.413 74.732 66.828 93.863 42.217 22.719 95.439 25.31 139.857 7.772 3.202-1.194 1.802-5.977-1.199-4.781z"/><path fill="#2A396B" d="M200.911 221.361c-30.523 12.034-70.284 13.237-98.8-4.612-29.117-18.051-43.375-54.353-36.146-87.445 6.426-29.482 27.712-54.753 55.022-67.188 32.13-14.641 72.693-7.421 99.603 15.042 2.409 2.006 6.024-1.404 3.614-3.61-20.885-17.649-51.608-27.276-78.919-23.867C119.381 52.89 95.484 68.133 79.82 88.59c-33.134 43.121-25.101 111.312 26.909 136.182 29.117 14.039 65.866 12.836 95.586 1.203 2.813-1.003 1.608-5.817-1.404-4.614z"/><path fill="#2A396B" d="M225.175 75.001c-1.012-5.156-2.429-10.313-2.226-15.667.404-10.313 6.476-18.642 13.355-25.98 2.227-2.38-1.416-5.949-3.643-3.57-6.88 7.338-12.951 15.667-14.367 25.782-1.013 7.139.809 13.684 2.023 20.625.608 3.173 5.465 1.785 4.858-1.19zM178.077 41.302c.809-5.751 1.415-11.701 3.639-17.056 2.021-4.76 5.457-8.727 8.691-12.892 2.021-2.38-1.617-5.95-3.639-3.57-3.436 4.165-7.074 8.33-9.298 13.288-2.628 5.751-3.639 12.296-4.447 18.643-.404 3.372 4.448 4.562 5.054 1.587zM163.408 275.585c-6.806-8.796-8.167-17.392-7.389-28.187.194-3.198-4.667-3.198-4.861 0-.777 12.594 1.167 21.99 8.944 31.785 1.945 2.399 5.251-.999 3.306-3.598zM209.563 266.328c-2.676-4.549-6.175-8.702-8.233-13.646-4.117-9.492-1.853-18.786 2.47-27.883 1.441-2.967-3.087-5.34-4.528-2.57-4.116 8.701-6.792 17.995-4.322 27.686 1.853 7.119 6.381 12.854 10.292 18.984 1.645 2.57 6.173.197 4.321-2.571zM295.6 29.022c-10.399.995-20.8 1.989-31.2 2.983-3.199.397-3.199 5.369 0 4.972 10.4-.995 20.801-1.989 31.2-2.983 3.2-.397 3.2-5.369 0-4.972zM271.388 71c24.475 1.398 48.948 2.796 73.224 3.995 3.185.2 3.185-4.794 0-4.994-24.474-1.398-48.948-2.796-73.224-3.995-3.184-.2-3.184 4.794 0 4.994zM285.432 107.99c13.779 1.396 27.356 2.591 41.136 3.987 3.243.398 3.243-4.585 0-4.984-13.779-1.396-27.356-2.592-41.136-3.987-3.242-.199-3.242 4.785 0 4.984zM289.015 187.223c-15.411 6.883-33.255 7.092-48.666 13.975-3.041 1.252-.405 5.84 2.636 4.589 15.411-6.884 33.256-7.092 48.666-13.976 3.042-1.46.406-5.84-2.636-4.588zM248.081 240.949c24.3-3.684 48.8-7.367 73.1-11.246 3.213-.581 1.808-5.234-1.406-4.652-24.299 3.684-48.8 7.367-73.1 11.246-3.012.581-1.606 5.234 1.406 4.652zM260.421 274h41.157c3.229 0 3.229-4 0-4h-41.157c-3.228 0-3.228 4 0 4z"/></svg>