<?xml version="1.0" encoding="utf-8"?>
<svg width="248px" height="227px" viewBox="0 0 248 227" version="1.1" xmlns:xlink="http://www.w3.org/1999/xlink" xmlns="http://www.w3.org/2000/svg">
  <desc>Created with Lunacy</desc>
  <defs>
    <path d="M0 21.3611L0 0L16.5298 0L16.5298 21.3611L9.71774e-17 21.3611L0 21.3611Z" transform="translate(0 0.1154336)" id="path_1" />
    <path d="M18.1298 3.63166e-14L18.1298 22.5718L0 22.5718L0 0L18.1298 0L18.1298 3.63166e-14Z" transform="translate(0.4263589 0.128777)" id="path_2" />
    <clipPath id="mask_1">
      <use xlink:href="#path_1" />
    </clipPath>
    <clipPath id="mask_2">
      <use xlink:href="#path_2" />
    </clipPath>
  </defs>
  <g id="caraSorpresaIlus2" transform="translate(0.5 0.5)">
    <g id="Page-1">
      <path d="M60.7941 139.896C96.7019 137.864 110.086 104.591 107.74 72.6992C105.502 42.2956 92.4774 -3.47205 53.3563 1.22008C52.2697 1.34999 54.5077 1.13343 54 1.87238C53.6867 2.32843 56.7127 3.17972 56.6216 3.71436C56.3103 5.54187 51.0362 7.93523 53.3563 7.65825C87.886 3.51722 98.7859 43.9746 101.18 70.7677C103.721 99.2192 94.0507 131.407 60.7941 133.457C-10.362 137.843 -11.866 8.56731 55.9998 6.44015C60.1191 6.31138 60.137 -0.129357 55.9998 0.00198158C-20.3303 2.39698 -18.5312 144.389 60.7941 139.896Z" transform="translate(76 86)" id="Fill-1" fill="#2B386B" stroke="none" />
      <path d="M9.72485 29.4346C6.95094 31.584 5.74959 31.7899 2.33575 32.7074C-1.76033 33.8038 -0.0203566 39.9683 4.09159 38.8694C8.62928 37.6503 12.3975 35.6849 16.0625 32.8429C17.263 31.9126 17.1652 30.1567 16.5782 28.9734C12.3948 20.4678 9.76899 11.63 8.45475 2.31417C7.88093 -1.74184 1.51072 -0.0141395 2.07925 4.0112C3.47282 13.8918 5.29559 20.4408 9.72485 29.4346Z" transform="translate(127 136)" id="Fill-3" fill="#2B386B" stroke="none" />
      <path d="M3.00047 6C6.99612 6 7.00357 0 3.00047 0C-0.99767 0 -1.00264 6 3.00047 6" transform="translate(111 136)" id="Fill-5" fill="#2B386B" stroke="none" />
      <path d="M3.00047 6C6.99612 6 7.00357 0 3.00047 0C-0.99767 0 -1.00264 6 3.00047 6" transform="translate(150 138)" id="Fill-7" fill="#2B386B" stroke="none" />
      <path d="M0.200769 3.93927C7.02386 23.2838 26.4922 34.7128 46.6588 31.4455C50.7583 30.7796 49.0202 24.5379 44.9414 25.1986C28.4475 27.8699 11.9873 17.9489 6.43673 2.21625C5.05814 -1.68842 -1.19075 -0.00425687 0.200769 3.93927" transform="translate(110 92)" id="Fill-9" fill="#2B386B" stroke="none" />
      <path d="M13.7008 17.5317C11.4279 15.3182 9.07251 12.8993 7.4954 10.1157C6.62696 8.58271 6.03167 7.89195 7.54436 6.82372C8.4463 6.18689 9.90745 6.34866 10.9073 6.55409C15.9685 7.59408 18.8985 12.8197 18.512 17.6447C18.1821 21.761 24.6271 21.743 24.9544 17.6447C25.6786 8.5673 17.6745 -1.15207 8.03399 0.111319C4.08863 0.62746 0.145857 3.30831 0.00412328 7.60949C-0.176265 13.0354 5.6039 18.6205 9.14466 22.0743C12.1108 24.9631 16.672 20.4283 13.7008 17.5317" transform="translate(108 184)" id="Fill-13" fill="#2B386B" stroke="none" />
      <g id="Group-17" transform="translate(63 147)">
        <path d="M0 21.3611L0 0L16.5298 0L16.5298 21.3611L9.71774e-17 21.3611L0 21.3611Z" transform="translate(0 0.1154336)" id="Clip-16" fill="none" stroke="none" />
        <g clip-path="url(#mask_1)">
          <path d="M14.9775 1.34327C8.01409 -2.69707 0.124945 2.96349 0.00151622 10.5203C-0.0550552 14.0342 1.47237 17.8496 4.42437 19.917C7.47409 22.0509 11.6269 21.8593 14.2009 19.0788C16.9987 16.0607 12.4652 11.5297 9.65723 14.5632C7.5898 16.7942 6.29637 10.9292 6.51237 9.69993C6.9418 7.24404 9.40523 5.51138 11.7324 6.86071C15.3118 8.93838 18.5518 3.41838 14.9775 1.34327" transform="translate(-0.0002305009 0.1154336)" id="Fill-15" fill="#2B386B" stroke="none" />
        </g>
      </g>
      <g id="Group-20" transform="translate(176 143)">
        <path d="M18.1298 3.63166e-14L18.1298 22.5718L0 22.5718L0 0L18.1298 0L18.1298 3.63166e-14Z" transform="translate(0.4263589 0.128777)" id="Clip-19" fill="none" stroke="none" />
        <g clip-path="url(#mask_2)">
          <path d="M5.46125 7.46097C7.82113 4.73675 10.7874 7.58363 11.4043 10.1954C11.7061 11.4732 10.9265 18.3681 8.06525 15.9837C4.87325 13.3234 0.211254 17.8237 3.42688 20.502C6.50075 23.0626 10.7428 23.3003 14.0266 20.9185C17.4286 18.4524 18.5233 14.062 18.0114 10.129C17.4995 6.20363 15.3181 2.40352 11.4646 0.780745C7.85 -0.73981 3.41375 -0.0498103 0.820254 2.94275C-1.8835 6.06819 2.73388 10.6094 5.46125 7.46097" transform="translate(0.4263589 0.128777)" id="Fill-18" fill="#2B386B" stroke="none" />
        </g>
      </g>
      <g id="Group" transform="translate(128 0)">
        <path d="M0 4.02234L0 45.9777C0 51.3358 8 51.3458 8 45.9777L8 4.02234C8 -1.33578 0 -1.34578 0 4.02234" transform="translate(1 0)" id="Fill-21" fill="#2B386B" stroke="none" />
        <path d="M0 3.8514L0 6.1486C0 11.279 8 11.2886 8 6.1486L8 3.8514C8 -1.27901 0 -1.28858 0 3.8514" transform="translate(0 57)" id="Fill-23" fill="#2B386B" stroke="none" />
      </g>
      <g id="Page-1" transform="matrix(0.9925461 -0.1218693 0.1218693 0.9925461 0.6505494 49.9609)">
        <path d="M0.294664 3.20246C4.88645 11.2953 9.47824 19.3882 14.0666 27.4845C15.4256 29.8769 19.132 27.7272 17.773 25.328C13.1812 17.2317 8.5894 9.13884 4.00104 1.04254C2.64204 -1.34979 -1.06434 0.803304 0.294664 3.20246" transform="matrix(0.8480481 -0.5299193 0.5299193 0.8480481 0.8139782 33.62969)" id="Fill-1" fill="#3FBA91" stroke="none" />
        <path d="M0.0513597 2.62213C1.63158 10.0452 1.78292 17.4783 0.459614 24.9483C-0.0084706 27.5857 4.23244 28.7184 4.70053 26.0609C6.15757 17.8268 6.03791 9.6933 4.29227 1.50616C3.72916 -1.13129 -0.511749 -0.0153179 0.0513597 2.62213" transform="matrix(0.9271839 -0.3746066 0.3746066 0.9271839 71.70665 2.35907)" id="Fill-3" fill="#3FBA91" stroke="none" />
        <path d="M8.23495 1.52222C6.44195 8.85302 3.81132 15.8081 0.272418 22.4591C-1.01598 24.8776 2.61374 27.0365 3.90215 24.6146C7.60588 17.6527 10.4114 10.339 12.2919 2.65634C12.9411 -0.00815933 8.88756 -1.14911 8.23495 1.52222" transform="matrix(0.9510565 0.309017 -0.309017 0.9510565 184.7547 8.544388)" id="Fill-5" fill="#3FBA91" stroke="none" />
        <path d="M3.11881 10.1492C8.19614 7.14647 13.5828 5.11745 19.4066 3.98369C22.0562 3.46745 20.9365 -0.469692 18.2903 0.0465469C12.1437 1.24239 6.35014 3.45765 0.997096 6.6237C-1.30956 7.98944 0.802073 11.5214 3.11881 10.1492" transform="translate(216.2042 68.51591)" id="Fill-7" fill="#3FBA91" stroke="none" />
      </g>
    </g>
    <path d="M0.309741 4.96428C5.8269 17.5361 14.2769 32.3636 29.9533 30.8996C33.9952 30.5232 34.0359 24.0309 29.9533 24.4099C16.6832 25.6481 10.3698 12.0925 5.80146 1.68829C4.13029 -2.11725 -1.35126 1.1821 0.309741 4.96428L4.55347 4.00049L11.0527 4.00049L8.71533 2.31042C8.71533 2.31042 8.27563 4.47864 7.72803 2.71375C7.18042 0.948853 7.72803 1.68829 7.72803 1.68829L7.30249 0.451294L5.80146 0.709961L9.16272 0.709961L12.2625 4.26392" transform="translate(125 86)" id="Fill-11" fill="#2B386B" stroke="none" />
    <path d="M2.68649 5.92744C2.83923 5.92744 3.13951 5.94579 3.2861 5.92744C4.72978 5.74672 6.15561 4.05526 6.15561 2.80183C6.15561 1.42112 4.81246 0.30183 3.15561 0.30183C2.57951 0.30183 0.950961 -0.169081 0.49399 0.0655023C-0.363275 0.505574 0.155611 1.9012 0.155611 2.80183C0.155611 4.18254 1.02964 5.92744 2.68649 5.92744Z" transform="translate(129.8444 86.69817)" id="Oval" fill="#2B386B" stroke="none" />
  </g>
</svg>