<svg xmlns="http://www.w3.org/2000/svg" width="17.983" height="17.983" viewBox="0 0 17.983 17.983">
  <path id="Path_Copy_2" data-name="Path Copy 2" d="M9.978.732A7.314,7.314,0,0,0,.635,4.21c-1.55,3.31-.172,6.452,3.143,7.835,3.272,1.341,6.717,1.718,8.482-1.885A8.43,8.43,0,0,0,9.892.271C8.859-.609,7.309.858,8.385,1.738a6.629,6.629,0,0,1,2.454,5.7,3.651,3.651,0,0,1-2.11,3.31A5.19,5.19,0,0,1,5.2,10.326C2.788,9.488,1.5,7.6,2.616,5.131,3.821,2.45,6.792,1.7,9.462,2.7c1.249.545,1.808-1.466.517-1.969Z" transform="matrix(-0.839, -0.545, 0.545, -0.839, 10.903, 17.983)" fill="#fff" opacity="0.202"/>
</svg>
