<svg id="Layer_1" xmlns="http://www.w3.org/2000/svg" viewBox="0 0 314.6 289.3"><style>.st0{fill:#47B490;} .st1{fill:#2B386B;}</style><path class="st0" d="M4 161.7c.1 42 2 83.9 5.8 125.7 21.1 0 42.1-.4 63.2-1.1-9.6-39.3-14.7-79.7-15-120.1 0-2.9-.3-6.3-2.7-8-1-.6-2.1-.9-3.3-1.1-17.1-3.2-34.8-3.6-52-1M75.1 134c0-2.9-.3-6.3-2.7-8-1-.6-2.1-.9-3.3-1.1-14-2.6-28.3-3.3-42.5-2.1.2 6.8.3 13.5.4 20.3 3.5-.2 6.9.8 9.3 3.2 11.9-3.3 27.7-1.7 39.1-.9-.1-3.8-.3-7.6-.3-11.4z"/><path class="st1" d="M11.9 145.9c.6 46.8 2 93.6 4.1 140.4.2 4 6.4 4 6.3 0-2.1-46.8-3.5-93.6-4.1-140.4-.1-4-6.4-4-6.3 0z"/><path class="st1" d="M15.4 149.4c26.7.6 53.4.3 80-.8 4-.2 4-6.4 0-6.3-26.7 1.1-53.4 1.4-80 .8-4-.1-4 6.2 0 6.3z"/><path class="st1" d="M93.5 147c1.5 22.9 1.3 46 1.7 69 .4 23.5.8 46.9 1.2 70.4.1 4 6.3 4 6.3 0-.4-23.5-.8-46.9-1.2-70.4-.4-23-.2-46-1.7-69-.3-4-6.5-4.1-6.3 0zM29.3 165.6v15.7c0 4 6.3 4 6.3 0v-15.7c0-4.1-6.3-4.1-6.3 0zM30.9 200.2c-.8 4.6-.6 9.1.8 13.6 1.1 3.8 7.2 2.2 6-1.7-1-3.4-1.3-6.8-.8-10.3.7-3.9-5.4-5.6-6-1.6zM31.9 231.2V243c0 4 6.3 4 6.3 0v-11.8c0-4-6.3-4.1-6.3 0zM33.3 260v10.5c0 4 6.3 4 6.3 0V260c-.1-4-6.3-4-6.3 0zM45 167.8c1.2 4.5 1.7 8.9 1.4 13.5-.2 4 6 4 6.3 0 .3-5.1-.3-10.2-1.7-15.2-1.1-3.9-7.1-2.2-6 1.7zM46.4 203.6v9.2c0 4 6.3 4 6.3 0v-9.2c-.1-4-6.3-4-6.3 0zM47.7 235.1v10.5c0 4 6.3 4 6.3 0v-10.5c-.1-4-6.3-4-6.3 0zM49.1 267.4c1.1 2.8 1.7 5.8 1.3 8.8-.2 1.7.4 3.3 2.2 3.8 1.5.4 3.6-.5 3.8-2.2.6-4.2.3-8.2-1.3-12.2-.6-1.6-2.1-2.6-3.8-2.2-1.5.6-2.8 2.5-2.2 4zM60 167.8c1.2 4.5 1.7 8.9 1.4 13.5-.2 4 6 4 6.3 0 .3-5.1-.3-10.2-1.7-15.2-1.1-3.9-7.1-2.2-6 1.7zM61.4 203.6v9.2c0 4 6.3 4 6.3 0v-9.2c-.1-4-6.3-4-6.3 0zM62.7 235.1v10.5c0 4 6.3 4 6.3 0v-10.5c-.1-4-6.3-4-6.3 0zM64.1 267.4c1.1 2.8 1.7 5.8 1.3 8.8-.2 1.7.4 3.3 2.2 3.8 1.5.4 3.6-.5 3.8-2.2.6-4.2.3-8.2-1.3-12.2-.6-1.6-2.1-2.6-3.8-2.2-1.5.6-2.8 2.5-2.2 4zM75 167.8c1.2 4.5 1.7 8.9 1.4 13.5-.2 4 6 4 6.3 0 .3-5.1-.3-10.2-1.7-15.2-1.1-3.9-7.1-2.2-6 1.7zM76.4 203.6v9.2c0 4 6.3 4 6.3 0v-9.2c-.1-4-6.3-4-6.3 0zM77.7 235.1v10.5c0 4 6.3 4 6.3 0v-10.5c-.1-4-6.3-4-6.3 0zM79.1 267.4c1.1 2.8 1.7 5.8 1.3 8.8-.2 1.7.4 3.3 2.2 3.8 1.5.4 3.6-.5 3.8-2.2.6-4.2.3-8.2-1.3-12.2-.6-1.6-2.1-2.6-3.8-2.2-1.5.6-2.8 2.5-2.2 4zM53.4 117c.8 9 .8 17.9-.1 26.8-.4 4 5.9 4 6.3 0 .9-9 .9-17.9.1-26.8-.4-4-6.7-4-6.3 0z"/><path class="st1" d="M56.5 118.7c26.5.6 53 1.1 79.5 1.7 4 .1 4-6.2 0-6.3-26.5-.6-53-1.1-79.5-1.7-4-.1-4 6.2 0 6.3z"/><path class="st1" d="M132.8 118.6l-3.6 163.8c-.1 4 6.2 4 6.3 0l3.6-163.8c0-4-6.3-4-6.3 0zM85 79.7c.2 6.8.5 13.5.7 20.3.1 4 6.4 4 6.3 0-.2-6.8-.5-13.5-.7-20.3-.2-4-6.4-4-6.3 0z"/><path class="st1" d="M88.9 94.9H101c4 0 4-6.3 0-6.3H88.9c-4.1.1-4.1 6.3 0 6.3z"/><path class="st1" d="M97.8 79.7v20.8c0 4 6.3 4 6.3 0V79.7c-.1-4-6.3-4-6.3 0zM73 128.2c-.6 2.2-.6 4.4-.3 6.6.2 1.6 2.4 2.7 3.8 2.2 1.8-.6 2.4-2.1 2.2-3.8.1.4 0-.6 0-.6v-1.1c0-.5 0 0 .1-.6.1-.4.2-.7.3-1 .4-1.6-.5-3.5-2.2-3.8-1.7-.5-3.4.4-3.9 2.1zM89 127.9v4.4c0 1.6 1.4 3.2 3.1 3.1 1.7-.1 3.1-1.4 3.1-3.1v-4.4c0-1.6-1.4-3.2-3.1-3.1s-3.1 1.4-3.1 3.1zM106.5 128.5v5.5c0 1.7 1.4 3.1 3.1 3.1s3.1-1.4 3.1-3.1v-5.5c0-1.7-1.4-3.1-3.1-3.1-1.6 0-3.1 1.4-3.1 3.1zM109.2 155.9l.6 12s6.5 4 6.3 0l-.6-12c-.3-4-6.6-4-6.3 0zM109.8 183.3c.2 2.5.1 4.9-.3 7.4-.3 1.7.5 3.4 2.2 3.8 1.5.4 3.5-.5 3.8-2.2.6-3 .8-6 .6-9.1-.1-1.7-1.3-3.1-3.1-3.1-1.7.1-3.3 1.5-3.2 3.2zM109.8 206.8v9.9c0 4 6.3 4 6.3 0v-9.9c0-4-6.3-4-6.3 0zM110.4 231v9.3c0 4 6.3 4 6.3 0V231c-.1-4.1-6.3-4.1-6.3 0zM111.5 256.7c-.3 3.1-.1 6 .4 9.1.3 1.7 2.4 2.6 3.8 2.2 1.8-.5 2.4-2.2 2.2-3.8-.4-2.5-.4-5-.1-7.4.2-1.7-1.5-3.1-3.1-3.1-1.9-.1-3 1.3-3.2 3zM115.2 277.1h-.5c-1.6 0-3.2 1.4-3.1 3.1s1.4 3.1 3.1 3.1h.5c1.6 0 3.2-1.4 3.1-3.1-.1-1.6-1.4-3.1-3.1-3.1zM249.7 257.4c.5 7.7 1 15.4 1.5 23.2.3 4 6.5 4 6.3 0-.5-7.7-1-15.4-1.5-23.2-.3-4-6.6-4.1-6.3 0z"/><path class="st1" d="M254.6 258c5.9-6.4 12.2-12.4 18.7-18.1 3-2.6-1.4-7-4.4-4.4-6.6 5.7-12.8 11.8-18.7 18.1-2.8 2.9 1.6 7.4 4.4 4.4z"/><path class="st1" d="M272.3 240c4 0 4-6.3 0-6.3s-4 6.3 0 6.3z"/><path class="st1" d="M272.3 237.9c6.2 5.2 12.1 10.7 17.8 16.4 2.8 2.9 7.3-1.6 4.4-4.4-5.7-5.7-11.6-11.2-17.8-16.4-3.1-2.5-7.5 1.9-4.4 4.4z"/><path class="st1" d="M290.9 256.1c1.2 8.3 1.9 16.6 2.2 25 .1 4 6.4 4 6.3 0-.3-8.9-1.1-17.8-2.4-26.6-.6-4-6.7-2.4-6.1 1.6zM253.3 242.1c.2 3 .4 6 .6 8.9.3 4 6.5 4 6.3 0-.2-3-.4-6-.6-8.9-.3-4-6.6-4-6.3 0zM270.1 266.4c.4 4.8.8 9.6 1.2 14.3.3 4 6.6 4 6.3 0-.4-4.8-.8-9.6-1.2-14.3-.4-4-6.6-4.1-6.3 0zM135.5 243.8c11.3-1.3 22.6-2.6 34-1.9 10.5.7 20.8 2.5 31.3.3 3.9-.9 2.3-6.9-1.7-6-10.5 2.3-21-.1-31.6-.6-10.7-.5-21.5.7-32.1 2-3.8.4-3.9 6.6.1 6.2zM132.6 257.5c4.8 3.9 12.1 3.9 16.4-.9 2.7-3-1.7-7.4-4.4-4.4-1.9 2.1-5.3 2.8-7.6.9-3-2.5-7.5 1.9-4.4 4.4z"/><path class="st1" d="M144.4 256.5c3.7 7 13.3 7 17.4.4 2.1-3.4-3.3-6.6-5.4-3.2-1.7 2.8-5.2 2.3-6.6-.4-1.9-3.5-7.3-.3-5.4 3.2z"/><path class="st1" d="M158.4 256.9c3.1 2.4 6.6 4.5 10.7 4.2 3.6-.3 6.2-2.7 8.4-5.5 2.5-3.1-1.9-7.6-4.4-4.4-1.2 1.6-2.7 3.6-4.9 3.7-2.5.1-4.8-2-6.7-3.4-3.2-2.4-6.3 3-3.1 5.4z"/><path class="st1" d="M173.3 255.6c4.3 5 16.2 7.2 18-1.4.8-3.9-5.2-5.6-6-1.7-.7 3.5-6.4 0-7.6-1.4-2.6-3-7 1.4-4.4 4.5z"/><path class="st1" d="M186 254.1c3.6 5.3 12.8 8.5 17 2 2.2-3.4-3.2-6.5-5.4-3.2-1.3 2.1-5.3-.7-6.2-2-2.3-3.2-7.7-.1-5.4 3.2z"/><path class="st1" d="M196.4 240.7c.4 4.5.8 9 1.1 13.4.3 4 6.6 4 6.3 0-.4-4.5-.8-9-1.1-13.4-.4-3.9-6.7-4-6.3 0zM190 258.1c.7 7.3 1.3 14.6 2 21.9.4 4 6.6 4 6.3 0-.7-7.3-1.3-14.6-2-21.9-.4-4-6.7-4-6.3 0zM160.8 271.9c.3 2.8.6 5.7.9 8.5.2 1.7 1.3 3.1 3.1 3.1 1.5 0 3.3-1.4 3.1-3.1-.3-2.8-.6-5.7-.9-8.5-.2-1.7-1.3-3.1-3.1-3.1-1.5 0-3.3 1.4-3.1 3.1zM164.2 235.8c.6-19.9 1.1-20.9 1.7-40.8.1-4-6.1-4-6.3 0-.6 19.9-1.1 20.9-1.7 40.8 0 4 6.2 4 6.3 0z"/><path class="st1" d="M163.4 196.7c17.1-1.3 34.2-1.8 51.3-1.3 4 .1 4-6.1 0-6.3-17.1-.5-34.2-.1-51.3 1.3-4 .4-4 6.6 0 6.3z"/><path class="st1" d="M212.9 192.7c5.3 34.2 8.2 49.6 8.7 84.2.1 4 6.3 4 6.3 0-.5-35.1-3.6-51.2-9-85.9-.6-4-6.6-2.3-6 1.7zM171.8 205c.2 2.1.3 4.2.5 6.2.1 1.7 1.3 3.1 3.1 3.1 1.6 0 3.3-1.4 3.1-3.1-.2-2.1-.3-4.2-.5-6.2-.1-1.7-1.3-3.1-3.1-3.1-1.6 0-3.3 1.4-3.1 3.1zM172 222.5c-.3 2.1-.3 4.1.4 6.1.5 1.6 2.2 2.7 3.8 2.2s2.7-2.2 2.2-3.8l-.3-.9c-.2-.9 0 .5-.1-.4v-1c0-.1.1-1 0-.5.2-1.6-.4-3.4-2.2-3.8-1.4-.4-3.6.3-3.8 2.1zM183.6 205.4c.3 1.9.6 3.9.9 5.8.3 1.7 2.3 2.6 3.8 2.2 1.8-.5 2.5-2.2 2.2-3.8-.3-1.9-.6-3.9-.9-5.8-.3-1.7-2.3-2.6-3.8-2.2-1.7.4-2.4 2.1-2.2 3.8zM184.8 221.5v4.9c0 1.6 1.4 3.2 3.1 3.1 1.7-.1 3.1-1.4 3.1-3.1v-4.9c0-1.6-1.4-3.2-3.1-3.1-1.7.1-3.1 1.4-3.1 3.1zM144.5 33c22.7-3.4 45.3-6.6 68.1-9.5 3.9-.5 4-6.8 0-6.3-23.3 3-46.5 6.2-69.7 9.8-4 .6-2.3 6.6 1.6 6z"/><path class="st1" d="M144.6 29c-.2-2.1-2.2-16.8-.3-16.9.7 0 3.4 3.6 4.2 4.2 1.9 1.3 4 1.7 6.3 1.6 6.4-.2 13.1-2.3 19.4-3.5 7.1-1.4 14.2-2.7 21.3-4.1 6.2-1.2 12.5-2.8 18.7-3.6 3.4-.4 7.2-.6 10.5.4 4.4 1.4 4.2 4.8.4 7.1-3.6 2.1-8 2.9-12 4-3.9 1-2.2 7.1 1.7 6 7.5-2 23.5-5.8 19-17.1-3.7-9.3-17.9-7-25.5-5.6-9.6 1.7-19.3 3.6-29 5.5-4.8.9-9.7 1.9-14.5 2.8-4.3.8-10.7 3.5-14.2 0-3.2-3.2-8-7-11.8-2-1.6 2.1-1.7 4.8-1.6 7.3.2 4.6.7 9.3 1.1 14 .3 3.9 6.6 3.9 6.3-.1z"/><path class="st1" d="M198.9 21.5c-5.1 7.2-10.6 14.5-18.3 19.1-2.7 1.6-8.2 4.7-11.6 4.1-5.6-1-1.4-12.3-.6-15.6.9-3.9-5.1-5.6-6-1.7-1.3 5.4-4 13.1-1.7 18.6 2.4 5.6 8.8 5.4 13.8 4 13.3-3.6 22.2-14.7 29.8-25.4 2.4-3.2-3-6.4-5.4-3.1z"/><path class="st0" d="M155.6 22.5c2 0 2-3.1 0-3.1-2-.1-2 3.1 0 3.1zM167.3 19.8v-.4c0-.8-.7-1.6-1.6-1.6-.8 0-1.6.7-1.6 1.6v.4c0 .8.7 1.6 1.6 1.6.9-.1 1.6-.8 1.6-1.6zM177.1 19.8c2 0 2-3.1 0-3.1s-2 3.1 0 3.1zM186.6 18.3c2 0 2-3.1 0-3.1s-2 3.1 0 3.1zM197.6 14.8v-.4c0-.8-.7-1.6-1.6-1.6-.8 0-1.6.7-1.6 1.6v.4c0 .8.7 1.6 1.6 1.6.9 0 1.6-.7 1.6-1.6zM205.1 14.9h.4c.8 0 1.6-.7 1.6-1.6 0-.8-.7-1.6-1.6-1.6h-.4c-.8 0-1.6.7-1.6 1.6.1.9.7 1.6 1.6 1.6zM124.9 23.6c-12 1.9-23.9 6.2-35.6 9.6-11.9 3.5-23.8 6.9-35.6 10.4-1.9.6-1.1 3.6.8 3 11.9-3.5 23.8-6.9 35.6-10.4 11.7-3.4 23.5-7.8 35.6-9.6 2-.3 1.2-3.3-.8-3z"/><path class="st1" d="M166.9 119.1c23-1.9 46.3-.3 69.4.2 4 .1 4-6.2 0-6.3-23-.5-46.4-2.2-69.4-.2-4 .4-4 6.6 0 6.3z"/><path class="st1" d="M168.2 111.7c-.8-5.1 1.2-11.2 6.1-13.7 4.6-2.4 10.5-.6 13 3.9 2 3.5 7.4.4 5.4-3.2-3.9-7-13-10-20.4-6.7-8.2 3.7-11.4 12.9-10.1 21.3.5 4 6.6 2.3 6-1.6z"/><path class="st1" d="M189.7 96.5c2.3-4.4 6.4-7.9 11.6-8.3 6.3-.5 9.2 5.4 10.8 10.6 1.2 3.8 7.2 2.2 6-1.7-2.3-7.2-2.7-14.9-11-15.3-7.9-.4-19.2 4.7-22.8 11.5-1.9 3.6 3.5 6.7 5.4 3.2z"/><path class="st1" d="M211.9 105.2c4-3.9 10-7 15.5-4.1 5 2.6 6.1 8.6 7.2 13.7.8 3.9 6.8 2.3 6-1.7-1.6-7.5-4.1-15.3-11.8-18.3-7.7-3-15.7.4-21.3 5.9-2.9 2.9 1.5 7.3 4.4 4.5z"/></svg>