<svg id="Layer_1" data-name="Layer 1" xmlns="http://www.w3.org/2000/svg" viewBox="0 0 416 416">
    <defs>
        <style>.cls-1{fill:#ffffff;}</style>
    </defs>
    <title>arrow-dropdown-circle</title>
    <path class="cls-1"
          d="M0,208C0,322.9,93.1,416,208,416s208-93.1,208-208S322.9,0,208,0,0,93.1,0,208Zm289.1-43.4a19.37,19.37,0,0,1,27.3,0,19.06,19.06,0,0,1,5.6,13.6,19.4,19.4,0,0,1-5.7,13.7l-94.3,94a19.28,19.28,0,0,1-26.6-.6L99.7,189.9A19.3,19.3,0,0,1,127,162.6l81.1,81.9,81-79.9Z"/>
</svg>