<svg id="Layer_1" xmlns="http://www.w3.org/2000/svg" viewBox="0 0 135 141"><style>.st0{fill:#2A396B;}</style><title>modulo3_3_centro</title><g id="Group"><path id="Shape_22_" class="st0" d="M68.7 25.9c-47.3 1.8-49.1 86.6-.6 89.1 23.5 1.2 34.7-18.8 34.1-39.6-.6-20.2-9-51.5-35.3-48.7-2.6.2-2.6 4.2 0 4C91 28.1 97.6 57.2 98.2 75.5c.6 18.4-9 36.8-30.1 35.7-43.3-2.4-41.7-79.6.6-81.2 2.6-.3 2.6-4.3 0-4.1z"/><path id="Shape_23_" class="st0" d="M66.5 60.6c.8 6.3 2.8 12.3 5.6 18 .2-.8.2-1.6.4-2.4-1.8 1.4-3.6 2.2-5.8 2.8-2.4.6-1.4 4.6 1 3.8 2.8-.8 5.2-2 7.4-3.8.8-.6.6-1.6.4-2.4-2.6-5.5-4.2-11.1-5-17.2-.6-2.4-4.4-1.2-4 1.2z"/><path id="Shape_24_" class="st0" d="M80.9 88.3c-3.4 4.4-22.1 8.9-24.7 1.8-.8-2.4-4.8-1.4-3.8 1 4 11.3 26.3 6.3 32.1-.8 1.6-2-2-4-3.6-2z"/><path id="Shape_25_" class="st0" d="M34.4 65.5c-5.6-2.8-9.2 3.2-9.2 7.9 0 2.4.6 5.1 2.8 6.5 2.2 1.6 4.6 1.4 6.6-.2s-.8-4.4-2.8-2.8c-.8.6-1.8-.8-2.2-1.4-.4-1-.4-2-.4-3 0-1.4.8-5 3-4 2.4 1.6 4.4-1.8 2.2-3z"/><path id="Shape_26_" class="st0" d="M100.2 67.1c1.6-1.4 4.2 2.8 4.8 3.8s1 2.4.6 3.6c-.4 1.4-1.6 2.2-2.8 1.2-2.2-1.4-4.2 2-2 3.4s5 1.2 7-.6c2.2-2 2.4-5.1 1.6-7.7-1.6-4.4-7-10.7-11.8-6.5-2.2 1.8.6 4.6 2.6 2.8z"/><path id="Shape_27_" class="st0" d="M55.9 64.3c2.6 0 2.6-4 0-4-2.7.1-2.7 4 0 4z"/><path id="Shape_28_" class="st0" d="M81.1 65.3c2.6 0 2.6-4 0-4-2.6.1-2.6 4 0 4z"/></g></svg>