<svg id="Layer_1" xmlns="http://www.w3.org/2000/svg" viewBox="0 0 135 141"><style>.st0{fill:#2A396B;}</style><title>modulo3_3_centro</title><path id="Shape_13_" class="st0" d="M68.9 33.5c-46.8 1.8-48.6 87.3-.6 89.9 23.2 1.2 34.3-19 33.7-40-.6-20.4-8.9-52-34.9-49.2-2.6.2-2.6 4.2 0 4C90.9 35.7 97.4 65.1 98 83.5c.6 18.6-8.9 37.2-29.8 36-42.8-2.4-41.3-80.3.6-81.9 2.6-.3 2.6-4.3.1-4.1z"/><path id="Shape_14_" class="st0" d="M68.1 68.6c.8 6.3 2.7 12.5 5.4 18.2.2-1 .2-2 .4-3-1.5 1.4-3.3 2.2-5.2 2.8-2.9.8-1.7 5.5 1.3 4.8 2.9-.8 5.2-2.2 7.3-4 1-.8.8-2.2.4-3-2.5-5.3-4-11.1-4.8-17-.6-3.3-5.4-1.9-4.8 1.2z"/><path id="Shape_15_" class="st0" d="M57.1 69.5c2.6 0 2.6-4 0-4-2.8 0-2.8 4 0 4z"/><path id="Shape_16_" class="st0" d="M83 70.5c2.7 0 2.7-4 0-4s-2.7 4 0 4z"/><path id="Shape_17_" class="st0" d="M51.3 95.6c2.6 6.3 6.5 13.4 13.7 14.7 5.5 1 10.9-1.7 12.9-7.1 1.2-3.1-3.8-4.6-4.8-1.5-1.6 4.4-7.1 4.2-10.1 2.1-3.6-2.3-5.5-6.9-7.1-10.9-1.7-3.1-6-.4-4.6 2.7z"/><path id="Shape_18_" class="st0" d="M42.1 20.5C46.5 33 59.3 40.3 72.2 38.1c3.2-.6 1.8-5.4-1.4-4.8-10.4 1.6-20.5-4.6-24.1-14.3-.8-2.7-5.6-1.5-4.6 1.5z"/><path id="Shape_19_" class="st0" d="M55.2 22.3c3.6 8.4 9.3 18.1 19.4 17.1 3.2-.2 3.2-5.3 0-5.1-8.3.8-12.3-7.9-15.3-14.5-1.1-3-5.3-.3-4.1 2.5z"/><path id="Shape_20_" class="st0" d="M34 74.2c-5.4-2.7-9 3.1-9 7.8 0 2.3.6 5.1 2.7 6.4 2.1 1.6 4.5 1.4 6.4-.2 1.9-1.6-.8-4.3-2.7-2.7-.8.6-1.8-.8-2.1-1.4-.4-1-.4-1.9-.4-2.9 0-1.4.8-4.9 2.9-3.9 2.5 1.4 4.5-1.9 2.2-3.1z"/><path id="Shape_21_" class="st0" d="M101.1 75c1.5-1.5 3.9 2.9 4.5 4 .6 1 .9 2.5.6 3.7-.4 1.5-1.5 2.3-2.6 1.2-2-1.5-3.9 2.1-1.9 3.5s4.6 1.2 6.5-.6c2-2.1 2.2-5.4 1.5-8.1-1.5-4.6-6.5-11.2-11-6.9-1.9 2.2.7 5.1 2.4 3.2z"/></svg>