<svg id="Layer_1" xmlns="http://www.w3.org/2000/svg" viewBox="0 0 135 141"><style>.st0{fill:#2A396C;}</style><title>modulo3_3_centro</title><g id="Group_2_"><path id="Shape_40_" class="st0" d="M66.9 31c22.7.6 37.6 21.9 36.3 43.7-1.2 19.5-18.2 34.7-37.5 34.9C45 109.6 33 94.4 34 74.5 35 54.6 44.6 29.6 68.9 32c2.6.2 2.6-3.8 0-4.2-26.3-2.6-37.6 23.5-39.2 45.5-1.6 22.7 12.3 40.5 36 40.5 21.7 0 40.6-17 41.8-38.9 1.4-24.3-15.5-47.1-40.6-47.7-1.2 0-2 1-2 2-.2 1 .8 1.8 2 1.8z"/><path id="Shape_41_" class="st0" d="M73.1 64.9c1.2 0 2-1 2-2s-1-2-2-2-2 1-2 2 .8 2 2 2z"/><path id="Shape_42_" class="st0" d="M48 65.7c1.2 0 2-1 2-2s-1-2-2-2-2 1-2 2 .8 2 2 2z"/><path id="Shape_43_" class="st0" d="M57.9 68.1c-1.2 3.2-3.8 5.8-7 7-1.2.4-1.8 1.6-1.4 2.6.2.4.4.8.8 1.2l9.4 6.4c2.2 1.6 4.2-2 2-3.6l-9.4-6.4-.4 3.8c4.6-1.8 8.2-5.4 10-10 1-2.6-3-3.6-4-1z"/><path id="Shape_44_" class="st0" d="M78.3 32C70.1 50.5 49 53.1 30.9 54.5c-2.6.2-2.6 4.4 0 4.2 19.3-1.4 42-4.6 50.8-24.5 1.3-2.6-2.4-4.6-3.4-2.2z"/><path id="Shape_45_" class="st0" d="M77.9 34c-4.2 27.3 16.9 48.3 44 46.7 2.6-.2 2.6-4.2 0-4.2C98 77.9 78.1 59.9 81.9 35c.5-2.4-3.6-3.6-4-1z"/><path id="Shape_46_" class="st0" d="M106.1 78.3c6.8-1 12.5-5.4 15.5-11.4 1.2-2.4-2.4-4.4-3.6-2-2.4 5.2-7.2 8.8-13.1 9.6-2.7.2-1.5 4.2 1.2 3.8z"/><path id="Shape_47_" class="st0" d="M14.1 75.3c4.6 3.4 9.8 5.6 15.5 6.6 2.6.4 3.8-3.6 1-4-5.2-.8-10.2-3-14.5-6.2-2-1.6-4 2.2-2 3.6z"/><path id="Shape_48_" class="st0" d="M28.9 83.9c-5.2 1-10.4 1.2-15.9 1-2.6-.2-2.6 4 0 4.2 5.6.2 11.4 0 16.9-1 2.9-.8 1.7-4.6-1-4.2z"/><path id="Shape_49_" class="st0" d="M47.6 92.6c4.2 4.4 10.2 6.6 16.3 6.2 6.2-.4 10.8-5.2 14.7-9.6 1.6-2-1.2-5-3-3-2.6 3.2-5.4 6.6-9.6 7.8-5 1.6-12-.6-15.5-4.4-1.7-2.1-4.7 1-2.9 3z"/></g></svg>