<svg xmlns="http://www.w3.org/2000/svg" width="31" height="31" viewBox="0 0 31 31">
  <path id="Path" d="M23.795,1.746c-8.522-3.3-18.379,0-22.28,8.292-3.7,7.893-.411,15.386,7.5,18.683,7.8,3.2,16.017,4.1,20.227-4.5,3.9-8.092,1.027-17.883-5.647-23.578-2.464-2.1-6.16,1.4-3.594,3.5a15.807,15.807,0,0,1,5.852,13.587c-.308,3.3-1.745,6.694-5.031,7.893-2.875,1-5.647,0-8.419-1-5.75-2-8.83-6.494-6.16-12.388C9.112,5.842,16.2,4.044,22.563,6.442c2.978,1.3,4.312-3.5,1.232-4.7Z" fill="#fff" opacity="0.818"/>
</svg>
