<svg xmlns="http://www.w3.org/2000/svg" width="21" height="21" viewBox="0 0 21 21">
  <path id="Path" d="M16.119,1.183c-5.773-2.233-12.45,0-15.093,5.617C-1.478,12.147.748,17.223,6.1,19.456c5.286,2.166,10.85,2.775,13.7-3.046C22.448,10.928,20.5,4.3,15.98.438c-1.669-1.421-4.173.948-2.434,2.369a10.708,10.708,0,0,1,3.965,9.2c-.209,2.233-1.182,4.534-3.408,5.347-1.947.677-3.825,0-5.7-.677-3.895-1.354-5.982-4.4-4.173-8.392,1.947-4.331,6.747-5.55,11.059-3.925,2.017.88,2.921-2.369.835-3.181Z" fill="#fff" opacity="0.699"/>
</svg>
