<svg id="Layer_1" xmlns="http://www.w3.org/2000/svg" viewBox="0 0 659.3 410.9"><style>.st0{fill:#47B490;} .st1{fill:#2B386B;}</style><path class="st0" d="M586.8 297.6c7.7 7.9 8.7 21.2 3 30.6-5.7 9.5-17.1 14.8-28.1 14.1 8.7 6.5 19.9 9.7 30.8 8.7 10.9-1 21.3-6.1 28.7-14.1 1.7-1.8 3.3-3.9 4.1-6.3 1.4-4.3-.1-9.1-2.1-13.1-6.1-12-17.7-21.1-30.8-24.2-1.4-.3-3-.6-4.4 0-1.4.6-2.3 2.4-1.4 3.6"/><path class="st1" d="M394.8 350.9c47.8-.3 95.6-.9 143.3-1.9 4.8-.1 4.8-7.6 0-7.5-47.8 1-95.5 1.6-143.3 1.9-4.8.1-4.9 7.6 0 7.5z"/><path class="st1" d="M388.5 348.4v13.9c0 4.8 7.5 4.8 7.5 0v-13.9c0-4.9-7.5-4.9-7.5 0zM536.2 344.6c0 5.4.5 10.8 1.2 16.2.3 2 2.8 3.1 4.6 2.6 2.2-.6 2.9-2.6 2.6-4.6-.7-4.7-.9-9.4-1-14.2.1-4.9-7.4-4.9-7.4 0zM404.2 316.8c.6 9.3 1.2 18.5 1.8 27.8.3 4.8 7.8 4.8 7.5 0-.6-9.3-1.2-18.5-1.8-27.8-.3-4.8-7.8-4.8-7.5 0z"/><path class="st1" d="M410.1 317.6c7.1-7.7 14.6-14.9 22.5-21.8 3.6-3.2-1.7-8.5-5.3-5.3-7.9 6.9-15.4 14.1-22.5 21.8-3.3 3.5 2 8.8 5.3 5.3z"/><path class="st1" d="M431.4 295.9c4.8 0 4.8-7.5 0-7.5s-4.8 7.5 0 7.5z"/><path class="st1" d="M431.3 293.5c7.4 6.2 14.5 12.8 21.4 19.7 3.4 3.4 8.7-1.9 5.3-5.3-6.8-6.9-13.9-13.5-21.4-19.7-3.6-3.1-9 2.2-5.3 5.3z"/><path class="st1" d="M453.7 315.3c1.5 9.9 2.3 19.9 2.6 30 .1 4.8 7.6 4.8 7.5 0-.3-10.7-1.3-21.4-2.9-32-.7-4.8-7.9-2.8-7.2 2zM408.6 298.5c.3 3.6.5 7.2.8 10.7.3 4.8 7.8 4.8 7.5 0-.3-3.6-.5-7.2-.8-10.7-.4-4.8-7.9-4.8-7.5 0z"/><path class="st1" d="M462.3 328.5c12.4-.1 24.8-.2 37.3-.3 4.8 0 4.8-7.5 0-7.5-12.4.1-24.8.2-37.3.3-4.8 0-4.8 7.5 0 7.5z"/><path class="st1" d="M496.9 325l1.2 18.3c.3 4.8 7.8 4.8 7.5 0l-1.2-18.3c-.3-4.8-7.8-4.8-7.5 0zM428.7 327.6c.5 5.7 1 11.5 1.5 17.2.4 4.8 7.9 4.8 7.5 0-.5-5.7-1-11.5-1.5-17.2-.4-4.8-7.9-4.8-7.5 0zM335.2 409c7.2-14.3 19.2-25.9 34.2-31.9 15.4-6.2 33.3-6.5 49.7-5.6 31.2 1.7 62.8 12.2 84.1 36 3.2 3.6 8.5-1.7 5.3-5.3-17.7-19.9-42.7-31.3-68.7-35.8-13.1-2.3-26.4-3.1-39.7-2.4-14.2.7-28.3 2.9-41 9.8-13 7.1-23.7 18.2-30.3 31.5-2.3 4.2 4.2 8 6.4 3.7z"/><path class="st1" d="M488 389.2c21.2-18.2 50.4-23.4 77.6-20.2 31.4 3.7 60.5 18.3 88 33.1 4.3 2.3 8-4.2 3.8-6.5-29.2-15.7-59.9-30.8-93.3-34.3-28.8-3-59 3.4-81.3 22.5-3.8 3.2 1.6 8.5 5.2 5.4z"/><path class="st1" d="M584.2 326.4c.7 14.6 1.8 29.1 3.4 43.7.5 4.7 8 4.8 7.5 0-1.6-14.5-2.7-29.1-3.4-43.7-.2-4.8-7.7-4.8-7.5 0z"/><path class="st1" d="M587.4 337.4c-3.5-3-7-6-10.4-9.1-3.6-3.2-9 2.1-5.3 5.3 3.5 3 7 6 10.4 9.1 3.7 3.2 9-2.1 5.3-5.3z"/><path class="st1" d="M588.1 352.5c12.4-1.6 23.1-10.9 25.5-23.4 2.5-12.7-4.5-26.1-15.9-32.1-11.4-6.1-25.5-3.8-35.3 4.3-10.5 8.7-14 23.7-9.8 36.4 2.1 6.5 6.1 13.7 13.3 15.2 8.9 1.8 19.1.1 27.7-2 4.7-1.2 2.7-8.4-2-7.2-7.2 1.8-14.8 2.8-22.3 2.2-7.1-.6-10-9.5-10.8-15.6-1.6-13 6.1-25 18.9-28.4 12.4-3.3 25.4 4.4 28.5 16.9 3 11.9-5.7 24.8-17.9 26.4-4.6.4-4.7 7.9.1 7.3zM494.3 34.9c-11.4-3-23.9.9-31.8 9.6-8.2 9-9.7 21.7-4.8 32.8 5.2 11.6 17.2 19.8 30.2 18.2 12.8-1.6 21.6-13.3 23.3-25.4 2-14.5-5.3-28.9-17.5-36.6-4.1-2.6-7.9 3.9-3.8 6.5 10.3 6.5 16.3 19.4 13.5 31.4-3.2 13.8-17.6 21.7-30.1 13.3-9.3-6.2-13.9-19.4-8.9-29.7 4.9-10.2 17.2-15.6 28-12.8 4.5 1.1 6.5-6.1 1.9-7.3zM451.1 5.6c1.9 4.4 3.7 8.8 5.6 13.2.8 1.9 3.5 2.3 5.1 1.3 1.9-1.1 2.1-3.3 1.3-5.1-1.9-4.4-3.7-8.8-5.6-13.2-.8-1.9-3.5-2.3-5.1-1.3-1.9 1.1-2.1 3.2-1.3 5.1zM496.9 3.9c-1.6 4.5-3.2 9-4.9 13.5-1.6 4.5 5.6 6.5 7.2 2 1.6-4.5 3.2-9 4.9-13.5 1.7-4.5-5.5-6.5-7.2-2zM530.2 59.3c4-.5 8-.9 12-1.4 2-.2 3.8-1.6 3.8-3.8 0-1.8-1.7-4-3.8-3.8-4 .5-8 .9-12 1.4-2 .2-3.8 1.6-3.8 3.8.1 1.9 1.8 4 3.8 3.8zM419.6 70.1h12c4.8 0 4.8-7.5 0-7.5h-12c-4.9 0-4.9 7.5 0 7.5zM454 124.8c1.3-4.1 3.5-7.7 6.7-10.6 3.5-3.3-1.8-8.6-5.3-5.3-4.1 3.8-7 8.6-8.6 13.9-1.4 4.6 5.8 6.6 7.2 2zM497.8 112.2c2.2 3.6 4.3 7.2 6.5 10.8 2.5 4.1 9 .4 6.5-3.8-2.2-3.6-4.3-7.2-6.5-10.8-2.5-4.1-9-.3-6.5 3.8zM4.6 404.7c14.2-4.5 27-12.5 33.7-26.3h-6.5c9.4 16.4 31.6 34 50.6 21.6 4-2.6.3-9.1-3.8-6.5-15.4 10.1-33-6.1-40.4-18.9-1.3-2.3-5.2-2.6-6.5 0-5.8 12.1-16.7 18.8-29.2 22.8-4.5 1.5-2.5 8.7 2.1 7.3z"/><path class="st1" d="M49.2 404.7c14.2-4.5 27-12.5 33.7-26.3h-6.5c9.4 16.4 31.6 34 50.6 21.6 4-2.6.3-9.1-3.8-6.5-15.4 10.1-33-6.1-40.4-18.9-1.3-2.3-5.2-2.6-6.5 0-5.8 12.1-16.7 18.8-29.2 22.8-4.4 1.5-2.5 8.7 2.1 7.3z"/><path class="st1" d="M93.9 404.7c14.2-4.5 27-12.5 33.7-26.3h-6.5c9.4 16.4 31.6 34 50.6 21.6 4-2.6.3-9.1-3.8-6.5-15.4 10.1-33-6.1-40.4-18.9-1.3-2.3-5.2-2.6-6.5 0-5.8 12.1-16.7 18.8-29.2 22.8-4.5 1.5-2.5 8.7 2.1 7.3z"/><path class="st1" d="M138.5 404.7c14.2-4.5 27-12.5 33.7-26.3h-6.5c9.4 16.4 31.6 34 50.6 21.6 4-2.6.3-9.1-3.8-6.5-15.4 10.1-33-6.1-40.4-18.9-1.3-2.3-5.2-2.6-6.5 0-5.8 12.1-16.7 18.8-29.2 22.8-4.5 1.5-2.5 8.7 2.1 7.3z"/><path class="st1" d="M183.1 404.7c14.2-4.5 27-12.5 33.7-26.3h-6.5c9.4 16.4 31.6 34 50.6 21.6 4-2.6.3-9.1-3.8-6.5-15.4 10.1-33-6.1-40.4-18.9-1.3-2.3-5.2-2.6-6.5 0-5.8 12.1-16.7 18.8-29.2 22.8-4.4 1.5-2.5 8.7 2.1 7.3z"/><path class="st1" d="M227.8 404.7c14.2-4.5 27-12.5 33.7-26.3H255c9.4 16.4 31.6 34 50.6 21.6 4-2.6.3-9.1-3.8-6.5-15.4 10.1-33-6.1-40.4-18.9-1.3-2.3-5.2-2.6-6.5 0-5.8 12.1-16.7 18.8-29.2 22.8-4.5 1.5-2.5 8.7 2.1 7.3zM138 365.1c11.5-2.5 23.8-2.2 35.5-2.8 11.7-.5 23.5-1.1 35.2-1.6-1.2-1.6-2.4-3.2-3.6-4.7-4.2 11.6-10.9 23.6-24.2 25.7-4.8.7-2.7 8 2 7.2 16-2.5 24.4-17 29.4-30.9.8-2.2-1.3-4.9-3.6-4.7-12.4.6-24.8 1.1-37.2 1.7-11.8.5-24 .4-35.6 2.9-4.6 1-2.7 8.3 2.1 7.2z"/><path class="st1" d="M160.6 379.9c-8.2 1.5-16.4 1.9-24.7 1.3-4.8-.3-4.8 7.2 0 7.5 9 .6 17.8.1 26.7-1.5 4.7-.9 2.7-8.2-2-7.3z"/><path class="st1" d="M129.6 363.7c-.4 6.1-.9 12.1-1.3 18.2-.3 4.8 7.2 4.8 7.5 0 .4-6.1.9-12.1 1.3-18.2.3-4.8-7.2-4.8-7.5 0zM180.6 352.9c-1.6-3.2-3.2-6.4-4.8-9.5-1.6-3-4.5-4.7-7.8-3.1-4.4 2.1-.6 8.5 3.8 6.5.1-.1.3-.1.4-.2-.6.2-1.3.3-1.9.5h.5c-.6-.2-1.3-.3-1.9-.5 1 .5 1.9 3.4 2.4 4.4 1 1.9 1.9 3.8 2.9 5.7 2.1 4.3 8.6.5 6.4-3.8z"/><path class="st0" d="M88 364.8l25.8-2.1c2.4-.2 2.4-4 0-3.8L88 361c-2.4.3-2.4 4 0 3.8zM99.2 371.3c4.8-.5 9.7-.9 14.5-1.4 2.4-.2 2.4-4 0-3.8-4.8.5-9.7.9-14.5 1.4-2.4.3-2.5 4 0 3.8z"/><path class="st1" d="M549.1 188.1c27.6-2.4 55.6-.4 83.3.3 4.8.1 4.8-7.4 0-7.5-27.6-.7-55.7-2.6-83.3-.3-4.8.4-4.8 7.9 0 7.5z"/><path class="st1" d="M550.6 179.1c-1-6.1 1.5-13.5 7.3-16.4 5.6-2.8 12.6-.8 15.6 4.7 2.3 4.2 8.8.5 6.5-3.8-4.7-8.6-15.8-12-24.7-7.9-9.7 4.4-13.5 15.5-11.9 25.4.7 4.8 7.9 2.8 7.2-2z"/><path class="st1" d="M576.4 160.9c2.6-5.1 7.2-9 13-9.9 8.1-1.3 11.9 6.1 13.9 12.7 1.4 4.6 8.7 2.6 7.2-2-2.9-9.1-8.6-18.6-19.3-18.4-9.1.2-17.3 5.9-21.4 13.8-2.1 4.3 4.4 8.1 6.6 3.8z"/><path class="st1" d="M603.1 171.4c4.9-4.9 12.5-8.5 19.2-4.6 5.5 3.2 6.8 10.4 7.9 16.1 1 4.7 8.2 2.7 7.2-2-1.8-8.9-4.8-18.2-14-21.8-9.3-3.7-19 .3-25.7 7-3.4 3.4 1.9 8.7 5.4 5.3z"/></svg>