<?xml version="1.0" encoding="utf-8"?><svg id="rocket" image-rendering="auto" baseProfile="basic" version="1.1" x="0px" y="0px" width="550" height="400" xmlns="http://www.w3.org/2000/svg" xmlns:xlink="http://www.w3.org/1999/xlink"><g id="Scene-1" overflow="visible"><g id="Symbol-2" transform="translate(275.3 198.7)"><animateTransform attributeName="transform" additive="replace" type="translate" repeatCount="indefinite" dur="2.5s" keyTimes="0;.167;.383;.667;.983;1" values="275.3,198.7;277.3,196.7;275.3,198.7;273.3,200.7;275.3,198.7;275.3,198.7"/><path fill="#FFF" stroke="none" d="M139.8 -138.6Q142.15 -138.55 143.45 -140.1 144.6 -141.55 144.5 -143.6 144.4 -145.7 143.05 -147.15 141.6 -148.8 139.3 -148.85 120.95 -149.2 102.55 -145.9 84.35 -142.7 67 -136.1 51.9 -130.35 36.1 -118.45 27.35 -111.9 8.85 -95.3 -21.55 -68.25 -42.35 -38.7 -64.7 -7 -77.05 29.1 -77.8 31.3 -76.7 32.9 -75.7 34.4 -73.65 34.8 -68.7 35.85 -67.1 31.25 -44.95 -33.7 13.45 -85.85 33 -103.35 40.7 -109.25 56.6 -121.35 71.7 -127 104.95 -139.2 139.8 -138.6Z"/><path fill="#FFF" stroke="none" d="M139.25 -100.6Q143.1 -117.5 145.1 -142.25 145.5 -147.1 140.6 -148.15 138.6 -148.55 137.15 -147.65 135.5 -146.65 135.3 -144.35 133.2 -119.9 129.65 -103.95 124.9 -82.5 115.75 -65.85 99.65 -37.1 73.8 -10.55 50.4 13.7 21.85 32.35 -6.5 50.85 -38.25 62.8 -40.4 63.6 -41.15 65.55 -41.85 67.3 -41.25 69.3 -40.6 71.25 -39.05 72.15 -37.3 73.15 -35.15 72.3 -2.15 59.9 27.3 40.65 56.75 21.35 81.2 -3.85 108.3 -31.9 124.6 -61.3 134.2 -78.55 139.25 -100.6Z"/><path fill="#FFF" stroke="none" d="M-100.65 -22.95Q-111.2 -16.4 -123.6 -4.8 -134.35 5.25 -143.8 16.45 -146.2 19.35 -144.2 22.6 -142.15 25.85 -138.5 24.6 -117.95 17 -106.55 14.15 -86.3 9.05 -74.35 14.6 -72.25 15.55 -70.3 14.7 -68.55 13.95 -67.6 12.15 -66.65 10.35 -67.1 8.6 -67.6 6.65 -69.75 5.65 -84.05 -.85 -103.45 2.65 -110.3 3.85 -119.75 6.7 -117.4 4.05 -115.95 2.55 -106.75 -7 -98.1 -12.75 -88.45 -19.25 -74.95 -23.35 -66.5 -25.9 -50 -29.1 -45.25 -30.1 -45.45 -35.2 -45.55 -37.25 -46.8 -38.45 -48.2 -39.75 -50.5 -39.3 -67.45 -36.1 -76.4 -33.45 -90.45 -29.35 -100.65 -22.95Z"/><path fill="#FFF" stroke="none" d="M39.5 45.45Q39.1 38.9 36.45 35.1 35.2 33.2 33.2 32.95 31.35 32.75 29.7 33.9 25.6 36.65 28.2 40.75 30.25 43.65 30 50.45 29.9 54.2 29.05 60.5 28.25 66.75 27.4 70.65 26.2 76.1 24.25 80.3 14.75 100.35 7.9 111.2 3.65 117.9 -.75 123.2 1.55 112.8 1.1 101.75 .2 79.95 -11.2 61.45 -12.35 59.5 -14.35 59.25 -16.15 58.95 -17.85 60.05 -19.55 61.2 -20.05 62.95 -20.65 64.95 -19.4 66.9 -9.7 82.55 -10.15 103.7 -10.6 123.5 -19.65 141.55 -21.3 144.95 -18.5 147.5 -15.7 150.1 -12.55 148.05 -5.05 142.95 2.95 133.4 9.6 125.5 15.4 116.1 23.45 103.25 26.05 98.7 31.85 88.55 34.95 80.3 38.25 71.5 39.2 56.45 39.7 48.45 39.5 45.45Z"/><path fill="#FFF" stroke="none" d="M3.6 -17.3Q2.4 -17.2 .35 -15.45 -.05 -13.9 -1.85 -12.55 -24.45 2.65 -44.2 23.85 -64.3 45.45 -77.3 68.85 -79.1 72.05 -76.1 74.8 -73.15 77.6 -70.05 75.35 -50.35 60.75 -29.5 37.7 -13.4 19.8 5.15 -5.25 7.35 -6.25 8 -7.1 10.65 -8.3 10.15 -10.3 11.15 -12.1 9.25 -13.75 9.2 -14.3 8.6 -14.65 7.85 -15 7.45 -15.2 7 -15.8 6.85 -15.95 6 -16.7 5.45 -16.95 4.75 -17.3 3.6 -17.3M-34.5 27.85Q-33.1 26.35 -31.65 24.9 -33 26.5 -34.25 27.9 -39 33.35 -43.7 38.3 -39.3 32.95 -34.5 27.85Z"/><path fill="#FFF" stroke="none" d="M102.7 -100.8Q93.05 -111.3 83.75 -118.3 72.9 -126.5 61.45 -130.95 59.3 -131.9 57.3 -131.1 55.5 -130.4 54.5 -128.6 53.55 -126.85 54 -125.1 54.55 -123.2 56.7 -122.3 74.55 -115.2 91.05 -98.55 100.75 -88.95 104.65 -83.45 111.3 -74 111.4 -64.85 111.45 -62.6 113.05 -61.35 114.45 -60.2 116.5 -60.3 118.55 -60.4 119.95 -61.7 121.5 -63.1 121.5 -65.35 121.45 -75 115.55 -84.75 111.65 -91.2 102.7 -100.8Z"/><path fill="#FFF" stroke="none" d="M67.4 -81.9Q56.65 -86.2 45.7 -83.6 34.2 -80.9 27.15 -71.55 19.2 -60.9 20.8 -49.55 22.4 -38.15 32.95 -30.8 44.95 -22.5 55.2 -21.7 67.7 -20.75 75.9 -31.3 83.95 -41.9 83.25 -56.05 82.6 -69.65 74.35 -80.55 72.95 -82.4 70.75 -82.6 69 -82.85 67.4 -81.9M51.5 -74.2Q60.55 -75.15 69.1 -69.9 75.65 -57.2 72.05 -45.65 70.45 -40.4 67.05 -36.8 63.3 -32.75 58.35 -32.05 54.25 -31.5 49.45 -33.3 45.95 -34.65 41.3 -37.55 33.3 -42.45 31.6 -49.8 29.8 -57.4 35.5 -65.2 41.15 -73.05 51.5 -74.2Z"/></g><g display="none" id="Layer60_0_FILL"><path fill="#FFF" stroke="none" d="M137.3 318Q126.6 333.8 123.25 337.2 120.9 339.55 122.5 342.65 124.1 345.7 127.35 345.6 135.2 345.45 148.5 337.8 159.75 331.3 166.8 324.7 172.15 319.7 184.05 311.6 185.85 310.4 193.25 305 198.2 301.35 200.5 300.15 200.7 300.05 200.95 299.95L200.95 299.9Q201.45 299.6 201.9 299.35 205.75 297.45 203.7 293.25 201.6 289.1 197.5 290.5 193.05 292.1 190.8 292.7 186.95 293.65 183.8 293.5 181.15 293.35 179 291.65 176.4 289.5 177.15 286.35 177.95 282.95 179.35 279.95 180.3 278.25 181.25 276.5 182.45 274.5 181.8 272.65 181.3 271.35 180.15 270.55 179.65 270.1 179.05 269.8 177.2 268.85 175.35 269.25 173.3 269.7 172.2 271.7 171.05 273.5 170.15 275.45 166.55 282 161.2 288.15 158.2 291.65 152.65 297.2 148.15 302 137.3 318M161.95 311.15Q157.8 315.05 156.9 315.65 162.9 307.6 163.95 306.05 165.85 303.1 168.1 299.45 168.95 301 170.3 302.2 171.3 303.05 172.5 303.65 169.5 305.3 167.05 306.75 165.95 307.4 161.95 311.15Z"/><animate attributeName="display" repeatCount="indefinite" dur="2.5s" keyTimes="0;.983;1" values="none;inline;inline"/></g><g display="none" id="Layer59_0_FILL"><path fill="#FFF" stroke="none" d="M124.2 336.2Q121.85 338.55 123.45 341.65 125.05 344.7 128.3 344.6 136.05 344.45 149 336.9 160.1 330.35 167 324.1 172.3 319.4 183.6 311.7 185.6 310.4 192.8 305.05 197.65 301.4 200.2 300.15 200.55 300 201.1 299.8 201.1 299.75 201.15 299.7 201.6 299.45 202 299.2 205.65 297.4 203.75 293.45 202.05 289.45 198.1 290.5 193.8 291.7 191.45 292.35 187.45 293.4 184.3 293.35 181.4 293.3 179.2 291.65 176.55 289.55 177.35 286.15 178.15 282.75 179.55 279.75 180.5 278.05 181.45 276.3 182.65 274.3 182 272.45 181.5 271.15 180.35 270.35 179.85 269.9 179.25 269.6 177.4 268.65 175.55 269.05 173.5 269.5 172.4 271.5 171.25 273.3 170.35 275.25 166.85 281.55 161.4 288 158.3 291.7 153.05 297.2 148.75 302.2 138.15 317.6 127.85 332.6 124.2 336.2M157.35 315.15Q159.95 311.7 161.55 309.4 163.65 306.55 164.25 305.65 165.7 303.4 167.35 300.75 169.05 300.55 170 301.6 171.5 302.85 172.65 303.45 169.55 305.15 167.35 306.5 166.65 306.95 164.75 308.6 163.7 309.5 162.35 310.75 158.35 314.45 157.35 315.15Z"/><animate attributeName="display" repeatCount="indefinite" dur="2.5s" keyTimes="0;.967;.983;1" values="none;inline;none;none"/></g><g display="none" id="Layer58_0_FILL"><path fill="#FFF" stroke="none" d="M125.1 335.3Q122.75 337.65 124.35 340.75 125.95 343.8 129.2 343.7 136.85 343.55 149.45 336 160.4 329.45 167.1 323.6 172.35 319.1 183.15 311.85 185.3 310.5 192.35 305.15 197.1 301.55 199.8 300.2 200.35 299.95 201.2 299.65 201.25 299.65 201.25 299.6 201.7 299.3 202.1 299.1 205.5 297.4 203.8 293.75 202.5 289.9 198.65 290.55 194.5 291.4 192 292.1 187.95 293.2 184.75 293.2 181.6 293.35 179.4 291.75 176.6 289.7 177.45 286.05 178.25 282.65 179.65 279.65 180.6 277.95 181.55 276.2 182.75 274.2 182.1 272.35 181.6 271.05 180.45 270.25 179.95 269.8 179.35 269.5 177.5 268.55 175.65 268.95 173.6 269.4 172.5 271.4 171.35 273.2 170.45 275.15 167.15 281.2 161.55 287.85 158.3 291.8 153.35 297.3 149.3 302.45 138.9 317.25 129.1 331.45 125.1 335.3M157.75 314.65Q160.25 311.35 161.9 309 163.9 306.25 164.55 305.3 165.95 303.1 167.55 300.5 169.2 300.5 170.2 301.5 171.65 302.75 172.8 303.3 169.8 305 167.6 306.3 166.9 306.75 165.1 308.35 164.05 309.2 162.7 310.4 158.85 313.9 157.75 314.65Z"/><animate attributeName="display" repeatCount="indefinite" dur="2.5s" keyTimes="0;.95;.967;1" values="none;inline;none;none"/></g><g display="none" id="Layer57_0_FILL"><path fill="#FFF" stroke="none" d="M126.05 334.3Q123.7 336.65 125.3 339.75 126.9 342.8 130.15 342.7 137.7 342.55 149.95 335.1 160.75 328.45 167.3 323 172.5 318.8 182.7 311.95 185 310.5 191.9 305.2 196.55 301.6 199.5 300.2 200.25 299.9 201.35 299.5 201.4 299.45 201.45 299.4 201.85 299.15 202.2 298.95 205.4 297.35 203.85 293.95 202.95 290.25 199.25 290.55 195.25 291 192.65 291.75 188.45 292.95 185.25 293.05 181.85 293.3 179.6 291.75 176.75 289.75 177.65 285.85 178.45 282.45 179.85 279.45 180.8 277.75 181.75 276 182.95 274 182.3 272.15 181.8 270.85 180.65 270.05 180.15 269.6 179.55 269.3 177.7 268.35 175.85 268.75 173.8 269.2 172.7 271.2 171.55 273 170.65 274.95 167.45 280.75 161.75 287.7 158.4 291.85 153.75 297.3 149.9 302.65 139.75 316.8 130.35 330.2 126.05 334.3M167.8 300.2Q169.45 300.35 170.4 301.35 171.8 302.55 172.95 303.1 170.05 304.75 167.95 306 167.2 306.5 165.45 308 164.4 308.85 163.1 310 159.35 313.35 158.2 314.15 160.65 310.9 162.25 308.6 164.15 305.95 164.85 304.9 166.25 302.75 167.8 300.2Z"/><animate attributeName="display" repeatCount="indefinite" dur="2.5s" keyTimes="0;.933;.95;1" values="none;inline;none;none"/></g><g display="none" id="Layer56_0_FILL"><path fill="#FFF" stroke="none" d="M126.95 333.3Q124.6 335.65 126.2 338.75 127.8 341.8 131.05 341.7 138.5 341.55 150.45 334.2 161.1 327.5 167.45 322.4 172.55 318.45 182.2 312.05 184.7 310.5 191.45 305.25 196 301.7 199.1 300.25 200.05 299.85 201.5 299.3 201.55 299.3 201.6 299.2 201.95 299 202.3 298.8 205.25 297.35 203.85 294.2 203.35 290.65 199.8 290.55 196 290.6 193.25 291.4 188.9 292.7 185.7 292.9 182.05 293.3 179.75 291.8 176.8 289.85 177.8 285.65 178.6 282.25 180 279.25 180.95 277.55 181.9 275.8 183.1 273.8 182.45 271.95 181.95 270.65 180.8 269.85 180.3 269.4 179.7 269.1 177.85 268.15 176 268.55 173.95 269 172.85 271 171.7 272.8 170.8 274.75 167.75 280.35 161.9 287.55 158.4 291.9 154.1 297.3 150.4 302.85 140.5 316.4 131.6 329 126.95 333.3M168 299.95Q169.65 300.2 170.6 301.15 171.95 302.35 173.05 302.9 170.3 304.5 168.2 305.75 167.4 306.25 165.75 307.65 164.7 308.5 163.45 309.6 159.85 312.8 158.6 313.6 160.95 310.45 162.6 308.15 164.4 305.6 165.15 304.55 166.45 302.4 168 299.95Z"/><animate attributeName="display" repeatCount="indefinite" dur="2.5s" keyTimes="0;.917;.933;1" values="none;inline;none;none"/></g><g display="none" id="Layer55_0_FILL"><path fill="#FFF" stroke="none" d="M127.9 332.25Q125.55 334.6 127.15 337.7 128.75 340.75 132 340.65 139.35 340.55 150.95 333.25 161.45 326.5 167.65 321.75 172.7 318.1 181.8 312.1 184.45 310.45 191 305.25 195.45 301.7 198.8 300.2 199.9 299.75 201.65 299.1 201.7 299.05 201.8 299 202.1 298.8 202.4 298.6 205.15 297.25 203.95 294.35 203.8 290.95 200.4 290.5 196.75 290.15 193.85 291.05 189.45 292.4 186.2 292.65 182.3 293.2 180 291.75 176.95 289.85 178 285.4 178.8 282 180.2 279 181.15 277.3 182.1 275.55 183.3 273.55 182.65 271.7 182.15 270.4 181 269.6 180.5 269.15 179.9 268.85 178.05 267.9 176.2 268.3 174.15 268.75 173.05 270.75 171.9 272.55 171 274.5 168.05 279.85 162.1 287.3 158.5 291.9 154.5 297.25 151 303 141.35 315.95 132.85 327.75 127.9 332.25M168.25 299.6Q169.85 300.05 170.8 300.95 172.15 302.1 173.25 302.65 170.55 304.25 168.5 305.45 167.7 305.95 166.1 307.3 165.1 308.1 163.85 309.15 160.35 312.15 159.05 313.05 161.35 309.95 162.95 307.65 164.7 305.2 165.45 304.1 166.75 302 168.25 299.6Z"/><animate attributeName="display" repeatCount="indefinite" dur="2.5s" keyTimes="0;.9;.917;1" values="none;inline;none;none"/></g><g display="none" id="Layer54_0_FILL"><path fill="#FFF" stroke="none" d="M128.9 331.35Q126.55 333.7 128.15 336.8 129.75 339.85 133 339.75 140.25 339.6 151.5 332.35 161.85 325.6 167.85 321.25 172.85 317.85 181.4 312.25 184.25 310.55 190.65 305.35 194.95 301.85 198.55 300.25 199.8 299.7 201.85 298.95 201.9 298.9 202 298.85 202.3 298.65 202.6 298.5 205.1 297.25 204.05 294.6 204.35 291.35 201.05 290.55 197.55 289.85 194.55 290.75 190 292.2 186.75 292.55 182.6 293.25 180.25 291.85 177.1 290 178.2 285.3 179 281.9 180.4 278.9 181.35 277.2 182.3 275.45 183.5 273.45 182.85 271.6 182.35 270.3 181.2 269.5 180.7 269.05 180.1 268.75 178.25 267.8 176.4 268.2 174.35 268.65 173.25 270.65 172.1 272.45 171.2 274.4 168.4 279.5 162.35 287.2 158.65 292 154.9 297.35 151.65 303.25 142.25 315.6 134.2 326.6 128.9 331.35M171.05 300.85Q172.4 302 173.45 302.5 170.9 304.05 168.85 305.25 168.05 305.75 166.55 307 165.5 307.8 164.3 308.8 160.95 311.65 159.55 312.6 161.75 309.6 163.35 307.25 165.05 304.9 165.8 303.75 167.1 301.7 168.55 299.35 170.15 299.95 171.05 300.85Z"/><animate attributeName="display" repeatCount="indefinite" dur="2.5s" keyTimes="0;.883;.9;1" values="none;inline;none;none"/></g><g display="none" id="Layer53_0_FILL"><path fill="#FFF" stroke="none" d="M129.85 330.35Q127.5 332.7 129.1 335.8 130.7 338.85 133.95 338.75 141.1 338.6 152 331.45 162.2 324.65 168.05 320.65 173 317.5 180.95 312.35 184 310.55 190.2 305.4 194.45 301.9 198.2 300.25 199.65 299.65 202 298.8 202.1 298.75 202.2 298.65 202.45 298.5 202.7 298.35 205 297.2 204.1 294.85 204.8 291.75 201.65 290.55 198.3 289.45 195.2 290.4 190.5 291.95 187.25 292.4 182.85 293.2 180.45 291.85 177.25 290.05 178.4 285.1 179.2 281.7 180.6 278.7 181.55 277 182.5 275.25 183.7 273.25 183.05 271.4 182.55 270.1 181.4 269.3 180.9 268.85 180.3 268.55 178.45 267.6 176.6 268 174.55 268.45 173.45 270.45 172.3 272.25 171.4 274.2 168.75 279.05 162.55 287.05 158.7 292.05 155.3 297.35 152.25 303.45 143.05 315.2 135.45 325.4 129.85 330.35M171.3 300.7Q172.6 301.8 173.6 302.3 171.15 303.8 169.15 305 168.35 305.5 166.9 306.65 165.85 307.45 164.7 308.4 161.45 311.1 160 312.05 162.15 309.15 163.75 306.8 165.35 304.55 166.15 303.35 167.4 301.35 168.8 299.05 170.4 299.8 171.3 300.7Z"/><animate attributeName="display" repeatCount="indefinite" dur="2.5s" keyTimes="0;.867;.883;1" values="none;inline;none;none"/></g><g display="none" id="Layer52_0_FILL"><path fill="#FFF" stroke="none" d="M130.8 329.3Q128.45 331.65 130.05 334.75 131.65 337.8 134.9 337.7 141.85 337.6 152.45 330.5 162.5 323.6 168.2 320 173.05 317.15 180.5 312.35 183.65 310.5 189.75 305.45 193.85 301.95 197.85 300.2 199.5 299.55 202.1 298.55 202.2 298.5 202.35 298.45 202.6 298.3 202.8 298.15 204.85 297.1 204.15 295 205.2 292.05 202.2 290.45 199 289 195.75 290.05 191 291.7 187.65 292.15 183.1 293.15 180.65 291.85 177.3 290.1 178.55 284.85 179.35 281.45 180.75 278.45 181.7 276.75 182.65 275 183.85 273 183.2 271.15 182.7 269.85 181.55 269.05 181.05 268.6 180.45 268.3 178.6 267.35 176.75 267.75 174.7 268.2 173.6 270.2 172.45 272 171.55 273.95 169 278.6 162.7 286.8 158.75 292.05 155.65 297.3 152.8 303.55 143.85 314.7 136.7 324.1 130.8 329.3M171.45 300.5Q172.7 301.55 173.75 302.1 171.4 303.55 169.45 304.65 168.6 305.15 167.2 306.3 166.2 307 165 307.95 161.95 310.45 160.45 311.5 162.45 308.65 164.05 306.35 165.55 304.2 166.4 302.9 167.65 300.95 169.05 298.7 170.55 299.65 171.45 300.5Z"/><animate attributeName="display" repeatCount="indefinite" dur="2.5s" keyTimes="0;.85;.867;1" values="none;inline;none;none"/></g><g display="none" id="Layer51_0_FILL"><path fill="#FFF" stroke="none" d="M131.8 328.35Q129.45 330.7 131.05 333.8 132.65 336.85 135.9 336.75 142.75 336.65 153 329.65 162.9 322.7 168.45 319.45 173.25 316.85 180.1 312.5 183.45 310.55 189.35 305.55 193.4 302.05 197.55 300.25 199.4 299.55 202.3 298.45 202.45 298.4 202.6 298.3 202.8 298.2 202.95 298.05 204.8 297.1 204.25 295.3 205.7 292.5 202.85 290.5 199.8 288.65 196.45 289.75 191.55 291.5 188.2 292.05 183.4 293.15 180.9 291.9 177.5 290.2 178.8 284.7 179.6 281.3 181 278.3 181.95 276.6 182.9 274.85 184.1 272.85 183.45 271 182.95 269.7 181.8 268.9 181.3 268.45 180.7 268.15 178.85 267.2 177 267.6 174.95 268.05 173.85 270.05 172.7 271.85 171.8 273.8 169.4 278.2 162.95 286.7 158.85 292.15 156.1 297.35 153.45 303.8 144.7 314.35 138 322.95 131.8 328.35M173.95 301.95Q171.7 303.35 169.8 304.45 168.95 304.95 167.6 306 166.6 306.7 165.45 307.6 162.5 309.95 160.95 311 162.9 308.25 164.5 305.95 165.9 303.9 166.8 302.55 168 300.65 169.35 298.45 170.85 299.55 171.75 300.4 172.95 301.4 173.95 301.95Z"/><animate attributeName="display" repeatCount="indefinite" dur="2.5s" keyTimes="0;.833;.85;1" values="none;inline;none;none"/></g><g display="none" id="Layer50_0_FILL"><path fill="#FFF" stroke="none" d="M132.7 327.4Q130.35 329.75 131.95 332.85 133.55 335.9 136.8 335.8 143.55 335.65 153.45 328.7 163.2 321.75 168.55 318.9 173.3 316.55 179.6 312.6 183.15 310.6 188.9 305.6 192.8 302.15 197.2 300.25 199.2 299.45 202.4 298.25 202.55 298.2 202.7 298.1 202.9 298 203.05 297.9 204.65 297.05 204.25 295.5 206.15 292.85 203.4 290.5 200.5 288.3 197.05 289.4 192 291.25 188.65 291.9 183.6 293.15 181.05 291.95 177.55 290.3 178.9 284.55 179.7 281.15 181.1 278.15 182.05 276.45 183 274.7 184.2 272.7 183.55 270.85 183.05 269.55 181.9 268.75 181.4 268.3 180.8 268 178.95 267.05 177.1 267.45 175.05 267.9 173.95 269.9 172.8 271.7 171.9 273.65 169.65 277.8 163.1 286.55 158.9 292.2 156.4 297.4 154 304 145.5 313.95 139.25 321.75 132.7 327.4M174.05 301.75Q171.95 303.1 170.05 304.2 169.2 304.7 167.95 305.65 166.9 306.35 165.8 307.2 163 309.4 161.35 310.5 163.2 307.85 164.8 305.5 166.15 303.55 167.05 302.15 168.25 300.3 169.55 298.15 171.05 299.4 171.9 300.25 173.1 301.25 174.05 301.75Z"/><animate attributeName="display" repeatCount="indefinite" dur="2.5s" keyTimes="0;.817;.833;1" values="none;inline;none;none"/></g><g display="none" id="Layer49_0_FILL"><path fill="#FFF" stroke="none" d="M133.65 326.35Q131.3 328.7 132.9 331.8 134.5 334.85 137.75 334.75 144.4 334.65 153.95 327.75 163.55 320.75 168.75 318.25 173.45 316.2 179.2 312.65 182.9 310.55 188.45 305.6 192.25 302.15 196.9 300.2 199.05 299.35 202.55 298.05 202.7 297.95 202.9 297.9 203.05 297.8 203.15 297.7 204.55 296.95 204.35 295.65 206.6 293.15 204 290.45 201.25 287.85 197.65 289.05 192.55 290.95 189.15 291.65 183.85 293.05 181.3 291.9 177.7 290.3 179.1 284.3 179.9 280.9 181.3 277.9 182.25 276.2 183.2 274.45 184.4 272.45 183.75 270.6 183.25 269.3 182.1 268.5 181.6 268.05 181 267.75 179.15 266.8 177.3 267.2 175.25 267.65 174.15 269.65 173 271.45 172.1 273.4 169.95 277.3 163.3 286.3 159 292.2 156.8 297.35 154.6 304.15 146.35 313.5 140.5 320.5 133.65 326.35M168.3 305.3Q167.3 305.95 166.2 306.75 163.5 308.75 161.8 309.95 163.6 307.35 165.15 305 166.45 303.15 167.35 301.7 168.55 299.9 169.8 297.8 171.25 299.25 172.1 300.05 173.3 301 174.25 301.5 172.2 302.85 170.35 303.9 169.5 304.4 168.3 305.3Z"/><animate attributeName="display" repeatCount="indefinite" dur="2.5s" keyTimes="0;.8;.817;1" values="none;inline;none;none"/></g><g display="none" id="Layer48_0_FILL"><path fill="#FFF" stroke="none" d="M134.65 325.4Q132.3 327.75 133.9 330.85 135.5 333.9 138.75 333.8 145.3 333.7 154.55 326.9 164 319.85 169 317.7 173.6 315.9 178.8 312.8 182.7 310.6 188.1 305.7 191.8 302.3 196.6 300.3 198.95 299.35 202.8 297.9 202.95 297.85 203.15 297.75 203.25 297.7 203.35 297.6 204.5 297 204.45 295.95 207.1 293.6 204.65 290.5 202.1 287.5 198.35 288.75 193.1 290.75 189.7 291.55 184.15 293.1 181.55 292 177.85 290.45 179.35 284.15 180.15 280.75 181.55 277.75 182.5 276.05 183.45 274.3 184.65 272.3 184 270.45 183.5 269.15 182.35 268.35 181.85 267.9 181.25 267.6 179.4 266.65 177.55 267.05 175.5 267.5 174.4 269.5 173.25 271.3 172.35 273.25 170.35 276.95 163.55 286.2 159.1 292.3 157.25 297.4 155.2 304.4 147.2 313.15 141.85 319.35 134.65 325.4M172.4 299.9Q173.55 300.85 174.45 301.35 172.55 302.65 170.7 303.7 169.8 304.2 168.7 305 167.7 305.65 166.65 306.4 164.1 308.25 162.3 309.45 164 306.95 165.6 304.6 166.8 302.85 167.75 301.4 168.85 299.6 170.1 297.6 171.55 299.15 172.4 299.9Z"/><animate attributeName="display" repeatCount="indefinite" dur="2.5s" keyTimes="0;.783;.8;1" values="none;inline;none;none"/></g><g display="none" id="Layer47_0_FILL"><path fill="#FFF" stroke="none" d="M135.55 324.4Q133.2 326.75 134.8 329.85 136.4 332.9 139.65 332.8 146.1 332.7 155 326 164.3 318.85 169.15 317.1 173.7 315.6 178.3 312.9 182.35 310.6 187.6 305.75 191.2 302.35 196.25 300.3 198.8 299.3 202.9 297.75 203.05 297.65 203.3 297.55 203.35 297.55 203.4 297.45 204.35 296.95 204.45 296.15 207.5 293.95 205.2 290.5 202.8 287.1 198.95 288.4 193.55 290.5 190.15 291.4 184.35 293.05 181.7 292 177.95 290.5 179.5 283.95 180.3 280.55 181.7 277.55 182.65 275.85 183.6 274.1 184.8 272.1 184.15 270.25 183.65 268.95 182.5 268.15 182 267.7 181.4 267.4 179.55 266.45 177.7 266.85 175.65 267.3 174.55 269.3 173.4 271.1 172.5 273.05 170.6 276.5 163.7 286.05 159.15 292.35 157.6 297.4 155.75 304.6 148 312.7 143.05 318.1 135.55 324.4M172.55 299.75Q173.65 300.65 174.55 301.15 172.75 302.4 171 303.4 170.05 303.95 169 304.65 168 305.3 167 306 164.55 307.7 162.7 308.95 164.35 306.5 165.9 304.2 167 302.55 168 301 169.1 299.25 170.3 297.3 171.75 299 172.55 299.75Z"/><animate attributeName="display" repeatCount="indefinite" dur="2.5s" keyTimes="0;.767;.783;1" values="none;inline;none;none"/></g><g display="none" id="Layer46_0_FILL"><path fill="#FFF" stroke="none" d="M136.55 323.4Q134.2 325.75 135.8 328.85 137.4 331.9 140.65 331.8 147 331.7 155.55 325 164.7 317.85 169.35 316.5 173.85 315.2 177.95 312.95 182.15 310.6 187.25 305.75 190.75 302.4 195.95 300.25 198.7 299.15 203.1 297.5 203.3 297.45 203.5 297.35 203.55 297.3 203.6 297.25 204.3 296.85 204.6 296.35 208.05 294.3 205.85 290.45 203.6 286.7 199.6 288.05 194.15 290.2 190.7 291.15 184.65 293 182 292 178.1 290.55 179.7 283.75 180.5 280.35 181.9 277.35 182.85 275.65 183.8 273.9 185 271.9 184.35 270.05 183.85 268.75 182.7 267.95 182.2 267.5 181.6 267.2 179.75 266.25 177.9 266.65 175.85 267.1 174.75 269.1 173.6 270.9 172.7 272.85 171 276.05 163.95 285.8 159.25 292.35 158 297.4 156.4 304.75 148.85 312.25 144.4 316.85 136.55 323.4M167.45 305.55Q165.15 307.05 163.2 308.35 164.75 306.05 166.35 303.7 167.35 302.15 168.4 300.55 169.45 298.85 170.6 296.95 172 298.85 172.85 299.55 173.9 300.45 174.8 300.9 173.1 302.15 171.35 303.1 170.4 303.65 169.45 304.3 168.45 304.9 167.45 305.55Z"/><animate attributeName="display" repeatCount="indefinite" dur="2.5s" keyTimes="0;.75;.767;1" values="none;inline;none;none"/></g><g display="none" id="Layer45_0_FILL"><path fill="#FFF" stroke="none" d="M158.35 297.45Q156.95 305 149.65 311.9 145.6 315.7 137.45 322.45 135.1 324.8 136.7 327.9 138.3 330.95 141.55 330.85 147.8 330.75 156 324.15 165 316.95 169.5 315.95 173.95 314.95 177.45 313.1 181.85 310.65 186.75 305.85 190.15 302.5 195.6 300.3 198.5 299.15 203.2 297.4 203.4 297.3 203.65 297.2L203.65 297.15Q204.15 296.85 204.6 296.6 208.45 294.7 206.4 290.5 204.3 286.35 200.2 287.75 194.6 290 191.15 291.05 184.85 293 182.15 292.05 178.2 290.65 179.85 283.6 180.65 280.2 182.05 277.2 183 275.5 183.95 273.75 185.15 271.75 184.5 269.9 184 268.6 182.85 267.8 182.35 267.35 181.75 267.05 179.9 266.1 178.05 266.5 176 266.95 174.9 268.95 173.75 270.75 172.85 272.7 171.25 275.65 164.1 285.7 159.3 292.45 158.35 297.45M173 299.45Q174 300.3 175.2 300.9 172.2 302.55 169.75 304 166.45 305.95 163.6 307.9 165.1 305.65 166.65 303.3 168.55 300.35 170.8 296.7 171.65 298.25 173 299.45Z"/><animate attributeName="display" repeatCount="indefinite" dur="2.5s" keyTimes="0;.733;.75;1" values="none;inline;none;none"/></g><g display="none" id="Layer44_0_FILL"><path fill="#FFF" stroke="none" d="M149.35 311.95Q149 312.3 148.65 312.65 144.4 316.8 136.45 323.45 136.2 323.7 136 323.95 134.2 326.15 135.7 328.95 137.15 331.7 139.9 331.85 140.25 331.9 140.6 331.9 146.9 331.8 155.25 325.3 156.3 324.5 157.35 323.75 164.85 318.15 168.85 317 171.65 316.25 174 315.2 175.4 314.6 176.65 313.9 179.9 311.95 183.5 308.85 184.75 307.75 186 306.5 188.55 304.15 191.95 302.4 193.4 301.7 195 301 197.6 299.95 201.5 298.35 202.05 298.15 202.6 297.9 202.85 297.8 203.1 297.7L203.1 297.65Q203.55 297.35 204 297.1 206.5 295.75 206.6 293.85 206.65 293.6 206.65 293.3 206.65 293.25 206.65 293.2 206.65 292.8 206.6 292.45 206.45 291.8 206.2 291.05 205 288.4 202.8 287.85 201.7 287.55 200.3 288 198.2 288.7 196.35 289.4 193.35 290.5 191.2 291.15 190.75 291.3 190.3 291.45 186.45 292.55 184.05 292.5 182.95 292.45 182.1 292.15 180.8 291.7 180.05 290.65 178.8 288.85 179.35 285.45 179.5 284.6 179.7 283.65 180.2 281.55 180.9 279.6 181.4 278.35 181.95 277.2 182.15 276.85 182.35 276.5 183.15 275.15 183.8 273.7 183.9 273.55 184 273.4 184.55 272.15 184.4 270.95 184.35 270.45 184.1 269.9 183.55 268.65 182.35 267.9 182.1 267.7 181.85 267.55 181.55 267.35 181.25 267.25 179.8 266.55 178.35 266.8 178 266.8 177.6 266.9 175.95 267.35 174.95 268.8 174.75 269.1 174.5 269.45 173.35 271.3 172.45 273.25 171.25 275.35 167.65 280.4 165.8 283.05 163.45 286.3 162.3 287.9 161.4 289.3 158.45 294.2 157.55 298.1 155.9 305.35 149.35 311.95M172.75 299.6Q173.85 300.5 174.7 300.95 173 302.2 171.25 303.2 170.35 303.7 169.35 304.35 168.35 305 167.4 305.65 165.05 307.15 163.1 308.45 164.7 306.1 166.25 303.75 167.3 302.2 168.3 300.6 169.4 298.9 170.55 297 171.95 298.9 172.75 299.6Z"/><animate attributeName="display" repeatCount="indefinite" dur="2.5s" keyTimes="0;.717;.733;1" values="none;inline;none;none"/></g><g display="none" id="Layer43_0_FILL"><path fill="#FFF" stroke="none" d="M148.4 312.65Q148.05 313.05 147.7 313.4 143.3 317.9 135.55 324.5 135.3 324.75 135.05 325 133.25 327.15 134.7 330 136.2 332.75 138.95 332.9 139.3 332.95 139.65 332.95 146.1 332.8 154.55 326.5 155.6 325.65 156.65 324.95 164.2 319.45 168.25 318.1 171 317.25 173.35 316.1 174.65 315.45 175.95 314.65 179.15 312.6 182.75 309.5 184.05 308.4 185.35 307.2 187.95 304.8 191.35 303.1 192.85 302.4 194.45 301.75 197.1 300.65 200.95 298.95 201.55 298.7 202.1 298.45 202.3 298.3 202.55 298.2L202.55 298.15Q203.05 297.85 203.45 297.6 206 296.15 206.2 294.35 206.2 294.1 206.25 293.85 206.25 293.8 206.25 293.75 206.3 293.35 206.25 292.95 206.2 292.35 206 291.65 205.1 289.05 202.9 288.3 201.8 287.9 200.45 288.2 198.35 288.75 196.45 289.5 193.4 290.6 191.25 291.25 190.8 291.4 190.35 291.55 186.5 292.65 184.05 292.55 182.95 292.5 182.1 292.2 180.8 291.75 180 290.7 178.65 288.9 179.2 285.55 179.35 284.65 179.6 283.7 180.1 281.6 180.85 279.6 181.35 278.4 181.9 277.2 182.1 276.85 182.3 276.5 183.1 275.1 183.7 273.65 183.75 273.5 183.85 273.35 184.35 272.1 184.15 270.95 184 270.4 183.75 269.9 183.1 268.65 181.9 268 181.65 267.85 181.4 267.65 181.05 267.5 180.75 267.4 179.3 266.85 177.95 267.15 177.55 267.2 177.2 267.35 175.6 267.85 174.6 269.35 174.4 269.65 174.2 270 173.05 271.8 172.05 273.8 170.8 276 167.15 281 165.15 283.7 162.85 286.9 161.65 288.5 160.8 289.9 157.8 294.8 156.75 298.7 154.9 306 148.4 312.65M172.6 299.8Q173.7 300.7 174.6 301.15 172.75 302.45 171 303.45 170.05 304 169 304.7 168 305.35 167 306.05 164.55 307.75 162.7 309 164.35 306.6 165.9 304.25 167.05 302.6 168 301.05 169.1 299.3 170.3 297.35 171.75 299.05 172.6 299.8Z"/><animate attributeName="display" repeatCount="indefinite" dur="2.5s" keyTimes="0;.7;.717;1" values="none;inline;none;none"/></g><g display="none" id="Layer42_0_FILL"><path fill="#FFF" stroke="none" d="M147.35 313.4Q147 313.8 146.65 314.15 142.05 319 134.5 325.5 134.25 325.75 134.05 326 132.15 328.2 133.65 331.05 135.15 333.85 137.95 334 138.3 334 138.65 334 145.15 333.85 153.7 327.65 154.8 326.85 155.9 326.15 163.45 320.75 167.55 319.15 170.3 318.2 172.55 316.95 173.85 316.25 175.1 315.45 178.3 313.3 181.95 310.2 183.25 309.05 184.55 307.85 187.3 305.45 190.7 303.85 192.2 303.15 193.85 302.45 196.5 301.3 200.3 299.5 200.9 299.25 201.45 298.95 201.7 298.85 201.95 298.7L201.95 298.65Q202.4 298.35 202.8 298.1 205.45 296.5 205.65 294.8 205.7 294.6 205.75 294.35 205.75 294.3 205.75 294.25 205.85 293.85 205.85 293.5 205.85 292.9 205.75 292.2 205.05 289.65 202.95 288.7 201.85 288.2 200.55 288.45 198.45 288.85 196.5 289.55 193.4 290.7 191.25 291.35 190.8 291.5 190.35 291.65 186.5 292.7 184 292.65 182.9 292.6 182.05 292.3 180.7 291.85 179.9 290.8 178.4 288.95 179 285.6 179.15 284.7 179.35 283.75 179.9 281.6 180.65 279.65 181.2 278.4 181.75 277.25 181.95 276.85 182.15 276.5 183 275.1 183.5 273.6 183.55 273.45 183.65 273.3 184.05 272.05 183.75 270.9 183.6 270.4 183.3 269.9 182.6 268.7 181.35 268.1 181.1 267.95 180.85 267.8 180.5 267.65 180.2 267.6 178.75 267.1 177.4 267.55 177.05 267.6 176.7 267.75 175.15 268.35 174.2 269.85 174 270.15 173.75 270.5 172.6 272.35 171.6 274.35 170.2 276.65 166.6 281.55 164.45 284.35 162.15 287.5 160.9 289.15 160.05 290.55 157.1 295.4 155.9 299.35 153.75 306.7 147.35 313.4M172.3 299.95Q173.45 300.9 174.35 301.4 172.4 302.7 170.6 303.75 169.7 304.25 168.6 305.05 167.55 305.75 166.55 306.5 163.9 308.35 162.15 309.55 163.9 307.05 165.45 304.7 166.65 302.95 167.6 301.45 168.75 299.65 170 297.65 171.45 299.2 172.3 299.95Z"/><animate attributeName="display" repeatCount="indefinite" dur="2.5s" keyTimes="0;.683;.7;1" values="none;inline;none;none"/></g><g display="none" id="Layer41_0_FILL"><path fill="#FFF" stroke="none" d="M161.55 288.05Q160.25 289.8 159.4 291.15 156.5 295.95 155.15 300 152.7 307.35 146.4 314.15 146.05 314.5 145.7 314.9 140.95 320.1 133.55 326.5 133.3 326.8 133.1 327.05 131.15 329.25 132.65 332.15 134.15 334.95 137 335.05 137.4 335.1 137.75 335.1 144.3 334.9 153 328.8 154.1 328.05 155.2 327.3 162.8 322.1 166.95 320.25 169.65 319.15 171.85 317.85 173.15 317.05 174.35 316.2 177.5 313.95 181.2 310.85 182.55 309.7 183.9 308.5 186.75 306.1 190.15 304.55 191.65 303.85 193.3 303.15 196.05 302 199.8 300.1 200.35 299.75 200.95 299.45 201.15 299.35 201.4 299.2 201.85 298.85 202.3 298.6 205 296.85 205.25 295.3 205.3 295.1 205.35 294.85 205.35 294.8 205.35 294.75 205.45 294.4 205.55 294.05 205.65 293.45 205.55 292.75 205.1 290.3 203.05 289.1 202 288.55 200.7 288.7 198.65 288.9 196.65 289.65 193.5 290.8 191.35 291.45 190.85 291.6 190.45 291.75 186.6 292.8 184 292.75 182.9 292.7 182.05 292.35 180.7 291.9 179.85 290.9 178.3 289 178.85 285.7 179.05 284.8 179.25 283.8 179.8 281.65 180.6 279.7 181.1 278.45 181.75 277.25 181.95 276.9 182.15 276.5 182.95 275.05 183.4 273.55 183.45 273.4 183.5 273.25 183.8 271.95 183.45 270.9 183.3 270.35 182.95 269.9 182.2 268.75 180.95 268.2 180.65 268.05 180.35 267.95 180.05 267.85 179.75 267.75 178.25 267.4 176.95 267.95 176.6 268.05 176.25 268.2 174.8 268.9 173.85 270.35 173.65 270.7 173.45 271.05 172.3 272.9 171.2 274.9 169.7 277.35 166.1 282.1 163.85 285 161.55 288.05M167.35 301.9Q168.5 300.05 169.75 297.95 171.25 299.3 172.1 300.1 173.3 301.1 174.25 301.6 172.2 302.95 170.3 304 169.45 304.55 168.25 305.45 167.25 306.1 166.15 306.9 163.4 309 161.7 310.15 163.55 307.5 165.1 305.2 166.4 303.3 167.35 301.9Z"/><animate attributeName="display" repeatCount="indefinite" dur="2.5s" keyTimes="0;.667;.683;1" values="none;inline;none;none"/></g><g display="none" id="Layer40_0_FILL"><path fill="#FFF" stroke="none" d="M160.9 288.65Q159.55 290.4 158.75 291.75 155.85 296.55 154.3 300.65 151.65 308.05 145.4 314.85 145.05 315.25 144.7 315.65 139.75 321.2 132.55 327.55 132.3 327.8 132.1 328.05 130.15 330.3 131.65 333.2 133.15 336 136.05 336.1 136.4 336.15 136.8 336.15 143.4 335.95 152.25 330 153.35 329.25 154.45 328.5 162.1 323.4 166.3 321.3 168.95 320.1 171.1 318.7 172.35 317.9 173.55 317 176.7 314.6 180.4 311.5 181.8 310.35 183.15 309.2 186.1 306.75 189.55 305.25 191.05 304.6 192.7 303.85 195.5 302.65 199.2 300.65 199.8 300.3 200.35 300 200.55 299.85 200.8 299.7 201.25 299.35 201.7 299.1 204.5 297.2 204.75 295.8 204.85 295.6 204.9 295.35L204.9 295.3Q205.05 294.95 205.15 294.6 205.35 294 205.3 293.3 205.1 290.95 203.1 289.55 202.1 288.85 200.8 288.9 198.8 289 196.7 289.75 193.55 290.9 191.35 291.55 190.9 291.7 190.45 291.85 186.6 292.9 183.95 292.8 182.85 292.75 182 292.45 180.65 292 179.75 290.95 178.1 289.05 178.65 285.75 178.85 284.85 179.1 283.85 179.65 281.7 180.45 279.7 181 278.5 181.65 277.25 181.85 276.9 182.05 276.5 182.9 275 183.25 273.5 183.3 273.35 183.3 273.2 183.55 271.9 183.1 270.85 182.9 270.35 182.55 269.9 181.7 268.8 180.45 268.3 180.15 268.2 179.85 268.1 179.55 268 179.2 267.95 177.75 267.7 176.5 268.3 176.15 268.45 175.8 268.65 174.4 269.4 173.45 270.85 173.25 271.2 173.05 271.6 171.9 273.45 170.8 275.45 169.2 278 165.55 282.7 163.15 285.65 160.9 288.65M167 302.3Q168.2 300.45 169.5 298.25 171 299.45 171.85 300.3 173.1 301.3 174.05 301.8 171.9 303.2 170 304.3 169.15 304.8 167.85 305.8 166.85 306.5 165.7 307.35 162.85 309.6 161.2 310.7 163.15 308 164.7 305.65 166.1 303.65 167 302.3Z"/><animate attributeName="display" repeatCount="indefinite" dur="2.5s" keyTimes="0;.65;.667;1" values="none;inline;none;none"/></g><g display="none" id="Layer39_0_FILL"><path fill="#FFF" stroke="none" d="M160.25 289.25Q158.85 291.05 158.05 292.35 155.15 297.15 153.5 301.25 150.55 308.7 144.4 315.6 144.05 316 143.7 316.4 138.6 322.3 131.6 328.55 131.35 328.85 131.1 329.1 129.1 331.3 130.6 334.25 132.15 337.1 135.05 337.15 135.45 337.2 135.8 337.2 142.55 336.95 151.5 331.15 152.6 330.4 153.75 329.7 161.4 324.7 165.65 322.4 168.3 321.1 170.4 319.6 171.6 318.7 172.8 317.75 175.9 315.25 179.65 312.15 181.05 311 182.45 309.85 185.5 307.4 188.9 305.95 190.45 305.3 192.1 304.6 194.95 303.35 198.6 301.25 199.2 300.85 199.8 300.5 200 300.35 200.25 300.2 200.7 299.85 201.1 299.6 203.95 297.6 204.3 296.3 204.35 296.1 204.45 295.9 204.45 295.85 204.45 295.8 204.65 295.45 204.8 295.1 205.05 294.55 205.1 293.9 205.15 291.55 203.15 289.95 202.15 289.2 200.9 289.15 198.9 289.05 196.8 289.85 193.55 291 191.4 291.65 190.9 291.8 190.5 291.95 186.65 293 183.95 292.9 182.85 292.85 181.95 292.5 180.6 292.05 179.65 291.05 177.9 289.1 178.5 285.85 178.7 284.9 178.95 283.9 179.5 281.75 180.35 279.75 180.9 278.5 181.55 277.25 181.75 276.9 181.95 276.5 182.8 275 183.1 273.45 183.1 273.3 183.15 273.15 183.3 271.85 182.8 270.85 182.55 270.3 182.15 269.9 181.25 268.8 179.95 268.4 179.65 268.3 179.35 268.2 179 268.15 178.7 268.1 177.2 267.95 176 268.7 175.65 268.85 175.35 269.05 174 269.9 173.1 271.4 172.9 271.75 172.7 272.1 171.55 273.95 170.35 276 168.65 278.65 165 283.25 162.5 286.3 160.25 289.25M169.2 298.6Q170.75 299.6 171.65 300.45 172.9 301.5 173.9 302 171.6 303.45 169.65 304.55 168.8 305.1 167.45 306.15 166.45 306.85 165.3 307.75 162.3 310.2 160.75 311.25 162.75 308.45 164.3 306.15 165.8 304.05 166.65 302.75 167.85 300.8 169.2 298.6Z"/><animate attributeName="display" repeatCount="indefinite" dur="2.5s" keyTimes="0;.633;.65;1" values="none;inline;none;none"/></g><g display="none" id="Layer38_0_FILL"><path fill="#FFF" stroke="none" d="M159.55 289.85Q158.15 291.7 157.35 293 154.45 297.75 152.65 301.9 149.45 309.4 143.4 316.35 143.05 316.75 142.7 317.15 137.35 323.4 130.55 329.6 130.3 329.85 130.1 330.1 128.05 332.35 129.55 335.3 131.1 338.2 134.05 338.25 134.45 338.25 134.8 338.25 141.6 338 150.7 332.35 151.85 331.6 153 330.9 160.65 326 164.95 323.45 167.6 322.05 169.6 320.45 170.8 319.55 171.95 318.55 175.05 315.95 178.85 312.85 180.25 311.65 181.65 310.55 184.85 308.05 188.25 306.7 189.85 306.05 191.5 305.3 194.35 304 197.95 301.8 198.6 301.4 199.15 301.05 199.4 300.9 199.65 300.75L199.65 300.7Q200.05 300.4 200.45 300.1 203.4 297.95 203.75 296.8 203.85 296.6 204 296.4L204 296.35Q204.2 296 204.4 295.65 204.7 295.1 204.85 294.45 205.1 292.2 203.2 290.4 202.2 289.5 201 289.4 199 289.15 196.85 289.95 193.55 291.15 191.4 291.8 190.9 291.95 190.5 292.05 186.65 293.1 183.9 293 182.8 292.95 181.9 292.6 180.5 292.15 179.55 291.15 177.65 289.2 178.3 285.9 178.5 284.95 178.75 283.95 179.35 281.8 180.15 279.8 180.75 278.55 181.4 277.3 181.6 276.9 181.8 276.55 182.7 275 182.9 273.45 182.9 273.25 182.95 273.1 183 271.8 182.4 270.8 182.15 270.3 181.75 269.9 180.75 268.85 179.4 268.5 179.1 268.45 178.8 268.35 178.45 268.3 178.15 268.3 176.65 268.25 175.5 269.1 175.15 269.25 174.85 269.5 173.55 270.4 172.7 271.9 172.5 272.25 172.25 272.65 171.1 274.5 169.9 276.55 168.1 279.3 164.45 283.85 161.8 287 159.55 289.85M166.25 303.15Q167.5 301.2 168.9 298.9 170.45 299.75 171.35 300.65 172.65 301.7 173.65 302.25 171.25 303.7 169.3 304.85 168.45 305.35 167.05 306.5 166 307.25 164.85 308.2 161.7 310.8 160.2 311.8 162.3 308.95 163.9 306.6 165.45 304.4 166.25 303.15Z"/><animate attributeName="display" repeatCount="indefinite" dur="2.5s" keyTimes="0;.617;.633;1" values="none;inline;none;none"/></g><g display="none" id="Layer37_0_FILL"><path fill="#FFF" stroke="none" d="M158.9 290.45Q157.45 292.3 156.65 293.6 153.8 298.35 151.8 302.55 148.35 310.1 142.4 317.05 142.05 317.5 141.7 317.9 136.15 324.5 129.55 330.6 129.3 330.85 129.1 331.1 127 333.4 128.55 336.35 130.1 339.25 133.1 339.3 133.45 339.3 133.85 339.3 140.7 339.05 149.9 333.5 151.1 332.8 152.25 332.1 159.95 327.3 164.3 324.5 166.9 323 168.85 321.3 170 320.35 171.15 319.35 174.25 316.6 178.05 313.5 179.5 312.3 180.9 311.2 184.2 308.7 187.65 307.4 189.25 306.8 190.9 306 193.8 304.65 197.35 302.35 198 301.95 198.55 301.55 198.8 301.4 199.05 301.25L199.05 301.2Q199.45 300.9 199.85 300.6 202.9 298.3 203.25 297.25 203.4 297.1 203.55 296.9L203.55 296.85Q203.8 296.5 204 296.2 204.4 295.65 204.6 295 205.1 292.8 203.25 290.8 202.3 289.8 201.1 289.6 199.15 289.25 196.9 290 193.6 291.25 191.4 291.9 190.95 292.05 190.5 292.15 186.65 293.15 183.85 293.05 182.75 293 181.85 292.7 180.45 292.25 179.45 291.2 177.45 289.25 178.1 285.95 178.3 285 178.55 284 179.2 281.8 180 279.8 180.65 278.55 181.3 277.3 181.5 276.9 181.7 276.55 182.65 274.95 182.7 273.4 182.75 273.2 182.75 273 182.75 271.75 182.05 270.75 181.75 270.3 181.35 269.85 180.25 268.9 178.9 268.6 178.6 268.55 178.3 268.5 177.95 268.45 177.6 268.5 176.15 268.5 175 269.45 174.7 269.65 174.4 269.9 173.15 270.9 172.3 272.4 172.1 272.75 171.85 273.15 170.7 275.05 169.5 277.05 167.55 279.95 163.9 284.4 161.1 287.65 158.9 290.45M165.9 303.55Q167.2 301.55 168.65 299.2 170.2 299.9 171.1 300.8 172.4 301.9 173.45 302.45 170.95 303.95 168.95 305.15 168.15 305.6 166.65 306.85 165.6 307.65 164.4 308.65 161.1 311.4 159.7 312.35 161.85 309.4 163.5 307.05 165.1 304.75 165.9 303.55Z"/><animate attributeName="display" repeatCount="indefinite" dur="2.5s" keyTimes="0;.6;.617;1" values="none;inline;none;none"/></g><g display="none" id="Layer36_0_FILL"><path fill="#FFF" stroke="none" d="M158.3 291Q156.8 292.9 156 294.15 153.15 298.9 151.05 303.1 147.3 310.7 141.45 317.75 141.1 318.2 140.75 318.6 135.05 325.55 128.65 331.55 128.4 331.85 128.15 332.1 126 334.35 127.55 337.35 129.15 340.3 132.15 340.3 132.55 340.3 132.9 340.3 139.9 340 149.2 334.6 150.4 333.9 151.6 333.25 159.3 328.55 163.7 325.55 166.3 323.95 168.2 322.15 169.3 321.1 170.45 320.05 173.5 317.2 177.35 314.1 178.8 312.9 180.25 311.8 183.65 309.3 187.05 308.05 188.7 307.45 190.35 306.7 193.3 305.3 196.8 302.9 197.45 302.45 198.05 302 198.3 301.85 198.55 301.7L198.55 301.65Q198.95 301.35 199.3 301.05 202.4 298.65 202.85 297.7 202.95 297.55 203.15 297.4 203.15 297.35 203.15 297.3 203.45 296.95 203.7 296.65 204.15 296.15 204.45 295.55 205.2 293.35 203.35 291.15 202.4 290.1 201.25 289.8 199.3 289.25 197.05 290.05 193.65 291.3 191.5 291.95 191 292.1 190.6 292.2 186.75 293.2 183.9 293.1 182.8 293.05 181.85 292.7 180.45 292.25 179.4 291.25 177.3 289.25 178 286 178.2 285 178.45 284 179.1 281.8 179.95 279.8 180.6 278.5 181.25 277.25 181.45 276.85 181.65 276.5 182.6 274.9 182.6 273.3 182.6 273.1 182.65 272.9 182.55 271.65 181.8 270.7 181.45 270.2 181 269.8 179.85 268.85 178.45 268.65 178.15 268.6 177.85 268.55 177.45 268.55 177.15 268.6 175.65 268.7 174.55 269.8 174.25 270 174 270.25 172.8 271.35 172 272.9 171.8 273.25 171.55 273.6 170.4 275.5 169.1 277.55 167.05 280.55 163.4 284.9 160.5 288.25 158.3 291M168.4 299.5Q170 300 170.95 300.9 172.25 302.05 173.35 302.6 170.7 304.15 168.65 305.35 167.85 305.85 166.3 307.15 165.25 307.95 164.05 309 160.6 311.95 159.3 312.85 161.5 309.8 163.15 307.5 164.85 305.1 165.6 303.95 166.9 301.85 168.4 299.5Z"/><animate attributeName="display" repeatCount="indefinite" dur="2.5s" keyTimes="0;.583;.6;1" values="none;inline;none;none"/></g><g display="none" id="Layer35_0_FILL"><path fill="#FFF" stroke="none" d="M157.6 291.65Q156.05 293.55 155.3 294.8 152.45 299.55 150.15 303.8 146.2 311.45 140.4 318.5 140.05 319 139.7 319.4 133.8 326.7 127.6 332.65 127.35 332.9 127.1 333.15 124.95 335.45 126.5 338.45 128.1 341.4 131.15 341.4 131.5 341.4 131.9 341.4 138.95 341.1 148.4 335.85 149.6 335.15 150.8 334.5 158.55 329.9 163 326.65 165.55 324.95 167.4 323.05 168.45 322 169.6 320.9 172.65 317.9 176.5 314.8 178 313.6 179.45 312.55 182.95 310 186.4 308.8 188.05 308.25 189.7 307.45 192.7 306 196.15 303.5 196.85 303.05 197.4 302.6 197.65 302.4 197.9 302.25L197.9 302.2Q198.3 301.9 198.65 301.6 201.85 299.05 202.3 298.25 202.45 298.1 202.65 297.95L202.65 297.9Q203 297.55 203.25 297.25 203.8 296.75 204.15 296.15 205.15 294.05 203.35 291.65 202.45 290.45 201.3 290.05 199.4 289.4 197.05 290.2 193.65 291.45 191.45 292.1 191 292.25 190.55 292.35 186.7 293.35 183.8 293.2 182.7 293.15 181.75 292.85 180.35 292.4 179.25 291.35 177.05 289.35 177.75 286.1 177.95 285.1 178.25 284.1 178.9 281.9 179.75 279.85 180.45 278.6 181.1 277.3 181.3 276.9 181.5 276.55 182.5 274.9 182.4 273.3 182.4 273.1 182.4 272.9 182.25 271.65 181.4 270.7 181 270.25 180.55 269.85 179.3 268.95 177.9 268.8 177.6 268.8 177.3 268.75 176.9 268.75 176.55 268.85 175.1 269.05 174.05 270.2 173.75 270.45 173.5 270.75 172.35 271.9 171.55 273.45 171.35 273.8 171.1 274.2 169.95 276.1 168.65 278.15 166.5 281.25 162.8 285.55 159.75 288.95 157.6 291.65M165.2 304.4Q166.55 302.3 168.1 299.85 169.7 300.2 170.65 301.15 172 302.3 173.1 302.85 170.35 304.45 168.3 305.7 167.5 306.15 165.85 307.55 164.8 308.4 163.55 309.5 160 312.6 158.75 313.45 161.05 310.35 162.7 308 164.5 305.5 165.2 304.4Z"/><animate attributeName="display" repeatCount="indefinite" dur="2.5s" keyTimes="0;.567;.583;1" values="none;inline;none;none"/></g><g display="none" id="Layer34_0_FILL"><path fill="#FFF" stroke="none" d="M157 292.15Q155.4 294.15 154.65 295.35 151.85 300.05 149.4 304.4 145.15 312.05 139.45 319.2 139.1 319.65 138.75 320.1 132.7 327.75 126.65 333.6 126.4 333.9 126.15 334.15 123.95 336.45 125.5 339.5 127.1 342.45 130.2 342.4 130.6 342.45 131 342.45 138.1 342.1 147.7 336.95 148.9 336.3 150.1 335.6 157.9 331.2 162.4 327.7 164.9 325.85 166.7 323.9 167.75 322.75 168.85 321.6 171.85 318.5 175.75 315.4 177.3 314.2 178.8 313.15 182.4 310.6 185.85 309.45 187.5 308.9 189.15 308.1 192.25 306.65 195.65 304.05 196.3 303.5 196.9 303.05 197.1 302.85 197.35 302.7 197.75 302.35 198.15 302.05 201.4 299.35 201.9 298.7 202.05 298.55 202.25 298.4L202.25 298.35Q202.6 298.05 202.95 297.75 203.6 297.25 203.95 296.65 205.2 294.65 203.45 292 202.6 290.75 201.45 290.25 199.6 289.4 197.2 290.25 193.75 291.5 191.55 292.15 191.05 292.3 190.65 292.4 186.8 293.4 183.8 293.25 182.7 293.2 181.75 292.85 180.35 292.4 179.2 291.4 176.95 289.35 177.6 286.15 177.85 285.15 178.15 284.1 178.8 281.9 179.7 279.85 180.35 278.6 181.1 277.25 181.3 276.9 181.5 276.5 182.45 274.8 182.3 273.2 182.3 273 182.25 272.8 182 271.5 181.1 270.65 180.7 270.15 180.2 269.8 178.9 268.95 177.5 268.85 177.15 268.85 176.8 268.85 176.45 268.9 176.1 268.95 174.6 269.3 173.6 270.55 173.3 270.85 173.05 271.15 172 272.4 171.2 273.9 171 274.3 170.8 274.7 169.65 276.6 168.25 278.65 166 281.9 162.3 286.05 159.15 289.55 157 292.15M162.35 308.45Q164.25 305.8 164.95 304.8 166.3 302.65 167.85 300.1 169.5 300.25 170.45 301.25 171.85 302.45 173 303 170.15 304.65 168 305.9 167.25 306.4 165.5 307.9 164.5 308.7 163.15 309.85 159.5 313.2 158.3 314 160.7 310.75 162.35 308.45Z"/><animate attributeName="display" repeatCount="indefinite" dur="2.5s" keyTimes="0;.55;.567;1" values="none;inline;none;none"/></g><g display="none" id="Layer33_0_FILL"><path fill="#FFF" stroke="none" d="M156.35 292.8Q154.7 294.85 153.95 296.05 151.2 300.7 148.6 305.1 144.05 312.8 138.45 320 138.1 320.45 137.75 320.9 131.5 328.9 125.65 334.65 125.4 334.95 125.2 335.2 122.9 337.55 124.5 340.6 126.1 343.6 129.25 343.55 129.65 343.55 130.05 343.55 137.2 343.2 146.9 338.15 148.15 337.55 149.4 336.85 157.2 332.55 161.75 328.8 164.25 326.85 165.95 324.8 167 323.6 168.05 322.45 171.05 319.25 175 316.15 176.55 314.9 178.05 313.85 181.8 311.3 185.25 310.25 186.9 309.7 188.6 308.85 191.7 307.35 195.05 304.65 195.7 304.1 196.3 303.6 196.55 303.45 196.8 303.25 197.15 302.9 197.55 302.6 200.9 299.75 201.4 299.2 201.6 299.1 201.8 298.95L201.8 298.9Q202.2 298.6 202.6 298.35 203.3 297.85 203.75 297.25 205.2 295.3 203.55 292.45 202.7 291.1 201.6 290.55 199.75 289.55 197.3 290.35 193.8 291.65 191.6 292.3 191.1 292.45 190.7 292.55 186.85 293.5 183.8 293.4 182.7 293.35 181.75 293 180.3 292.55 179.15 291.55 176.75 289.45 177.45 286.25 177.7 285.25 177.95 284.2 178.65 281.95 179.55 279.95 180.25 278.65 181 277.35 181.2 276.95 181.4 276.55 182.4 274.85 182.15 273.2 182.15 273 182.1 272.8 181.75 271.5 180.75 270.65 180.35 270.2 179.8 269.85 178.45 269.05 177 269 176.65 269 176.3 269.05 175.95 269.1 175.6 269.2 174.1 269.6 173.1 271 172.85 271.3 172.6 271.6 171.6 272.95 170.85 274.45 170.65 274.85 170.4 275.25 169.25 277.2 167.85 279.25 165.45 282.6 161.8 286.65 158.5 290.25 156.35 292.8M157.8 314.6Q160.3 311.25 161.95 308.95 163.9 306.2 164.6 305.25 166 303.05 167.6 300.45 169.25 300.45 170.2 301.45 171.65 302.7 172.8 303.3 169.85 304.95 167.65 306.25 166.95 306.7 165.15 308.3 164.1 309.15 162.75 310.35 158.9 313.85 157.8 314.6Z"/><animate attributeName="display" repeatCount="indefinite" dur="2.5s" keyTimes="0;.533;.55;1" values="none;inline;none;none"/></g><g display="none" id="Layer32_0_FILL"><path fill="#FFF" stroke="none" d="M155.65 293.4Q153.95 295.45 153.25 296.65 150.45 301.3 147.7 305.7 142.95 313.45 137.4 320.7 137.05 321.2 136.7 321.65 130.3 330 124.65 335.7 124.4 336 124.15 336.25 121.85 338.55 123.4 341.65 125.05 344.65 128.2 344.6 128.6 344.6 129 344.6 136.3 344.2 146.1 339.35 147.35 338.7 148.6 338.05 156.45 333.85 161.05 329.9 163.5 327.85 165.2 325.7 166.15 324.45 167.25 323.2 170.2 319.9 174.15 316.8 175.75 315.55 177.3 314.55 181.1 311.95 184.55 310.95 186.25 310.4 187.95 309.6 191.1 308.05 194.4 305.25 195.1 304.65 195.7 304.15 195.9 303.95 196.15 303.75 196.55 303.4 196.9 303.1 200.3 300.15 200.9 299.7 201.05 299.6 201.3 299.5L201.3 299.45Q201.75 299.15 202.15 298.85 202.95 298.4 203.45 297.85 205.2 295.95 203.55 292.9 202.7 291.45 201.65 290.75 199.8 289.6 197.3 290.45 193.75 291.75 191.55 292.4 191.05 292.55 190.65 292.65 186.8 293.6 183.7 293.45 182.6 293.4 181.65 293.05 180.2 292.6 179 291.6 176.5 289.5 177.2 286.35 177.45 285.3 177.75 284.25 178.45 282 179.4 279.95 180.1 278.7 180.85 277.35 181.05 276.95 181.25 276.55 182.25 274.8 181.95 273.15 181.9 272.95 181.85 272.75 181.45 271.45 180.4 270.65 179.9 270.15 179.35 269.85 177.9 269.05 176.45 269.1 176.1 269.15 175.75 269.15 175.35 269.25 175 269.35 173.5 269.9 172.6 271.35 172.3 271.7 172.1 272.05 171.15 273.45 170.4 275 170.2 275.4 170 275.8 168.85 277.7 167.35 279.8 164.9 283.25 161.2 287.25 157.75 290.9 155.65 293.4M157.3 315.15Q159.85 311.75 161.5 309.45 163.55 306.6 164.2 305.7 165.6 303.45 167.25 300.8 168.95 300.6 169.95 301.65 171.4 302.9 172.6 303.5 169.5 305.2 167.3 306.5 166.55 307 164.7 308.65 163.65 309.5 162.25 310.75 158.3 314.45 157.3 315.15Z"/><animate attributeName="display" repeatCount="indefinite" dur="2.5s" keyTimes="0;.517;.533;1" values="none;inline;none;none"/></g><g display="none" id="Layer31_0_FILL"><path fill="#FFF" stroke="none" d="M136.5 321.45Q129.15 331.25 123.25 337.25 120.9 339.6 122.5 342.7 124.1 345.75 127.35 345.65 135.9 345.5 148 339.25 159.9 333.05 164.55 326.55 168.05 321.7 173.5 317.45 179.25 313 184.05 311.65 188.9 310.25 193.9 305.8 199.7 300.6 200.5 300.2 200.7 300.1 200.95 300L200.95 299.95Q201.45 299.65 201.9 299.4 205.75 297.5 203.7 293.3 201.6 289.15 197.5 290.55 193.05 292.15 190.8 292.75 186.95 293.7 183.8 293.55 181.15 293.4 179 291.7 176.4 289.55 177.15 286.4 177.95 283 179.35 280 180.3 278.3 181.25 276.55 182.45 274.55 181.8 272.7 181.3 271.4 180.15 270.6 179.65 270.15 179.05 269.85 177.2 268.9 175.35 269.3 173.3 269.75 172.2 271.75 171.05 273.55 170.15 275.5 167.05 281.2 160.75 287.8 154.15 294.7 152.65 297.25 145.1 309.95 136.5 321.45M161.95 311.2Q157.8 315.1 156.9 315.7 162.9 307.65 163.95 306.1 165.85 303.15 168.1 299.5 168.95 301.05 170.3 302.25 171.3 303.1 172.5 303.7 169.5 305.35 167.05 306.8 165.95 307.45 161.95 311.2Z"/><animate attributeName="display" repeatCount="indefinite" dur="2.5s" keyTimes="0;.5;.517;1" values="none;inline;none;none"/></g><g display="none" id="Layer30_0_FILL"><path fill="#FFF" stroke="none" d="M161.05 287.5Q154.65 294.3 153.1 296.95 150.25 301.75 147.3 306.35 142.35 313.85 137.05 320.95 130.15 330.1 124.5 336 124.2 336.3 123.9 336.6 121.6 338.95 123.2 342.05 124.8 345.05 128 344.95 128.55 345 129.05 344.95 136.4 344.5 146.15 339.7 147.3 339.1 148.45 338.5 156.65 334.1 161.35 329.8 163.45 327.9 164.85 325.9 168.4 321.2 173.85 317.05 176 315.45 178 314.25 181.35 312.2 184.35 311.3 189.2 309.8 194.15 305.5 195.2 304.65 196.05 303.85 196.3 303.65 196.55 303.45 197 303.05 197.4 302.7 200.1 300.35 200.65 300 200.85 299.9 201.1 299.8L201.1 299.75Q201.6 299.45 202 299.2 203.35 298.4 203.85 297.35 204.75 295.6 203.45 293.15 202.3 291 200.6 290.45 199.1 290 197.25 290.65 192.8 292.25 190.6 292.8 186.75 293.75 183.65 293.65 182.25 293.55 180.95 293.05 179.85 292.6 178.9 291.8 176.35 289.7 177.05 286.55 177.35 285.25 177.75 284 178.4 282.05 179.2 280.2 180.1 278.65 181 277.05 181.05 276.9 181.1 276.75 182.25 274.8 181.7 272.95 181.65 272.85 181.6 272.75 181.2 271.6 180.2 270.85 179.75 270.4 179.15 270.1 178.9 269.9 178.6 269.8 177.1 269.1 175.6 269.4 174.85 269.5 174.2 269.85 173.15 270.45 172.4 271.6 172 272.15 171.65 272.8 170.9 273.95 170.25 275.2 169.9 275.8 169.55 276.45 168.3 278.5 166.75 280.65 164.35 283.95 161.05 287.5M157.2 315.4L157.1 315.4Q159.65 311.95 161.35 309.65 163.4 306.8 164 305.9 165.5 303.65 167.15 300.95 168.85 300.9 169.95 302 171.25 303.1 172.4 303.7 169.25 305.45 167.1 306.75 166.4 307.15 164.5 308.85 163.45 309.8 162.05 311.05 158.15 314.7 157.2 315.4Z"/><animate attributeName="display" repeatCount="indefinite" dur="2.5s" keyTimes="0;.483;.5;1" values="none;inline;none;none"/></g><g display="none" id="Layer29_0_FILL"><path fill="#FFF" stroke="none" d="M161.3 287.2Q155.2 293.85 153.55 296.6 150.7 301.45 147.8 305.95 142.9 313.45 137.65 320.45 130.8 329.5 125.15 335.4 124.85 335.7 124.55 336 122.3 338.3 123.9 341.35 125.5 344.35 128.65 344.3 129.15 344.3 129.7 344.25 137 343.85 146.65 339 147.75 338.4 148.85 337.8 157 333.3 161.65 329.05 163.7 327.2 165.2 325.3 168.8 320.7 174.2 316.65 176.35 315.05 178.35 313.9 181.65 311.85 184.6 310.95 189.55 309.4 194.4 305.25 195.4 304.4 196.25 303.65 196.5 303.4 196.75 303.2 197.2 302.85 197.6 302.5 200.3 300.25 200.85 299.85 201.05 299.7 201.25 299.6L201.25 299.55Q201.7 299.25 202.1 298.95 203.35 298.15 203.8 297.1 204.55 295.35 203.25 293 202.05 290.95 200.3 290.5 198.85 290.1 197 290.7 192.55 292.3 190.45 292.9L190.4 292.9Q186.55 293.85 183.5 293.7 182.1 293.65 180.85 293.15 179.75 292.7 178.8 291.95 176.3 289.85 177 286.7 177.25 285.45 177.65 284.2 178.25 282.2 179.1 280.4 179.95 278.85 180.8 277.25 180.85 277.15 180.9 277 182.05 275.05 181.6 273.25 181.55 273.15 181.5 273.05 181.15 271.9 180.25 271.1 179.85 270.65 179.3 270.3 179 270.15 178.75 270 177.35 269.3 175.85 269.5 175.1 269.55 174.45 269.9 173.4 270.35 172.65 271.45 172.2 272 171.8 272.55 171.05 273.65 170.4 274.9 170 275.5 169.65 276.15 168.45 278.15 166.9 280.35 164.5 283.65 161.3 287.2M157.35 315.1L157.3 315.1Q159.8 311.7 161.45 309.4 163.4 306.7 164.05 305.75 165.5 303.5 167.15 300.9 168.8 300.95 169.9 302 171.15 303.1 172.35 303.7 169.35 305.4 167.15 306.7 166.4 307.15 164.55 308.75 163.5 309.65 162.2 310.85 158.35 314.4 157.35 315.1Z"/><animate attributeName="display" repeatCount="indefinite" dur="2.5s" keyTimes="0;.467;.483;1" values="none;inline;none;none"/></g><g display="none" id="Layer28_0_FILL"><path fill="#FFF" stroke="none" d="M161.7 286.85Q155.8 293.45 154.1 296.3 151.25 301.1 148.35 305.55 143.5 313 138.3 319.95 131.55 328.85 125.9 334.75 125.6 335.05 125.3 335.35 123.1 337.65 124.65 340.7 126.25 343.65 129.35 343.6 129.9 343.65 130.4 343.6 137.7 343.2 147.2 338.25 148.3 337.65 149.4 337.05 157.45 332.45 162.05 328.35 164.1 326.55 165.6 324.65 169.25 320.25 174.7 316.2 176.75 314.7 178.75 313.5 182.05 311.55 185 310.6 189.95 308.95 194.7 304.95 195.75 304.15 196.6 303.4 196.85 303.2 197.1 303 197.55 302.6 197.95 302.3 200.55 300.1 201.1 299.65 201.3 299.55 201.5 299.4L201.5 299.35Q201.95 299 202.3 298.75 203.45 297.9 203.8 296.85 204.4 295.05 203.1 292.8 201.9 290.85 200.15 290.5 198.65 290.15 196.85 290.8 192.4 292.4 190.35 292.95L190.3 292.95Q186.5 293.9 183.45 293.8 182.05 293.7 180.8 293.25 179.7 292.8 178.8 292.05 176.35 290 177 286.85 177.25 285.6 177.65 284.35 178.25 282.4 179.05 280.55 179.85 279.05 180.75 277.5 180.8 277.35 180.85 277.2 181.95 275.3 181.6 273.5 181.55 273.4 181.55 273.3 181.25 272.15 180.4 271.35 180 270.9 179.5 270.55 179.25 270.35 179 270.2 177.65 269.45 176.15 269.6 175.45 269.6 174.8 269.9 173.75 270.3 172.95 271.3 172.5 271.8 172.1 272.35 171.25 273.4 170.6 274.6 170.25 275.2 169.9 275.85 168.65 277.85 167.2 280 164.8 283.35 161.7 286.85M157.65 314.8L157.55 314.8Q160 311.5 161.65 309.2 163.55 306.55 164.25 305.55 165.65 303.4 167.25 300.8 168.9 301 169.95 302.05 171.2 303.1 172.35 303.7 169.5 305.3 167.25 306.65 166.55 307.1 164.75 308.65 163.7 309.55 162.4 310.7 158.6 314.1 157.65 314.8Z"/><animate attributeName="display" repeatCount="indefinite" dur="2.5s" keyTimes="0;.45;.467;1" values="none;inline;none;none"/></g><g display="none" id="Layer27_0_FILL"><path fill="#FFF" stroke="none" d="M125.4 340Q127 342.95 130.05 342.95 130.55 342.95 131.1 342.9 138.35 342.55 147.7 337.55 148.8 336.95 149.85 336.3 157.85 331.6 162.4 327.6 164.4 325.85 165.95 324.05 169.65 319.75 175.1 315.8 177.15 314.35 179.15 313.15 182.45 311.2 185.3 310.25 190.3 308.5 195 304.7 196.05 303.9 196.9 303.2 197.1 302.95 197.35 302.8 197.85 302.4 198.25 302.1 200.8 300 201.35 299.5 201.5 299.35 201.7 299.2L201.7 299.15Q202.1 298.8 202.45 298.5 203.5 297.7 203.8 296.6 204.25 294.75 202.95 292.65 201.7 290.8 199.9 290.55 198.45 290.25 196.7 290.85 192.2 292.45 190.2 293 186.35 294 183.35 293.9 181.95 293.8 180.7 293.35 179.65 292.95 178.75 292.2 176.35 290.2 176.95 287 177.2 285.8 177.6 284.55 178.2 282.6 178.95 280.75 179.75 279.25 180.6 277.7 180.65 277.55 180.7 277.45 181.8 275.55 181.55 273.75 181.5 273.65 181.5 273.55 181.3 272.45 180.5 271.6 180.15 271.15 179.7 270.75 179.45 270.6 179.2 270.45 177.9 269.6 176.45 269.7 175.75 269.7 175.15 269.9 174.05 270.25 173.25 271.15 172.75 271.6 172.35 272.15 171.45 273.1 170.75 274.35 170.4 274.9 170.05 275.55 168.8 277.55 167.4 279.7 165.05 283.05 162 286.55 156.35 293 154.6 296 151.75 300.75 148.9 305.2 144.1 312.6 138.9 319.45 132.3 328.2 126.6 334.1 126.3 334.4 126.05 334.7 123.85 337 125.4 340M157.8 314.5Q160.15 311.3 161.85 308.95 163.65 306.45 164.35 305.4 165.75 303.25 167.3 300.7 168.9 301.05 170 302.1 171.2 303.15 172.3 303.7 169.65 305.25 167.35 306.65 166.6 307.05 164.9 308.55 163.85 309.4 162.6 310.5 158.85 313.8 157.9 314.5L157.8 314.5Z"/><animate attributeName="display" repeatCount="indefinite" dur="2.5s" keyTimes="0;.433;.45;1" values="none;inline;none;none"/></g><g display="none" id="Layer26_0_FILL"><path fill="#FFF" stroke="none" d="M126.75 334.05Q124.6 336.35 126.15 339.35 127.7 342.25 130.75 342.25 131.25 342.3 131.75 342.25 139 341.9 148.2 336.85 149.3 336.2 150.35 335.55 158.25 330.75 162.75 326.9 164.75 325.2 166.3 323.4 170.05 319.25 175.5 315.4 177.55 313.95 179.55 312.8 182.8 310.9 185.65 309.9 190.65 308.1 195.3 304.4 196.3 303.65 197.15 302.95 197.4 302.75 197.65 302.55 198.1 302.2 198.5 301.85 201 299.9 201.55 299.3 201.75 299.15 201.9 299 201.9 298.95 201.9 298.9 202.3 298.6 202.55 298.3 203.55 297.45 203.75 296.3 204.1 294.5 202.75 292.5 201.5 290.75 199.7 290.55 198.2 290.35 196.5 290.95 192 292.55 190.05 293.1 186.2 294.05 183.25 293.95 181.85 293.9 180.65 293.45 179.55 293.05 178.65 292.3 176.35 290.35 176.95 287.15 177.15 285.95 177.5 284.7 178.1 282.75 178.9 280.95 179.65 279.4 180.5 277.9 180.55 277.8 180.6 277.65 181.65 275.8 181.5 274.05 181.45 273.95 181.45 273.85 181.3 272.7 180.6 271.85 180.3 271.35 179.85 271 179.6 270.8 179.4 270.65 178.15 269.8 176.75 269.75 176.05 269.75 175.45 269.9 174.35 270.15 173.5 271 173 271.4 172.55 271.9 171.65 272.85 170.95 274.05 170.55 274.6 170.2 275.25 169 277.2 167.6 279.35 165.25 282.75 162.35 286.25 156.9 292.6 155.1 295.65 152.25 300.45 149.45 304.8 144.65 312.15 139.55 318.9 133 327.6 127.3 333.45 127 333.75 126.75 334.05M158.1 314.2L158.05 314.2Q160.35 311.05 162 308.75 163.7 306.3 164.45 305.2 165.8 303.1 167.35 300.65 168.95 301.1 170 302.1 171.15 303.15 172.25 303.7 169.75 305.2 167.45 306.6 166.7 307.05 165 308.45 163.95 309.3 162.75 310.35 159.1 313.5 158.1 314.2Z"/><animate attributeName="display" repeatCount="indefinite" dur="2.5s" keyTimes="0;.417;.433;1" values="none;inline;none;none"/></g><g display="none" id="Layer25_0_FILL"><path fill="#FFF" stroke="none" d="M127.45 333.4Q125.35 335.65 126.9 338.6 128.45 341.5 131.45 341.55 131.9 341.55 132.4 341.5 139.65 341.2 148.75 336.1 149.8 335.45 150.8 334.8 158.65 329.9 163.1 326.1 165.05 324.45 166.7 322.75 170.5 318.7 175.9 314.95 177.95 313.55 179.95 312.4 183.15 310.5 185.95 309.5 191.05 307.6 195.6 304.1 196.6 303.35 197.45 302.65 197.65 302.45 197.9 302.3 198.4 301.95 198.8 301.6 201.25 299.75 201.8 299.1 201.95 298.9 202.1 298.75 202.1 298.7 202.1 298.65 202.45 298.35 202.7 298 203.6 297.15 203.75 296 203.95 294.15 202.55 292.3 201.3 290.65 199.45 290.5 197.95 290.4 196.3 290.95 191.8 292.55 189.95 293.1L189.9 293.1Q186.05 294.1 183.15 294 181.75 293.95 180.55 293.5 179.5 293.1 178.6 292.35 176.35 290.45 176.9 287.25 177.1 286.05 177.45 284.85 178.05 282.9 178.8 281.1 179.55 279.55 180.35 278.05 180.4 277.95 180.45 277.85 181.5 276 181.45 274.25 181.4 274.15 181.4 274.05 181.35 272.9 180.7 272.05 180.45 271.55 180 271.15 179.8 270.95 179.6 270.8 178.45 269.9 177.05 269.8 176.35 269.75 175.75 269.9 174.65 270.05 173.8 270.8 173.25 271.2 172.8 271.65 171.85 272.5 171.1 273.7 170.7 274.25 170.35 274.9 169.15 276.85 167.8 278.95 165.5 282.4 162.65 285.9 157.5 292.1 155.6 295.3 152.75 300.05 150 304.35 145.2 311.65 140.15 318.35 133.7 326.9 128 332.8 127.7 333.1 127.45 333.4M158.35 313.85L158.3 313.85Q160.5 310.8 162.15 308.45 163.8 306.1 164.55 304.95 165.9 302.9 167.4 300.5 168.95 301.1 170 302.1 171.15 303.1 172.25 303.65 169.85 305.1 167.55 306.5 166.75 306.95 165.15 308.3 164.1 309.1 162.9 310.1 159.35 313.15 158.35 313.85Z"/><animate attributeName="display" repeatCount="indefinite" dur="2.5s" keyTimes="0;.4;.417;1" values="none;inline;none;none"/></g><g display="none" id="Layer24_0_FILL"><path fill="#FFF" stroke="none" d="M128.15 332.8Q126.1 335.05 127.6 338 129.15 340.85 132.1 340.9 132.6 340.95 133.1 340.9 140.3 340.6 149.25 335.4 150.3 334.75 151.3 334.1 159.05 329.1 163.45 325.45 165.4 323.85 167.05 322.15 170.9 318.25 176.3 314.6 178.35 313.2 180.3 312.1 183.5 310.25 186.3 309.2 191.4 307.2 195.85 303.85 196.85 303.15 197.7 302.5 197.95 302.3 198.2 302.15L198.2 302.1Q198.65 301.75 199.1 301.45 201.45 299.7 202 298.95 202.15 298.75 202.3 298.6 202.3 298.55 202.3 298.5 202.65 298.15 202.85 297.85 203.65 296.95 203.7 295.8 203.8 293.9 202.4 292.15 201.1 290.6 199.25 290.6 197.75 290.5 196.1 291.1 191.6 292.7 189.8 293.2L189.75 293.2Q185.9 294.2 183.05 294.15 181.65 294.1 180.45 293.65 179.4 293.25 178.55 292.55 176.35 290.65 176.85 287.45 177.05 286.3 177.4 285.05 177.95 283.1 178.7 281.3 179.45 279.8 180.25 278.3 180.3 278.2 180.35 278.1 181.35 276.3 181.4 274.55 181.35 274.45 181.35 274.35 181.35 273.25 180.8 272.35 180.55 271.85 180.2 271.45 180 271.25 179.8 271.05 178.7 270.1 177.3 269.95 176.65 269.85 176.05 269.95 174.95 270.05 174.05 270.7 173.5 271.05 173 271.45 172 272.3 171.25 273.45 170.85 274 170.5 274.65 169.3 276.6 168 278.7 165.75 282.15 163 285.65 158.05 291.75 156.1 295 153.25 299.75 150.55 304 145.8 311.3 140.75 317.9 134.4 326.3 128.7 332.2 128.4 332.5 128.15 332.8M158.55 313.6L158.5 313.6Q160.65 310.6 162.3 308.3 163.9 306.05 164.65 304.85 165.95 302.8 167.45 300.45 169 301.2 170 302.15 171.15 303.15 172.2 303.7 170 305.1 167.65 306.5 166.85 306.95 165.25 308.25 164.25 309.05 163.1 310 159.6 312.9 158.55 313.6Z"/><animate attributeName="display" repeatCount="indefinite" dur="2.5s" keyTimes="0;.383;.4;1" values="none;inline;none;none"/></g><g display="none" id="Layer23_0_FILL"><path fill="#FFF" stroke="none" d="M128.8 332.15Q126.8 334.4 128.3 337.3 129.85 340.15 132.75 340.25 133.25 340.25 133.7 340.25 140.95 339.95 149.7 334.7 150.75 334.05 151.75 333.35 159.4 328.25 163.75 324.75 165.65 323.15 167.35 321.55 171.25 317.8 176.7 314.2 178.7 312.85 180.65 311.75 183.8 309.95 186.6 308.85 191.7 306.8 196.1 303.6 197.1 302.9 197.95 302.25 198.2 302.1 198.45 301.95L198.45 301.9Q198.9 301.55 199.35 301.25 201.65 299.6 202.2 298.8 202.35 298.6 202.5 298.4 202.5 298.35 202.5 298.3 202.75 297.95 202.95 297.6 203.65 296.7 203.65 295.55 203.6 293.65 202.15 292 200.85 290.55 199 290.6 197.45 290.6 195.85 291.15 191.4 292.75 189.6 293.3L189.55 293.3Q185.75 294.3 182.9 294.25 181.5 294.2 180.35 293.75 179.3 293.35 178.45 292.65 176.3 290.8 176.8 287.65 176.95 286.45 177.3 285.25 177.85 283.3 178.6 281.5 179.3 280 180.05 278.55 180.1 278.45 180.15 278.35 181.2 276.55 181.3 274.85 181.3 274.75 181.3 274.65 181.35 273.5 180.9 272.6 180.65 272.1 180.3 271.7 180.15 271.45 179.95 271.25 178.9 270.3 177.55 270.05 176.95 269.9 176.3 269.95 175.2 270 174.3 270.6 173.75 270.85 173.2 271.25 172.15 272 171.4 273.15 171 273.7 170.65 274.35 169.45 276.3 168.2 278.35 165.95 281.85 163.3 285.35 158.55 291.3 156.55 294.7 153.75 299.45 151.05 303.6 146.3 310.85 141.35 317.4 135.05 325.7 129.35 331.55 129.05 331.85 128.8 332.15M158.75 313.3L158.7 313.3Q160.8 310.4 162.4 308.1 163.95 305.9 164.75 304.65 166 302.7 167.45 300.4 169 301.3 169.95 302.2 171.1 303.15 172.1 303.7 170.05 305.05 167.7 306.45 166.9 306.95 165.35 308.15 164.35 308.9 163.2 309.8 159.8 312.6 158.75 313.3Z"/><animate attributeName="display" repeatCount="indefinite" dur="2.5s" keyTimes="0;.367;.383;1" values="none;inline;none;none"/></g><g display="none" id="Layer22_0_FILL"><path fill="#FFF" stroke="none" d="M151.6 303.2Q146.9 310.4 142 316.9 135.8 325.05 130.1 330.9 129.8 331.2 129.55 331.5 127.6 333.7 129.1 336.65 130.6 339.45 133.5 339.55 133.95 339.6 134.4 339.55 141.65 339.3 150.25 334 151.25 333.3 152.25 332.6 159.85 327.4 164.1 324 166.05 322.5 167.75 320.9 171.7 317.3 177.15 313.75 179.1 312.5 181.1 311.35 184.2 309.6 186.95 308.5 192.1 306.35 196.45 303.3 197.45 302.6 198.3 302 198.5 301.85 198.75 301.7 199.25 301.35 199.65 301.05 201.9 299.45 202.45 298.6 202.6 298.4 202.75 298.15L202.75 298.1Q203 297.75 203.15 297.4 203.7 296.45 203.65 295.3 203.45 293.35 202 291.85 200.65 290.5 198.8 290.6 197.25 290.7 195.7 291.25 191.25 292.85 189.5 293.35L189.45 293.35Q185.65 294.35 182.85 294.3 181.4 294.25 180.3 293.85 179.25 293.45 178.45 292.75 176.3 290.95 176.8 287.8 176.95 286.6 177.3 285.4 177.85 283.5 178.55 281.7 179.2 280.2 180 278.75 180.05 278.65 180.1 278.55 181.1 276.8 181.25 275.1 181.3 275 181.3 274.9 181.45 273.75 181.05 272.85 180.85 272.35 180.5 271.9 180.35 271.65 180.15 271.45 179.2 270.45 177.9 270.15 177.3 269.95 176.65 269.95 175.55 269.9 174.6 270.45 174.05 270.65 173.5 271.05 172.4 271.75 171.6 272.85 171.2 273.4 170.85 274.05 169.65 275.95 168.45 278 166.2 281.55 163.65 285 159.15 290.9 157.05 294.4 154.3 299.1 151.6 303.2M159.05 313L159 313Q161 310.2 162.6 307.85 164.05 305.75 164.9 304.45 166.15 302.55 167.5 300.3 169.05 301.35 170 302.25 171.1 303.15 172.1 303.7 170.2 304.95 167.8 306.4 167 306.9 165.55 308 164.5 308.8 163.4 309.65 160.05 312.25 159.05 313Z"/><animate attributeName="display" repeatCount="indefinite" dur="2.5s" keyTimes="0;.35;.367;1" values="none;inline;none;none"/></g><g display="none" id="Layer21_0_FILL"><path fill="#FFF" stroke="none" d="M142.6 316.4Q136.5 324.4 130.8 330.3 130.5 330.6 130.25 330.9 128.35 333.05 129.85 335.95 131.3 338.75 134.2 338.85 134.65 338.9 135.1 338.9 142.3 338.65 150.8 333.3 151.75 332.55 152.75 331.9 160.25 326.6 164.45 323.3 166.35 321.8 168.15 320.25 172.15 316.8 177.55 313.35 179.5 312.1 181.5 311 184.55 309.3 187.3 308.15 192.5 305.9 196.75 303 197.7 302.35 198.55 301.8 198.8 301.65 199.05 301.5L199.05 301.45Q199.5 301.15 199.95 300.85 202.1 299.35 202.65 298.4 202.8 298.2 202.95 297.95L202.95 297.9Q203.15 297.55 203.3 297.15 203.75 296.2 203.6 295.05 203.3 293.05 201.85 291.7 200.45 290.45 198.6 290.65 197.05 290.8 195.5 291.3 191.05 292.9 189.4 293.4 189.35 293.4 189.3 293.4 185.5 294.4 182.75 294.4 181.3 294.35 180.2 293.95 179.15 293.55 178.4 292.9 176.3 291.1 176.75 287.95 176.9 286.8 177.25 285.55 177.75 283.65 178.45 281.9 179.1 280.4 179.85 278.95 179.9 278.85 179.95 278.75 180.95 277.05 181.2 275.35 181.25 275.25 181.25 275.15 181.45 274.05 181.15 273.1 181 272.6 180.7 272.15 180.55 271.9 180.35 271.65 179.5 270.6 178.2 270.25 177.6 270 176.95 270 175.85 269.85 174.85 270.3 174.3 270.5 173.7 270.8 172.6 271.45 171.75 272.55 171.35 273.1 171 273.75 169.8 275.65 168.65 277.7 166.45 281.25 164 284.7 159.75 290.45 157.55 294.05 154.8 298.75 152.15 302.8 147.5 310 142.6 316.4M170 302.25Q171.1 303.15 172.1 303.7 170.35 304.9 167.9 306.35 167.1 306.85 165.65 307.9 164.65 308.65 163.6 309.45 160.3 311.95 159.25 312.7 161.15 309.95 162.75 307.65 164.15 305.65 165 304.3 166.2 302.4 167.55 300.2 169.1 301.4 170 302.25Z"/><animate attributeName="display" repeatCount="indefinite" dur="2.5s" keyTimes="0;.333;.35;1" values="none;inline;none;none"/></g><g display="none" id="Layer20_0_FILL"><path fill="#FFF" stroke="none" d="M152.7 302.4Q148.05 309.55 143.2 315.9 137.2 323.75 131.5 329.65 131.2 329.95 130.95 330.25 129.1 332.4 130.55 335.3 132.05 338.05 134.85 338.2 135.3 338.25 135.75 338.2 142.95 338 151.3 332.55 152.25 331.85 153.2 331.15 160.65 325.75 164.8 322.55 166.7 321.15 168.5 319.65 172.55 316.3 177.95 312.95 179.9 311.75 181.85 310.65 184.9 308.95 187.6 307.8 192.85 305.45 197 302.75 198 302.1 198.85 301.55 199.05 301.4 199.3 301.3L199.3 301.25Q199.8 300.9 200.25 300.65 202.35 299.25 202.9 298.25 203 298 203.15 297.75L203.15 297.7Q203.35 297.3 203.45 296.95 203.8 295.95 203.6 294.8 203.15 292.75 201.65 291.5 200.25 290.35 198.35 290.65 196.8 290.85 195.3 291.4 190.85 293 189.25 293.45 189.2 293.45 189.15 293.45 185.35 294.5 182.65 294.5 181.2 294.45 180.1 294.05 179.1 293.65 178.35 293 176.3 291.25 176.7 288.1 176.85 286.95 177.2 285.75 177.7 283.85 178.35 282.05 179 280.6 179.75 279.15 179.8 279.05 179.85 279 180.8 277.3 181.15 275.6 181.2 275.5 181.2 275.4 181.5 274.3 181.25 273.35 181.1 272.85 180.85 272.35 180.75 272.1 180.55 271.85 179.75 270.75 178.45 270.35 177.9 270.05 177.25 270 176.15 269.8 175.15 270.15 174.55 270.3 173.95 270.6 172.75 271.2 171.9 272.25 171.5 272.8 171.15 273.45 169.95 275.35 168.85 277.35 166.7 280.95 164.3 284.4 160.3 290.05 158.05 293.75 155.3 298.4 152.7 302.4M159.5 312.4L159.45 312.4Q161.3 309.75 162.9 307.4 164.25 305.5 165.1 304.1 166.3 302.25 167.6 300.1 169.1 301.45 170 302.3 171.1 303.15 172.05 303.7 170.45 304.85 168 306.3 167.15 306.8 165.8 307.8 164.8 308.55 163.75 309.3 160.55 311.65 159.5 312.4Z"/><animate attributeName="display" repeatCount="indefinite" dur="2.5s" keyTimes="0;.317;.333;1" values="none;inline;none;none"/></g><g display="none" id="Layer19_0_FILL"><path fill="#FFF" stroke="none" d="M153.25 302Q148.65 309.1 143.85 315.35 137.95 323.1 132.2 328.95 131.9 329.25 131.7 329.55 129.85 331.7 131.3 334.55 132.75 337.3 135.55 337.45 136 337.5 136.45 337.5 143.6 337.3 151.8 331.8 152.75 331.05 153.7 330.35 161.05 324.85 165.15 321.8 167 320.4 168.85 318.95 172.95 315.75 178.35 312.5 180.3 311.35 182.25 310.25 185.3 308.6 187.95 307.4 193.2 305 197.3 302.4 198.3 301.8 199.15 301.3 199.35 301.15 199.6 301 200.1 300.65 200.5 300.4 202.55 299.1 203.1 298 203.25 297.75 203.35 297.5L203.35 297.45Q203.5 297.05 203.6 296.65 203.85 295.7 203.55 294.5 203 292.45 201.5 291.3 200.05 290.25 198.15 290.65 196.6 290.9 195.15 291.4 190.65 293 189.1 293.5L189.05 293.5Q185.2 294.5 182.55 294.5 181.1 294.5 180.05 294.1 179 293.75 178.3 293.1 176.3 291.4 176.7 288.2 176.8 287.1 177.15 285.85 177.65 284 178.3 282.2 178.9 280.75 179.6 279.3 179.65 279.25 179.7 279.15 180.65 277.5 181.1 275.85 181.15 275.75 181.15 275.65 181.55 274.55 181.35 273.55 181.25 273.05 181.05 272.55 180.9 272.3 180.75 272.05 180 270.9 178.75 270.4 178.2 270.1 177.6 269.95 176.45 269.65 175.4 269.95 174.8 270.05 174.2 270.35 172.95 270.85 172.1 271.95 171.65 272.45 171.3 273.1 170.15 274.95 169.05 277 166.9 280.6 164.65 284.05 160.85 289.55 158.55 293.4 155.8 298.05 153.25 302M159.75 312.05L159.7 312.05Q161.5 309.5 163.1 307.15 164.3 305.35 165.2 303.9 166.4 302.05 167.65 300 169.15 301.45 170.05 302.3 171.05 303.15 172 303.65 170.6 304.75 168.1 306.25 167.25 306.75 165.95 307.65 164.9 308.35 163.95 309.05 160.8 311.3 159.75 312.05Z"/><animate attributeName="display" repeatCount="indefinite" dur="2.5s" keyTimes="0;.3;.317;1" values="none;inline;none;none"/></g><g display="none" id="Layer18_0_FILL"><path fill="#FFF" stroke="none" d="M144.45 314.85Q138.65 322.5 132.9 328.35 132.6 328.65 132.4 328.95 130.6 331.1 132.05 333.95 133.5 336.65 136.25 336.85 136.65 336.9 137.1 336.85 144.25 336.7 152.3 331.15 153.25 330.4 154.15 329.65 161.45 324.05 165.5 321.1 167.35 319.8 169.2 318.4 173.35 315.3 178.75 312.15 180.7 311 182.65 309.95 185.65 308.3 188.25 307.1 193.55 304.6 197.6 302.2 198.55 301.6 199.4 301.1 199.6 300.95 199.85 300.85L199.85 300.8Q200.35 300.5 200.8 300.2 202.8 299.05 203.35 297.9 203.45 297.6 203.55 297.35 203.55 297.3 203.55 297.25 203.7 296.9 203.7 296.5 203.9 295.5 203.55 294.25 202.85 292.2 201.3 291.2 199.85 290.25 197.9 290.7 196.35 291.05 194.95 291.55 190.45 293.15 188.95 293.6L188.9 293.6Q185.05 294.65 182.45 294.65 181 294.65 179.95 294.25 178.95 293.9 178.2 293.25 176.3 291.6 176.65 288.4 176.75 287.3 177.05 286.1 177.55 284.2 178.2 282.45 178.8 280.95 179.5 279.55 179.55 279.5 179.6 279.45 180.5 277.8 181.05 276.15 181.1 276.05 181.1 275.95 181.55 274.85 181.45 273.85 181.4 273.3 181.2 272.8 181.1 272.55 180.95 272.3 180.25 271.1 179.05 270.5 178.5 270.2 177.9 270 176.75 269.65 175.7 269.85 175.05 269.9 174.4 270.15 173.15 270.65 172.25 271.7 171.8 272.2 171.45 272.85 170.3 274.7 169.25 276.7 167.15 280.35 164.95 283.8 161.4 289.2 159.05 293.1 156.3 297.75 153.8 301.65 149.2 308.7 144.45 314.85M167.7 299.95Q169.15 301.55 170.05 302.35 171.05 303.2 171.95 303.7 170.7 304.75 168.2 306.25 167.3 306.75 166.05 307.6 165.05 308.3 164.1 308.95 161.05 311.05 159.95 311.8 161.65 309.3 163.25 306.95 164.4 305.25 165.3 303.75 166.45 301.95 167.7 299.95Z"/><animate attributeName="display" repeatCount="indefinite" dur="2.5s" keyTimes="0;.283;.3;1" values="none;inline;none;none"/></g><g display="none" id="Layer17_0_FILL"><path fill="#FFF" stroke="none" d="M133.1 328.3Q131.35 330.4 132.8 333.2 134.2 335.9 136.95 336.1 137.35 336.15 137.75 336.15 144.9 336 152.85 330.4 153.75 329.6 154.65 328.9 161.85 323.2 165.85 320.35 167.65 319.05 169.6 317.7 173.8 314.8 179.2 311.65 181.05 310.6 183.05 309.5 186 307.95 188.6 306.7 193.95 304.1 197.9 301.85 198.85 301.3 199.7 300.8 199.9 300.7 200.15 300.6L200.15 300.55Q200.65 300.25 201.1 299.95 203 298.85 203.55 297.65 203.65 297.4 203.75 297.1 203.75 297.05 203.75 297 203.85 296.65 203.85 296.2 203.95 295.2 203.5 293.95 202.65 291.85 201.1 291 199.65 290.15 197.7 290.65 196.1 291.1 194.75 291.55 190.25 293.15 188.85 293.6 188.8 293.6 188.75 293.6 184.95 294.65 182.35 294.7 180.9 294.65 179.85 294.3 178.85 293.95 178.15 293.3 176.3 291.7 176.6 288.5 176.7 287.4 177 286.2 177.5 284.35 178.1 282.6 178.65 281.1 179.35 279.75 179.4 279.65 179.45 279.6 180.35 278 181 276.35 181.05 276.25 181.1 276.15 181.6 275.05 181.55 274.05 181.55 273.5 181.35 273 181.3 272.7 181.15 272.45 180.55 271.2 179.35 270.55 178.8 270.2 178.2 270 177.05 269.55 175.95 269.65 175.3 269.7 174.65 269.9 173.35 270.3 172.4 271.35 172 271.85 171.65 272.5 170.45 274.35 169.5 276.3 167.4 280 165.3 283.4 162 288.7 159.55 292.75 156.8 297.35 154.3 301.2 149.75 308.2 145.05 314.3 139.35 321.8 133.6 327.7 133.3 328 133.1 328.3M167.75 299.8Q169.2 301.55 170.05 302.35 171.05 303.15 171.95 303.65 170.8 304.6 168.25 306.15 167.4 306.65 166.2 307.45 165.2 308.1 164.25 308.7 161.25 310.7 160.2 311.45 161.8 309.05 163.4 306.7 164.5 305.05 165.45 303.5 166.55 301.8 167.75 299.8Z"/><animate attributeName="display" repeatCount="indefinite" dur="2.5s" keyTimes="0;.267;.283;1" values="none;inline;none;none"/></g><g display="none" id="Layer16_0_FILL"><path fill="#FFF" stroke="none" d="M145.7 313.85Q140.05 321.25 134.3 327.1 134 327.4 133.8 327.7 132.1 329.8 133.5 332.6 134.95 335.25 137.6 335.5 138 335.55 138.45 335.5 145.55 335.4 153.35 329.7 154.25 328.95 155.1 328.2 162.25 322.4 166.2 319.65 168 318.45 169.95 317.15 174.2 314.35 179.6 311.3 181.45 310.25 183.4 309.2 186.35 307.65 188.9 306.4 194.3 303.75 198.15 301.65 199.1 301.1 199.95 300.65 200.15 300.5 200.4 300.4L200.4 300.35Q200.9 300.05 201.35 299.8 203.25 298.8 203.8 297.55 203.9 297.25 203.95 296.95 203.95 296.9 203.95 296.85 204.05 296.45 204 296.05 204 295 203.5 293.75 202.5 291.65 200.95 290.85 199.45 290.1 197.45 290.75 195.9 291.2 194.55 291.7 190.05 293.3 188.7 293.75 188.65 293.75 188.6 293.75 184.8 294.8 182.25 294.8 180.8 294.8 179.8 294.45 178.8 294.1 178.1 293.5 176.3 291.9 176.6 288.7 176.65 287.65 176.95 286.45 177.4 284.55 178.05 282.8 178.55 281.35 179.25 280 179.3 279.95 179.35 279.9 180.2 278.3 180.95 276.7 181 276.6 181.05 276.5 181.6 275.4 181.65 274.35 181.65 273.8 181.55 273.25 181.45 273 181.35 272.7 180.8 271.45 179.6 270.7 179.1 270.3 178.5 270.05 177.35 269.5 176.25 269.55 175.55 269.55 174.85 269.7 173.5 270.1 172.6 271.1 172.15 271.6 171.8 272.25 170.65 274.05 169.7 276.05 167.6 279.75 165.6 283.15 162.55 288.35 160.05 292.45 157.3 297.1 154.85 300.85 150.35 307.85 145.7 313.85M167.8 299.8Q169.2 301.65 170.05 302.4 171 303.2 171.9 303.7 170.95 304.6 168.35 306.15 167.45 306.7 166.3 307.4 165.3 308.05 164.45 308.6 161.5 310.45 160.4 311.2 162 308.85 163.55 306.5 164.55 305 165.55 303.4 166.6 301.7 167.8 299.8Z"/><animate attributeName="display" repeatCount="indefinite" dur="2.5s" keyTimes="0;.25;.267;1" values="none;inline;none;none"/></g><g display="none" id="Layer15_0_FILL"><path fill="#FFF" stroke="none" d="M155.35 300.45Q145.4 315.8 134.95 326.45 132.6 328.8 134.2 331.9 135.8 334.95 139.05 334.85 146.15 334.75 153.8 329 162.1 321.9 166.5 318.95 173.35 314.35 183.75 308.85 194.3 303.45 200.2 300.4 200.4 300.3 200.65 300.2L200.65 300.15Q201.15 299.85 201.6 299.6 205.45 297.7 203.4 293.5 201.3 289.35 197.2 290.75 190.05 293.3 188.4 293.8 182.35 295.5 179.65 294.55 175.35 293 176.85 286.6 177.65 283.2 179.05 280.2 180 278.5 180.95 276.75 182.15 274.75 181.5 272.9 181 271.6 179.85 270.8 179.35 270.35 178.75 270.05 176.9 269.1 175.05 269.5 173 269.95 171.9 271.95 170.75 273.75 169.85 275.7 161.45 291.05 155.35 300.45M170 302.45Q171 303.3 172.2 303.9 170.6 304.8 166.4 307.3 162.05 309.95 160.6 310.9 162.1 308.65 163.65 306.3 165.55 303.35 167.8 299.7 168.65 301.25 170 302.45Z"/><animate attributeName="display" repeatCount="indefinite" dur="2.5s" keyTimes="0;.233;.25;1" values="none;inline;none;none"/></g><g display="none" id="Layer14_0_FILL"><path fill="#FFF" stroke="none" d="M146.75 312.2Q140.3 320.85 134.15 327.15 133.85 327.5 133.65 327.8 131.95 329.9 133.35 332.65 134.8 335.35 137.45 335.55 137.85 335.6 138.3 335.6 145.35 335.5 153.2 329.75 154.4 328.7 155.6 327.75 162.25 322.35 166.1 319.7 168.7 317.95 171.65 316.05 176.75 312.9 183.4 309.3 186.05 307.9 188.5 306.65 193.7 303.95 197.85 301.7 198.9 301.15 199.85 300.6 200.05 300.5 200.3 300.4L200.3 300.35Q200.8 300.05 201.25 299.8 203.3 298.75 203.75 297.2 203.8 296.95 203.8 296.7 203.9 296.3 203.9 295.85 203.9 294.95 203.4 293.8 202.45 291.6 200.75 290.85 199.35 290.15 197.45 290.75 195.8 291.25 194.4 291.75 189.9 293.3 188.55 293.75 188.45 293.75 188.3 293.8 184.55 294.8 182.1 294.8 180.7 294.8 179.75 294.45 178.7 294.1 177.95 293.4 176.25 291.8 176.55 288.6 176.65 287.55 176.9 286.4 177.4 284.55 178 282.8 178.5 281.35 179.2 279.95 179.25 279.85 179.3 279.75 180.15 278.2 180.9 276.65 180.95 276.55 181 276.45 181.55 275.4 181.6 274.4 181.6 273.85 181.45 273.35 181.4 273 181.25 272.65 180.7 271.45 179.6 270.8 179.55 270.75 179.5 270.7 179 270.3 178.4 270.05 177.3 269.55 176.25 269.55 175.5 269.55 174.8 269.75 173.5 270.1 172.6 271.1 172.1 271.6 171.7 272.3 170.55 274.15 169.6 276.1 167.65 279.65 165.75 282.9 162.75 288.1 159.85 292.65 157.15 297 154.7 300.8 150.8 306.75 146.75 312.2M163.45 306.55Q164.5 305 165.5 303.4 166.55 301.7 167.75 299.8 169.15 301.65 170 302.4 170.95 303.2 171.85 303.7 170.85 304.6 168.3 306.15 167.4 306.7 166.25 307.4 165.25 308.05 164.35 308.6 161.45 310.5 160.35 311.25 161.9 308.9 163.45 306.55Z"/><animate attributeName="display" repeatCount="indefinite" dur="2.5s" keyTimes="0;.217;.233;1" values="none;inline;none;none"/></g><g display="none" id="Layer13_0_FILL"><path fill="#FFF" stroke="none" d="M146.05 312.65Q139.3 321.75 133.35 327.9 133.05 328.2 132.85 328.5 131.1 330.65 132.5 333.45 133.95 336.15 136.7 336.35 137.1 336.4 137.5 336.4 144.55 336.25 152.6 330.5 153.85 329.5 155.05 328.55 161.7 323.2 165.7 320.5 168.35 318.7 171.3 316.75 176.3 313.55 183 309.8 185.7 308.35 188.15 307 193.1 304.45 197.5 301.95 198.55 301.35 199.5 300.85 199.7 300.7 199.95 300.6L199.95 300.55Q200.45 300.25 200.9 300 202.95 298.95 203.5 297.4 203.55 297.2 203.6 296.95 203.7 296.55 203.75 296.15 203.85 295.25 203.45 294.1 202.65 291.95 201 291.05 199.6 290.25 197.75 290.7 196.1 291.15 194.6 291.65 190.15 293.2 188.75 293.65 188.6 293.7 188.45 293.75 184.75 294.75 182.25 294.7 180.85 294.7 179.85 294.3 178.8 293.95 178.05 293.3 176.25 291.6 176.6 288.4 176.7 287.4 177 286.2 177.45 284.35 178.1 282.55 178.65 281.1 179.35 279.7 179.4 279.6 179.45 279.5 180.35 277.95 180.95 276.35 181 276.25 181.05 276.15 181.5 275.05 181.45 274.1 181.45 273.6 181.25 273.05 181.15 272.75 181.05 272.4 180.4 271.25 179.3 270.65 179.25 270.65 179.2 270.6 178.65 270.25 178.05 270.05 176.95 269.65 175.9 269.75 175.2 269.8 174.5 270 173.25 270.45 172.4 271.45 171.9 271.95 171.5 272.7 170.35 274.55 169.35 276.5 167.35 280.05 165.4 283.3 162.4 288.35 159.3 293 156.65 297.25 154 301.15 150.15 307.05 146.05 312.65M163.3 306.8Q164.4 305.15 165.35 303.6 166.45 301.85 167.7 299.9 169.15 301.6 170 302.4 171 303.2 171.9 303.7 170.75 304.7 168.2 306.2 167.3 306.75 166.1 307.55 165.1 308.2 164.15 308.8 161.15 310.85 160.05 311.6 161.7 309.15 163.3 306.8Z"/><animate attributeName="display" repeatCount="indefinite" dur="2.5s" keyTimes="0;.2;.217;1" values="none;inline;none;none"/></g><g display="none" id="Layer12_0_FILL"><path fill="#FFF" stroke="none" d="M132.1 329.2Q130.3 331.35 131.7 334.15 133.2 336.9 135.95 337.05 136.35 337.1 136.8 337.1 143.8 336.9 152.05 331.2 153.3 330.2 154.55 329.25 161.25 324.05 165.35 321.2 168.05 319.35 170.95 317.35 175.85 314.1 182.7 310.2 185.35 308.7 187.85 307.35 192.5 304.9 197.15 302.15 198.25 301.55 199.2 301 199.45 300.9 199.7 300.75L199.7 300.7Q200.15 300.4 200.6 300.15 202.7 299.05 203.3 297.6 203.35 297.4 203.4 297.15 203.55 296.75 203.6 296.35 203.8 295.5 203.5 294.35 202.9 292.25 201.25 291.15 199.9 290.25 198.05 290.65 196.4 291 194.9 291.5 190.45 293.05 188.95 293.55 188.85 293.55 188.7 293.6 184.95 294.6 182.4 294.55 181 294.55 180 294.15 178.95 293.8 178.15 293.1 176.3 291.4 176.65 288.2 176.8 287.15 177.1 286 177.6 284.1 178.25 282.3 178.8 280.85 179.55 279.45 179.6 279.3 179.65 279.2 180.55 277.6 181.1 276 181.1 275.9 181.15 275.75 181.55 274.7 181.4 273.75 181.35 273.25 181.1 272.75 181 272.45 180.85 272.1 180.15 271.05 179 270.5 178.95 270.45 178.9 270.45 178.35 270.1 177.75 269.95 176.65 269.65 175.65 269.85 174.95 269.95 174.3 270.2 173.1 270.7 172.25 271.7 171.8 272.3 171.35 273 170.2 274.85 169.15 276.85 167.15 280.4 165.1 283.65 162.1 288.6 158.75 293.3 156.15 297.4 153.4 301.45 149.55 307.25 145.35 313.05 138.4 322.6 132.6 328.55 132.3 328.9 132.1 329.2M163.15 307Q164.35 305.25 165.3 303.75 166.4 302 167.7 299.95 169.15 301.45 170.05 302.3 171.05 303.15 172 303.65 170.65 304.7 168.15 306.2 167.3 306.7 166 307.6 165 308.3 164 308.95 160.95 311.15 159.85 311.9 161.6 309.35 163.15 307Z"/><animate attributeName="display" repeatCount="indefinite" dur="2.5s" keyTimes="0;.183;.2;1" values="none;inline;none;none"/></g><g display="none" id="Layer11_0_FILL"><path fill="#FFF" stroke="none" d="M152.7 301.9Q148.85 307.6 144.55 313.55 137.35 323.55 131.75 329.35 131.45 329.65 131.2 329.95 129.35 332.15 130.85 335 132.3 337.75 135.1 337.9 135.5 337.95 135.95 337.9 142.95 337.7 151.4 332 152.65 331.05 153.95 330.1 160.65 325 164.85 322 167.6 320.1 170.5 318.05 175.35 314.75 182.25 310.7 184.9 309.2 187.45 307.8 191.85 305.45 196.75 302.5 197.85 301.85 198.8 301.25 199.05 301.15 199.3 301 199.8 300.7 200.2 300.4 202.3 299.25 202.95 297.9 203.05 297.65 203.15 297.45 203.3 297.1 203.4 296.7 203.7 295.8 203.5 294.75 203 292.6 201.4 291.4 200.05 290.4 198.25 290.7 196.65 290.9 195.1 291.5 190.6 293.05 189.1 293.5 188.95 293.55 188.85 293.55 185.1 294.55 182.5 294.5 181.1 294.5 180.05 294.1 178.95 293.7 178.2 293 176.25 291.25 176.65 288.1 176.8 287 177.1 285.85 177.6 283.95 178.3 282.15 178.9 280.65 179.6 279.25 179.65 279.15 179.7 279 180.65 277.35 181.1 275.75 181.1 275.6 181.15 275.5 181.45 274.45 181.25 273.55 181.1 273 180.9 272.55 180.75 272.2 180.55 271.95 179.8 270.9 178.6 270.45 178.55 270.4 178.55 270.35 177.95 270.1 177.3 270 176.25 269.8 175.3 270.05 174.65 270.2 174 270.5 172.8 271.05 172 272.1 171.55 272.7 171.15 273.4 169.95 275.3 168.9 277.3 166.8 280.85 164.65 284.15 161.65 288.9 158.15 293.7 155.55 297.65 152.7 301.9M159.55 312.25L159.5 312.25Q161.35 309.65 162.95 307.3 164.2 305.45 165.1 304.05 166.3 302.2 167.6 300.1 169.05 301.45 169.95 302.3 171 303.15 171.95 303.7 170.45 304.8 168 306.3 167.15 306.8 165.8 307.75 164.8 308.45 163.8 309.2 160.6 311.55 159.55 312.25Z"/><animate attributeName="display" repeatCount="indefinite" dur="2.5s" keyTimes="0;.167;.183;1" values="none;inline;none;none"/></g><g display="none" id="Layer10_0_FILL"><path fill="#FFF" stroke="none" d="M152.1 302.25Q148.25 307.9 143.85 314 136.4 324.45 131 330.05 130.7 330.4 130.45 330.7 128.55 332.9 130.05 335.75 131.5 338.55 134.35 338.7 134.8 338.7 135.2 338.7 142.2 338.45 150.85 332.75 152.15 331.8 153.45 330.9 160.15 325.85 164.5 322.8 167.3 320.8 170.2 318.75 174.95 315.4 181.95 311.2 184.55 309.65 187.15 308.2 191.3 305.95 196.45 302.75 197.55 302.1 198.5 301.5 198.75 301.35 199 301.2 199.5 300.9 199.9 300.6 202 299.4 202.75 298.1 202.85 297.9 202.95 297.7 203.15 297.35 203.3 296.95 203.7 296.1 203.6 295.05 203.25 292.95 201.7 291.6 200.35 290.5 198.55 290.65 197 290.8 195.35 291.4 190.9 292.95 189.3 293.4 189.2 293.45 189.1 293.5 185.35 294.45 182.65 294.4 181.25 294.4 180.2 294 179.1 293.6 178.3 292.9 176.3 291.1 176.75 287.9 176.9 286.8 177.2 285.65 177.75 283.75 178.45 281.95 179.1 280.45 179.8 279 179.85 278.9 179.9 278.75 180.9 277.1 181.2 275.45 181.2 275.3 181.25 275.2 181.45 274.15 181.15 273.25 181 272.7 180.75 272.25 180.6 271.95 180.4 271.7 179.55 270.7 178.3 270.35 178.3 270.3 178.25 270.25 177.65 270.05 177 270 175.95 269.9 175 270.25 174.4 270.45 173.75 270.75 172.65 271.4 171.85 272.45 171.4 273.05 171 273.75 169.8 275.7 168.7 277.7 166.55 281.25 164.35 284.55 161.35 289.2 157.65 294.05 155.05 297.85 152.1 302.25M159.35 312.6L159.3 312.6Q161.2 309.9 162.8 307.55 164.15 305.6 165 304.25 166.25 302.35 167.6 300.2 169.1 301.4 170 302.25 171.1 303.15 172.05 303.7 170.35 304.9 167.95 306.35 167.1 306.85 165.7 307.9 164.7 308.6 163.65 309.4 160.35 311.9 159.35 312.6Z"/><animate attributeName="display" repeatCount="indefinite" dur="2.5s" keyTimes="0;.15;.167;1" values="none;inline;none;none"/></g><g display="none" id="Layer9_0_FILL"><path fill="#FFF" stroke="none" d="M151.4 302.55Q147.6 308.15 143.15 314.4 135.4 325.3 130.2 330.75 129.9 331.05 129.65 331.35 127.7 333.6 129.2 336.5 130.7 339.3 133.6 339.4 134 339.45 134.45 339.4 141.4 339.15 150.25 333.45 151.55 332.55 152.9 331.6 159.65 326.7 164.1 323.5 166.95 321.5 169.8 319.35 174.5 315.95 181.55 311.6 184.2 310.05 186.8 308.5 190.7 306.4 196.1 302.95 197.2 302.25 198.15 301.65 198.4 301.5 198.65 301.35 199.15 301.05 199.55 300.75 201.7 299.55 202.5 298.3 202.6 298.1 202.75 297.9 202.95 297.55 203.15 297.2 203.65 296.35 203.6 295.3 203.45 293.25 201.9 291.75 200.6 290.5 198.85 290.6 197.25 290.65 195.6 291.25 191.15 292.8 189.5 293.3 189.35 293.35 189.25 293.35 185.5 294.35 182.8 294.25 181.4 294.25 180.3 293.8 179.2 293.4 178.4 292.7 176.3 290.85 176.8 287.7 176.95 286.6 177.3 285.4 177.8 283.5 178.55 281.65 179.2 280.15 179.95 278.7 180 278.6 180.05 278.45 181.05 276.75 181.25 275.1 181.25 274.95 181.3 274.85 181.4 273.75 181.05 272.9 180.85 272.4 180.55 271.95 180.35 271.65 180.15 271.4 179.25 270.45 178 270.15 177.95 270.15 177.95 270.1 177.3 269.95 176.65 269.95 175.6 269.9 174.7 270.35 174.1 270.6 173.5 270.95 172.4 271.65 171.65 272.75 171.2 273.35 170.8 274.1 169.6 276.05 168.45 278.05 166.3 281.6 164 284.9 161 289.4 157.1 294.35 154.55 298.05 151.4 302.55M159.05 312.9L159 312.9Q161 310.1 162.65 307.75 164.05 305.7 164.9 304.4 166.15 302.45 167.55 300.25 169.05 301.3 170 302.2 171.1 303.1 172.1 303.65 170.25 304.9 167.85 306.35 167 306.85 165.55 307.95 164.55 308.7 163.45 309.55 160.1 312.2 159.05 312.9Z"/><animate attributeName="display" repeatCount="indefinite" dur="2.5s" keyTimes="0;.133;.15;1" values="none;inline;none;none"/></g><g display="none" id="Layer8_0_FILL"><path fill="#FFF" stroke="none" d="M150.75 302.95Q146.95 308.5 142.4 314.9 134.45 326.25 129.45 331.5 129.1 331.85 128.85 332.15 126.85 334.4 128.35 337.3 129.9 340.15 132.8 340.25 133.25 340.25 133.7 340.25 140.6 339.95 149.65 334.3 151 333.35 152.35 332.45 159.15 327.65 163.7 324.35 166.6 322.25 169.45 320.1 174.05 316.65 181.2 312.15 183.8 310.55 186.45 308.95 190.1 306.95 195.75 303.25 196.85 302.55 197.85 301.95 198.1 301.8 198.35 301.65L198.35 301.6Q198.8 301.3 199.25 301.05 201.4 299.75 202.25 298.6 202.4 298.4 202.5 298.25L202.5 298.2Q202.8 297.85 203 297.5 203.6 296.7 203.65 295.65 203.65 293.65 202.15 292 200.85 290.65 199.1 290.65 197.55 290.6 195.85 291.2 191.4 292.75 189.65 293.3 189.55 293.3 189.45 293.35 185.7 294.3 182.9 294.25 181.5 294.2 180.4 293.75 179.3 293.35 178.45 292.65 176.35 290.75 176.85 287.6 177.05 286.45 177.35 285.3 177.9 283.35 178.65 281.5 179.35 280 180.1 278.55 180.15 278.4 180.2 278.3 181.25 276.55 181.35 274.85 181.35 274.7 181.35 274.6 181.4 273.5 180.95 272.65 180.7 272.15 180.35 271.75 180.15 271.45 179.95 271.2 178.95 270.35 177.65 270.1L177.6 270.05Q176.95 269.95 176.3 270 175.25 270.05 174.4 270.6 173.8 270.9 173.25 271.3 172.2 272.05 171.5 273.15 171.05 273.8 170.6 274.5 169.4 276.5 168.2 278.5 166.05 282.05 163.65 285.35 160.65 289.75 156.55 294.8 154 298.3 150.75 302.95M158.8 313.3L158.75 313.3Q160.85 310.4 162.45 308.1 164 305.9 164.8 304.65 166.05 302.7 167.5 300.4 169.05 301.3 170 302.2 171.15 303.15 172.15 303.7 170.1 305.05 167.75 306.45 166.95 306.95 165.4 308.15 164.4 308.9 163.25 309.8 159.85 312.6 158.8 313.3Z"/><animate attributeName="display" repeatCount="indefinite" dur="2.5s" keyTimes="0;.117;.133;1" values="none;inline;none;none"/></g><g display="none" id="Layer7_0_FILL"><path fill="#FFF" stroke="none" d="M128.05 332.85Q126 335.05 127.5 338 129.05 340.9 132 340.95 132.45 340.95 132.9 340.95 139.8 340.6 149.05 335 150.4 334.05 151.75 333.15 158.6 328.45 163.3 325.05 166.25 322.9 169.05 320.7 173.55 317.2 180.85 312.55 183.4 310.9 186.1 309.3 189.45 307.4 195.35 303.45 196.45 302.75 197.5 302.1 197.75 301.95 198 301.8L198 301.75Q198.45 301.45 198.9 301.2 201.05 299.85 202 298.75 202.15 298.6 202.25 298.45L202.25 298.4Q202.6 298.05 202.8 297.7 203.5 296.95 203.65 295.9 203.85 293.95 202.35 292.1 201.1 290.65 199.35 290.55 197.8 290.45 196.05 291.05 191.65 292.6 189.8 293.15 189.75 293.15 189.65 293.2 185.85 294.15 183 294.1 181.6 294 180.5 293.6 179.4 293.2 178.5 292.45 176.35 290.55 176.85 287.35 177.1 286.2 177.4 285.05 178 283.05 178.7 281.25 179.45 279.75 180.25 278.25 180.3 278.1 180.35 278 181.4 276.2 181.4 274.45 181.4 274.35 181.35 274.2 181.35 273.15 180.8 272.3 180.55 271.8 180.15 271.4 179.95 271.15 179.7 270.9 178.6 270.1 177.3 269.95 177.3 269.9 177.25 269.9 176.6 269.8 175.95 269.9 174.9 270.05 174.05 270.7 173.5 271.05 172.95 271.5 172 272.3 171.3 273.4 170.85 274.1 170.4 274.8 169.15 276.8 167.95 278.85 165.75 282.35 163.3 285.7 160.3 290 155.95 295.1 153.45 298.45 150.1 303.25 146.3 308.7 141.65 315.3 133.45 327.05 128.65 332.15 128.3 332.55 128.05 332.85M158.55 313.6L158.5 313.6Q160.65 310.6 162.25 308.3 163.9 306 164.65 304.8 165.95 302.8 167.4 300.4 169 301.15 170 302.1 171.15 303.1 172.2 303.65 169.95 305.05 167.6 306.45 166.85 306.9 165.25 308.2 164.2 309 163.05 309.95 159.55 312.85 158.55 313.6Z"/><animate attributeName="display" repeatCount="indefinite" dur="2.5s" keyTimes="0;.1;.117;1" values="none;inline;none;none"/></g><g display="none" id="Layer6_0_FILL"><path fill="#FFF" stroke="none" d="M127.2 333.6Q125.1 335.85 126.6 338.85 128.2 341.75 131.2 341.75 131.6 341.8 132.1 341.75 138.95 341.4 148.4 335.8 149.75 334.9 151.15 333.95 158.05 329.4 162.85 325.85 165.85 323.7 168.6 321.4 173.05 317.85 180.4 313.05 183 311.4 185.7 309.7 188.8 307.95 194.95 303.75 196.05 303 197.1 302.35 197.35 302.2 197.6 302.05L197.6 302Q198.05 301.7 198.5 301.45 200.7 300.1 201.7 299.05 201.85 298.9 202 298.75L202 298.7Q202.35 298.35 202.6 298.05 203.4 297.3 203.6 296.25 204 294.35 202.5 292.35 201.3 290.75 199.6 290.6 198 290.4 196.25 291 191.85 292.55 189.95 293.15 189.85 293.15 189.75 293.15 185.95 294.15 183.1 294.05 181.7 293.95 180.55 293.5 179.45 293.1 178.55 292.35 176.3 290.4 176.85 287.25 177.1 286.1 177.45 284.9 178 282.9 178.75 281.05 179.5 279.55 180.35 278.05 180.4 277.9 180.45 277.8 181.5 275.95 181.4 274.2 181.4 274.1 181.35 273.95 181.25 272.85 180.65 272.05 180.35 271.6 179.9 271.2 179.65 270.95 179.4 270.7 178.25 269.95 176.95 269.85L176.9 269.85Q176.2 269.8 175.55 269.95 174.5 270.15 173.7 270.9 173.15 271.3 172.65 271.8 171.7 272.65 171.05 273.8 170.6 274.5 170.15 275.25 168.9 277.25 167.65 279.3 165.45 282.8 162.9 286.15 159.9 290.3 155.35 295.5 152.9 298.75 149.35 303.65 145.6 309.05 140.9 315.8 132.4 328 127.8 332.95 127.45 333.3 127.2 333.6M158.2 314L158.15 314Q160.4 310.9 162.05 308.6 163.75 306.2 164.5 305.05 165.8 303 167.3 300.55 168.9 301.15 169.95 302.15 171.1 303.15 172.2 303.7 169.8 305.15 167.45 306.55 166.7 307 165.05 308.35 164 309.2 162.8 310.2 159.25 313.25 158.2 314Z"/><animate attributeName="display" repeatCount="indefinite" dur="2.5s" keyTimes="0;.083;.1;1" values="none;inline;none;none"/></g><g display="none" id="Layer5_0_FILL"><path fill="#FFF" stroke="none" d="M125.8 339.6Q127.4 342.55 130.45 342.55 130.9 342.55 131.35 342.55 138.2 342.15 147.85 336.55 149.25 335.65 150.65 334.75 157.55 330.25 162.5 326.65 165.55 324.4 168.3 322.1 172.65 318.5 180.1 313.55 182.65 311.85 185.4 310.1 188.25 308.45 194.65 304 195.75 303.25 196.8 302.6 197.05 302.4 197.3 302.25L197.3 302.2Q197.75 301.9 198.2 301.65 200.4 300.25 201.5 299.25 201.65 299.15 201.8 299L201.8 298.95Q202.2 298.6 202.5 298.3 203.4 297.6 203.7 296.55 204.25 294.7 202.8 292.55 201.6 290.85 199.9 290.55 198.35 290.3 196.5 290.9 192.15 292.45 190.15 293.05 190.1 293.05 190 293.1 186.2 294.05 183.25 293.95 181.85 293.85 180.7 293.4 179.6 293 178.65 292.25 176.35 290.25 176.95 287.05 177.2 285.9 177.55 284.7 178.15 282.7 178.9 280.85 179.7 279.35 180.55 277.8 180.6 277.65 180.65 277.55 181.75 275.7 181.5 273.9 181.5 273.8 181.45 273.65 181.25 272.55 180.55 271.75 180.25 271.3 179.75 270.9 179.5 270.7 179.25 270.45 178 269.75 176.65 269.75L176.6 269.75Q175.9 269.75 175.25 269.95 174.2 270.25 173.4 271.1 172.9 271.55 172.4 272.05 171.55 273 170.9 274.15 170.45 274.85 170 275.6 168.75 277.65 167.45 279.7 165.2 283.2 162.6 286.55 159.6 290.6 154.85 295.85 152.4 298.95 148.75 304 145 309.35 140.2 316.25 131.45 328.9 127.05 333.65 126.7 334.05 126.45 334.35 124.3 336.6 125.8 339.6M157.95 314.35Q160.25 311.15 161.9 308.85 163.7 306.35 164.4 305.25 165.75 303.15 167.3 300.65 168.95 301.1 170 302.1 171.2 303.15 172.3 303.7 169.7 305.25 167.4 306.6 166.65 307.05 164.95 308.5 163.9 309.35 162.65 310.4 159 313.6 158 314.35L157.95 314.35Z"/><animate attributeName="display" repeatCount="indefinite" dur="2.5s" keyTimes="0;.067;.083;1" values="none;inline;none;none"/></g><g display="none" id="Layer4_0_FILL"><path fill="#FFF" stroke="none" d="M125 340.35Q126.55 343.3 129.65 343.3 130.1 343.3 130.55 343.25 137.4 342.85 147.25 337.25 148.65 336.4 150.1 335.5 157 331.1 162.05 327.35 165.15 325.05 167.9 322.7 172.2 319.05 179.7 313.95 182.25 312.25 185.05 310.45 187.65 308.9 194.3 304.25 195.4 303.45 196.45 302.75 196.7 302.55 196.95 302.4 197.45 302.1 197.85 301.8 200.05 300.35 201.2 299.45 201.4 299.3 201.6 299.2L201.6 299.15Q202 298.85 202.35 298.55 203.35 297.8 203.75 296.85 204.4 294.95 203 292.7 201.8 290.9 200.15 290.5 198.65 290.1 196.75 290.8 192.35 292.35 190.35 292.9 190.25 292.95 190.2 292.95 186.4 293.9 183.4 293.8 182 293.7 180.8 293.25 179.65 292.8 178.75 292.05 176.35 290 177 286.85 177.25 285.65 177.6 284.45 178.2 282.45 179 280.6 179.85 279.05 180.65 277.5 180.7 277.4 180.75 277.25 181.9 275.35 181.55 273.55 181.55 273.4 181.5 273.3 181.2 272.2 180.45 271.45 180.05 270.95 179.6 270.6 179.3 270.35 179 270.2 177.7 269.5 176.3 269.6L176.3 269.55Q175.55 269.65 174.85 269.9 173.85 270.3 173.1 271.2 172.65 271.7 172.15 272.25 171.3 273.25 170.7 274.45 170.25 275.15 169.85 275.9 168.55 278 167.25 280.05 164.9 283.55 162.2 286.95 159.2 290.8 154.3 296.15 151.85 299.1 148.1 304.35 144.35 309.6 139.45 316.65 130.45 329.75 126.25 334.35 125.9 334.7 125.6 335 123.4 337.3 125 340.35M157.65 314.6Q160.05 311.35 161.75 309.05 163.6 306.45 164.25 305.45 165.7 303.25 167.25 300.7 168.9 301 169.95 302 171.2 303.05 172.3 303.65 169.55 305.25 167.3 306.6 166.55 307.05 164.8 308.55 163.75 309.4 162.5 310.55 158.7 313.9 157.75 314.6L157.65 314.6Z"/><animate attributeName="display" repeatCount="indefinite" dur="2.5s" keyTimes="0;.05;.067;1" values="none;inline;none;none"/></g><g display="none" id="Layer3_0_FILL"><path fill="#FFF" stroke="none" d="M161.85 287.4Q158.85 291.15 153.7 296.55 151.3 299.35 147.45 304.75 143.7 309.9 138.7 317.15 129.5 330.7 125.45 335.1 125.1 335.5 124.8 335.8 122.55 338.1 124.15 341.15 125.75 344.15 128.85 344.1 129.3 344.1 129.8 344.05 136.6 343.6 146.65 338.05 148.05 337.2 149.55 336.3 156.5 332.05 161.65 328.15 164.8 325.8 167.5 323.4 171.7 319.7 179.35 314.45 181.85 312.7 184.7 310.9 187 309.45 193.9 304.55 195.05 303.75 196.1 303 196.4 302.85 196.65 302.65 197.1 302.35 197.5 302.05 199.75 300.55 200.95 299.75 201.15 299.6 201.35 299.5L201.35 299.45Q201.8 299.15 202.15 298.85 203.25 298.15 203.75 297.2 204.6 295.35 203.2 292.9 202.05 291 200.4 290.55 198.9 290.05 197 290.75 192.6 292.3 190.5 292.9 190.45 292.9 190.4 292.9 186.55 293.85 183.5 293.75 182.1 293.65 180.9 293.2 179.75 292.75 178.8 291.95 176.35 289.9 177 286.75 177.3 285.5 177.65 284.35 178.3 282.3 179.1 280.45 179.95 278.9 180.8 277.35 180.85 277.2 180.9 277.05 182.05 275.1 181.65 273.3 181.6 273.15 181.55 273 181.2 271.95 180.35 271.2 179.9 270.7 179.4 270.4 179.1 270.15 178.75 270 177.4 269.4 175.95 269.55L175.95 269.5Q175.2 269.6 174.5 269.9 173.5 270.4 172.8 271.4 172.35 271.95 171.9 272.55 171.1 273.6 170.5 274.8 170.1 275.6 169.65 276.3 168.35 278.4 167 280.5 164.65 284 161.85 287.4M157.5 315L157.4 315Q159.9 311.65 161.55 309.35 163.5 306.65 164.15 305.7 165.6 303.5 167.2 300.85 168.85 300.95 169.95 302 171.2 303.1 172.35 303.7 169.4 305.35 167.2 306.7 166.5 307.1 164.65 308.7 163.6 309.6 162.3 310.8 158.45 314.3 157.5 315Z"/><animate attributeName="display" repeatCount="indefinite" dur="2.5s" keyTimes="0;.033;.05;1" values="none;inline;none;none"/></g><g display="none" id="Layer2_0_FILL"><path fill="#FFF" stroke="none" d="M161.5 287.8Q158.5 291.4 153.15 296.9 150.8 299.6 146.75 305.1 143.05 310.2 138 317.6 128.5 331.6 124.65 335.85 124.3 336.2 124 336.5 121.7 338.85 123.3 341.95 124.9 344.95 128.1 344.9 128.55 344.9 129 344.85 135.8 344.35 146.05 338.8 147.5 338 149 337.1 155.95 332.9 161.25 328.95 164.45 326.55 167.15 324.1 171.25 320.35 178.95 314.95 181.5 313.15 184.35 311.25 186.4 309.95 193.55 304.8 194.7 303.95 195.75 303.25 196.05 303.05 196.3 302.85 196.75 302.55 197.15 302.25 199.4 300.75 200.7 299.95 200.9 299.85 201.15 299.75L201.15 299.7Q201.6 299.4 202 299.15 203.2 298.45 203.8 297.5 204.8 295.7 203.45 293.1 202.3 291.1 200.7 290.5 199.2 289.95 197.2 290.65 192.85 292.2 190.7 292.8 190.6 292.85 190.55 292.85 186.75 293.8 183.65 293.65 182.25 293.55 181 293.05 179.85 292.6 178.9 291.85 176.35 289.7 177.05 286.55 177.35 285.35 177.75 284.15 178.35 282.1 179.2 280.2 180.1 278.65 180.95 277.1 181 276.95 181.05 276.8 182.25 274.85 181.7 273 181.65 272.85 181.6 272.7 181.15 271.6 180.2 270.9 179.75 270.45 179.2 270.1 178.85 269.9 178.55 269.75 177.1 269.2 175.65 269.4 174.85 269.55 174.15 269.9 173.15 270.5 172.45 271.6 172.05 272.2 171.6 272.8 170.85 273.95 170.3 275.15 169.9 275.95 169.45 276.7 168.15 278.8 166.75 280.9 164.35 284.4 161.5 287.8M157.2 315.35L157.1 315.35Q159.7 311.9 161.4 309.6 163.4 306.8 164 305.9 165.5 303.65 167.15 300.95 168.85 300.9 169.95 302 171.25 303.1 172.4 303.7 169.3 305.45 167.1 306.75 166.4 307.15 164.5 308.85 163.45 309.75 162.1 311 158.15 314.65 157.2 315.35Z"/><animate attributeName="display" repeatCount="indefinite" dur="2.5s" keyTimes="0;.017;.033;1" values="none;inline;none;none"/></g><g id="Layer1_0_FILL"><path fill="#FFF" stroke="none" d="M137.25 318Q126.55 333.8 123.2 337.2 120.85 339.55 122.45 342.65 124.05 345.7 127.3 345.6 135.15 345.45 148.45 337.8 159.7 331.3 166.75 324.7 172.1 319.7 184 311.6 185.8 310.4 193.2 305 198.15 301.35 200.45 300.15 200.65 300.05 200.9 299.95L200.9 299.9Q201.4 299.6 201.85 299.35 205.7 297.45 203.65 293.25 201.55 289.1 197.45 290.5 193 292.1 190.75 292.7 186.9 293.65 183.75 293.5 181.1 293.35 178.95 291.65 176.35 289.5 177.1 286.35 177.9 282.95 179.3 279.95 180.25 278.25 181.2 276.5 182.4 274.5 181.75 272.65 181.25 271.35 180.1 270.55 179.6 270.1 179 269.8 177.15 268.85 175.3 269.25 173.25 269.7 172.15 271.7 171 273.5 170.1 275.45 166.5 282 161.15 288.15 158.15 291.65 152.6 297.2 148.1 302 137.25 318M161.9 311.15Q157.75 315.05 156.85 315.65 162.85 307.6 163.9 306.05 165.8 303.1 168.05 299.45 168.9 301 170.25 302.2 171.25 303.05 172.45 303.65 169.45 305.3 167 306.75 165.9 307.4 161.9 311.15Z"/><animate attributeName="display" repeatCount="indefinite" dur="2.5s" keyTimes="0;.017;1" values="inline;none;none"/></g></g></svg>